<?xml version="1.0" standalone="no"?>
<!DOCTYPE svg PUBLIC "-//W3C//DTD SVG 20010904//EN"
 "http://www.w3.org/TR/2001/REC-SVG-20010904/DTD/svg10.dtd">
<svg version="1.0" xmlns="http://www.w3.org/2000/svg"
 width="200.000000pt" height="200.000000pt" viewBox="0 0 200.000000 200.000000"
 preserveAspectRatio="xMidYMid meet">
<metadata>
Created by potrace 1.10, written by Peter Selinger 2001-2011
</metadata>
<g transform="translate(0.000000,200.000000) scale(0.100000,-0.100000)"
fill="#000000" stroke="none">
<path d="M1303 1918 c-12 -6 -27 -23 -33 -37 -6 -15 -41 -57 -78 -92 l-68 -65
-34 14 c-27 12 -78 15 -235 13 -210 -2 -262 -6 -282 -23 -29 -24 -1 -76 60
-115 l40 -25 -53 -19 c-117 -41 -216 -150 -262 -288 -20 -61 -22 -84 -21 -296
3 -497 43 -695 152 -759 61 -35 143 -22 406 67 597 203 808 394 780 705 -4 42
-13 88 -20 102 l-13 25 54 1 c65 2 104 24 104 59 0 15 -17 44 -44 74 -29 33
-51 71 -66 115 -12 37 -33 80 -46 95 -25 30 -99 66 -115 56 -5 -4 -9 -4 -9 -2
0 2 26 23 59 45 98 69 112 134 44 204 -40 42 -81 38 -131 -13 l-40 -40 -12 38
c-21 62 -60 137 -84 155 -24 20 -24 20 -53 6z m67 -90 c31 -73 41 -105 49
-158 l6 -45 53 68 c59 74 84 83 119 45 49 -55 36 -88 -53 -143 -36 -22 -86
-59 -112 -83 l-47 -42 49 6 c67 9 65 9 120 0 43 -8 51 -14 77 -55 16 -25 34
-64 40 -86 15 -55 45 -111 64 -118 17 -7 20 -42 5 -52 -10 -6 -141 10 -185 22
-17 5 -17 2 6 -23 30 -33 43 -55 62 -111 13 -39 14 -71 2 -167 -15 -119 -118
-261 -244 -336 -153 -91 -522 -235 -733 -286 -60 -15 -76 -15 -107 -4 -95 33
-119 97 -145 390 -17 185 -20 458 -6 535 27 146 78 239 166 302 51 35 89 50
174 68 l55 11 -75 50 c-51 34 -75 56 -75 69 0 18 8 20 75 22 41 0 131 4 200 8
125 7 125 7 182 -22 l57 -29 12 27 c6 16 38 55 70 88 32 32 59 63 59 68 0 15
23 33 41 33 10 0 25 -19 39 -52z m-768 -130 c-7 -7 -12 -8 -12 -2 0 14 12 26
19 19 2 -3 -1 -11 -7 -17z"/>
</g>
</svg>
