<?xml version="1.0" encoding="UTF-8" standalone="no"?>
<!-- Created with Inkscape (http://www.inkscape.org/) -->

<svg
   version="1.1"
   id="svg1"
   width="512"
   height="512"
   viewBox="0 0 512 512"
   sodipodi:docname="banana-outline-white.svg"
   inkscape:version="1.3 (0e150ed6c4, 2023-07-21)"
   xmlns:inkscape="http://www.inkscape.org/namespaces/inkscape"
   xmlns:sodipodi="http://sodipodi.sourceforge.net/DTD/sodipodi-0.dtd"
   xmlns="http://www.w3.org/2000/svg"
   xmlns:svg="http://www.w3.org/2000/svg">
  <defs
     id="defs1" />
  <sodipodi:namedview
     id="namedview1"
     pagecolor="#ffffff"
     bordercolor="#000000"
     borderopacity="0.25"
     inkscape:showpageshadow="2"
     inkscape:pageopacity="0.0"
     inkscape:pagecheckerboard="0"
     inkscape:deskcolor="#d1d1d1"
     inkscape:zoom="1.359375"
     inkscape:cx="255.63218"
     inkscape:cy="255.63218"
     inkscape:window-width="1647"
     inkscape:window-height="1237"
     inkscape:window-x="1083"
     inkscape:window-y="67"
     inkscape:window-maximized="0"
     inkscape:current-layer="svg1" />
  <path
     style="fill:#ffffff;stroke:none;fill-opacity:1"
     d="m 146.74904,510.4441 c -10.09888,-1.57201 -26.7577,-6.9123 -35.92053,-11.51499 -3.48068,-1.74842 -9.78117,-5.54902 -14.00108,-8.44577 -5.292385,-3.63295 -10.721238,-6.27049 -17.5,-8.50215 C 60.836494,475.89371 60,474.423 60,448 c 0,-26.05669 1.017636,-27.96025 17.91436,-33.51001 l 8.41436,-2.76371 -6.330705,-2.37991 C 60.039491,401.84334 41.257373,388.59601 28.544712,373.05551 24.444711,368.0435 19.833541,363.92246 13.743308,359.8274 -1.4278198,349.62636 -2.0549348,347.10925 4.6125045,323.17832 c 2.6881225,-9.64828 5.7890245,-18.89859 6.8908935,-20.55625 3.582053,-5.38888 7.663923,-6.95382 19.930601,-7.64114 10.536748,-0.59039 11.520357,-0.8405 20.566001,-5.22947 16.446387,-7.97983 35.251326,-11.41884 57,-10.42406 6.875,0.31446 23.3,2.13261 36.5,4.04032 40.86639,5.90618 60.09776,7.27141 80,5.67919 24.41898,-1.95357 41.92829,-6.5807 59.91461,-15.83346 29.50057,-15.17605 49.06781,-39.24011 78.79089,-96.89808 5.43939,-10.55154 12.74792,-25.73072 16.24118,-33.7315 6.98773,-16.00438 12.96042,-25.23663 20.26377,-31.3226 5.91791,-4.93148 14.1183,-9.50418 21.03955,-11.732071 2.8875,-0.929463 5.25183,-2.216267 5.25407,-2.859566 0.034,-9.789686 6.65386,-78.523839 8.08303,-83.926764 1.28396,-4.8539634 6.84493,-10.3782051 11.78674,-11.7088965 7.31978,-1.97101208 32.85583,3.019359 38.87721,7.59756 7.0809,5.3837825 7.86946,11.9769515 3.28012,27.4252485 -3.9719,13.369935 -7.82033,33.464008 -9.55731,49.902325 l -1.42218,13.459107 3.47762,2.866547 c 6.60309,5.44282 15.77723,20.25677 20.41337,32.96249 6.71248,18.3961 9.16698,32.25282 9.78714,55.25275 1.67243,62.02503 -10.10446,120.49243 -33.77228,167.66555 C 434.65787,444.46751 352.56199,495.24543 235,508.43956 c -31.93834,3.58448 -72.22284,4.49951 -88.25096,2.00454 z m 82.23371,-17.91676 c 7.96551,-0.88884 22.14051,-2.92488 31.5,-4.52453 C 401.82685,463.8454 482.06551,376.388 493.97886,233.5 c 1.60777,-19.28347 1.29117,-55.55884 -0.58102,-66.57378 -4.0084,-23.58315 -13.76503,-44.97553 -24.31298,-53.30863 L 465.5,110.78548 452,111.33204 c -21.11423,0.85484 -32.2704,4.80896 -42.59233,15.09614 -4.19308,4.17896 -7.24061,8.45927 -9.77569,13.73015 C 395.36536,149.0294 390.18051,168.2888 386.48327,189 375.50094,250.52073 364.474,287.11559 350.20319,309.40184 328.13614,343.86323 294.05611,366.24785 245,378.50195 c -17.10999,4.27403 -30.66931,6.66174 -59.5,10.47756 -24.79438,3.2816 -31.01308,4.34305 -39.44581,6.7329 -11.84126,3.35584 -26.17921,10.60386 -36.88599,18.64637 -4.15893,3.12401 -5.21718,4.45997 -4.81073,6.07313 0.28659,1.13745 1.70784,6.34309 3.15833,11.56809 2.33091,8.39646 2.58724,10.83586 2.20668,21 -0.32773,8.75332 -0.96639,12.8897 -2.674,17.31848 -2.68422,6.96173 -3.12966,6.40558 10.45152,13.04918 10.44161,5.10779 19.73863,8.29228 29.83414,10.219 9.72632,1.85627 61.54502,1.18396 81.64861,-1.05932 z m -72.05967,-43.45042 c -3.52066,-3.52066 -3.75087,-7.07384 -0.67308,-10.38871 2.17687,-2.34455 2.96509,-2.46088 24.25,-3.57895 31.13869,-1.63569 48.87589,-4.16177 74.55496,-10.61792 48.41831,-12.17316 92.31141,-36.43014 117.09483,-64.71099 C 415.59418,310.20511 441.61827,244.37826 443.61978,179 c 0.29466,-9.625 0.98117,-18.67913 1.52557,-20.12028 1.81991,-4.81769 7.89083,-6.2123 12.21979,-2.80714 L 460,158.14516 v 16.18355 c 0,73.87613 -32.20138,152.7105 -83.21488,203.72401 -41.5107,41.5107 -105.00635,66.79178 -183.18034,72.93408 -7.09237,0.55726 -17.58948,1.0132 -23.32692,1.0132 -10.19645,0 -10.49763,-0.0659 -13.35478,-2.92308 z M 92.112826,462.27576 C 94.996518,452.34779 92.642287,429 88.757525,429 c -0.594957,0 -3.483792,0.75718 -6.419633,1.68262 L 77,432.36524 v 15.62484 15.62483 l 6.25,2.04263 c 3.4375,1.12345 6.525772,1.89668 6.862826,1.71831 0.337055,-0.17838 1.237055,-2.47342 2,-5.10009 z m 17.261004,-67.72959 c 12.34103,-7.69182 28.09561,-13.92166 42.85878,-16.94766 3.99707,-0.81927 19.19239,-3.10443 33.76739,-5.07812 42.96813,-5.81857 67.19721,-11.44581 88.11932,-20.46582 36.22756,-15.61856 61.56145,-41.4175 74.55471,-75.92331 5.45018,-14.47387 18.34457,-64.446 16.98096,-65.8096 -0.23699,-0.23699 -3.6561,4.88119 -7.59804,11.37373 -21.08121,34.72166 -39.22496,53.06085 -66.0069,66.71791 C 268.09902,300.62678 242.93254,306 209.67951,306 c -18.55881,0 -37.41136,-1.80226 -69.84637,-6.67715 -37.9861,-5.70921 -54.587666,-4.93549 -76.83314,3.58078 -8.129724,3.11232 -7.852916,2.6777 -6.672215,10.47613 2.337624,15.43984 -2.524375,30.95889 -14.812475,47.28004 -0.724178,0.96186 0.598634,2.91923 5,7.39853 12.284084,12.50157 27.561784,21.95354 45.063391,27.87969 4.906714,1.66144 9.310089,3.03007 9.785279,3.04139 0.47519,0.0113 4.07962,-1.98363 8.00985,-4.43324 z M 128.5,357.31816 c -13.34054,-1.69946 -25.76457,-3.76533 -35.5,-5.90293 -14.792798,-3.24805 -18.226416,-6.43467 -14.87028,-13.80059 1.985476,-4.35764 5.513081,-5.01029 14.991661,-2.77361 9.458959,2.23204 30.110719,5.67132 39.878619,6.64125 3.575,0.35499 7.26981,1.21588 8.21069,1.91308 2.5466,1.88706 3.89774,6.18925 2.82768,9.00373 -1.85536,4.87994 -5.86967,6.15078 -15.53837,4.91907 z M 36.754478,338 c 2.366312,-4.8653 2.679078,-6.70234 2.710265,-15.91883 L 39.5,311.66235 l -6.994446,0.2466 c -3.846945,0.13564 -7.124166,0.37633 -7.282713,0.53488 -0.588507,0.5885 -8.213935,28.08064 -7.973084,28.74555 0.137634,0.37996 2.725243,2.50087 5.750243,4.71314 l 5.5,4.02232 2.789735,-3.21242 C 32.824089,344.94559 35.283223,341.025 36.754478,338 Z M 459.03019,94 c 2.64501,0 2.75961,-0.226421 3.41625,-6.75 1.98789,-19.749143 5.72093,-39.252478 10.9122,-57.010964 1.32819,-4.543531 2.12835,-8.425171 1.77813,-8.625868 -1.33575,-0.765459 -13.86202,-3.557191 -18.77951,-4.185394 l -5.14274,-0.656978 -0.62112,3.864602 c -0.98989,6.159137 -5.41777,51.801002 -6.18679,63.772427 l -0.70069,10.907825 6.29373,-0.657825 C 453.4612,94.296021 457.52495,94 459.03019,94 Z"
     id="path1" />
</svg>
