<?xml version="1.0" encoding="UTF-8" standalone="no"?>
<!-- Created with Inkscape (http://www.inkscape.org/) -->

<svg
   version="1.1"
   id="svg1"
   width="512"
   height="512"
   viewBox="0 0 512 512"
   sodipodi:docname="banana-filled.svg"
   inkscape:version="1.3 (0e150ed6c4, 2023-07-21)"
   xmlns:inkscape="http://www.inkscape.org/namespaces/inkscape"
   xmlns:sodipodi="http://sodipodi.sourceforge.net/DTD/sodipodi-0.dtd"
   xmlns="http://www.w3.org/2000/svg"
   xmlns:svg="http://www.w3.org/2000/svg">
  <defs
     id="defs1" />
  <sodipodi:namedview
     id="namedview1"
     pagecolor="#ffffff"
     bordercolor="#000000"
     borderopacity="0.25"
     inkscape:showpageshadow="2"
     inkscape:pageopacity="0.0"
     inkscape:pagecheckerboard="0"
     inkscape:deskcolor="#d1d1d1"
     inkscape:zoom="1.359375"
     inkscape:cx="255.63218"
     inkscape:cy="255.63218"
     inkscape:window-width="1647"
     inkscape:window-height="1237"
     inkscape:window-x="1083"
     inkscape:window-y="67"
     inkscape:window-maximized="0"
     inkscape:current-layer="svg1" />
  <path
     style="fill:#aad400;fill-opacity:1;stroke:none;stroke-width:0.735632"
     d="m 92.321839,395.70539 c -9.662734,-3.32037 -20.647693,-8.7341 -28.836579,-14.21156 -6.88068,-4.60241 -20.438366,-16.8381 -21.153303,-19.09067 -0.260442,-0.82058 1.060137,-3.53162 3.60307,-7.39682 8.9501,-13.60392 12.681865,-28.01577 10.77001,-41.59313 -1.00241,-7.11879 -0.854161,-7.32293 7.662779,-10.55189 12.18136,-4.61822 23.978741,-6.76937 37.124714,-6.76937 10.09597,0 18.18453,0.81548 43.79483,4.41535 33.82592,4.75468 41.86502,5.42868 64.73563,5.42745 27.82992,-0.001 41.62132,-1.95037 62.3146,-8.80575 9.61855,-3.18649 25.85884,-11.15771 34.78885,-17.07542 19.15424,-12.69308 31.83055,-27.27722 53.92919,-62.04575 l 3.9062,-6.14576 -0.48205,3.66117 c -1.48118,11.24942 -13.42253,53.87753 -18.27528,65.23894 -17.36182,40.64801 -50.82869,67.34063 -100.87117,80.45317 -16.72668,4.38286 -27.47448,6.30848 -67.68956,12.12756 -13.7626,1.99144 -28.27498,4.46575 -32.24975,5.49848 -12.25109,3.18311 -25.06648,8.69322 -38.34786,16.48808 -2.82577,1.65845 -5.63956,2.99024 -6.25288,2.95955 -0.61331,-0.0307 -4.425464,-1.19333 -8.471441,-2.58363 z m 49.926531,-39.9357 c 2.323,-2.18349 3.03122,-5.23136 1.96574,-8.4598 -1.47846,-4.47976 -2.41691,-4.84276 -18.55789,-7.17837 -8.21896,-1.18929 -19.89852,-3.15687 -25.954553,-4.3724 -16.559488,-3.32373 -19.351079,-3.12436 -21.736992,1.55242 -1.758483,3.44691 -1.846463,5.71586 -0.306868,7.91393 2.985287,4.2621 10.911677,6.32287 45.560583,11.84527 2.42759,0.38691 7.28411,0.64566 10.79228,0.57499 5.60423,-0.11289 6.60416,-0.34062 8.2377,-1.87604 z"
     id="path2" />
  <path
     style="fill:#aad400;fill-opacity:1;stroke:none;stroke-width:0.735632"
     d="m 22.634626,345.16104 c -5.777427,-4.46611 -5.699008,-2.39871 -0.759062,-20.01161 1.81566,-6.47357 3.677808,-12.01333 4.138106,-12.31058 0.460298,-0.29725 3.598978,-0.54553 6.974847,-0.55172 l 6.137941,-0.0113 -0.26355,10.48276 c -0.258438,10.27938 -0.313232,10.58062 -2.82431,15.52688 -2.43273,4.79193 -6.89407,10.81156 -7.95799,10.73761 -0.27192,-0.0189 -2.722613,-1.75683 -5.445982,-3.86207 z"
     id="path3" />
  <path
     style="fill:#aad400;fill-opacity:1;stroke:none;stroke-width:0.735632"
     d="m 82.758621,465.03643 -5.149426,-1.64804 v -15.38703 -15.38702 l 5.503766,-1.67368 c 4.336453,-1.31871 5.681159,-1.48137 6.340158,-0.76694 1.828507,1.9823 2.662777,6.52345 3.043101,16.56437 0.326231,8.61285 0.165809,11.36608 -0.88941,15.26437 -1.479306,5.465 -1.369698,5.42742 -8.848189,3.03397 z"
     id="path4" />
  <path
     style="fill:#aad400;fill-opacity:1;stroke:none;stroke-width:0.735632"
     d="m 148.96552,493.49418 c -9.40428,-1.49851 -22.07016,-5.93169 -33.87817,-11.85767 -9.77057,-4.90347 -9.83222,-4.98827 -7.77667,-10.69558 1.99765,-5.54655 3.34779,-18.53769 2.76646,-26.61909 -0.23283,-3.23678 -1.58054,-10.17936 -2.9949,-15.42795 l -2.57158,-9.54289 1.62973,-1.77968 c 2.49656,-2.72627 14.03721,-10.13415 22.12552,-14.20226 14.86496,-7.47648 22.20048,-9.17484 66.3088,-15.35206 23.94496,-3.35342 35.72588,-5.50511 50.74011,-9.2673 55.42667,-13.88852 92.54434,-41.18754 112.54055,-82.77044 10.32235,-21.46574 18.66174,-51.68208 27.98659,-101.40455 9.14707,-48.77444 15.51885,-63.59076 31.9008,-74.17892 8.94793,-5.78332 18.00279,-7.93736 36.61042,-8.70913 l 11.1348,-0.46183 3.05439,2.50253 c 11.4991,9.42144 22.66165,35.60843 25.05506,58.77839 0.94704,9.16802 0.93741,49.43634 -0.0145,60.68965 -7.9745,94.27163 -45.09559,163.90891 -110.96508,208.16485 -40.81096,27.41978 -90.95057,43.75056 -157.14658,51.1836 -7.29287,0.8189 -72.26557,1.62597 -76.50574,0.95033 z m 44.95064,-42.19476 c 51.30291,-4.03752 98.50381,-16.99146 134.54361,-36.92454 19.065,-10.54457 34.58597,-22.1373 48.94857,-36.56008 44.03065,-44.21515 73.58913,-107.63111 81.29451,-174.4125 0.77291,-6.69874 1.26875,-17.22048 1.33291,-28.28477 l 0.10217,-17.61811 -2.49959,-1.69224 c -4.6016,-3.11531 -10.98819,-1.83532 -12.64989,2.53527 -0.39148,1.02967 -1.03708,8.19627 -1.43468,15.92576 -2.20071,42.7839 -8.96288,73.84337 -23.45133,107.71495 -12.40913,29.01052 -29.90155,56.93863 -48.74278,77.82197 -34.16259,37.86531 -95.13064,65.14778 -162.44012,72.68999 -5.46207,0.61204 -18.23822,1.61798 -28.39144,2.23541 -10.15323,0.61743 -19.51144,1.3328 -20.79602,1.58972 -2.79363,0.55873 -5.98495,4.09042 -5.98495,6.6233 0,2.46918 1.76807,5.70794 4.13048,7.56621 1.80364,1.41874 2.89353,1.53622 14.2527,1.53622 6.76484,0 16.56847,-0.33595 21.78585,-0.74656 z"
     id="path5" />
  <path
     style="fill:#aad400;fill-opacity:1;stroke:none;stroke-width:0.735632"
     d="m 444.60878,87.066831 c 1.15012,-17.246874 5.95195,-65.77103 6.77781,-68.492118 0.21489,-0.708046 0.85322,-1.287357 1.41851,-1.287357 1.43536,0 14.81329,2.622119 18.65308,3.656067 3.83984,1.033963 3.86086,0.380972 -0.55237,17.166877 -3.57294,13.589795 -6.15951,27.296302 -8.12935,43.078163 -0.77597,6.216873 -1.68708,11.560572 -2.02469,11.874886 -0.33761,0.314321 -4.22221,0.807864 -8.63244,1.096761 l -8.0186,0.525279 z"
     id="path6" />
</svg>
