<?xml version="1.0" encoding="UTF-8" standalone="no"?>
<!-- Created with Inkscape (http://www.inkscape.org/) -->

<svg
   version="1.1"
   id="svg1"
   width="512"
   height="512"
   viewBox="0 0 512 512"
   sodipodi:docname="carrot-filled.svg"
   inkscape:version="1.3 (0e150ed6c4, 2023-07-21)"
   xmlns:inkscape="http://www.inkscape.org/namespaces/inkscape"
   xmlns:sodipodi="http://sodipodi.sourceforge.net/DTD/sodipodi-0.dtd"
   xmlns="http://www.w3.org/2000/svg"
   xmlns:svg="http://www.w3.org/2000/svg">
  <defs
     id="defs1" />
  <sodipodi:namedview
     id="namedview1"
     pagecolor="#ffffff"
     bordercolor="#000000"
     borderopacity="0.25"
     inkscape:showpageshadow="2"
     inkscape:pageopacity="0.0"
     inkscape:pagecheckerboard="0"
     inkscape:deskcolor="#d1d1d1"
     inkscape:zoom="1.1455078"
     inkscape:cx="232.21142"
     inkscape:cy="210.82353"
     inkscape:window-width="1350"
     inkscape:window-height="1237"
     inkscape:window-x="987"
     inkscape:window-y="71"
     inkscape:window-maximized="0"
     inkscape:current-layer="svg1" />
  <path
     style="fill:#aad400;fill-opacity:1;stroke:none;stroke-width:0.872975"
     d="m 248.36147,493.78528 c -7.77997,-2.05121 -15.28427,-7.90863 -19.08956,-14.9002 -1.79629,-3.30038 -3.09627,-8.12643 -4.90415,-18.20626 -3.22243,-17.96654 -8.13358,-49.97126 -7.73006,-50.37478 0.17426,-0.17425 6.1852,-0.60212 13.35766,-0.95082 11.99819,-0.58331 13.20137,-0.79454 15.04874,-2.64191 2.79012,-2.79013 2.7445,-8.11691 -0.0978,-11.42308 l -2.10573,-2.44936 -14.693,-0.43648 -14.693,-0.43649 -0.65918,-4.36488 c -0.36256,-2.40068 -4.20197,-27.93521 -8.53202,-56.74339 -4.33006,-28.80818 -8.09396,-53.45882 -8.36421,-54.7792 l -0.49138,-2.40068 12.94575,-0.0471 c 18.64978,-0.0678 26.42731,-1.0107 28.39654,-3.4426 1.71948,-2.12346 2.11217,-7.83787 0.71767,-10.44351 -1.56599,-2.92609 -6.07331,-3.66006 -25.56833,-4.16357 -18.40741,-0.47542 -19.01548,-0.54833 -19.41415,-2.32746 -0.22635,-1.01016 -1.77635,-11.06837 -3.44443,-22.35158 -5.75857,-38.95204 -5.92692,-47.33317 -1.2362,-61.54476 6.25372,-18.94703 19.80564,-33.86306 39.23151,-43.18046 10.61917,-5.09337 17.86478,-6.41283 32.23756,-5.87065 13.23961,0.49944 18.51801,1.86356 29.7588,7.69065 13.4413,6.96781 24.06841,17.89897 30.87441,31.75774 4.99775,10.1767 6.56381,16.21132 7.19296,27.71696 l 0.51315,9.38448 h -20.5195 -20.5195 l -2.30149,2.30149 c -2.77658,2.77658 -3.12494,7.83683 -0.74209,10.77953 2.24242,2.76927 7.11434,3.4243 25.79046,3.4675 l 16.43764,0.038 -0.49962,2.40068 c -0.27479,1.32037 -1.69526,10.45388 -3.15658,20.29667 -5.10959,34.41562 -13.10225,85.99743 -13.49305,87.07929 -0.29395,0.81374 -4.1193,1.09223 -15.04392,1.09519 -8.05735,0.002 -19.10062,0.26041 -24.54059,0.57387 -9.13543,0.52636 -9.99463,0.72826 -11.24948,2.6434 -2.06589,3.15295 -1.77394,8.97901 0.544,10.85597 2.55071,2.06544 5.94921,2.44582 28.47008,3.18654 l 19.22242,0.63224 -8.03124,52.815 c -12.04242,79.19325 -12.93242,83.20963 -20.00614,90.28335 -5.71392,5.71393 -11.63425,8.30703 -20.04617,8.78025 -3.8213,0.21497 -8.12633,0.0801 -9.56674,-0.29963 z"
     id="path2" />
  <path
     style="fill:#aad400;fill-opacity:1;stroke:none;stroke-width:0.872975"
     d="m 231.12626,104.63283 c -0.23731,-0.41182 -0.71229,-2.30186 -1.0555,-4.20007 -0.89789,-4.965931 -3.51625,-9.637718 -6.6537,-11.871779 -2.03824,-1.45135 -4.73267,-2.135325 -10.71371,-2.719649 -9.89359,-0.966566 -13.34184,-2.04043 -15.08253,-4.69706 -1.9296,-2.944955 -0.92372,-6.306043 3.64997,-12.196047 2.13312,-2.747038 3.8784,-5.849658 3.8784,-6.894709 0,-1.045052 -1.76777,-4.591582 -3.92839,-7.881177 -3.67233,-5.591222 -3.92839,-6.363288 -3.92839,-11.844746 0,-4.743112 0.37392,-6.344932 1.95668,-8.382072 2.68749,-3.459034 4.88521,-5.205364 8.7981,-6.991048 2.96865,-1.354776 4.04202,-1.402837 9.78368,-0.438068 7.48827,1.258251 8.29355,0.992026 14.5614,-4.81397 4.92312,-4.560359 6.51195,-4.695917 13.92662,-1.188205 7.30173,3.454287 11.90593,3.454617 19.20546,0.0014 7.75138,-3.667008 9.26195,-3.472037 15.2125,1.963505 4.98131,4.550186 5.05239,4.580556 9.89132,4.22626 11.32266,-0.82902 12.84584,-0.6371 16.72663,2.10754 6.04387,4.274451 7.35279,6.662147 7.35279,13.412812 0,5.429718 -0.27783,6.295641 -3.71015,11.563768 -4.66575,7.161265 -4.70631,9.358177 -0.27879,15.097069 4.4951,5.82648 5.44755,8.385218 4.12318,11.076759 -1.52527,3.099833 -6.02896,4.951547 -13.53732,5.565934 -9.2906,0.760223 -10.18952,1.021434 -13.49117,3.920323 -3.15223,2.7677 -5.41021,7.265761 -6.25994,12.47028 -0.29396,1.80052 -0.84553,3.27366 -1.22571,3.27366 -0.38018,0 -4.5854,-0.58694 -9.34493,-1.30432 -12.74975,-1.92169 -20.09019,-1.7392 -35.82453,0.89062 -1.98027,0.33098 -3.79466,0.26483 -4.03197,-0.14699 z"
     id="path3" />
</svg>
