<?xml version="1.0" encoding="UTF-8" standalone="no"?>
<!-- Created with Inkscape (http://www.inkscape.org/) -->

<svg
   version="1.1"
   id="svg1"
   width="512"
   height="512"
   viewBox="0 0 512 512"
   sodipodi:docname="cauliflower-outline.svg"
   inkscape:version="1.3 (0e150ed6c4, 2023-07-21)"
   xmlns:inkscape="http://www.inkscape.org/namespaces/inkscape"
   xmlns:sodipodi="http://sodipodi.sourceforge.net/DTD/sodipodi-0.dtd"
   xmlns="http://www.w3.org/2000/svg"
   xmlns:svg="http://www.w3.org/2000/svg">
  <defs
     id="defs1" />
  <sodipodi:namedview
     id="namedview1"
     pagecolor="#ffffff"
     bordercolor="#000000"
     borderopacity="0.25"
     inkscape:showpageshadow="2"
     inkscape:pageopacity="0.0"
     inkscape:pagecheckerboard="0"
     inkscape:deskcolor="#d1d1d1"
     inkscape:zoom="0.96122328"
     inkscape:cx="187.26138"
     inkscape:cy="283.49293"
     inkscape:window-width="1350"
     inkscape:window-height="1237"
     inkscape:window-x="1032"
     inkscape:window-y="102"
     inkscape:window-maximized="0"
     inkscape:current-layer="svg1" />
  <path
     style="fill:#000000;stroke:none"
     d="m 230.3264,490.00016 c -8.13395,-1.69513 -13.41539,-6.15665 -20.65436,-17.44784 -2.46653,-3.84723 -4.72896,-5.78697 -10.17204,-8.7212 -9.10546,-4.90853 -16.49749,-6.50592 -36,-7.77943 -23.1114,-1.50918 -37.62277,-5.06751 -53.88795,-13.21388 C 97.416017,436.72947 90.371432,431.54569 79.376174,420.58864 63.371041,404.63913 52.257853,385.99568 44.038433,361.30616 38.005969,343.18583 34,319.94813 34,303.07555 34,287.64977 24.263052,274.71631 8.6428331,269.39397 -0.60710492,266.2422 -2.0497602,260.42773 4.0569824,250.9112 10.59751,240.71867 23.863058,231.90388 37.25,228.85486 l 5.75,-1.30963 0.01478,-9.52262 c 0.01845,-11.88773 1.925621,-20.15854 7.132806,-30.93278 3.27084,-6.76774 5.752713,-10.09928 12.708521,-17.0593 8.966846,-8.97227 16.837855,-13.89962 27.981866,-17.51699 4.681672,-1.51968 5.259722,-1.99588 4.701519,-3.87313 -0.35005,-1.17722 -0.900634,-6.68178 -1.22352,-12.23235 C 91.469662,87.478589 138.7354,51.830572 184.92992,68.066639 191.48313,70.369904 191,70.326196 191,68.615795 c 0,-2.551731 7.87214,-17.06459 11.84748,-21.841687 6.19595,-7.445575 13.98092,-13.574637 22.65252,-17.834214 10.71922,-5.265388 18.96051,-7.214898 30.5,-7.214898 11.61687,0 19.77263,1.948412 30.81868,7.36258 13.92383,6.824701 26.29505,20.119191 32.01479,34.404058 1.32318,3.304602 2.49625,6.11517 2.60683,6.245707 0.11058,0.130538 2.66018,-0.626974 5.66579,-1.683361 27.62475,-9.709318 59.27458,-0.478628 76.56024,22.328835 10.17487,13.425165 15.04199,29.275705 13.98042,45.529415 -0.34441,5.27327 -0.89257,10.74303 -1.21812,12.15502 -0.53725,2.33018 -0.19191,2.68507 3.73973,3.84303 17.8718,5.26371 33.62849,18.66042 41.85922,35.58972 5.02881,10.34345 6.93933,18.72475 6.95764,30.52261 l 0.0148,9.52262 5.75,1.30963 c 17.31442,3.94355 34.96968,18.48061 36.90133,30.38395 0.71201,4.38761 -2.27945,7.81198 -8.92561,10.21729 -7.58508,2.74512 -13.87884,7.64573 -18.39832,14.32577 -4.88844,7.22539 -5.8027,11.12556 -7.20077,30.71813 -3.05531,42.81719 -18.79378,80.29397 -44.55217,106.08864 -10.90121,10.91656 -17.90018,16.0807 -30.19941,22.28242 -16.20871,8.17301 -30.97124,11.76763 -54.37505,13.2401 -17.56389,1.10505 -25.72145,2.70052 -33.21007,6.49529 -7.8905,3.99842 -10.63277,6.37466 -14.29595,12.38776 -4.17742,6.85722 -8.80763,11.38052 -13.99398,13.67087 -3.40737,1.50473 -7.55577,1.79892 -28,1.98566 -13.2,0.12056 -25.87812,-0.1722 -28.1736,-0.65058 z m 50.1515,-17.17204 c 1.4146,-0.64454 3.90603,-3.50352 5.5365,-6.3533 3.4169,-5.97211 10.49731,-12.93228 17.08013,-16.79007 9.40609,-5.51233 25.62692,-9.67803 37.74344,-9.69295 10.274,-0.0127 23.7217,-1.79697 33.94552,-4.50407 C 424.6079,422.29504 455.96023,375.1752 460.9413,306 c 1.30295,-18.09493 3.9736,-25.72186 12.86664,-36.74492 3.04293,-3.77176 13.01725,-11.36348 16.42007,-12.49775 1.82807,-0.60936 -3.63106,-5.09761 -10.05434,-8.26623 -7.19525,-3.54944 -16.83217,-5.45284 -27.71357,-5.47374 -20.81525,-0.04 -37.85378,8.74551 -50.39126,25.98299 -6.55104,9.00687 -7.88988,9.33756 -18.20548,4.49675 -25.07717,-11.76799 -47.41797,-4.35353 -67.88293,22.52899 -7.26095,9.5379 -15.82026,17.47261 -24.89574,23.07902 -33.2749,20.55568 -41.69169,27.64832 -47.61736,40.1261 -2.58197,5.43691 -3.76372,9.63092 -4.46112,15.83247 -0.80771,7.18248 -1.33283,8.77072 -3.53323,10.68632 -3.57098,3.10879 -7.02621,2.85061 -10.67442,-0.7976 -2.9871,-2.98709 -3.03393,-3.18634 -2.35898,-10.03599 0.98385,-9.98453 3.14577,-17.48144 7.1378,-24.75181 l 3.47866,-6.3354 -7.94663,-8.39506 c -10.37215,-10.95747 -19.65483,-23.4091 -26.27586,-35.246 -12.13283,-21.69075 -27.1481,-32.2536 -45.89139,-32.28339 -10.3957,-0.0165 -14.77784,0.99284 -25.12373,5.78692 -9.972,4.62083 -11.38342,4.25066 -17.88727,-4.69132 C 100.65028,256.24029 88.766606,248.09938 74,244.3857 c -8.996083,-2.26244 -26.95446,-1.4916 -36,1.54526 -5.968651,2.00385 -17,8.45559 -17,9.94253 0,0.34647 1.99085,1.68609 4.424111,2.97693 9.270884,4.91819 18.756914,16.5214 22.56093,27.59627 1.314155,3.82598 2.38045,10.67447 2.990004,19.20388 3.104338,43.4386 16.079626,77.6043 38.398471,101.1084 20.260134,21.33607 43.089694,31.25729 75.469044,32.79719 15.06935,0.71667 22.86631,1.93264 32.34972,5.04506 12.96159,4.25395 22.56466,11.62315 28.53708,21.89878 1.59835,2.75 4.00062,5.55587 5.33837,6.23526 3.31591,1.68403 45.74293,1.76376 49.41017,0.0929 z M 227.3083,429.9904 c -4.14427,-1.66932 -5.57209,-5.31624 -5.13183,-13.10769 0.33725,-5.96844 0.77886,-7.42812 2.7238,-9.00304 2.52143,-2.04173 7.15345,-2.45647 10.06029,-0.90078 3.66031,1.95894 5.18921,11.42442 2.90412,17.97946 -0.76958,2.2076 -2.20893,3.70537 -4.46789,4.64922 -1.8329,0.76584 -3.45951,1.36391 -3.61467,1.32904 -0.15517,-0.0349 -1.26839,-0.46065 -2.47382,-0.94621 z m 20.9069,-101.83009 c 4.82679,-4.17274 18.19685,-13.24813 26.7848,-18.18111 14.28054,-8.20284 21.53112,-14.76484 31.36455,-28.38591 5.9783,-8.28102 15.50397,-16.27599 25.54651,-21.4414 12.84374,-6.60621 17.08183,-7.65878 30.58894,-7.59703 10.25623,0.0469 13.08986,0.43363 19.5,2.66137 l 7.5,2.60651 4.83878,-5.42124 c 13.31966,-14.92298 34.75005,-25.32482 52.29768,-25.38414 l 5.13645,-0.0174 0.66058,-4.40506 c 1.43739,-9.5852 -2.07114,-23.62986 -8.31719,-33.2937 -6.76814,-10.47163 -17.2216,-17.91211 -30.57155,-21.75996 -11.40613,-3.28759 -16.08846,-11.00473 -13.6983,-22.57673 1.79998,-8.71462 1.4428,-20.81741 -0.83169,-28.18134 -5.27377,-17.074474 -20.62751,-31.147733 -38.0607,-34.886482 -8.36572,-1.794127 -22.1537,-0.63884 -30.45406,2.551731 -8.12169,3.121888 -12.83674,2.888838 -18.61988,-0.920321 -2.88617,-1.901023 -4.35883,-4.149563 -7.26564,-11.093549 -5.91615,-14.132901 -13.70591,-22.90006 -25.78613,-29.021571 -24.71235,-12.522693 -57.24872,-1.555942 -68.76223,23.177083 -6.48256,13.925666 -7.4099,15.459248 -10.50467,17.371921 -5.45964,3.37424 -10.21552,3.502327 -18.06145,0.486437 -8.39246,-3.225969 -21.93403,-4.331042 -30.71948,-2.506891 -17.04672,3.539469 -32.53782,17.819958 -37.79528,34.841642 -2.27449,7.36393 -2.63167,19.46672 -0.83169,28.18134 2.4673,11.94549 -2.16504,19.1673 -14.686599,22.89639 -7.719148,2.29886 -17.143799,7.55078 -22.34829,12.45367 C 64.665402,190.1621 57.690862,208.846 59.515579,222.11327 L 60.187676,227 h 4.722502 c 17.268168,0 35.467302,8.26062 49.850362,22.62716 l 8.26053,8.25106 4.49499,-1.98835 c 2.47225,-1.09359 7.90709,-2.64119 12.07744,-3.43911 15.01768,-2.87336 25.39842,-1.49226 39.4065,5.24279 8.18709,3.93634 10.74426,5.82789 18.50328,13.68701 6.74679,6.83383 10.35934,11.54894 14.41385,18.81299 2.97581,5.33146 8.21383,13.48464 11.64004,18.11818 6.50674,8.79958 19.07372,22.68827 20.52916,22.68827 0.46424,0 2.32224,-1.27786 4.12887,-2.83969 z M 225.20067,214.97232 c -2.99022,-2.78581 -3.58564,-5.95002 -2.27214,-12.07467 5.58096,-26.0231 36.20974,-36.22257 55.7534,-18.56604 6.85421,6.19237 12.50988,19.7837 10.9006,26.19559 -1.54475,6.15477 -9.27494,8.55801 -13.40084,4.1662 -1.26829,-1.35003 -2.43756,-4.28101 -2.81949,-7.06755 C 272.04821,198.03925 265.33788,192 256,192 c -9.33788,0 -16.04821,6.03925 -17.3622,15.62585 -0.38193,2.78654 -1.5512,5.71752 -2.81949,7.06755 -2.73581,2.91214 -7.65258,3.0413 -10.61764,0.27892 z m -77.86495,-1.35618 c -6.73581,-3.18864 -12.3484,-8.90162 -15.9371,-16.22214 -2.4642,-5.02667 -2.88592,-7.07124 -2.86584,-13.894 0.0192,-6.51161 0.5151,-9.05983 2.66557,-13.6965 5.04555,-10.87881 15.53757,-18.51583 26.84654,-19.54129 l 5.57199,-0.50525 1.6557,-4.62848 c 3.25129,-9.08896 11.77058,-16.63162 22.21431,-19.66769 15.34979,-4.46231 32.45285,3.42875 39.15341,18.0647 2.81649,6.15202 2.44748,9.4737 -1.38754,12.49033 -4.92455,3.87365 -9.65915,1.90759 -13.24515,-5.5001 C 203.89252,133.75218 179,139.33014 179,157.91212 c 0,4.81669 -3.35998,9.26067 -7.02745,9.29465 -1.3599,0.0126 -4.79764,-0.31201 -7.63943,-0.72137 -4.28833,-0.61774 -5.94497,-0.36762 -9.74302,1.47098 -6.19325,2.9981 -8.88922,7.03076 -9.39743,14.05678 -0.58364,8.06864 2.12456,13.02005 9.35253,17.09926 5.85891,3.30656 7.4548,5.27843 7.4548,9.21105 0,6.60452 -6.74814,9.04008 -14.66428,5.29267 z m 206.97965,1.37688 c -4.17952,-1.68397 -5.62816,-7.67374 -2.82411,-11.67707 0.82019,-1.17099 3.52655,-3.11434 6.01413,-4.31856 12.47872,-6.04084 12.77045,-24.18225 0.49461,-30.75775 -3.82852,-2.05074 -5.3207,-2.31176 -10,-1.74931 -3.025,0.3636 -6.625,0.63213 -8,0.59673 -3.7149,-0.0956 -7,-4.40144 -7,-9.17494 0,-14.35153 -16.03409,-22.4326 -27.83579,-14.02905 -1.6459,1.17199 -3.97322,4.15668 -5.17182,6.63265 -3.586,7.40769 -8.3206,9.37375 -13.24515,5.5001 -3.83638,-3.0177 -4.20412,-6.33811 -1.38414,-12.49775 3.04254,-6.64579 9.11295,-12.62537 16.47254,-16.22609 4.7358,-2.317 6.95901,-2.76877 13.67771,-2.77935 7.06243,-0.0111 8.82225,0.38079 14.70206,3.27412 7.83998,3.85789 14.03698,10.33987 16.49104,17.24943 l 1.67667,4.72078 5.63083,0.51059 c 9.70118,0.87967 18.36324,6.28335 24.04896,15.00253 11.0842,16.99785 4.73977,39.60434 -13.56291,48.32739 -5.3802,2.5642 -6.80093,2.75887 -10.18463,1.39555 z"
     id="path1" />
</svg>
