<?xml version="1.0" encoding="UTF-8" standalone="no"?>
<!-- Created with Inkscape (http://www.inkscape.org/) -->

<svg
   version="1.1"
   id="svg1"
   width="512"
   height="512"
   viewBox="0 0 512 512"
   sodipodi:docname="mushroom-outline-white.svg"
   inkscape:version="1.3 (0e150ed6c4, 2023-07-21)"
   xmlns:inkscape="http://www.inkscape.org/namespaces/inkscape"
   xmlns:sodipodi="http://sodipodi.sourceforge.net/DTD/sodipodi-0.dtd"
   xmlns="http://www.w3.org/2000/svg"
   xmlns:svg="http://www.w3.org/2000/svg">
  <defs
     id="defs1" />
  <sodipodi:namedview
     id="namedview1"
     pagecolor="#ffffff"
     bordercolor="#000000"
     borderopacity="0.25"
     inkscape:showpageshadow="2"
     inkscape:pageopacity="0.0"
     inkscape:pagecheckerboard="0"
     inkscape:deskcolor="#d1d1d1"
     inkscape:zoom="1.1455078"
     inkscape:cx="228.71952"
     inkscape:cy="353.1185"
     inkscape:window-width="1350"
     inkscape:window-height="1237"
     inkscape:window-x="1010"
     inkscape:window-y="84"
     inkscape:window-maximized="0"
     inkscape:current-layer="svg1" />
  <path
     style="fill:#ffffff;stroke:none;fill-opacity:1"
     d="m 224.81121,510.94288 c -52.98681,-3.80549 -85.01756,-18.3014 -97.8197,-44.26949 -5.9967,-12.16384 -7.29195,-19.85744 -6.67918,-39.67339 0.28063,-9.075 1.2398,-20.55 2.13148,-25.5 3.71069,-20.59907 10.84862,-46.01852 19.13421,-68.14035 1.9655,-5.24772 3.37263,-9.74233 3.12694,-9.98802 -0.24568,-0.24568 -4.6673,0.88962 -9.82583,2.5229 C 72.656566,345.59528 44.034025,345.8228 23.480004,326.78002 12.912766,316.98975 6.0785494,301.96393 2.3106902,280.23684 -0.11646783,266.2408 -0.11195252,229.68659 2.318872,214 10.53947,160.95087 33.070143,117.53396 72.14026,79.453259 86.977299,64.991954 95.139577,58.407007 112.99816,46.490998 158.90776,15.858158 214.97426,-1.4383884 262.5,0.36959446 325.08777,2.7505695 391.00735,32.044177 439.35761,78.96229 c 38.82674,37.67667 62.51125,83.38161 70.31264,135.6851 2.49592,16.73352 2.45128,52.86907 -0.0826,66.85261 -6.13223,33.84185 -19.62972,51.5875 -44.0823,57.95658 -7.66026,1.99525 -25.50416,2.01 -37.12439,0.0307 -11.59684,-1.97532 -28.37971,-6.28569 -46.33205,-11.89954 -7.94808,-2.48543 -14.62147,-4.34854 -14.82976,-4.14026 -0.20828,0.20829 1.61449,5.70532 4.05061,12.21561 12.7795,34.15199 19.55168,64.46645 20.40446,91.33691 0.62957,19.83744 -0.66053,27.4924 -6.69674,39.73589 -10.85558,22.01882 -36.02439,36.01339 -74.98976,41.69644 -22.95865,3.34849 -58.80002,4.4049 -85.17654,2.51055 z M 291,493.95866 c 34.1227,-3.06956 57.43508,-10.70975 70.58518,-23.13294 5.76261,-5.44406 9.40998,-11.59304 12.05654,-20.32572 2.41203,-7.95882 2.39499,-27.95069 -0.0367,-43 -3.66854,-22.70438 -13.66627,-56.93233 -23.79039,-81.44806 L 345.5,315.60388 l -9.81799,-2.90062 c -5.39989,-1.59534 -10.04659,-2.67202 -10.32599,-2.39261 -0.27941,0.2794 0.91125,4.93631 2.64591,10.34868 7.62497,23.79093 11.71884,47.69105 12.67805,74.0147 l 0.6258,17.17404 -3.07597,3.07596 C 336.53803,416.61582 334.42188,418 333.52726,418 c -2.95771,0 -7.49068,-2.99971 -7.96096,-5.26819 -0.25448,-1.22749 -0.94559,-10.55681 -1.53582,-20.73181 -1.98511,-34.22164 -7.65428,-60.54292 -17.89514,-83.08501 -1.94057,-4.27158 -2.44364,-4.6648 -7.35915,-5.75218 -27.09672,-5.99421 -58.45566,-5.99421 -85.55238,0 -4.91551,1.08738 -5.41858,1.4806 -7.35915,5.75218 -10.24086,22.54209 -15.91003,48.86337 -17.89514,83.08501 -0.59023,10.175 -1.28134,19.50432 -1.53582,20.73181 -0.47028,2.26848 -5.00325,5.26819 -7.96096,5.26819 -0.89462,0 -2.94197,-1.31538 -4.54966,-2.92308 -2.85393,-2.85393 -2.923,-3.16736 -2.91966,-13.25 0.009,-26.99474 5.89871,-61.93649 14.37725,-85.29461 l 2.3711,-6.53231 -2.12589,0.0776 c -1.16923,0.0427 -5.9487,1.29328 -10.62104,2.77916 l -8.49516,2.7016 -4.32746,10.47084 c -9.96557,24.11293 -20.19144,59.15132 -23.77707,81.47084 -2.16236,13.46007 -2.42548,33.91304 -0.53387,41.5 6.48317,26.00308 32.52627,40.32578 81.62872,44.89264 13.16057,1.22403 58.16517,1.26558 71.5,0.066 z m -72.68463,-42.96564 c -4.34145,-1.74921 -4.64894,-3.92904 -4.01361,-28.453 0.64994,-25.08792 2.5675,-46.70922 6.21078,-70.02897 2.13633,-13.67419 2.58173,-15.19539 5.07775,-17.34237 5.02315,-4.32073 12.41607,-0.63026 12.40429,6.1921 -0.003,1.72657 -0.8947,9.21422 -1.9816,16.63922 -3.07537,21.00895 -4.99902,43.62657 -5.61336,66 -0.30959,11.275 -1.00657,21.67913 -1.54884,23.12028 -0.94063,2.49982 -4.57937,4.95167 -7.14783,4.81633 -0.66162,-0.0349 -2.18603,-0.45948 -3.38758,-0.94359 z m 68.00581,-0.14304 c -1.19835,-0.60065 -2.6241,-2.27511 -3.16832,-3.72103 -0.54422,-1.44592 -1.24947,-11.87562 -1.56722,-23.1771 -0.63325,-22.5224 -2.47844,-44.23911 -5.57391,-65.60133 -1.10385,-7.61779 -2.00807,-15.26317 -2.00937,-16.98974 -0.005,-6.82424 7.3848,-10.51232 12.40735,-6.1921 2.49602,2.14698 2.94142,3.66818 5.07775,17.34237 3.68259,23.57138 5.57234,45.05768 6.1996,70.48895 0.5434,22.03163 0.46194,23.6404 -1.30372,25.74699 -2.21816,2.64646 -6.9887,3.6435 -10.06216,2.10299 z M 460.36357,323.5111 c 12.46119,-2.64012 20.15621,-9.08088 26.29625,-22.01006 5.45358,-11.48368 7.40419,-22.7698 8.04492,-46.54754 0.60925,-22.60912 -0.32857,-34.21515 -4.29045,-53.09627 -6.33096,-30.17149 -20.91218,-61.50288 -40.25962,-86.50785 C 410.16226,63.662485 345.3666,26.891822 278.67764,18.038465 267.15486,16.508747 242.68451,16.775106 229.78438,18.570666 177.66234,25.8255 124.6341,51.657311 86.13846,88.545344 39.859794,132.89138 16.992319,185.56724 17.002817,247.80122 c 0.0033,19.63788 1.286521,31.51554 4.664628,43.17683 4.475968,15.45112 11.538474,24.95506 22.110928,29.75445 4.928607,2.23735 7.454132,2.65674 18.221627,3.02589 18.994291,0.65119 31.741229,-2.23883 87,-19.72491 29.92703,-9.4701 59.67064,-17.09986 76.5,-19.6236 16.19851,-2.42914 44.75469,-2.45467 60.5,-0.0541 21.37249,3.25852 42.21269,8.79639 89.5,23.78284 48.66444,15.42291 68.05065,18.93459 84.86357,15.37247 z"
     id="path1" />
</svg>
