<?xml version="1.0" encoding="UTF-8" standalone="no"?>
<!-- Created with Inkscape (http://www.inkscape.org/) -->

<svg
   version="1.1"
   id="svg1"
   width="512"
   height="512"
   viewBox="0 0 512 512"
   sodipodi:docname="pear-outline.svg"
   inkscape:version="1.3 (0e150ed6c4, 2023-07-21)"
   xmlns:inkscape="http://www.inkscape.org/namespaces/inkscape"
   xmlns:sodipodi="http://sodipodi.sourceforge.net/DTD/sodipodi-0.dtd"
   xmlns="http://www.w3.org/2000/svg"
   xmlns:svg="http://www.w3.org/2000/svg">
  <defs
     id="defs1" />
  <sodipodi:namedview
     id="namedview1"
     pagecolor="#ffffff"
     bordercolor="#000000"
     borderopacity="0.25"
     inkscape:showpageshadow="2"
     inkscape:pageopacity="0.0"
     inkscape:pagecheckerboard="0"
     inkscape:deskcolor="#d1d1d1"
     inkscape:zoom="1.1455078"
     inkscape:cx="262.76556"
     inkscape:cy="344.38875"
     inkscape:window-width="1350"
     inkscape:window-height="1237"
     inkscape:window-x="1185"
     inkscape:window-y="70"
     inkscape:window-maximized="0"
     inkscape:current-layer="svg1" />
  <path
     style="fill:#000000;stroke:none"
     d="m 170.5,510.46891 c -25.80212,-4.78758 -49.33902,-17.2882 -67.04667,-35.609 C 92.588549,463.61893 87.389717,456.1663 80.822133,442.41766 71.673723,423.26629 67.162029,397.8642 68.498105,373.02995 c 1.317918,-24.49673 4.667864,-42.52769 11.10318,-59.76246 6.466511,-17.31832 11.516918,-26.08618 32.445535,-56.3277 22.65285,-32.73301 33.94617,-52.69047 49.47955,-87.43979 8.03326,-17.97101 11.6536,-25.24564 18.38992,-36.9523 2.79604,-4.85908 5.08371,-9.15328 5.08371,-9.54266 0,-0.38939 -3.7125,-0.97076 -8.25,-1.29193 C 147.91634,119.67219 121.98201,99.509213 103.49756,64.762069 93.912011,46.7431 91.864023,36.315714 96.080913,27 100.07086,18.185646 104.9631,14.826381 122.90493,8.5812366 139.60566,2.7680954 151.36579,0.68499615 167.5,0.68200952 c 11.21434,-0.002076 15.5918,0.42710398 22,2.15694978 22.86464,6.1721407 41.47542,21.5962317 56.50821,46.8324037 l 6.17566,10.367332 3.70773,-10.848174 c 4.61393,-13.499571 12.10762,-27.106081 21.0608,-38.240699 9.18018,-11.41693459 12.99499,-12.9715827 18.7976,-7.6605729 3.6395,3.3311585 2.99349,7.7184369 -2.04994,13.9218369 -14.40923,17.723306 -23.0131,36.030653 -27.12813,57.7233 -2.07691,10.948599 -2.0646,11.064359 1.17807,11.07262 4.92013,0.01253 18.95297,3.855174 25.67225,7.029884 12.64975,5.976719 23.08662,15.41746 32.57188,29.46311 6.82437,10.10545 12.62936,21.21504 23.51342,45 18.69013,40.84361 26.88605,55.34809 50.85548,90 7.98937,11.55 17.28414,25.79652 20.65505,31.65893 14.0372,24.41241 20.42309,48.33738 22.51177,84.34107 1.79384,30.92139 -6.32915,63.10217 -21.61454,85.63016 -6.50081,9.58105 -21.04963,24.05835 -31.08347,30.93067 -32.74463,22.42722 -68.24642,27.31733 -115.33184,15.8861 -12.22466,-2.96786 -26.77534,-2.96786 -39,0 -16.96931,4.11975 -25.0236,5.20793 -41.5,5.60687 -11.83578,0.28657 -18.76144,-0.0201 -24.5,-1.08489 z M 214,493.6074 c 4.675,-0.76175 10.4125,-1.90238 12.75,-2.53474 3.96002,-1.0713 4.25,-1.38592 4.25,-4.6112 0,-6.27267 6.20085,-9.96032 11.84264,-7.04284 4.32123,2.2346 5.15736,1.99724 5.15736,-1.46407 0,-4.0643 3.91248,-7.95455 8,-7.95455 4.08752,0 8,3.89025 8,7.95455 0,3.46131 0.83613,3.69867 5.15736,1.46407 C 274.7951,476.50324 281,480.18887 281,486.453 c 0,3.13415 0.34627,3.55132 3.75,4.51788 17.72177,5.03243 47.91429,5.32628 63.75,0.62044 39.54494,-11.75142 66.4245,-40.13139 75.80077,-80.03192 3.04275,-12.94839 2.98636,-48.51111 -0.10396,-65.5594 -5.28184,-29.13824 -10.72899,-40.00707 -45.35612,-90.5 C 361.2225,229.80932 351.72624,212.37408 332.81702,171 318.56592,139.81806 311.44684,128.25824 299.92562,117.59163 288.85625,107.34334 273.8027,102 256,102 c -18.50426,0 -33.59893,5.56339 -45.02564,16.59495 -11.07872,10.6956 -18.10079,22.31503 -32.2852,53.42237 -17.59912,38.59604 -28.78066,59.1886 -44.78722,82.48268 -29.70244,43.2255 -34.822002,52.01506 -40.856165,70.14425 -5.442769,16.35239 -7.297729,30.04907 -7.429189,54.85575 -0.124847,23.55889 0.767029,30.4572 5.882185,45.49639 11.675479,34.32734 41.948609,60.39226 79.501229,68.44991 8.53237,1.83079 32.20835,1.91949 43,0.1611 z M 207.76909,99.879027 c 4.12806,-2.853723 10.48126,-6.424389 14.11823,-7.934814 5.72242,-2.376505 9.43512,-3.364148 20.79208,-5.53105 l 2.17941,-0.415829 -2.52374,-6.210951 C 230.38438,50.37556 212.79333,29.719033 192.47289,21.235041 c -16.94877,-7.076282 -42.79387,-5.215153 -69.28602,4.989348 -9.13362,3.518178 -10.49966,4.363679 -11.94412,7.392756 -1.9315,4.050394 -1.47691,5.72818 5.4172,19.993684 13.22003,27.355268 31.02709,44.434205 51.85714,49.736721 9.10932,2.31888 11.19101,2.51922 21.86468,2.10425 l 9.88177,-0.38419 z"
     id="path1" />
</svg>
