<?xml version="1.0" encoding="UTF-8" standalone="no"?>
<!-- Created with Inkscape (http://www.inkscape.org/) -->

<svg
   version="1.1"
   id="svg1"
   width="512"
   height="512"
   viewBox="0 0 512 512"
   sodipodi:docname="peas-filled.svg"
   inkscape:version="1.3 (0e150ed6c4, 2023-07-21)"
   xmlns:inkscape="http://www.inkscape.org/namespaces/inkscape"
   xmlns:sodipodi="http://sodipodi.sourceforge.net/DTD/sodipodi-0.dtd"
   xmlns="http://www.w3.org/2000/svg"
   xmlns:svg="http://www.w3.org/2000/svg">
  <defs
     id="defs1" />
  <sodipodi:namedview
     id="namedview1"
     pagecolor="#ffffff"
     bordercolor="#000000"
     borderopacity="0.25"
     inkscape:showpageshadow="2"
     inkscape:pageopacity="0.0"
     inkscape:pagecheckerboard="0"
     inkscape:deskcolor="#d1d1d1"
     inkscape:zoom="0.80999634"
     inkscape:cx="249.38384"
     inkscape:cy="353.7053"
     inkscape:window-width="1350"
     inkscape:window-height="1237"
     inkscape:window-x="1187"
     inkscape:window-y="54"
     inkscape:window-maximized="0"
     inkscape:current-layer="svg1" />
  <path
     style="fill:#aad400;fill-opacity:1;stroke:none;stroke-width:1.23457"
     d="m 32.407554,493.06546 c -2.2068,-0.63719 -4.012364,-1.87742 -4.012364,-2.75605 0,-2.32294 9.880263,-22.22799 16.02413,-32.28265 17.94898,-29.37416 44.900247,-54.14866 73.05852,-67.15782 13.01486,-6.01288 23.27452,-9.20129 39.98402,-12.4259 14.37401,-2.77389 15.99591,-3.39868 19.85601,-7.649 3.27829,-3.60968 5.00826,-9.24543 6.00355,-19.55789 5.31827,-55.10391 47.16728,-114.73554 102.74979,-146.4106 19.46643,-11.09343 39.03371,-17.77122 61.35157,-20.93768 25.36209,-3.59836 26.68416,-4.71741 30.9704,-26.21421 3.67811,-18.44684 7.6556,-30.46461 14.70272,-44.42355 17.25563,-34.179963 49.23846,-63.784234 87.15318,-80.671649 6.97361,-3.106081 10.90803,-4.26158 11.72845,-3.44453 2.10565,2.096999 2.13843,34.735045 0.059,58.784001 -8.89423,102.864748 -38.8387,190.213018 -87.65821,255.699778 -10.79977,14.48688 -40.61866,45.14045 -54.7278,56.25974 -34.0882,26.86459 -82.74589,51.85236 -129.89646,66.7073 -44.50751,14.02223 -98.21007,23.62528 -148.766105,26.60221 -24.881995,1.46514 -33.175827,1.43903 -38.580421,-0.1215 z"
     id="path2" />
  <path
     style="fill:#aad400;fill-opacity:1;stroke:none;stroke-width:1.23457"
     d="m 180.31524,270.22574 c -16.43121,-12.35156 -24.75898,-29.46871 -24.75898,-50.89033 0,-17.16778 6.52144,-32.32603 19.4844,-45.28899 9.54863,-9.54863 19.21537,-14.65317 33.24225,-17.55361 8.51905,-1.76155 11.56494,-1.86298 19.81885,-0.65996 17.63789,2.57075 32.83944,11.51571 42.9797,25.29028 l 5.50412,7.47681 -4.65021,3.30665 c -2.55762,1.81866 -9.09468,6.46525 -14.5268,10.32575 -21.48653,15.27006 -41.11647,35.34259 -57.65193,58.9518 -5.63729,8.04887 -10.61123,14.65877 -11.05322,14.68867 -0.44198,0.0299 -4.21666,-2.51128 -8.38818,-5.64707 z"
     id="path3" />
  <path
     style="fill:#aad400;fill-opacity:1;stroke:none;stroke-width:1.23457"
     d="m 295.60777,174.55179 c -13.14857,-25.42652 -8.52427,-55.15576 11.69738,-75.20159 19.87534,-19.702519 46.69911,-24.962777 71.50966,-14.023358 3.625,1.598328 6.39418,3.331519 6.15374,3.851536 -0.24045,0.520017 -3.56067,7.334403 -7.37827,15.143082 -8.05915,16.48452 -10.94887,24.90054 -15.24514,44.39993 -1.71506,7.78408 -3.55697,14.59156 -4.09314,15.12773 -0.53617,0.53617 -5.66742,1.55311 -11.40279,2.25987 -11.87479,1.4633 -31.07237,6.05511 -40.84574,9.76975 -3.64067,1.38373 -7.0218,2.51616 -7.51363,2.5165 -0.49182,3.5e-4 -1.78876,-1.72921 -2.88207,-3.84345 z"
     id="path4" />
  <path
     style="fill:#aad400;fill-opacity:1;stroke:none;stroke-width:1.23457"
     d="M 17.868952,453.70575 C 24.733873,315.76292 66.151218,205.33604 137.56642,134.56851 197.25688,75.419384 287.95235,36.444178 397.53266,22.851373 c 26.1403,-3.242555 52.08247,-5.236031 61.72224,-4.742929 l 8.0183,0.410158 -10.64288,5.963131 C 441.5518,32.93013 421.26393,48.522934 407.69298,62.093891 l -11.62343,11.623421 -8.21911,-3.781859 C 353.01016,53.904383 309.92077,64.108571 288.06347,93.566442 276.6944,108.88897 270.37159,127.52486 270.37159,145.71169 v 8.16084 l -3.39508,-2.39685 c -5.04828,-3.56396 -17.29405,-9.4663 -25.00011,-12.04979 -9.63177,-3.2291 -37.22201,-3.24075 -46.91379,-0.0198 -13.72056,4.55985 -23.70644,10.72951 -34.03901,21.03061 -11.19285,11.15875 -16.12017,19.00723 -20.91936,33.32144 -3.06562,9.14361 -3.2569,10.98008 -2.82883,27.16062 0.42699,16.13953 0.73457,18.02367 4.39532,26.92433 2.16491,5.26371 5.84276,12.55083 8.17301,16.19359 l 4.23681,6.62322 -14.38567,0.63832 c -22.52483,0.99949 -37.50782,7.63032 -53.842234,23.82824 -15.700818,15.56964 -23.279909,34.23885 -23.279909,57.34429 0,14.28064 2.051305,23.94383 7.751488,36.51531 l 3.466716,7.64568 -11.042576,10.94434 c -17.214393,17.06126 -27.584578,30.49708 -39.942187,51.7499 l -5.70523,9.81196 z"
     id="path5" />
  <path
     style="fill:#aad400;fill-opacity:1;stroke:none;stroke-width:1.23457"
     d="m 85.387757,379.09546 c -4.190666,-9.6805 -5.193171,-14.83205 -5.230612,-26.87848 -0.05674,-18.25638 6.988546,-34.04937 20.937635,-46.93462 20.02801,-18.50055 48.301,-22.19234 73.09325,-9.54428 l 4.61045,2.35208 -2.45443,6.45953 c -4.13608,10.88529 -8.19843,27.60047 -9.7757,40.22375 -0.82592,6.61006 -2.11374,12.65182 -2.86181,13.42612 -0.74807,0.77431 -7.19349,2.63409 -14.32315,4.13284 -19.13439,4.02231 -31.11188,8.13346 -46.2965,15.89078 -7.469174,3.81575 -13.858092,7.0721 -14.1976,7.23633 -0.339507,0.16423 -1.915197,-2.69959 -3.501533,-6.36405 z"
     id="path6" />
</svg>
