<?xml version="1.0" encoding="UTF-8" standalone="no"?>
<!-- Created with Inkscape (http://www.inkscape.org/) -->

<svg
   version="1.1"
   id="svg1"
   width="512"
   height="512"
   viewBox="0 0 512 512"
   sodipodi:docname="pineapple-filled.svg"
   inkscape:version="1.3 (0e150ed6c4, 2023-07-21)"
   xmlns:inkscape="http://www.inkscape.org/namespaces/inkscape"
   xmlns:sodipodi="http://sodipodi.sourceforge.net/DTD/sodipodi-0.dtd"
   xmlns="http://www.w3.org/2000/svg"
   xmlns:svg="http://www.w3.org/2000/svg">
  <defs
     id="defs1" />
  <sodipodi:namedview
     id="namedview1"
     pagecolor="#ffffff"
     bordercolor="#000000"
     borderopacity="0.25"
     inkscape:showpageshadow="2"
     inkscape:pageopacity="0.0"
     inkscape:pagecheckerboard="0"
     inkscape:deskcolor="#d1d1d1"
     inkscape:zoom="0.80999634"
     inkscape:cx="144.4451"
     inkscape:cy="473.45893"
     inkscape:window-width="1350"
     inkscape:window-height="1237"
     inkscape:window-x="1022"
     inkscape:window-y="82"
     inkscape:window-maximized="0"
     inkscape:current-layer="svg1" />
  <path
     style="fill:#aad400;fill-opacity:1;stroke:none;stroke-width:1.23457"
     d="m 214.1985,493.21583 c -25.16616,-2.52985 -50.0292,-14.39859 -70.33009,-33.57311 -17.26249,-16.30469 -27.68975,-32.68829 -35.42613,-55.66249 -3.64841,-10.83442 -3.89089,-12.79102 -5.00649,-40.39834 -1.63038,-40.34648 -0.52022,-96.58813 2.14452,-108.64247 8.75643,-39.61105 37.31111,-74.18124 74.46808,-90.15599 20.38762,-8.76518 27.7061,-9.98248 64.39716,-10.71132 52.33378,-1.03957 69.1411,1.44685 93.95769,13.8998 32.55871,16.33795 54.90972,43.1692 66.27527,79.56007 l 3.27742,10.49388 0.41688,59.87681 c 0.436,62.62357 -0.12208,72.8179 -4.7406,86.59584 -16.30983,48.6553 -59.09022,84.04718 -107.26044,88.73569 -13.41222,1.30544 -69.1283,1.29298 -82.17327,-0.0184 z m 52.80883,-45.19815 c 11.16335,-5.57366 14.47542,-8.5586 14.47542,-13.04573 0,-4.1911 -3.88158,-8.42828 -7.71608,-8.42296 -1.52779,0.002 -6.10767,1.57254 -10.17754,3.48983 l -7.39974,3.48599 -7.69668,-3.48983 c -4.23316,-1.91942 -9.06626,-3.48984 -10.7402,-3.48984 -6.41012,0 -9.20118,10.08468 -4.10948,14.84841 3.31436,3.10088 19.14306,10.93994 22.25314,11.02071 1.20523,0.0313 6.20525,-1.94716 11.11116,-4.39658 z m -82.44971,-52.82756 c 11.24868,-5.89576 13.69143,-9.48871 10.42528,-15.33417 -2.54768,-4.55963 -7.33242,-4.82145 -16.54642,-0.90545 l -7.58832,3.22508 -7.06386,-3.12398 c -8.21326,-3.63229 -12.69014,-3.93762 -15.84691,-1.08077 -3.17998,2.87783 -2.91376,9.25938 0.52007,12.46662 4.41148,4.12042 20.86249,11.51703 23.72605,10.66761 1.37975,-0.40929 6.9481,-3.071 12.37411,-5.91494 z m 166.58092,2.42923 c 15.36576,-7.39063 18.57399,-11.85782 13.60792,-18.94787 -2.59991,-3.7119 -7.71529,-3.54381 -16.84532,0.5535 l -7.3475,3.29736 -6.72318,-3.29736 c -7.73075,-3.79151 -12.30939,-4.16146 -15.52194,-1.25415 -2.88581,2.61163 -2.94092,9.31694 -0.0972,11.82636 2.33562,2.06105 21.20462,11.89344 23.01871,11.99476 0.60777,0.0339 5.06661,-1.84372 9.90852,-4.1726 z m -81.83926,-53.2937 c 4.50285,-2.24635 9.0862,-4.98348 10.18523,-6.08251 3.11226,-3.11224 2.51437,-8.64411 -1.25469,-11.60885 -4.30231,-3.3842 -6.09168,-3.24443 -14.91584,1.16505 l -7.45199,3.7238 -6.01686,-3.09637 c -9.04961,-4.65707 -13.2414,-5.15143 -16.45247,-1.94036 -1.9592,1.9592 -2.5674,3.85887 -2.28911,7.14991 0.33079,3.91198 1.16382,4.94807 6.55184,8.14895 8.93024,5.30521 16.82385,8.14672 20.37047,7.33289 1.69753,-0.38954 6.77058,-2.54616 11.27342,-4.79251 z m -85.13343,-51.42309 c 11.65314,-5.97614 14.14799,-9.5548 10.81705,-15.51621 -2.54768,-4.55963 -7.33242,-4.82145 -16.54642,-0.90545 l -7.58832,3.22508 -7.06386,-3.12398 c -8.21326,-3.63229 -12.69014,-3.93762 -15.84691,-1.08077 -3.17966,2.87755 -2.91354,9.2587 0.52007,12.47033 3.86893,3.61882 18.1415,10.17579 22.1522,10.17696 1.82872,5.3e-4 7.92901,-2.36015 13.55619,-5.24596 z m 169.67617,0.73948 c 12.50192,-6.0962 15.49599,-10.88481 10.90444,-17.44016 -2.59991,-3.71189 -7.71529,-3.54381 -16.84532,0.55351 l -7.3475,3.29736 -6.72318,-3.29736 c -8.67868,-4.25643 -13.13286,-4.26845 -16.45547,-0.0444 -3.25226,4.13458 -3.21582,5.73902 0.21904,9.64378 3.55962,4.04659 19.00633,11.786 23.53303,11.79096 1.90916,0.002 7.6309,-2.02455 12.71496,-4.50365 z m -83.4791,-60.73742 c 10.61358,-5.31022 13.04664,-8.97698 9.8057,-14.7778 -2.6438,-4.73205 -8.94322,-5.02818 -17.26428,-0.81158 l -6.42242,3.25449 -6.94411,-3.05795 c -10.75087,-4.73431 -11.76179,-4.86637 -15.39215,-2.01073 -2.40612,1.89266 -3.28042,3.70346 -3.28042,6.79426 0,3.53356 0.78069,4.73053 4.83554,7.4139 7.47529,4.94691 18.82683,9.26961 22.32508,8.50145 1.69753,-0.37275 7.24921,-2.76047 12.33706,-5.30604 z"
     id="path2" />
  <path
     style="fill:#aad400;fill-opacity:1;stroke:none;stroke-width:1.23457"
     d="m 122.94875,172.2582 c -4.17858,-14.89235 -3.7394,-27.43157 1.92542,-54.97372 2.66045,-12.93498 11.40035,-41.088905 13.36535,-43.053901 2.76614,-2.766148 37.80997,24.010909 49.32162,37.686761 7.88721,9.37 15.31061,22.15982 14.68598,25.30256 -0.26421,1.32931 -3.44596,2.77597 -9.64069,4.38339 -19.67417,5.10507 -40.31668,16.00929 -57.38113,30.31107 -5.06363,4.24384 -9.43192,7.71608 -9.70731,7.71608 -0.27538,0 -1.43154,-3.31751 -2.56924,-7.37224 z"
     id="path3" />
  <path
     style="fill:#aad400;fill-opacity:1;stroke:none;stroke-width:1.23457"
     d="m 219.7186,130.78203 c -1.33852,-3.12264 -2.43367,-5.97546 -2.43367,-6.33961 0,-1.8612 -9.92077,-16.89514 -16.35251,-24.780601 -8.48475,-10.402497 -8.48783,-10.25654 0.53966,-25.58741 10.16418,-17.261266 24.36981,-32.571251 44.00266,-47.423471 l 10.28849,-7.783227 6.79595,4.680549 c 22.55056,15.531168 42.5583,38.055114 52.30465,58.882583 l 3.81163,8.145277 -7.17655,8.585989 c -8.40727,10.058431 -14.28246,19.503961 -18.33532,29.477691 l -2.91083,7.16328 -34.05024,0.32824 -34.05025,0.32823 z"
     id="path4" />
  <path
     style="fill:#aad400;fill-opacity:1;stroke:none;stroke-width:1.23457"
     d="m 375.76408,171.14994 c -17.70441,-14.43532 -33.77022,-22.87355 -55.58649,-29.19566 -5.92151,-1.71599 -10.98557,-3.33916 -11.25346,-3.60705 -0.9873,-0.9873 4.80517,-12.31407 10.07157,-19.69427 8.92692,-12.50996 29.36291,-30.370459 47.48739,-41.502689 7.83879,-4.814665 7.32336,-5.268531 12.63025,11.121732 11.04915,34.125197 15.06575,66.469337 10.28251,82.800987 -1.08017,3.68808 -2.33018,7.05605 -2.77779,7.48439 -0.44762,0.42834 -5.33191,-2.90501 -10.85398,-7.40744 z"
     id="path5" />
</svg>
