<?xml version="1.0" encoding="UTF-8" standalone="no"?>
<!-- Created with Inkscape (http://www.inkscape.org/) -->

<svg
   version="1.1"
   id="svg1"
   width="512"
   height="512"
   viewBox="0 0 512 512"
   sodipodi:docname="strawberry-outline-white.svg"
   inkscape:version="1.3 (0e150ed6c4, 2023-07-21)"
   xmlns:inkscape="http://www.inkscape.org/namespaces/inkscape"
   xmlns:sodipodi="http://sodipodi.sourceforge.net/DTD/sodipodi-0.dtd"
   xmlns="http://www.w3.org/2000/svg"
   xmlns:svg="http://www.w3.org/2000/svg">
  <defs
     id="defs1" />
  <sodipodi:namedview
     id="namedview1"
     pagecolor="#ffffff"
     bordercolor="#000000"
     borderopacity="0.25"
     inkscape:showpageshadow="2"
     inkscape:pageopacity="0.0"
     inkscape:pagecheckerboard="0"
     inkscape:deskcolor="#d1d1d1"
     inkscape:zoom="0.80999634"
     inkscape:cx="220.98865"
     inkscape:cy="358.64359"
     inkscape:window-width="1350"
     inkscape:window-height="1237"
     inkscape:window-x="992"
     inkscape:window-y="61"
     inkscape:window-maximized="0"
     inkscape:current-layer="svg1" />
  <path
     style="fill:#ffffff;stroke:none;fill-opacity:1"
     d="m 238.82997,510.95819 c -15.36378,-2.14584 -29.74278,-8.64412 -40.63742,-18.36523 -12.80474,-11.42545 -19.8517,-20.63553 -42.51853,-55.57 C 146.92273,423.53533 134.2481,404.625 127.50818,395 99.575079,355.10989 88.147864,332.17328 81.633817,302.92137 78.493892,288.82126 76.998763,274.52251 77.004021,258.64405 77.017927,216.64958 94.854574,180.87972 128.28328,155.80788 l 4.92277,-3.69211 -5.37316,-1.56202 c -10.6479,-3.09543 -19.54286,-4.55158 -31.33289,-5.12937 -16.511642,-0.80917 -19.545903,-2.22882 -19.468197,-9.10864 0.10057,-8.90399 9.3983,-10.23841 39.790717,-5.71083 l 4.32253,0.64393 -4.57361,-9.1066 C 108.6309,106.33168 103.20299,86.250878 102.88317,71.501858 102.66792,61.574905 104.29323,60.385068 122,57.507039 c 29.60239,-4.811521 57.45391,-2.074158 77.82737,7.6492 3.48101,1.661335 6.41847,2.868318 6.52769,2.682185 0.10921,-0.186133 0.98355,-3.488424 1.94298,-7.338424 2.65893,-10.669833 11.47677,-27.700675 19.41589,-37.5 7.00285,-8.643681 21.9067,-21.6156955 26.02124,-22.64838108 1.24566,-0.31263924 3.284,-0.31263924 4.52966,0 C 262.37937,1.3843045 277.28322,14.356319 284.28607,23 c 7.93912,9.799325 16.75696,26.830167 19.41589,37.5 0.95943,3.85 1.83377,7.152291 1.94298,7.338424 0.10922,0.186133 3.04668,-1.02085 6.52769,-2.682185 15.54786,-7.420311 35.29013,-10.852643 56.25892,-9.781011 16.55399,0.84601 34.01841,3.823605 37.44892,6.384853 3.3695,2.515694 3.84082,4.941973 2.88809,14.86748 -1.29351,13.475759 -6.05191,30.252109 -12.21741,43.074029 l -5.5414,11.52404 4.24513,-0.63233 c 30.30931,-4.51465 39.61283,-3.17408 39.71332,5.72244 0.0777,6.87982 -2.95656,8.29947 -19.4682,9.10864 -11.78257,0.57742 -20.68549,2.03409 -31.31096,5.12299 l -5.35122,1.55565 6.79527,5.14415 c 31.5966,23.91925 49.34931,60.38529 49.36289,101.39688 0.0105,31.82539 -6.02105,58.46443 -19.43944,85.85595 -7.31629,14.93504 -14.27938,26.24816 -30.46532,49.49781 -6.31867,9.0762 -19.07251,28.16284 -28.34186,42.41475 -19.92722,30.6387 -27.97868,41.54372 -37.90298,51.33636 -12.40633,12.24174 -21.10562,17.32223 -36.51781,21.32684 -9.09759,2.36386 -32.72941,3.38654 -43.4986,1.88243 z m 36.96219,-17.5312 c 12.8646,-2.6254 21.05824,-7.2371 31.56636,-17.76677 10.48285,-10.50435 14.67283,-16.21862 35.67997,-48.66022 8.36942,-12.925 20.72751,-31.375 27.46243,-41 30.14324,-43.0783 40.00989,-63.99532 45.48769,-96.43257 2.72016,-16.10761 2.9845,-40.11599 0.58222,-52.87942 -5.89568,-31.32416 -25.18585,-58.69432 -52.68707,-74.7559 -13.6785,-7.98867 -37.04497,-16.73584 -55.96418,-20.95002 -29.85267,-6.64958 -73.95317,-6.62973 -104.10424,0.0469 -12.96603,2.87117 -34.09834,10.06191 -45.12929,15.35625 -34.12905,16.38035 -56.44465,44.69319 -63.293042,80.30282 -3.578918,18.60932 -1.304408,52.02801 4.958512,72.85391 7.15828,23.80322 16.19978,40.69659 40.11828,74.95808 7.29532,10.45 20.11425,29.575 28.48652,42.5 20.92386,32.30197 25.18737,38.13017 35.54836,48.59443 10.20229,10.30396 19.26753,15.49251 31.22271,17.8705 9.5907,1.90768 30.62874,1.88776 40.06477,-0.0379 z M 250.45455,423.54545 C 248.32207,421.41297 248,420.18416 248,414.18031 248,405.31347 250.17628,402 256,402 c 5.82372,0 8,3.31347 8,12.18031 0,6.00385 -0.32207,7.23266 -2.45455,9.36514 C 259.99822,425.09269 257.94837,426 256,426 c -1.94837,0 -3.99822,-0.90731 -5.54545,-2.45455 z M 189.97824,363.25 c -1.87513,-2.3797 -2.1172,-3.74087 -1.79767,-10.10853 0.31387,-6.25481 0.71962,-7.64223 2.70513,-9.25 3.25427,-2.63515 8.24842,-2.44206 10.93999,0.42298 1.84305,1.96184 2.17431,3.48537 2.17431,10 0,9.27132 -1.6378,11.68555 -7.92742,11.68555 -3.09248,0 -4.38809,-0.58463 -6.09434,-2.75 z M 310,364 c -1.65924,-1.65924 -2,-3.33333 -2,-9.82569 0,-6.88712 0.27758,-8.08645 2.31445,-10 2.8695,-2.69575 7.66494,-2.82134 10.79985,-0.28284 1.98551,1.60777 2.39126,2.99519 2.70513,9.25 0.31953,6.36766 0.0775,7.72883 -1.79767,10.10853 C 319.2825,366.72634 313.11134,367.11134 310,364 Z M 250.45455,312.54545 C 248.32207,310.41297 248,309.18416 248,303.18031 248,294.31347 250.17628,291 256,291 c 5.82372,0 8,3.31347 8,12.18031 0,6.00385 -0.32207,7.23266 -2.45455,9.36514 C 259.99822,314.09269 257.94837,315 256,315 c -1.94837,0 -3.99822,-0.90731 -5.54545,-2.45455 z m -94,-34 C 154.31671,276.40762 154,275.18904 154,269.10122 c 0,-5.88799 0.3691,-7.4188 2.34174,-9.71212 3.00843,-3.49751 7.67965,-3.65708 11.1664,-0.38145 2.21872,2.08437 2.49186,3.14896 2.49186,9.71212 0,6.49281 -0.29248,7.66362 -2.45455,9.82568 C 165.99822,280.09269 163.94837,281 162,281 c -1.94837,0 -3.99822,-0.90731 -5.54545,-2.45455 z m 188,0 c -2.1652,-2.16519 -2.4508,-3.31455 -2.42275,-9.75 0.0192,-4.39406 0.54869,-7.97579 1.3315,-9.00614 1.94023,-2.55378 6.22742,-3.89542 9.03579,-2.82768 4.11207,1.56341 5.60091,4.8347 5.60091,12.30633 0,5.91079 -0.32815,7.1511 -2.45455,9.27749 C 353.99822,280.09269 351.94837,281 350,281 c -1.94837,0 -3.99822,-0.90731 -5.54545,-2.45455 z M 247,233.6782 c -3.025,-2.37631 -7.65917,-6.72379 -10.29815,-9.66108 C 231.63883,218.38177 222,203.4826 222,201.29181 c 0,-2.42733 -1.49986,-1.18418 -5.73197,4.7509 C 210.80194,213.70831 201.07735,221 196.32017,221 c -7.69522,0 -20.30352,-12.55912 -28.2405,-28.13033 -6.0369,-11.84354 -6.61411,-16.51752 -2.44481,-19.79709 5.88178,-4.62661 9.6354,-2.19674 15.69194,10.15806 4.52252,9.22552 12.61318,19.76936 15.16973,19.76936 2.32422,0 10.42516,-11.13178 15.08825,-20.73329 2.46634,-5.07831 5.33914,-9.69081 6.38399,-10.25 5.23423,-2.80127 10.25073,0.10357 12.62913,7.31299 2.76199,8.37214 7.92783,19.09413 12.70798,26.37613 C 247.66553,212.34725 254.46166,220 256,220 c 1.51755,0 8.3079,-7.61263 12.48778,-14 5.47278,-8.36308 8.61571,-14.68126 11.9386,-24 2.78552,-7.81172 5.4612,-10.94005 9.38936,-10.97776 4.22107,-0.0405 6.07286,1.92394 10.59948,11.24447 4.66309,9.60151 12.76403,20.73329 15.08825,20.73329 2.57365,0 10.66362,-10.56901 15.08646,-19.70946 6.03019,-12.46229 10.54563,-15.24589 15.95552,-9.83599 3.73905,3.73904 3.20877,7.85802 -2.47246,19.20492 C 336.34103,208.10224 323.41931,221 315.67983,221 c -2.52297,0 -5.09815,-1.20608 -9.5103,-4.45411 C 300.53494,212.39794 292,202.97987 292,200.9102 c 0,-2.06952 -1.87824,-0.69824 -2.84598,2.07783 -2.98608,8.56587 -15.90032,24.71913 -25.24898,31.58168 -6.52278,4.78816 -9.90173,4.60996 -16.90504,-0.89151 z M 158.14529,138.85041 C 175.84834,131.26924 198.16828,125.0191 219,121.80959 224.5169,120.9596 237.50215,120.5 256,120.5 c 18.49785,0 31.4831,0.4596 37,1.30959 20.85523,3.21314 43.14952,9.45894 60.90818,17.06358 l 7.40818,3.17234 2.8579,-3.27276 c 8.95274,-10.25229 16.1738,-22.29463 21.24932,-35.43683 3.68201,-9.53392 7.24176,-25.159682 6.29423,-27.628902 -0.89302,-2.327173 -18.48309,-4.0323 -35.54239,-3.445369 -22.45981,0.772738 -36.75927,5.396028 -48.51977,15.687376 -6.48447,5.674415 -11.05371,6.652913 -14.58357,3.123057 -1.86335,-1.863355 -2.27285,-3.726116 -3.63524,-16.536415 C 288.16776,62.602689 282.68535,49.012524 274.49628,37.5 269.83666,30.949317 257.88285,19 255.98932,19 c -1.90042,0 -14.87707,12.999235 -18.96699,19 -7.95413,11.67038 -13.23342,25.010183 -14.45917,36.535667 -1.36239,12.810299 -1.77189,14.67306 -3.63524,16.536415 C 217.73613,92.263866 215.62168,93 213.39021,93 c -2.93309,0 -4.62995,-0.932366 -9.05169,-4.973585 -11.10603,-10.150289 -26.00011,-14.99017 -48.51394,-15.764766 -16.67123,-0.573579 -34.65167,1.124189 -35.50682,3.352662 -0.78164,2.036936 1.3656,13.156236 4.25889,22.05429 3.35723,10.324819 8.40137,20.711409 14.10953,29.053439 C 142.6802,132.559 150.04669,142 150.60705,142 c 0.10094,0 3.49315,-1.41731 7.53824,-3.14959 z"
     id="path1" />
</svg>
