<?xml version="1.0" encoding="UTF-8" standalone="no"?>
<!-- Created with Inkscape (http://www.inkscape.org/) -->

<svg
   version="1.1"
   id="svg1"
   width="512"
   height="512"
   viewBox="0 0 512 512"
   sodipodi:docname="strawberry-filled.svg"
   inkscape:version="1.3 (0e150ed6c4, 2023-07-21)"
   xmlns:inkscape="http://www.inkscape.org/namespaces/inkscape"
   xmlns:sodipodi="http://sodipodi.sourceforge.net/DTD/sodipodi-0.dtd"
   xmlns="http://www.w3.org/2000/svg"
   xmlns:svg="http://www.w3.org/2000/svg">
  <defs
     id="defs1" />
  <sodipodi:namedview
     id="namedview1"
     pagecolor="#ffffff"
     bordercolor="#000000"
     borderopacity="0.25"
     inkscape:showpageshadow="2"
     inkscape:pageopacity="0.0"
     inkscape:pagecheckerboard="0"
     inkscape:deskcolor="#d1d1d1"
     inkscape:zoom="0.80999634"
     inkscape:cx="220.98865"
     inkscape:cy="358.64359"
     inkscape:window-width="1350"
     inkscape:window-height="1237"
     inkscape:window-x="992"
     inkscape:window-y="61"
     inkscape:window-maximized="0"
     inkscape:current-layer="svg1" />
  <path
     style="fill:#aad400;fill-opacity:1;stroke:none;stroke-width:1.23457"
     d="M 240.12454,493.58429 C 224.5128,491.5086 210.30879,482.49488 197.23569,466.36748 186.23979,452.80258 120.72634,353.91861 113.79496,340.42465 100.66387,314.86111 94.804743,290.08104 94.750033,259.87772 c -0.04594,-25.36307 4.783753,-43.06439 16.782947,-61.51117 15.69221,-24.12418 36.86919,-39.06435 71.80118,-50.65505 17.66845,-5.86253 29.12204,-8.15393 50.62086,-10.12722 35.78306,-3.28437 72.36724,1.38791 103.52349,13.22132 44.11053,16.75356 69.53078,44.3311 78.00739,84.6275 4.0292,19.15417 1.37013,54.93553 -5.72962,77.09948 -7.71469,24.08368 -10.0462,28.13551 -55.28946,96.08502 -28.103,42.20707 -37.4563,55.28307 -45.72681,63.92652 -16.10628,16.83255 -29.37924,22.12736 -54.41787,21.70825 -5.77164,-0.0966 -12.16055,-0.39725 -14.1976,-0.66808 z m 21.60504,-69.5083 c 1.93567,-1.93568 2.46914,-4.11524 2.46914,-10.08802 0,-9.35519 -2.01315,-12.1343 -8.78991,-12.1343 -5.95898,0 -7.72235,2.8806 -7.81168,12.76105 -0.0554,6.12627 0.37138,7.55933 2.84941,9.56795 3.76058,3.04822 8.16981,3.00654 11.28304,-0.10668 z m -59.10205,-60.06656 c 2.6899,-3.24113 2.24383,-16.84521 -0.65747,-20.0511 -2.9836,-3.29684 -8.61688,-3.35848 -11.84574,-0.12962 -3.26178,3.26178 -3.54461,16.51852 -0.42595,19.96461 2.62777,2.90364 10.58827,3.03671 12.92916,0.21611 z m 120.33663,-1.05958 c 2.67183,-4.07772 1.86617,-15.55873 -1.34046,-19.102 -2.88485,-3.18774 -8.5679,-3.19699 -11.74576,-0.0191 -1.95703,1.95704 -2.46914,4.11524 -2.46914,10.40569 0,9.48645 1.71594,11.81664 8.70174,11.81664 3.78687,0 5.25773,-0.66555 6.85362,-3.10119 z m -61.23458,-49.98547 c 3.26178,-3.26178 3.54461,-16.51852 0.42594,-19.96461 -2.49537,-2.75735 -9.40132,-2.98257 -11.99277,-0.3911 -2.26487,2.26486 -3.82595,11.60996 -2.60663,15.60413 2.19266,7.18264 9.34471,9.58033 14.17346,4.75158 z m -93.51894,-34.28815 c 3.26833,-2.86997 3.05573,-16.6687 -0.30865,-20.03309 -3.16294,-3.16294 -8.86051,-3.16903 -11.71713,-0.0125 -2.69431,2.97718 -3.8152,12.91462 -1.98951,17.63831 2.21867,5.74046 8.91053,6.88987 14.01529,2.40728 z m 186.56274,0.86506 c 2.88977,-2.2731 3.25293,-3.41397 3.25293,-10.21917 0,-9.41765 -2.18154,-13.14812 -7.68888,-13.14812 -6.43194,0 -8.36058,2.8714 -8.36058,12.44747 0,7.56212 0.31083,8.60556 3.25293,10.91982 1.78911,1.40731 3.93641,2.55875 4.7718,2.55875 0.83539,0 2.98269,-1.15144 4.7718,-2.55875 z M 259.83142,237.673 c 6.74846,-2.56577 23.08656,-20.40077 28.63256,-31.2559 l 2.3987,-4.69495 5.13088,6.0849 c 6.20809,7.36243 15.57608,13.79889 20.08368,13.79889 7.45388,0 20.73874,-13.44697 28.39275,-28.73922 5.89137,-11.7706 6.30603,-16.90063 1.66138,-20.55411 -1.78911,-1.40732 -4.03787,-2.55876 -4.99725,-2.55876 -2.54295,0 -7.601,5.88014 -11.15068,12.96302 -4.08468,8.15041 -12.35773,19.13589 -14.41103,19.13589 -1.92739,0 -10.20693,-11.53398 -14.74622,-20.54249 -4.21583,-8.36657 -6.34974,-10.32184 -11.26491,-10.32184 -4.74812,0 -5.85375,1.40663 -11.15959,14.19759 -4.88562,11.77792 -10.63743,21.38973 -17.01567,28.43471 l -5.34344,5.90203 -3.98747,-4.20535 c -6.15752,-6.49397 -12.43203,-16.46634 -17.01612,-27.04448 -2.29557,-5.29718 -4.17375,-10.14527 -4.17375,-10.77352 0,-0.62826 -1.3281,-2.38997 -2.95135,-3.91493 -2.0993,-1.9722 -4.12189,-2.65805 -7.00599,-2.37571 -3.67605,0.35988 -4.64236,1.4171 -10.3492,11.32295 -3.46202,6.0093 -8.08035,12.95377 -10.26297,15.43217 l -3.96839,4.50616 -4.43455,-4.93829 c -2.439,-2.71607 -6.75136,-9.05081 -9.58302,-14.07721 -6.32884,-11.23414 -10.32619,-14.63994 -14.56225,-12.40725 -1.61258,0.84994 -3.34012,2.15662 -3.83899,2.90374 -6.71624,10.05851 18.81321,47.62993 32.37796,47.65028 4.28189,0.006 14.75945,-7.51391 19.75197,-14.17709 4.08797,-5.45595 6.18477,-6.89492 6.18477,-4.24443 0,2.71119 11.47057,18.93652 17.62553,24.93164 6.58435,6.41336 12.773,10.76588 15.31894,10.77391 0.80457,0.003 2.90323,-0.54302 4.66372,-1.21235 z"
     id="path2" />
  <path
     style="fill:#aad400;fill-opacity:1;stroke:none;stroke-width:1.23457"
     d="m 146.52584,135.99394 c -6.76725,-8.27119 -13.38958,-19.27301 -17.57837,-29.20333 -4.46642,-10.588521 -8.68593,-27.189972 -7.61804,-29.972845 1.03083,-2.686292 8.9546,-3.741781 28.05396,-3.736934 25.33442,0.0064 38.89194,3.640929 52.50655,14.075958 8.30357,6.364339 14.76096,7.940744 17.75412,4.334207 0.7848,-0.945616 2.21214,-6.950232 3.17189,-13.34359 2.43052,-16.191024 6.54467,-27.44884 14.09849,-38.578608 3.63843,-5.360847 17.58305,-19.198336 19.34699,-19.198336 0.83629,0 5.39064,4.144087 10.12079,9.209081 13.45538,14.407884 20.86068,30.643998 23.10961,50.667733 1.69081,15.054544 7.10152,16.836208 20.80035,6.849238 8.72352,-6.35977 17.94893,-10.433794 28.55672,-12.61089 7.40032,-1.518811 41.42326,-1.569313 47.5726,-0.07061 4.16198,1.014347 4.30877,1.243683 3.98871,6.231621 -0.43589,6.793024 -5.78767,23.618405 -10.47559,32.934125 -3.78693,7.52527 -10.91847,18.32823 -16.01289,24.25653 l -2.80899,3.26878 -10.44268,-4.23347 c -11.14286,-4.51731 -29.37283,-10.05265 -44.49584,-13.51069 -14.14748,-3.23497 -75.96952,-3.97688 -93.11281,-1.11741 -15.08631,2.51636 -37.3268,8.79284 -51.71354,14.59404 l -10.6255,4.28455 z"
     id="path3" />
</svg>
