<?xml version="1.0" encoding="UTF-8" standalone="no"?>
<!-- Created with Inkscape (http://www.inkscape.org/) -->

<svg
   version="1.1"
   id="svg1"
   width="512"
   height="512"
   viewBox="0 0 512 512"
   sodipodi:docname="strawberry_filled.svg"
   inkscape:version="1.3 (0e150ed6c4, 2023-07-21)"
   xmlns:inkscape="http://www.inkscape.org/namespaces/inkscape"
   xmlns:sodipodi="http://sodipodi.sourceforge.net/DTD/sodipodi-0.dtd"
   xmlns="http://www.w3.org/2000/svg"
   xmlns:svg="http://www.w3.org/2000/svg">
  <defs
     id="defs1" />
  <sodipodi:namedview
     id="namedview1"
     pagecolor="#ffffff"
     bordercolor="#000000"
     borderopacity="0.25"
     inkscape:showpageshadow="2"
     inkscape:pageopacity="0.0"
     inkscape:pagecheckerboard="0"
     inkscape:deskcolor="#d1d1d1"
     inkscape:zoom="2.2910156"
     inkscape:cx="255.78176"
     inkscape:cy="256"
     inkscape:window-width="3440"
     inkscape:window-height="1369"
     inkscape:window-x="-8"
     inkscape:window-y="-8"
     inkscape:window-maximized="1"
     inkscape:current-layer="g1" />
  <g
     inkscape:groupmode="layer"
     inkscape:label="Image"
     id="g1">
    <path
       style="fill:#aad400;stroke-width:0.436488"
       d="m 241.59591,494.06555 c -15.73275,-1.6167 -27.348,-8.08646 -40.67986,-22.6589 -8.04285,-8.79126 -12.7899,-15.53604 -37.23319,-52.90217 -4.44126,-6.7893 -13.86043,-20.79214 -20.9315,-31.11743 -7.07106,-10.32528 -14.85467,-21.91595 -17.29689,-25.75704 -21.93995,-34.5068 -30.10803,-59.92019 -31.433468,-97.79912 -0.492361,-14.0709 0.764684,-25.71161 3.987171,-36.92268 8.653187,-30.10454 28.818237,-53.99493 58.198487,-68.95019 8.6232,-4.38943 26.24065,-10.91842 39.3398,-14.57927 30.79966,-8.60764 77.90518,-9.51782 112.06935,-2.16543 20.57226,4.4273 47.59234,15.08666 61.21624,24.14966 25.30652,16.8346 42.84146,43.63092 47.74298,72.95927 1.772,10.60275 1.78467,30.74942 0.0284,45.05613 -1.47294,11.99834 -5.04094,26.85681 -8.96661,37.34024 -6.91857,18.47593 -15.15431,32.84423 -37.14463,64.80351 -8.73488,12.6947 -14.88468,21.92338 -37.08124,55.64591 -12.39737,18.83493 -16.64875,24.41364 -25.15616,33.01018 -10.98757,11.10269 -18.07997,15.46868 -29.77564,18.32951 -2.52071,0.61658 -6.72874,1.32619 -9.35117,1.57691 -5.47576,0.52351 -22.36567,0.5118 -27.53203,-0.0191 z m 17.13703,-256.40752 c 7.62472,-2.26429 23.60843,-19.81993 29.89606,-32.83621 1.18867,-2.46069 2.31368,-4.47399 2.50002,-4.47399 0.18635,0 0.60067,0.63217 0.92071,1.40482 0.85077,2.05394 6.52414,8.64423 10.2056,11.855 7.56062,6.59398 12.09367,8.57791 16.28003,7.1251 6.66859,-2.31424 15.49361,-10.86126 21.96693,-21.27497 4.72859,-7.60692 8.68782,-17.04735 8.68782,-20.71531 0,-3.3325 -3.60941,-7.50397 -6.87149,-7.9415 -3.89347,-0.52223 -6.95359,2.61918 -11.94952,12.26693 -5.13478,9.91586 -12.36913,19.46236 -14.74862,19.46236 -2.51032,0 -10.09896,-10.61249 -16.14473,-22.57792 -2.45023,-4.84935 -3.88199,-6.91394 -5.55646,-8.01238 -2.71984,-1.78419 -6.55178,-1.36478 -8.88952,0.97296 -1.72983,1.72982 -2.88476,4.03533 -5.90152,11.78073 -4.19797,10.77812 -9.93995,20.75449 -16.42497,28.53753 -3.51916,4.22353 -5.75033,6.3221 -6.72158,6.3221 -1.54122,0 -7.46678,-6.68144 -12.18754,-13.74221 -3.55359,-5.31505 -8.66053,-15.36648 -11.31397,-22.26802 -2.87819,-7.48608 -4.10555,-9.74914 -6.05228,-11.15934 -2.05762,-1.49053 -3.69462,-1.88721 -6.12026,-1.48307 -2.57449,0.42894 -4.35375,2.45201 -7.48706,8.51299 -6.80444,13.16231 -13.88418,23.11663 -16.44107,23.11663 -2.37527,0 -9.75273,-9.77928 -15.24161,-20.20374 -4.56674,-8.67313 -7.2983,-11.65985 -10.66372,-11.65985 -2.35565,0 -6.38514,2.80322 -7.23226,5.0313 -1.19334,3.13871 -0.23371,7.11775 3.68156,15.26537 7.5142,15.63694 20.10986,29.064 28.2983,30.16618 5.30148,0.71359 14.71358,-6.15517 22.32291,-16.2908 3.06438,-4.08177 4.19025,-5.07909 4.19195,-3.71334 0.002,1.25983 2.48963,5.65621 7.21765,12.75356 5.12584,7.69452 7.85782,10.95075 13.67831,16.30307 4.66525,4.29 8.10674,6.70865 10.70099,7.52056 2.36509,0.74019 2.76806,0.73687 5.39934,-0.0445 z"
       id="path2" />
    <path
       style="fill:#aad400;stroke-width:0.436488"
       d="m 355.73743,139.4001 c -17.40012,-7.56689 -39.30706,-13.9099 -60.01705,-17.37757 -6.97183,-1.16735 -16.5527,-1.53844 -39.72038,-1.53844 -23.16768,0 -32.74855,0.37109 -39.72038,1.53844 -20.3853,3.4133 -40.79544,9.26578 -59.0982,16.94605 -3.2157,1.34938 -6.0906,2.45341 -6.38867,2.45341 -1.01554,0 -10.08508,-11.85381 -14.42409,-18.85216 -4.81438,-7.76509 -9.99498,-19.48028 -12.62699,-28.554186 -1.54178,-5.315276 -3.27108,-14.035936 -3.27108,-16.49561 0,-2.353598 0.30192,-2.549607 5.45609,-3.542219 9.50022,-1.82959 33.05099,-1.980109 44.09501,-0.281823 15.08004,2.318924 24.96835,6.521274 34.03628,14.464803 4.56102,3.995464 6.27896,4.89837 9.32002,4.89837 3.24212,0 5.78766,-1.225976 6.74813,-3.250026 0.98515,-2.076045 1.45042,-4.472309 2.26744,-11.677852 0.87586,-7.724447 1.57572,-11.221839 3.30044,-16.49317 5.4889,-16.77599 14.48043,-29.64006 29.28421,-41.896568 1.16056,-0.960862 2.84182,0.212009 8.79396,6.134795 8.92401,8.879998 13.31878,14.909467 18.20343,24.974466 4.41115,9.089348 6.39039,16.170064 7.62557,27.280477 0.77627,6.982484 1.59198,10.79853 2.65509,12.421046 0.85536,1.305443 3.93715,2.856144 5.67524,2.855677 2.11991,-5.68e-4 6.26433,-2.29802 10.8835,-6.033246 14.13218,-11.427783 29.87743,-15.400157 58.62939,-14.791627 11.86208,0.251054 18.62451,0.952337 22.22995,2.3053 1.79293,0.672807 1.85507,0.759973 1.85507,2.60206 0,4.7839 -3.42919,18.250365 -6.83219,26.830053 -4.93698,12.4472 -12.71378,25.12041 -21.75775,35.45681 l -1.74595,1.99546 z"
       id="path3" />
  </g>
</svg>
