<?xml version="1.0" encoding="UTF-8" standalone="no"?>
<!-- Created with Inkscape (http://www.inkscape.org/) -->

<svg
   version="1.1"
   id="svg1"
   width="512"
   height="512"
   viewBox="0 0 512 512"
   sodipodi:docname="strawberry_colors.svg"
   inkscape:version="1.3 (0e150ed6c4, 2023-07-21)"
   xml:space="preserve"
   xmlns:inkscape="http://www.inkscape.org/namespaces/inkscape"
   xmlns:sodipodi="http://sodipodi.sourceforge.net/DTD/sodipodi-0.dtd"
   xmlns="http://www.w3.org/2000/svg"
   xmlns:svg="http://www.w3.org/2000/svg"><defs
     id="defs1" /><sodipodi:namedview
     id="namedview1"
     pagecolor="#ffffff"
     bordercolor="#000000"
     borderopacity="0.25"
     inkscape:showpageshadow="2"
     inkscape:pageopacity="0.0"
     inkscape:pagecheckerboard="0"
     inkscape:deskcolor="#d1d1d1"
     inkscape:zoom="0.96122328"
     inkscape:cx="222.63298"
     inkscape:cy="291.81565"
     inkscape:window-width="2040"
     inkscape:window-height="1237"
     inkscape:window-x="999"
     inkscape:window-y="50"
     inkscape:window-maximized="0"
     inkscape:current-layer="g1" /><g
     inkscape:groupmode="layer"
     inkscape:label="Image"
     id="g1"><path
       style="display:inline;fill:#f44335;fill-opacity:1;stroke:none;stroke-width:1.04034;stroke-opacity:1"
       d="m 241.12168,493.66394 c -16.35076,-2.07001 -28.71409,-9.37798 -41.97962,-24.81418 -5.80658,-6.75673 -49.415,-70.80824 -73.68084,-108.22151 -22.15081,-34.15229 -30.790188,-62.64472 -30.790188,-101.54511 0,-21.48638 2.855791,-34.28078 11.528398,-51.64908 14.2322,-28.50227 38.7129,-47.29044 78.33439,-60.1192 27.19463,-8.80516 45.13361,-11.10388 79.65809,-10.20747 30.70652,0.79727 47.67104,3.90197 72.71134,13.30699 22.31339,8.3808 35.54856,16.40549 48.6254,29.48232 9.89249,9.8925 15.67368,18.1471 21.82665,31.16497 7.6769,16.24204 8.99108,22.36588 9.55116,44.50677 0.53644,21.2059 -0.34744,30.7026 -4.42475,47.54149 -5.58671,23.07242 -14.42188,40.85838 -36.70105,73.88233 -7.19009,10.65772 -22.74101,33.89042 -34.5576,51.62824 -22.86325,34.31988 -30.55439,44.17033 -40.87288,52.3481 -7.85418,6.22474 -12.97394,8.89414 -21.08102,10.99147 -7.58198,1.96149 -28.67186,2.90347 -38.14748,1.70387 z m 18.5313,-255.97944 c 7.1787,-2.72933 22.93104,-19.85362 28.26224,-30.72373 l 2.64878,-5.40075 6.3477,6.80404 c 11.99728,12.85976 18.35682,15.42204 26.21823,10.56342 9.5855,-5.92417 24.28274,-27.53194 25.99037,-38.21084 0.61415,-3.84072 0.35559,-4.61758 -2.48105,-7.45422 -1.74166,-1.74167 -4.07515,-3.16666 -5.1855,-3.16666 -3.04357,0 -7.03238,4.58928 -11.85406,13.63859 -4.2232,7.92611 -12.5248,18.61198 -14.45919,18.61198 -1.56818,0 -9.60892,-11.56184 -14.26573,-20.51284 -4.74936,-9.12885 -5.67983,-10.20127 -9.73384,-11.21876 -4.16775,-1.04604 -8.32524,3.5822 -12.27222,13.66185 -4.38228,11.19126 -11.25411,22.77006 -17.59679,29.64996 l -5.14926,5.58541 -2.81288,-2.60085 c -6.21491,-5.74647 -18.24866,-25.61514 -20.79322,-34.33125 -1.49903,-5.13479 -5.04858,-10.30287 -7.88241,-11.47669 -4.92103,-2.03835 -7.96072,0.38511 -13.64127,10.87582 -5.09774,9.41438 -12.73303,20.36735 -14.19805,20.36735 -2.36133,0 -11.32543,-11.98821 -16.23982,-21.71848 -5.41788,-10.72713 -9.81881,-12.8931 -15.22082,-7.4911 -3.66812,3.66813 -3.75448,6.02733 -0.5095,13.91889 5.18591,12.61173 16.02801,27.01091 24.09007,31.99354 7.68704,4.75085 17.64428,0.33013 27.4045,-12.16679 l 4.48248,-5.73934 3.15748,5.54326 c 7.72845,13.56799 19.01302,26.11815 27.43275,30.50941 3.5331,1.84267 4.54287,1.90241 8.26101,0.48878 z"
       id="path2" /><path
       style="fill:#60a917;fill-opacity:1;stroke:none;stroke-width:1.04034;stroke-opacity:1"
       d="m 143.64936,132.38339 c -10.47533,-14.27157 -17.74879,-29.73283 -21.26976,-45.213374 -2.15254,-9.463962 -2.1339,-11.354631 0.12055,-12.227885 4.6689,-1.808482 27.71492,-2.814505 39.0716,-1.705584 20.0057,1.953454 31.19752,5.960251 42.32771,15.153794 4.53808,3.748459 6.51915,4.720179 9.62315,4.720179 6.1796,0 7.60265,-2.256827 9.09264,-14.420099 1.54958,-12.649626 5.4981,-24.559444 11.48128,-34.63063 4.97487,-8.373954 19.0892,-23.773141 21.78957,-23.773141 2.07419,0 14.89439,13.014252 19.47175,19.766479 7.66936,11.313319 11.79451,22.871324 14.28005,40.010393 1.62834,11.228247 2.76679,13.046998 8.16686,13.046998 3.68843,0 5.22619,-0.810017 13.66804,-7.199634 10.69856,-8.09771 22.6289,-11.653955 43.80366,-13.057173 9.92582,-0.657769 30.24383,0.626307 34.25294,2.164748 2.40832,0.924157 1.85985,6.389317 -1.95133,19.443855 -4.37235,14.976684 -13.08001,31.172314 -23.24602,43.235894 l -2.94459,3.49422 -11.8984,-4.68587 c -14.10287,-5.55404 -30.13368,-10.24195 -46.08696,-13.47728 -10.73155,-2.17635 -14.27309,-2.34853 -47.99838,-2.3336 -35.95781,0.0159 -36.57812,0.0524 -49.73662,2.9226 -14.56546,3.17712 -34.43088,9.25209 -46.41558,14.19419 -4.20635,1.73456 -8.02016,3.15374 -8.47514,3.15374 -0.45498,0 -3.66214,-3.86227 -7.12702,-8.58282 z"
       id="path3" /></g></svg>
