<?xml version="1.0" encoding="UTF-8" standalone="no"?>
<!-- Created with Inkscape (http://www.inkscape.org/) -->

<svg
   version="1.1"
   id="svg1"
   width="512"
   height="512"
   viewBox="0 0 512 512"
   sodipodi:docname="strawberry_detect.svg"
   inkscape:version="1.3 (0e150ed6c4, 2023-07-21)"
   xmlns:inkscape="http://www.inkscape.org/namespaces/inkscape"
   xmlns:sodipodi="http://sodipodi.sourceforge.net/DTD/sodipodi-0.dtd"
   xmlns="http://www.w3.org/2000/svg"
   xmlns:svg="http://www.w3.org/2000/svg">
  <defs
     id="defs1" />
  <sodipodi:namedview
     id="namedview1"
     pagecolor="#ffffff"
     bordercolor="#000000"
     borderopacity="0.25"
     inkscape:showpageshadow="2"
     inkscape:pageopacity="0.0"
     inkscape:pagecheckerboard="0"
     inkscape:deskcolor="#d1d1d1"
     inkscape:zoom="1.6199927"
     inkscape:cx="247.84063"
     inkscape:cy="245.98877"
     inkscape:window-width="1646"
     inkscape:window-height="1243"
     inkscape:window-x="1003"
     inkscape:window-y="58"
     inkscape:window-maximized="0"
     inkscape:current-layer="g1" />
  <g
     inkscape:groupmode="layer"
     inkscape:label="Image"
     id="g1">
    <path
       style="fill:#000000"
       d="m 238.82997,510.95819 c -15.36378,-2.14584 -29.74278,-8.64412 -40.63742,-18.36523 -12.80474,-11.42545 -19.8517,-20.63553 -42.51853,-55.57 C 146.92273,423.53533 134.2481,404.625 127.50818,395 99.575079,355.10989 88.147864,332.17328 81.633817,302.92137 78.493892,288.82126 76.998763,274.52251 77.004021,258.64405 77.017927,216.64958 94.854574,180.87972 128.28328,155.80788 l 4.92277,-3.69211 -5.37316,-1.56202 c -10.6479,-3.09543 -19.54286,-4.55158 -31.33289,-5.12937 -16.511642,-0.80917 -19.545903,-2.22882 -19.468197,-9.10864 0.10057,-8.90399 9.3983,-10.23841 39.790717,-5.71083 l 4.32253,0.64393 -4.57361,-9.1066 C 108.6309,106.33168 103.20299,86.250878 102.88317,71.501858 102.66792,61.574905 104.29323,60.385068 122,57.507039 c 29.60239,-4.811521 57.45391,-2.074158 77.82737,7.6492 3.48101,1.661335 6.41847,2.868318 6.52769,2.682185 0.10921,-0.186133 0.98355,-3.488424 1.94298,-7.338424 2.65893,-10.669833 11.47677,-27.700675 19.41589,-37.5 7.00285,-8.643681 21.9067,-21.6156955 26.02124,-22.64838108 1.24566,-0.31263924 3.284,-0.31263924 4.52966,0 C 262.37937,1.3843045 277.28322,14.356319 284.28607,23 c 7.93912,9.799325 16.75696,26.830167 19.41589,37.5 0.95943,3.85 1.83377,7.152291 1.94298,7.338424 0.10922,0.186133 3.04668,-1.02085 6.52769,-2.682185 15.54786,-7.420311 35.29013,-10.852643 56.25892,-9.781011 16.55399,0.84601 34.01841,3.823605 37.44892,6.384853 3.3695,2.515694 3.84082,4.941973 2.88809,14.86748 -1.29351,13.475759 -6.05191,30.252109 -12.21741,43.074029 l -5.5414,11.52404 4.24513,-0.63233 c 30.30931,-4.51465 39.61283,-3.17408 39.71332,5.72244 0.0777,6.87982 -2.95656,8.29947 -19.4682,9.10864 -11.78257,0.57742 -20.68549,2.03409 -31.31096,5.12299 l -5.35122,1.55565 6.79527,5.14415 c 31.5966,23.91925 49.34931,60.38529 49.36289,101.39688 0.0105,31.82539 -6.02105,58.46443 -19.43944,85.85595 -7.31629,14.93504 -14.27938,26.24816 -30.46532,49.49781 -6.31867,9.0762 -19.07251,28.16284 -28.34186,42.41475 -19.92722,30.6387 -27.97868,41.54372 -37.90298,51.33636 -12.40633,12.24174 -21.10562,17.32223 -36.51781,21.32684 -9.09759,2.36386 -32.72941,3.38654 -43.4986,1.88243 z m 36.96219,-17.5312 c 12.8646,-2.6254 21.05824,-7.2371 31.56636,-17.76677 10.48285,-10.50435 14.67283,-16.21862 35.67997,-48.66022 8.36942,-12.925 20.72751,-31.375 27.46243,-41 30.14324,-43.0783 40.00989,-63.99532 45.48769,-96.43257 2.72016,-16.10761 2.9845,-40.11599 0.58222,-52.87942 -5.89568,-31.32416 -25.18585,-58.69432 -52.68707,-74.7559 -13.6785,-7.98867 -37.04497,-16.73584 -55.96418,-20.95002 -29.85267,-6.64958 -73.95317,-6.62973 -104.10424,0.0469 -12.96603,2.87117 -34.09834,10.06191 -45.12929,15.35625 -34.12905,16.38035 -56.44465,44.69319 -63.293042,80.30282 -3.578918,18.60932 -1.304408,52.02801 4.958512,72.85391 7.15828,23.80322 16.19978,40.69659 40.11828,74.95808 7.29532,10.45 20.11425,29.575 28.48652,42.5 20.92386,32.30197 25.18737,38.13017 35.54836,48.59443 10.20229,10.30396 19.26753,15.49251 31.22271,17.8705 9.5907,1.90768 30.62874,1.88776 40.06477,-0.0379 z M 247,233.6782 c -3.025,-2.37631 -7.65917,-6.72379 -10.29815,-9.66108 C 231.63883,218.38177 222,203.4826 222,201.29181 c 0,-2.42733 -1.49986,-1.18418 -5.73197,4.7509 C 210.80194,213.70831 201.07735,221 196.32017,221 c -7.69522,0 -20.30352,-12.55912 -28.2405,-28.13033 -6.0369,-11.84354 -6.61411,-16.51752 -2.44481,-19.79709 5.88178,-4.62661 9.6354,-2.19674 15.69194,10.15806 4.52252,9.22552 12.61318,19.76936 15.16973,19.76936 2.32422,0 10.42516,-11.13178 15.08825,-20.73329 2.46634,-5.07831 5.33914,-9.69081 6.38399,-10.25 5.23423,-2.80127 10.25073,0.10357 12.62913,7.31299 2.76199,8.37214 7.92783,19.09413 12.70798,26.37613 C 247.66553,212.34725 254.46166,220 256,220 c 1.51755,0 8.3079,-7.61263 12.48778,-14 5.47278,-8.36308 8.61571,-14.68126 11.9386,-24 2.78552,-7.81172 5.4612,-10.94005 9.38936,-10.97776 4.22107,-0.0405 6.07286,1.92394 10.59948,11.24447 4.66309,9.60151 12.76403,20.73329 15.08825,20.73329 2.57365,0 10.66362,-10.56901 15.08646,-19.70946 6.03019,-12.46229 10.54563,-15.24589 15.95552,-9.83599 3.73905,3.73904 3.20877,7.85802 -2.47246,19.20492 C 336.34103,208.10224 323.41931,221 315.67983,221 c -2.52297,0 -5.09815,-1.20608 -9.5103,-4.45411 C 300.53494,212.39794 292,202.97987 292,200.9102 c 0,-2.06952 -1.87824,-0.69824 -2.84598,2.07783 -2.98608,8.56587 -15.90032,24.71913 -25.24898,31.58168 -6.52278,4.78816 -9.90173,4.60996 -16.90504,-0.89151 z M 158.14529,138.85041 C 175.84834,131.26924 198.16828,125.0191 219,121.80959 224.5169,120.9596 237.50215,120.5 256,120.5 c 18.49785,0 31.4831,0.4596 37,1.30959 20.85523,3.21314 43.14952,9.45894 60.90818,17.06358 l 7.40818,3.17234 2.8579,-3.27276 c 8.95274,-10.25229 16.1738,-22.29463 21.24932,-35.43683 3.68201,-9.53392 7.24176,-25.159682 6.29423,-27.628902 -0.89302,-2.327173 -18.48309,-4.0323 -35.54239,-3.445369 -22.45981,0.772738 -36.75927,5.396028 -48.51977,15.687376 -6.48447,5.674415 -11.05371,6.652913 -14.58357,3.123057 -1.86335,-1.863355 -2.27285,-3.726116 -3.63524,-16.536415 C 288.16776,62.602689 282.68535,49.012524 274.49628,37.5 269.83666,30.949317 257.88285,19 255.98932,19 c -1.90042,0 -14.87707,12.999235 -18.96699,19 -7.95413,11.67038 -13.23342,25.010183 -14.45917,36.535667 -1.36239,12.810299 -1.77189,14.67306 -3.63524,16.536415 C 217.73613,92.263866 215.62168,93 213.39021,93 c -2.93309,0 -4.62995,-0.932366 -9.05169,-4.973585 -11.10603,-10.150289 -26.00011,-14.99017 -48.51394,-15.764766 -16.67123,-0.573579 -34.65167,1.124189 -35.50682,3.352662 -0.78164,2.036936 1.3656,13.156236 4.25889,22.05429 3.35723,10.324819 8.40137,20.711409 14.10953,29.053439 C 142.6802,132.559 150.04669,142 150.60705,142 c 0.10094,0 3.49315,-1.41731 7.53824,-3.14959 z"
       id="path1" />
    <path
       style="fill:#ff00ff;stroke:#000000;stroke-width:0.617287"
       d="m 243.51962,494.08428 c -16.24983,-1.30388 -27.07298,-6.88645 -40.75677,-21.02233 -8.32584,-8.60091 -12.43918,-14.24166 -31.09342,-42.63936 -8.76055,-13.33635 -19.34664,-29.24794 -23.52465,-35.35908 -25.5991,-37.44357 -29.6733,-43.94731 -37.12253,-59.25952 -8.3646,-17.19382 -13.474925,-34.90218 -15.587085,-54.01259 -3.459918,-31.30467 -0.758093,-51.48958 9.791185,-73.14848 12.37026,-25.39755 33.98412,-44.53016 63.29293,-56.02696 30.72818,-12.05355 52.83794,-16.09204 87.96336,-16.06705 34.19158,0.0243 56.16462,4.00742 85.18557,15.44176 20.12929,7.93099 31.08691,14.82544 43.86889,27.60196 6.57886,6.57604 9.82276,10.40041 13.38376,15.77862 15.84162,23.92581 21.00993,46.45711 18.35144,80.00331 -0.81087,10.23202 -2.0106,17.52295 -4.7126,28.63916 -5.44277,22.39199 -14.96881,41.4817 -36.34811,72.83983 -4.97658,7.29942 -17.25049,25.63284 -27.27534,40.74093 -24.42553,36.8108 -25.0111,37.67293 -30.33806,44.667 -5.58227,7.32926 -15.82038,17.7049 -21.39656,21.68398 -12.50383,8.92255 -29.30151,12.09509 -53.68201,10.13882 z m 18.77443,-258.04836 c 7.25789,-4.16183 20.484,-19.50703 25.73836,-29.86215 1.55044,-3.05557 2.90953,-5.64759 3.02021,-5.76003 0.11067,-0.11245 0.69872,0.84393 1.30676,2.1253 1.51546,3.19359 12.13982,13.66922 16.41864,16.18881 5.15115,3.03325 7.62144,3.17507 12.60144,0.72342 9.80529,-4.82713 23.46667,-23.30448 27.06854,-36.61089 1.34457,-4.96722 0.96584,-6.72072 -2.11755,-9.80411 -1.90395,-1.90394 -2.80714,-2.35649 -4.7031,-2.35649 -1.99233,0 -2.77213,0.44266 -5.16524,2.93212 -1.5687,1.63186 -4.32021,5.79352 -6.20475,9.3847 -4.04939,7.71649 -9.99151,16.24283 -12.82721,18.40572 l -2.05186,1.56503 -2.18453,-2.10051 c -3.07666,-2.95831 -8.84811,-11.74989 -12.85161,-19.57668 -4.11933,-8.05324 -5.97397,-10.01433 -9.88789,-10.45549 -2.72973,-0.30768 -2.96109,-0.20572 -5.44818,2.40099 -2.05505,2.15389 -3.28759,4.48806 -5.90283,11.17877 -4.99483,12.77849 -11.40309,23.38854 -18.82786,31.17296 -2.02389,2.12193 -4.03033,3.85805 -4.45875,3.85805 -1.17894,0 -7.94118,-7.70151 -11.65307,-13.27167 -4.0074,-6.01361 -9.21412,-16.38656 -12.39394,-24.69147 -3.36791,-8.79617 -6.41108,-11.5281 -11.72993,-10.53028 -2.62208,0.4919 -4.72273,3.13989 -8.62162,10.86806 -4.47913,8.87827 -13.20236,20.95861 -15.13424,20.95861 -0.23367,0 -1.83774,-1.49391 -3.56459,-3.3198 -3.56078,-3.765 -7.05604,-9.03131 -11.90748,-17.941 -4.25677,-7.81757 -7.01223,-10.83895 -9.88208,-10.8358 -2.485,0.003 -5.63331,1.77645 -7.08459,3.99139 -1.51616,2.31394 -1.1989,6.33521 0.93574,11.86081 6.4849,16.78642 22.63467,34.76301 31.2303,34.76301 5.09781,0 14.46427,-7.1041 21.42848,-16.25267 l 3.76658,-4.94799 0.7341,2.12038 c 0.93429,2.69863 4.98752,9.3486 9.5603,15.6852 4.2272,5.85772 12.82643,14.50413 17.64919,17.74604 4.58999,3.08543 8.25127,3.19341 13.14426,0.38766 z"
       id="path2" />
    <path
       style="fill:#ff00ff;stroke:#000000;stroke-width:0.617287"
       d="m 149.2063,139.89669 c -2.31827,-2.50625 -8.61794,-11.02166 -11.70511,-15.82206 -8.46104,-13.15651 -16.1839,-34.038452 -16.66148,-45.051196 l -0.16015,-3.69299 3.05024,-0.763471 c 9.35815,-2.342335 36.42503,-2.605147 48.4932,-0.470856 12.67859,2.242247 21.94214,6.207664 29.8583,12.781356 6.41267,5.325166 9.53393,6.873555 12.75782,6.32888 3.22054,-0.544107 5.37243,-2.348918 6.1067,-5.12177 0.33233,-1.25495 1.02864,-5.760082 1.54736,-10.011398 0.51873,-4.25132 1.48785,-9.859473 2.15361,-12.462564 2.89944,-11.336701 9.77993,-24.424244 17.45601,-33.203498 5.31395,-6.077648 12.74404,-12.93365 14.03521,-12.950782 1.46394,-0.01942 15.61867,14.742338 19.09059,19.909305 8.29934,12.351221 12.69013,24.262656 14.27336,38.721126 1.0324,9.428185 2.08226,12.74183 4.505,14.219046 3.75857,2.291714 7.59526,1.032424 14.99784,-4.922646 12.67057,-10.192952 25.52863,-14.036847 49.12228,-14.685018 12.55717,-0.344975 25.3398,0.45937 30.25347,1.903693 l 2.6706,0.784995 -0.0933,3.973434 c -0.1817,7.735914 -4.57169,21.986184 -10.38428,33.708194 -4.51234,9.09985 -9.71088,17.12923 -15.42911,23.83096 l -3.98926,4.67538 -7.26063,-3.07026 c -14.84305,-6.27661 -35.07757,-12.2847 -52.81752,-15.68272 -18.66645,-3.5755 -71.18835,-3.55725 -89.96496,0.0313 -17.9949,3.43911 -35.48141,8.55713 -51.65229,15.11777 l -8.75086,3.55029 z"
       id="path3" />
  </g>
</svg>
