<?xml version="1.0" encoding="UTF-8" standalone="no"?>
<!-- Created with Inkscape (http://www.inkscape.org/) -->

<svg
   version="1.1"
   id="svg1"
   width="512"
   height="512"
   viewBox="0 0 512 512"
   sodipodi:docname="frog-outline-white.svg"
   inkscape:version="1.3 (0e150ed6c4, 2023-07-21)"
   xmlns:inkscape="http://www.inkscape.org/namespaces/inkscape"
   xmlns:sodipodi="http://sodipodi.sourceforge.net/DTD/sodipodi-0.dtd"
   xmlns="http://www.w3.org/2000/svg"
   xmlns:svg="http://www.w3.org/2000/svg">
  <defs
     id="defs1" />
  <sodipodi:namedview
     id="namedview1"
     pagecolor="#ffffff"
     bordercolor="#000000"
     borderopacity="0.25"
     inkscape:showpageshadow="2"
     inkscape:pageopacity="0.0"
     inkscape:pagecheckerboard="0"
     inkscape:deskcolor="#d1d1d1"
     inkscape:zoom="2.3300781"
     inkscape:cx="255.78541"
     inkscape:cy="256"
     inkscape:window-width="3440"
     inkscape:window-height="1369"
     inkscape:window-x="-8"
     inkscape:window-y="-8"
     inkscape:window-maximized="1"
     inkscape:current-layer="svg1" />
  <path
     style="fill:#fcffff;fill-opacity:1"
     d="M 207.5,510.99511 C 97.646621,506.32694 30.137005,494.21646 7.9098256,475.19082 3.3511719,471.28878 0.0564985,465.18004 0.021962,460.56572 c -0.03207956,-4.28605 3.6192785,-11.1181 7.8178303,-14.62794 8.0703907,-6.74655 27.8917547,-14.38256 50.1503857,-19.32 l 10.490179,-2.32695 0.727864,-4.26368 c 1.08554,-6.35886 4.399257,-12.44244 9.535632,-17.50626 C 81.26597,400.0344 83.729181,398 84.217655,398 c 0.488475,0 -2.915292,-4.21122 -7.563926,-9.35826 -9.61248,-10.6431 -21.914926,-26.8373 -26.417071,-34.77383 -10.578945,-18.64893 -9.865749,-42.51889 1.805635,-60.43282 7.454589,-11.44175 18.148953,-19.48671 31.457707,-23.66445 9.579104,-3.00696 24.26888,-2.97986 33.5,0.0618 3.575,1.17797 6.82016,2.14756 7.21146,2.15466 0.3913,0.007 1.19081,-1.8996 1.77668,-4.2371 2.07032,-8.26002 7.23336,-24.19382 9.5011,-29.32159 l 2.29708,-5.19409 -6.96438,-6.86716 C 106.94199,202.82055 97.075246,168.1569 105.94283,138.96232 l 2.0896,-6.87957 -3.06286,-4.97778 C 97.20805,114.49089 93.454521,98.133269 94.241798,80.354069 95.209513,58.499976 103.15754,40.628088 118.89832,24.911579 136.94152,6.8961947 156.88904,-0.7878537 182.92659,0.24704418 193.41023,0.66373074 197.07895,1.2625087 205,3.8496852 c 18.68198,6.1019151 34.68242,18.3639988 45,34.4861538 3.025,4.726837 5.725,8.606127 6,8.620643 0.275,0.01452 2.49444,-3.206117 4.93209,-7.156964 C 278.3962,11.494413 314.16516,-4.4596253 347,1.4106376 365.84282,4.7793854 379.08043,11.825854 393,25.896731 406.56351,39.607682 414.00667,53.946552 416.93174,72 c 3.00289,18.533734 -0.84603,39.5906 -10.10789,55.29875 l -2.85875,4.84845 2.05441,6.65139 c 5.20236,16.84327 4.08345,36.58677 -3.1091,54.86108 -4.42978,11.25486 -10.70782,20.92859 -19.84751,30.58271 l -8.43709,8.91197 1.78396,4.67283 c 4.18319,10.95725 6.90894,19.13942 8.69205,26.09179 1.04654,4.08043 2.07423,7.59041 2.28376,7.79995 0.20954,0.20953 3.246,-0.61213 6.7477,-1.82593 9.42107,-3.26563 24.69369,-3.23988 34.81645,0.0587 34.04449,11.09366 50.13176,50.41217 33.52809,81.9452 -4.32644,8.2166 -16.61173,24.7446 -27.19596,36.58804 l -8.02965,8.98493 4.3897,3.86397 c 5.35434,4.71307 8.83394,10.45787 10.66283,17.60426 l 1.3793,5.38961 10.40798,2.30851 c 22.17443,4.91833 42.00965,12.56492 50.06819,19.30157 4.19855,3.50984 7.84991,10.34189 7.81783,14.62794 -0.19346,25.84682 -63.92141,42.74887 -186.47804,49.45804 -26.30086,1.4398 -93.88433,1.99613 -118,0.97135 z m 110,-17.00225 c 39.0649,-1.8679 67.49421,-4.39947 96.5,-8.5931 39.79127,-5.753 72.33096,-14.80089 79.08491,-21.99014 2.21744,-2.36036 2.22134,-2.41431 0.32956,-4.55301 -4.15653,-4.69904 -24.16091,-12.03355 -45.56728,-16.70702 l -8.6528,-1.8891 -3.21685,3.41047 c -5.87764,6.23143 -10.06864,7.70055 -23.23259,8.144 l -11.75505,0.39599 -0.62453,3.90561 c -0.99926,6.24906 -6.19536,13.8981 -11.7844,17.34753 l -4.91902,3.03591 -29.94478,0.29257 c -35.36033,0.34547 -37.00827,0.0468 -45.25887,-8.20383 C 303.05212,463.18255 300,456.54387 300,450.19102 c 0,-3.92939 1.70155,-3.86858 -15.5,-0.55395 -12.86924,2.47981 -44.40617,2.44201 -57.5,-0.0689 -16.66231,-3.19525 -15,-3.2662 -15,0.64021 0,6.33603 -3.05701,12.97909 -8.4583,18.38038 -8.2506,8.25059 -9.89854,8.5493 -45.25887,8.20383 L 128.33805,476.5 l -4.91902,-3.03591 c -5.62297,-3.47037 -10.78645,-11.10669 -11.80127,-17.45301 L 110.97636,452 h -9.80668 C 88.622967,452 82.32173,450.17722 76.839243,444.96186 74.548616,442.78284 71.727931,441 70.571055,441 c -3.726169,0 -28.89062,6.71272 -37.251253,9.93692 C 24.44202,454.36055 17,459.17383 17,461.49208 c 0,3.58918 14.904716,10.18551 33.687857,14.90911 22.47716,5.65259 49.575163,9.94795 85.312143,13.52303 16.60655,1.66129 29.45662,2.52188 66,4.42012 15.00088,0.77922 97.07642,0.52945 115.5,-0.35148 z M 189.70145,459.04048 c 4.18108,-2.54935 6.59967,-7.30461 6.0627,-11.92004 C 195.53248,445.1292 193.70835,436.3 191.71052,427.5 184.04028,393.71427 181.06519,370.19238 180.29088,337.21312 l -0.57022,-24.28687 2.31398,-2.46313 c 3.12015,-3.32124 8.19437,-3.32502 11.51081,-0.009 1.88607,1.88606 2.45455,3.50729 2.45455,7 0,2.5 0.27735,4.54545 0.61634,4.54545 0.33899,0 3.27936,-2.46548 6.53415,-5.47885 6.79172,-6.28793 17.01343,-11.56075 28.47135,-14.68682 11.45858,-3.12625 37.32766,-3.1176 48.82014,0.0163 11.10752,3.02895 21.86524,8.6135 28.59543,14.84447 3.15145,2.91769 6.00726,5.30488 6.34625,5.30488 0.33899,0 0.61634,-2.04545 0.61634,-4.54545 0,-3.49271 0.56848,-5.11394 2.45455,-7 3.31945,-3.31946 8.39059,-3.31274 11.51709,0.0153 l 2.32026,2.4698 -0.58944,24.2802 c -0.80575,33.19087 -3.76302,56.58379 -11.41298,90.28019 -1.99783,8.8 -3.82196,17.6292 -4.05363,19.62044 -0.53697,4.61543 1.88162,9.37069 6.0627,11.92004 2.9645,1.80756 5.18471,1.95232 29.9969,1.95578 l 26.79546,0.004 2.57237,-2.57237 c 2.2642,-2.2642 2.52003,-3.20364 2.13541,-7.84164 -0.74655,-9.00244 -6.64342,-14.58151 -16.78847,-15.8837 -5.76533,-0.74003 -8.37804,-3.68311 -7.69449,-8.66745 0.26662,-1.94416 2.10062,-8.14027 4.07555,-13.76912 6.86877,-19.57702 11.13287,-46.85746 12.196,-78.02627 1.01936,-29.88546 -1.8976,-52.01464 -10.17017,-77.15477 -2.42794,-7.37843 -4.59102,-13.59193 -4.80687,-13.80777 -0.21584,-0.21584 -2.60224,0.96727 -5.30311,2.62913 -8.72787,5.37031 -27.53113,13.93171 -38.42856,17.49709 -41.08654,13.44252 -92.3277,12.10953 -131.41776,-3.4187 -8.45754,-3.35969 -23.88184,-10.96258 -29.73027,-14.65453 -2.15573,-1.36085 -4.06259,-2.32929 -4.23748,-2.15209 -0.17488,0.17721 -2.1756,5.71258 -4.44602,12.30083 -9.60645,27.87565 -12.64526,56.31157 -9.99418,93.52136 1.8012,25.28106 5.64211,46.2857 11.61163,63.5 4.414,12.72866 4.69394,13.93576 3.93407,16.96334 -0.70528,2.81004 -5.18117,5.53666 -9.08874,5.53666 -3.82511,0 -10.02377,3.50867 -12.60647,7.13573 -1.42312,1.99859 -2.4275,5.13964 -2.70204,8.45026 -0.38462,4.638 -0.12879,5.57744 2.13541,7.84164 l 2.57237,2.57237 26.79546,-0.004 c 24.81219,-0.003 27.0324,-0.14822 29.9969,-1.95578 z m -70.5072,-28.3405 c 2.51664,-2.91501 6.68097,-6.40251 9.25406,-7.75 5.40232,-2.82911 5.35143,-1.37438 0.67298,-19.23956 -7.20992,-27.53191 -9.62089,-50.68415 -8.71721,-83.71042 0.35366,-12.925 0.74492,-25.06684 0.86947,-26.98186 0.21975,-3.37881 0.0489,-3.55334 -5.77355,-5.89718 -24.288372,-9.77737 -50.810093,5.1226 -55.624225,31.24984 -1.529649,8.3017 -0.08923,17.28239 4.104377,25.58988 5.304503,10.50816 17.858707,26.18992 32.284207,40.32699 11.840071,11.60332 14.068971,14.25827 14.068971,16.75814 0,3.93078 -3.81378,7.95419 -7.53976,7.95419 -3.402273,0 -9.471422,2.39899 -12.113381,4.78814 C 87.861114,416.33745 85,422.50162 85,426.0259 c 0,7.67719 4.225825,9.87997 19.05927,9.93496 L 114.61855,436 Z m 163.10605,2.6721 c 6.5143,-1.22616 20.59931,-5.0373 21.44027,-5.80133 1.15478,-1.04913 7.3736,-36.53296 9.21344,-52.57075 2.04733,-17.8465 1.8181,-20.84172 -2.25078,-29.40963 C 303.9346,331.33755 291.98921,321.78936 275.5,317.4517 c -8.1868,-2.15362 -30.8132,-2.15362 -39,0 -16.40874,4.31649 -27.77967,13.25803 -34.75286,27.32796 -4.85831,9.80268 -4.96601,12.17534 -1.71793,37.849 1.74033,13.75607 7.26492,43.9988 8.21014,44.94402 0.167,0.167 4.16158,1.42163 8.87685,2.78806 7.75477,2.24724 17.4077,3.9587 28.3838,5.03242 7.03488,0.68817 28.73972,-0.50386 36.8003,-2.02108 z m 141.88832,-1.25679 c 2.66628,-2.98441 2.94696,-3.86595 2.37324,-7.45382 -1.33488,-8.34786 -7.09318,-13.96859 -15.60804,-15.23514 -5.89584,-0.87697 -8.63926,-2.71765 -9.43234,-6.32854 -0.92688,-4.22005 0.75888,-6.68208 10.47852,-15.30369 13.49827,-11.97337 30.70416,-33.27758 36.40764,-45.07969 9.75271,-20.18109 1.23467,-44.35699 -19.18416,-54.44853 -7.28669,-3.60127 -8.05913,-3.76565 -17.67162,-3.76052 -8.85897,0.005 -10.74775,0.3307 -15.91582,2.74685 -5.70379,2.6666 -5.84704,2.83035 -5.24424,5.99464 1.39224,7.3084 1.85305,49.545 0.68465,62.75315 -1.37857,15.58398 -5.00424,36.3302 -8.73816,50 -4.08127,14.94148 -4.17642,14.05309 1.87427,17.5 3.09985,1.7659 6.71034,4.98341 8.77681,7.8215 L 396.5,436.14301 408.83235,435.8215 421.1647,435.5 Z M 288.5,253.69353 c 39.52122,-7.49733 69.58251,-23.6985 88.3856,-47.63434 4.55181,-5.79434 10.07182,-15.76894 8.02738,-14.50541 -0.67274,0.41578 -4.44615,3.06835 -8.38536,5.8946 -38.97725,27.9649 -105.13696,39.24743 -167.52762,28.56928 -28.10012,-4.80933 -54.9544,-15.2436 -73.52762,-28.56928 -3.93921,-2.82625 -7.71262,-5.47882 -8.38536,-5.8946 -2.47506,-1.52967 4.02379,9.46531 9.9461,16.82717 19.14187,23.79472 54.13225,40.95997 94.96688,46.58796 9.82998,1.3548 47.06609,0.51427 56.5,-1.27538 z m 2.30744,-42.24245 c 37.94453,-4.9341 70.30314,-18.98522 91.52249,-39.74194 10.65732,-10.42497 10.97298,-11.05323 9.66555,-19.23746 -0.59426,-3.71991 -2.00762,-9.28531 -3.14081,-12.36757 -3.42892,-9.32666 -3.41565,-9.55415 0.98326,-16.85179 C 398.27276,109.25923 401.275,99.217951 401.275,85 c 0,-11.641398 -1.94298,-19.747625 -7.43038,-31 C 387.97944,41.972952 376.02705,30.02056 364,24.155377 c -11.3463,-5.533208 -19.39996,-7.475241 -31,-7.475241 -11.51762,0 -19.70963,1.954043 -30.5,7.275174 -14.44646,7.124083 -23.67339,16.542217 -31.16818,31.814055 -2.50197,5.09815 -5.50028,9.93565 -6.66293,10.75 -2.85117,1.997035 -14.48661,1.997035 -17.33778,0 -1.16265,-0.81435 -4.24305,-5.87685 -6.84533,-11.25 -4.03796,-8.337502 -6.00906,-11.036271 -13.44843,-18.413257 -14.6575,-14.534571 -29.8851,-20.44298 -50.53735,-19.608829 -8.52349,0.344266 -12.79894,1.058433 -18.9904,3.17214 -20.25704,6.915559 -35.137,21.478563 -42.71735,41.80743 -2.60311,6.980969 -3.15541,10.069334 -3.53612,19.773151 -0.6594,16.807572 1.82994,26.19582 10.96354,41.34766 l 4.12781,6.84766 -2.69908,8.15234 c -1.48449,4.48379 -3.15577,11.0162 -3.71396,14.51648 -0.86684,5.43583 -0.7675,6.74863 0.68107,9 3.50155,5.44212 16.2667,16.94916 25.96347,23.40457 24.72982,16.46331 53.12374,24.96733 93.92102,28.12949 9.26169,0.71786 38.52235,-0.41465 50.30744,-1.94712 z M 166,134.18572 c -19.11753,-4.99701 -34.53422,-22.64529 -36.97564,-42.327952 -2.29208,-18.478609 5.32604,-36.494431 19.99968,-47.296551 8.89831,-6.550561 15.54956,-8.799651 27.5964,-9.331588 16.36118,-0.72244 27.27768,3.440352 38.44644,14.660798 C 230.86219,65.758827 234.33827,87.574101 224.32617,108 213.8248,129.42404 189.52324,140.3343 166,134.18572 Z m 27.48694,-17.55111 c 6.17592,-2.82743 13.46554,-9.65319 16.32842,-15.2894 2.78521,-5.483296 4.49129,-14.784281 3.70793,-20.21448 C 211.92384,70.043413 204.05553,59.13911 194.14151,54.270468 189.17909,51.833491 187.35645,51.5 179,51.5 c -8.92386,0 -9.88365,0.208008 -15.82601,3.42984 -11.44383,6.20462 -17.21397,15.397959 -17.93186,28.57016 -0.62369,11.443556 1.92353,17.94676 10.25221,26.17453 5.03155,4.97058 7.49382,6.58082 12.62796,8.25824 8.26392,2.69997 17.68473,2.21782 25.36464,-1.29816 z M 173.07258,90.365141 c -2.904,-3.691832 -2.60182,-6.989746 0.96748,-10.559051 2.54425,-2.544244 3.56359,-2.938945 6.25,-2.420065 C 190.12189,79.285042 188.77627,93 178.75813,93 c -2.71208,0 -4.12977,-0.656999 -5.68555,-2.634859 z m 147.20193,44.095819 c -18.30858,-4.93119 -32.45355,-19.39164 -36.73473,-37.554028 -6.09995,-25.878332 8.87747,-52.086945 34.24343,-59.92169 9.27639,-2.865188 22.57507,-2.699099 31.32951,0.391277 21.34307,7.534241 34.1151,25.548016 34.12027,48.123481 0.003,14.85653 -5.18503,26.59628 -16.41784,37.14836 -12.24916,11.50683 -30.48819,16.13613 -46.54064,11.8126 z m 23.25408,-16.54251 c 5.64701,-1.74418 7.75125,-3.08128 12.98329,-8.25 C 364.80995,101.47083 367.36872,94.955538 366.78911,83.5 366.10285,69.936665 359.34113,59.868174 347.04563,54.101113 342.3594,51.903092 340.10528,51.5 332.5,51.5 c -7.8101,0 -9.74587,0.366287 -14.64151,2.770468 -13.81784,6.785755 -21.85789,22.730762 -18.83841,37.360262 2.16052,10.46778 7.46238,18.22355 15.79642,23.10762 9.31703,5.46014 18.15937,6.43951 28.71209,3.1801 z M 327.17431,90.685549 c -4.37087,-4.652585 -1.84206,-12.067675 4.53563,-13.299524 2.68641,-0.51888 3.70575,-0.124179 6.25,2.420065 3.5693,3.569305 3.87148,6.867219 0.96748,10.559051 -2.76838,3.519426 -8.59847,3.678363 -11.75311,0.320408 z"
     id="path1" />
</svg>
