<?xml version="1.0" encoding="UTF-8" standalone="no"?>
<!-- Created with Inkscape (http://www.inkscape.org/) -->

<svg
   version="1.1"
   id="svg1"
   width="512"
   height="512"
   viewBox="0 0 512 512"
   sodipodi:docname="frog-filled.svg"
   inkscape:version="1.3 (0e150ed6c4, 2023-07-21)"
   xmlns:inkscape="http://www.inkscape.org/namespaces/inkscape"
   xmlns:sodipodi="http://sodipodi.sourceforge.net/DTD/sodipodi-0.dtd"
   xmlns="http://www.w3.org/2000/svg"
   xmlns:svg="http://www.w3.org/2000/svg">
  <defs
     id="defs1" />
  <sodipodi:namedview
     id="namedview1"
     pagecolor="#ffffff"
     bordercolor="#000000"
     borderopacity="0.25"
     inkscape:showpageshadow="2"
     inkscape:pageopacity="0.0"
     inkscape:pagecheckerboard="0"
     inkscape:deskcolor="#d1d1d1"
     inkscape:zoom="2.3300781"
     inkscape:cx="255.78541"
     inkscape:cy="256"
     inkscape:window-width="3440"
     inkscape:window-height="1369"
     inkscape:window-x="-8"
     inkscape:window-y="-8"
     inkscape:window-maximized="1"
     inkscape:current-layer="svg1" />
  <path
     style="fill:#aad400;fill-opacity:1;stroke-width:0.42917"
     d="m 193.77033,493.76293 c -31.19883,-1.81148 -40.48978,-2.4509 -53.43169,-3.67723 -52.10801,-4.93762 -92.609654,-12.68794 -112.846369,-21.5941 -4.764011,-2.09663 -7.894071,-3.95714 -9.457939,-5.62181 -0.902034,-0.96017 -0.952418,-1.19509 -0.455466,-2.12365 1.434732,-2.68082 10.133952,-7.57973 18.712121,-10.53761 6.771025,-2.33475 21.850242,-6.50703 28.792805,-7.96671 l 5.643725,-1.1866 1.866753,1.10677 c 1.026712,0.60872 3.025512,2.10867 4.441774,3.33322 1.416261,1.22456 3.926907,2.87025 5.579212,3.65709 4.451713,2.11994 8.544739,2.782 18.999474,3.07322 8.82474,0.24581 9.13427,0.28418 9.30013,1.15269 1.24857,6.53836 2.78123,10.19003 6.07163,14.46616 2.1455,2.78824 4.24887,4.58238 8.3312,7.10641 l 2.7896,1.72476 23.68223,0.25629 c 32.99674,0.3571 40.43135,-0.12603 45.65028,-2.96653 2.0365,-1.1084 7.61318,-6.40229 9.66408,-9.17402 2.95674,-3.99593 4.50142,-8.16617 4.84849,-13.08969 l 0.27227,-3.86253 1.58736,-0.13188 c 0.87305,-0.0725 4.25277,0.37741 7.51048,0.99988 11.25896,2.15133 14.24693,2.41295 30.33139,2.65576 17.33372,0.26168 25.4832,-0.18026 34.60263,-1.87647 10.06243,-1.8716 12.32352,-2.17908 13.04692,-1.77425 0.52379,0.29313 0.68652,1.07278 0.68652,3.28917 0,4.40949 1.88577,9.71042 4.9057,13.79001 2.05288,2.77321 7.62856,8.06589 9.66456,9.17402 5.21893,2.8405 12.65354,3.32363 45.65028,2.96653 l 23.68223,-0.25629 2.7896,-1.72684 c 4.48484,-2.77623 7.11514,-5.24457 9.59066,-9.00015 2.45408,-3.72306 3.84853,-6.99254 4.33747,-10.16984 0.55376,-3.59854 -0.16532,-3.29274 8.50769,-3.6181 17.0389,-0.63922 20.05404,-1.55073 26.79665,-8.10096 l 3.52585,-3.42524 3.77004,0.74472 c 16.14032,3.18828 37.89736,10.10725 45.54895,14.48505 3.0387,1.73858 5.6444,4.08129 5.6444,5.07474 0,0.42275 -1.00258,1.67005 -2.22799,2.77179 -11.67214,10.49424 -67.90021,22.29806 -129.74183,27.23637 -37.15072,2.96664 -42.08428,3.12287 -103.00084,3.26177 -42.63411,0.0972 -58.12008,-0.008 -65.66303,-0.44592 z"
     id="path2" />
  <path
     style="fill:#aad400;fill-opacity:1;stroke-width:0.42917"
     d="m 94.214987,435.15003 c -4.953255,-0.82811 -8.034228,-3.05147 -8.630119,-6.22784 -0.789041,-4.20595 1.024864,-9.94889 4.378088,-13.86129 2.09392,-2.4431 7.185358,-4.94609 11.435264,-5.62165 1.70759,-0.27145 3.64357,-0.70128 4.30217,-0.95519 1.73615,-0.66933 4.00231,-3.52653 4.56294,-5.75301 0.84203,-3.34403 -0.0412,-4.60723 -11.022815,-15.76491 -15.518698,-15.7675 -23.517409,-25.0884 -30.259312,-35.26119 -3.891628,-5.87205 -5.300453,-8.52616 -6.948101,-13.08969 -5.17816,-14.34208 -1.746237,-30.27483 8.945736,-41.5307 3.807101,-4.00788 7.197146,-6.44424 12.343897,-8.87129 4.681339,-2.20758 7.901262,-3.10675 12.962309,-3.61974 6.461426,-0.65492 12.604116,0.28194 19.640756,2.99556 5.56048,2.14435 5.20121,1.06194 4.79976,14.46086 -0.60741,20.27269 -0.37402,50.8336 0.44967,58.88215 1.5834,15.47182 3.48146,25.86206 8.01438,43.87174 1.64714,6.54421 2.9948,12.66219 2.9948,13.5955 0,2.03661 -0.49017,2.57881 -3.98158,4.40414 -1.95714,1.02321 -4.17946,2.91999 -8.31884,7.10022 l -5.64829,5.70401 -8.9435,-0.0505 c -4.91892,-0.0278 -9.90367,-0.211 -11.077213,-0.4072 z"
     id="path3" />
  <path
     style="fill:#aad400;fill-opacity:1;stroke-width:0.42917"
     d="m 130.97906,458.61506 c -1.20351,-1.27254 -2.32019,-2.83961 -2.48152,-3.48239 -0.47221,-1.88143 0.15869,-7.22256 1.17351,-9.93493 1.83557,-4.906 7.76367,-9.12041 14.09135,-10.01784 1.88269,-0.26701 3.98566,-0.90591 5.25394,-1.5962 5.11936,-2.7863 5.24034,-5.3788 0.8569,-18.36157 -3.51673,-10.41577 -4.73466,-14.64253 -6.50949,-22.59075 -4.17646,-18.70357 -6.36654,-38.91997 -6.75827,-62.38494 -0.51398,-30.78781 2.3528,-49.97533 11.47778,-76.82146 1.68485,-4.95692 3.19424,-9.24696 3.35421,-9.53344 0.20306,-0.36366 1.77794,0.33094 5.21797,2.30137 6.29815,3.60754 15.25265,8.09687 23.16686,11.61467 37.75234,16.78062 88.749,19.71746 131.32607,7.56291 12.59817,-3.59642 31.58687,-11.83496 44.20452,-19.1788 l 4.93546,-2.87258 0.52344,1.1904 c 1.51657,3.44895 6.91776,20.70767 8.72674,27.88505 3.88587,15.41768 5.47105,27.78492 5.84742,45.62053 0.57347,27.17567 -2.51435,57.78937 -8.07316,80.04023 -0.70763,2.83253 -2.32736,8.33663 -3.59939,12.23135 -3.66464,11.22042 -4.49798,14.44344 -4.49798,17.39647 0,2.29596 0.17127,2.91221 1.12405,4.04453 1.55898,1.85274 2.83336,2.41894 7.66706,3.4064 7.40787,1.51332 11.21124,4.05804 13.73183,9.18752 1.16827,2.37747 1.5797,3.84258 1.7875,6.36534 0.35648,4.3279 0.0838,5.19093 -2.50492,7.92813 l -2.1882,2.31369 -20.00145,-0.0197 c -23.46433,-0.0232 -32.49141,-0.40255 -35.12895,-1.47639 -2.62085,-1.06705 -5.78596,-4.69351 -6.73792,-7.72006 -0.97115,-3.08753 -0.91009,-3.54984 2.60881,-19.75278 9.23647,-42.52979 11.58231,-61.07527 12.37727,-97.8508 0.13267,-6.13713 0.35048,-13.40955 0.48404,-16.16092 l 0.24283,-5.0025 -1.56463,-1.73186 c -3.37902,-3.74017 -7.84689,-4.49409 -11.51844,-1.94366 -2.43986,1.69484 -3.7234,4.32865 -3.73092,7.65578 -0.006,2.69617 -0.3285,4.52717 -0.79524,4.51633 -0.14951,-0.003 -2.00997,-1.55594 -4.13436,-3.44993 -11.35255,-10.1213 -25.6423,-16.50877 -40.34199,-18.03274 -6.46308,-0.67005 -23.43409,-0.67153 -29.39816,-0.003 -7.76376,0.87083 -14.44556,2.73563 -22.1019,6.16836 -7.13207,3.19767 -11.55011,6.18675 -19.72574,13.34569 -1.31879,1.1548 -2.52367,1.97376 -2.67751,1.81993 -0.15383,-0.15384 -0.40267,-1.98457 -0.55297,-4.0683 -0.31913,-4.42442 -1.10664,-6.09426 -3.75039,-7.95235 -3.6317,-2.55246 -8.11927,-1.79624 -11.49157,1.93649 l -1.55833,1.72488 0.23683,4.79489 c 0.13026,2.63718 0.34415,10.00929 0.47531,16.38247 0.75709,36.78653 3.19981,56.00418 12.46492,98.06538 3.35235,15.21877 3.57358,17.8318 1.80096,21.27116 -1.28203,2.48749 -3.99748,5.11792 -6.27682,6.0803 -2.31248,0.97638 -11.99844,1.36062 -34.86771,1.38319 l -20.00145,0.0197 z"
     id="path4" />
  <path
     style="fill:#aad400;fill-opacity:1;stroke-width:0.42917"
     d="m 237.76027,434.31839 c -7.81532,-1.1159 -15.15945,-2.68869 -22.69481,-4.86023 -5.48715,-1.5813 -6.33817,-1.94775 -6.81015,-2.9325 -1.29624,-2.7045 -6.55319,-32.38427 -8.46344,-47.78299 -2.6646,-21.4796 -2.40774,-24.88113 2.61287,-34.60197 3.72797,-7.21803 9.73117,-14.11435 15.98093,-18.35848 5.63511,-3.82674 14.19999,-7.42331 20.49067,-8.60448 6.90419,-1.29636 26.94147,-1.31471 34.0199,-0.0311 5.89841,1.06958 14.74452,4.73424 20.2286,8.38004 3.99397,2.65519 8.91926,7.33227 11.93255,11.33121 2.92354,3.87982 6.46272,10.59656 7.82324,14.8471 2.04175,6.37882 0.97464,19.18863 -4.14718,49.78373 -2.01103,12.01289 -4.17067,23.02363 -4.88365,24.8989 -0.48224,1.26839 -1.09211,1.5297 -8.01447,3.43396 -14.51579,3.99313 -21.61654,4.9172 -39.62074,5.1561 -10.8322,0.14374 -13.49722,0.0485 -18.45432,-0.65925 z"
     id="path5" />
  <path
     style="fill:#aad400;fill-opacity:1;stroke-width:0.42917"
     d="m 394.33972,432.72017 c -2.70142,-3.81758 -6.43283,-7.32664 -10.01784,-9.42093 -3.78465,-2.21092 -4.50629,-3.00271 -4.50629,-4.94439 0,-0.90922 1.14481,-6.13826 2.54401,-11.62008 3.77906,-14.80562 6.43482,-29.13193 8.49073,-45.80267 0.65882,-5.34217 0.76744,-9.83723 0.76744,-31.75859 0,-17.95361 -0.17133,-27.41949 -0.57702,-31.88033 -0.47107,-5.17975 -0.47547,-6.46708 -0.0239,-7.01114 0.80002,-0.96397 6.66836,-3.82954 9.6417,-4.70814 2.01986,-0.59685 4.2341,-0.75734 10.70108,-0.77561 9.33538,-0.0264 10.6834,0.24684 17.13655,3.4733 5.11202,2.55591 8.36953,4.91934 12.09401,8.77461 12.57942,13.02114 15.16024,32.13887 6.44295,47.72684 -7.27607,13.01083 -21.79198,30.56546 -35.97126,43.50139 -8.05917,7.35248 -9.49016,9.23565 -9.69073,12.75297 -0.278,4.87505 2.24927,7.21439 9.30241,8.61064 4.85791,0.96168 7.90909,2.45466 10.68443,5.22802 2.55803,2.5562 4.1954,5.74172 4.90072,9.5344 0.62706,3.37182 0.2289,4.56156 -2.66114,7.95182 l -2.35383,2.76126 -3.86913,0.23431 c -2.12802,0.12887 -7.66554,0.31939 -12.3056,0.42336 l -8.43647,0.18905 z"
     id="path6" />
  <path
     style="fill:#aad400;fill-opacity:1;stroke-width:0.42917"
     d="m 238.40402,213.02107 c -0.70813,-0.0813 -3.4119,-0.35286 -6.00838,-0.60338 -35.55974,-3.43094 -63.07879,-12.27126 -85.94051,-27.60784 -9.86588,-6.61844 -23.68953,-19.2621 -26.04963,-23.82605 -1.60123,-3.09644 -0.18461,-11.30892 4.30851,-24.97739 l 1.91786,-5.83433 -3.69272,-6.18243 c -6.54585,-10.95921 -9.32277,-17.7109 -10.71922,-26.062268 -0.96196,-5.75291 -0.69967,-22.930227 0.42712,-27.972646 0.90464,-4.048293 4.37972,-12.911709 6.77093,-17.2697 4.76716,-8.688163 12.33436,-17.265728 20.06303,-22.741837 8.21227,-5.818756 19.12442,-10.359389 28.09816,-11.69186 10.45002,-1.551679 24.57409,-0.636122 33.05788,2.142893 10.55094,3.456145 21.60215,11.058522 30.29607,20.841348 4.081,4.592147 5.44117,6.650517 9.52074,14.40792 6.53789,12.431964 6.41404,12.3335 15.54614,12.359246 9.02944,0.02546 9.20962,-0.118121 15.86197,-12.639795 4.84331,-9.116507 7.50956,-12.879483 13.09477,-18.481098 7.16457,-7.185619 14.99736,-12.118218 25.4367,-16.018447 5.90693,-2.206881 10.40243,-3.191275 16.99118,-3.720615 12.97089,-1.042082 24.3425,1.215448 36.33709,7.213758 10.1731,5.087411 20.16341,14.129082 26.59013,24.065226 4.05247,6.265387 7.93627,15.632318 9.47713,22.856895 1.45962,6.843676 1.45761,20.621064 -0.004,27.645052 -1.48423,7.132478 -5.32314,16.269038 -10.09818,24.033528 -2.62006,4.26037 -3.4134,6.17459 -3.42418,8.26208 -0.005,1.03483 0.90331,4.65705 2.09937,8.36882 2.36418,7.33683 3.42449,11.96005 3.77635,16.46578 0.21792,2.79068 0.13154,3.25345 -0.99933,5.35314 -2.34849,4.36049 -14.48406,15.75009 -23.41955,21.97997 -22.17655,15.46162 -53.49909,26.04185 -84.68169,28.60405 -13.25583,1.08919 -38.95526,1.68224 -44.6337,1.02998 z M 187.53557,135.3842 c 24.52095,-3.97665 42.49964,-25.39182 42.49964,-50.623094 0,-8.089896 -1.56888,-14.701313 -5.20974,-21.954427 -5.10712,-10.174088 -16.52766,-20.873335 -26.33427,-24.671057 -5.88168,-2.277744 -10.2348,-2.986334 -18.45432,-3.003945 -11.08117,-0.02374 -17.55171,1.271713 -24.24811,4.854679 -9.8364,5.263042 -17.29959,12.969794 -22.11035,22.831915 -9.66708,19.817632 -5.79023,42.776959 9.86705,58.434239 11.68333,11.68332 27.58598,16.792 43.9901,14.13169 z m 153.08297,0.22663 c 10.62973,-1.72522 20.25956,-6.72679 28.03863,-14.56276 6.79088,-6.84057 10.91204,-13.78566 13.20332,-22.250606 1.0531,-3.890569 1.1275,-4.774342 1.1275,-13.392602 0,-8.58894 -0.077,-9.511351 -1.11312,-13.335935 -2.56361,-9.46282 -6.10092,-15.648298 -12.76209,-22.316238 -7.55089,-7.558561 -16.09319,-12.218163 -25.99124,-14.177533 -4.00732,-0.793271 -16.60626,-0.794216 -20.60017,-0.0015 -20.62954,4.094345 -36.7722,21.113239 -39.93662,42.104404 -1.38977,9.219048 -0.3355,17.985822 3.23427,26.8944 2.43671,6.08097 5.62014,10.83756 10.73756,16.04379 6.25465,6.36319 12.58142,10.42872 20.171,12.96169 2.78463,0.92936 4.41933,1.33821 8.79799,2.20046 1.82737,0.35984 12.57895,0.24052 15.09297,-0.16752 z"
     id="path7" />
  <path
     style="fill:#aad400;fill-opacity:1;stroke-width:0.42917"
     d="m 328.11729,119.26109 c -5.47138,-0.79712 -11.60335,-3.39696 -16.40657,-6.95609 -9.61058,-7.12132 -14.9232,-21.443261 -12.38912,-33.399003 1.47365,-6.952626 4.55327,-12.498063 9.85691,-17.749249 8.05539,-7.975711 15.07749,-10.297879 27.93465,-9.237833 5.28338,0.435603 7.12407,0.981727 11.79266,3.498826 6.65068,3.585749 11.54988,8.600205 14.41249,14.75158 2.1993,4.725975 2.80015,7.547824 3.06344,14.387057 0.20935,5.438215 0.12439,6.689729 -0.66636,9.816745 -0.49846,1.971153 -1.56859,4.767055 -2.37806,6.213107 -2.96431,5.29549 -10.32929,12.78727 -14.78336,15.03788 -3.07018,1.55133 -8.63032,3.17283 -12.57628,3.66762 -3.9683,0.49758 -4.24205,0.49651 -7.8604,-0.0306 z m 8.65901,-26.847489 c 3.24525,-1.539972 5.15373,-6.124173 3.8493,-9.246099 -0.8592,-2.056356 -3.40335,-4.807138 -5.2616,-5.688934 -3.04621,-1.445525 -7.8495,0.585746 -9.62781,4.071528 -0.93737,1.8374 -1.11433,4.827558 -0.39791,6.723725 0.60313,1.5963 2.45042,3.533913 4.04982,4.247816 1.80113,0.80395 5.58287,0.74865 7.3882,-0.108036 z"
     id="path8" />
  <path
     style="fill:#aad400;fill-opacity:1;stroke-width:0.42917"
     d="m 171.88265,118.69953 c -5.92914,-1.36798 -9.84882,-3.40592 -14.37841,-7.47571 -8.71496,-7.83027 -12.02151,-14.691765 -12.00992,-24.921977 0.018,-15.848832 7.23257,-26.83785 21.75107,-33.130415 4.75158,-2.059417 18.81858,-1.966003 24.08183,0.159919 10.0288,4.050811 18.19308,13.3946 21.16316,24.22064 1.7498,6.378062 0.47091,16.789841 -2.88234,23.466013 -2.43982,4.85758 -8.23735,10.71816 -13.96624,14.11815 -4.69825,2.78833 -8.70555,3.83142 -15.39033,4.0061 -3.91331,0.10226 -6.62957,-0.0414 -8.36882,-0.44272 z m 10.77907,-26.390658 c 3.5759,-1.623879 5.36688,-6.063816 4.05252,-10.04638 -1.22375,-3.707971 -6.78786,-6.345313 -10.08555,-4.780458 -1.85494,0.880228 -4.39675,3.633087 -5.25818,5.694761 -1.22406,2.929586 0.40829,7.269813 3.42621,9.109939 1.79828,1.096468 5.47646,1.106822 7.865,0.02214 z"
     id="path9" />
  <path
     style="fill:#aad400;fill-opacity:1;stroke-width:0.42917"
     d="m 233.2549,254.88088 c -13.77896,-1.44994 -35.38244,-7.24735 -49.35549,-13.24482 -20.86287,-8.95469 -37.98971,-21.69651 -48.83172,-36.32925 -3.17151,-4.28037 -8.03332,-12.11428 -8.03332,-12.9442 0,-0.34263 1.38524,0.40373 3.32607,1.79206 13.57262,9.70891 23.22069,15.03395 37.23051,20.5486 18.87145,7.42831 37.83303,11.79 62.11805,14.28887 8.89852,0.91563 34.02028,1.29115 43.67239,0.65282 27.30276,-1.80565 51.15093,-6.91819 72.74434,-15.59482 12.11221,-4.8669 21.71061,-10.12451 32.61694,-17.8662 3.30461,-2.34573 6.0693,-4.20593 6.14377,-4.13376 0.23446,0.22719 -2.5245,5.45628 -4.53059,8.58687 -4.7963,7.48482 -14.86763,18.08181 -22.9794,24.17874 -17.21988,12.94276 -38.63386,22.22267 -63.44958,27.49638 -7.41761,1.57635 -11.61307,2.05439 -22.90591,2.60993 -10.13109,0.4984 -32.87388,0.47358 -37.76606,-0.0412 z"
     id="path10" />
</svg>
