<?xml version="1.0" encoding="UTF-8" standalone="no"?>
<!-- Created with Inkscape (http://www.inkscape.org/) -->

<svg
   version="1.1"
   id="svg1"
   width="512"
   height="512"
   viewBox="0 0 512 512"
   sodipodi:docname="hippo-filled.svg"
   inkscape:export-filename="hippo-outline.png"
   inkscape:export-xdpi="96"
   inkscape:export-ydpi="96"
   inkscape:version="1.3 (0e150ed6c4, 2023-07-21)"
   xmlns:inkscape="http://www.inkscape.org/namespaces/inkscape"
   xmlns:sodipodi="http://sodipodi.sourceforge.net/DTD/sodipodi-0.dtd"
   xmlns="http://www.w3.org/2000/svg"
   xmlns:svg="http://www.w3.org/2000/svg">
  <defs
     id="defs1" />
  <sodipodi:namedview
     id="namedview1"
     pagecolor="#ffffff"
     bordercolor="#000000"
     borderopacity="0.25"
     inkscape:showpageshadow="2"
     inkscape:pageopacity="0.0"
     inkscape:pagecheckerboard="0"
     inkscape:deskcolor="#d1d1d1"
     inkscape:zoom="1.5644531"
     inkscape:cx="255.6804"
     inkscape:cy="204.86392"
     inkscape:window-width="1722"
     inkscape:window-height="1237"
     inkscape:window-x="962"
     inkscape:window-y="58"
     inkscape:window-maximized="0"
     inkscape:current-layer="svg1" />
  <path
     style="fill:#aad400;fill-opacity:1;stroke-width:0.639201"
     d="m 115.05618,451.86347 c -1.23046,-0.14418 -4.96979,-0.57337 -8.30961,-0.95378 -41.603431,-4.73857 -70.516601,-26.65493 -82.476327,-62.51757 -8.479728,-25.42746 -9.319472,-57.99059 -2.086724,-80.91783 5.039969,-15.9763 13.828183,-30.4426 26.36519,-43.39979 21.982566,-22.71932 52.995751,-39.32912 95.645041,-51.22482 50.24361,-14.0139 102.13093,-19.12576 146.3231,-14.41553 68.79607,7.33263 120.83953,24.38062 156.90292,51.39704 7.85261,5.88267 20.9752,18.95433 26.40612,26.30364 14.51435,19.64127 20.46634,39.34234 20.4699,67.75531 0.003,23.68528 -3.62443,41.14663 -12.02078,57.86491 -21.6264,43.06112 -73.4006,59.37861 -143.81808,45.32664 -12.05057,-2.40472 -25.04447,-5.9206 -41.13609,-11.13056 -21.60899,-6.99632 -28.29315,-8.30948 -41.96004,-8.24345 -12.43128,0.0601 -20.33782,1.67831 -41.29102,8.4511 -25.89523,8.37022 -40.47372,11.70295 -61.94265,14.1605 -10.58692,1.21188 -32.21741,2.11289 -37.07095,1.54419 z m 4.58845,-68.96334 c 15.54346,-2.343 28.17522,-9.56474 37.76638,-21.59154 4.46458,-5.59835 8.05465,-12.37955 10.40599,-19.65566 1.51732,-4.69529 1.79665,-6.78546 2.05667,-15.38969 0.2589,-8.56696 0.11916,-10.67515 -1.00129,-15.10591 -5.67241,-22.43133 -21.18443,-38.45696 -42.9925,-44.41597 -7.5002,-2.04942 -22.66996,-2.04053 -30.226122,0.0177 -20.260813,5.51888 -36.751548,21.9864 -42.354245,42.29462 -1.658576,6.01188 -1.668206,24.77313 -0.01575,30.68165 4.405518,15.75235 15.701439,29.53766 30.615688,37.36277 11.818756,6.20098 22.065129,7.86413 35.745179,5.80203 z m 296.43222,-0.95045 c 17.33527,-5.01596 31.98432,-17.48197 39.37499,-33.50722 3.08616,-6.69173 4.14802,-11.31786 4.56623,-19.89315 0.63935,-13.1101 -1.34474,-22.58969 -6.87484,-32.84659 -10.2854,-19.07678 -30.29895,-30.75456 -52.6838,-30.74068 -15.04981,0.009 -29.69721,6.05662 -40.72013,16.81161 -11.86426,11.57587 -16.94811,22.97654 -17.58054,39.42485 -0.56479,14.68919 2.018,24.88735 8.93549,35.28179 9.70421,14.58187 23.10536,23.17665 42.01436,26.94577 0.87891,0.17519 5.33733,0.22398 9.90762,0.10842 6.10498,-0.15435 9.57011,-0.57482 13.06062,-1.5848 z"
     id="path2" />
  <path
     style="fill:#aad400;fill-opacity:1;stroke-width:0.639201"
     d="m 392.83705,365.90638 c -2.17525,-0.33598 -6.25618,-1.78636 -9.58802,-3.40761 -10.53043,-5.12404 -18.93453,-14.65771 -22.52846,-25.55641 -1.45825,-4.42221 -1.71376,-6.29298 -1.71376,-12.54785 0,-6.23895 0.25619,-8.12429 1.69372,-12.46442 5.3386,-16.11808 18.26458,-27.00391 35.29536,-29.72459 12.65397,-2.02148 29.55262,4.87612 38.06097,15.53551 6.2287,7.80342 9.16651,16.40553 9.10276,26.6535 -0.0489,7.86362 -1.80448,14.27675 -5.76998,21.07798 -4.82601,8.27708 -14.48651,16.12158 -23.50699,19.08808 -4.55453,1.49781 -15.52115,2.1991 -21.0456,1.34581 z"
     id="path3" />
  <path
     style="fill:#aad400;fill-opacity:1;stroke-width:0.639201"
     d="m 224.22118,493.49343 c -15.38703,-2.22223 -37.76202,-6.96351 -43.4871,-9.21496 l -1.7578,-0.69127 v -9.52557 c 0,-6.87032 0.22403,-9.7115 0.80369,-10.19258 0.44203,-0.36685 3.82181,-1.42762 7.51061,-2.35727 8.6014,-2.16772 21.39384,-5.84044 36.89655,-10.59303 15.77987,-4.83756 23.26671,-6.35446 31.36327,-6.35446 10.10102,0 14.92164,1.0705 43.36902,9.63078 9.1917,2.76593 20.40967,5.94899 24.92884,7.07347 4.51916,1.12447 8.42799,2.35637 8.68627,2.73754 0.25829,0.38118 0.47402,4.90451 0.4794,10.05186 l 0.01,9.35881 -2.64774,1.05941 c -6.90121,2.76132 -29.73852,7.57422 -41.13753,8.66962 -11.97958,1.15119 -57.75848,1.39597 -65.01727,0.34765 z"
     id="path4" />
  <path
     style="fill:#aad400;fill-opacity:1;stroke-width:0.639201"
     d="m 359.99366,486.14459 c -4.51094,-0.42633 -5.57894,-0.75975 -7.09936,-2.2164 -0.9843,-0.94302 -2.11852,-2.81231 -2.5205,-4.15398 -0.83109,-2.77396 -0.96816,-10.83534 -0.20467,-12.03771 0.40362,-0.63563 2.77321,-0.60479 11.65563,0.15169 6.13196,0.52223 17.4444,0.95316 25.13874,0.95763 l 13.98972,0.008 -0.32032,6.12388 c -0.3523,6.73526 -1.26126,8.75482 -4.70537,10.45455 -2.16927,1.07058 -26.94595,1.56166 -35.93387,0.71223 z"
     id="path5" />
  <path
     style="fill:#aad400;fill-opacity:1;stroke-width:0.639201"
     d="m 120.48939,486.1351 c -7.43381,-0.85585 -8.72238,-2.39216 -9.13144,-10.88705 l -0.30789,-6.39412 13.98808,-0.008 c 7.69344,-0.004 19.00514,-0.4354 25.1371,-0.95763 8.88242,-0.75648 11.25201,-0.78732 11.65563,-0.15169 0.76349,1.20237 0.62642,9.26375 -0.20467,12.03771 -1.19176,3.97773 -3.5456,5.71568 -8.62827,6.37064 -5.0488,0.65059 -26.82962,0.64406 -32.50854,-0.01 z"
     id="path6" />
  <path
     style="fill:#aad400;fill-opacity:1;stroke-width:0.639201"
     d="M 101.06523,365.5714 C 86.997693,361.78818 75.262355,350.74191 70.63067,336.92387 67.205093,326.7041 67.934966,316.2187 72.770893,306.17728 c 4.512657,-9.37018 10.703063,-15.38603 20.744047,-20.1591 7.604,-3.61463 14.95832,-4.91868 21.9987,-3.90075 17.16821,2.48227 30.5993,13.69369 35.71503,29.81266 4.04896,12.75772 2.0334,25.47566 -5.77065,36.41206 -5.09213,7.13598 -12.6651,12.9851 -20.27502,15.65976 -7.44018,2.61502 -17.73818,3.28517 -24.11777,1.56949 z"
     id="path7" />
  <path
     style="fill:#aad400;fill-opacity:1;stroke-width:0.639201"
     d="m 85.248936,213.38444 c -0.634898,-2.52963 0.289917,-26.40954 1.3855,-35.77539 2.981128,-25.48489 10.510349,-48.59555 22.062994,-67.72155 10.32868,-17.099649 25.28832,-32.07139 42.33204,-42.366284 21.68244,-13.096813 50.25443,-21.493246 80.95662,-23.790675 15.22979,-1.139637 50.51169,-0.432201 61.08757,1.224864 17.5331,2.74715 33.09686,6.696483 45.44397,11.531495 54.1423,21.201616 84.63898,68.52083 87.76844,136.18313 0.65556,14.17371 0.21358,22.15682 -1.21741,21.9892 -0.52734,-0.0618 -6.96626,-2.57815 -14.30871,-5.59195 -16.25552,-6.67229 -27.4671,-10.61546 -38.34732,-13.48694 -4.52735,-1.19485 -8.37315,-2.31406 -8.54622,-2.48713 -0.17307,-0.17307 1.42003,-3.99546 3.54021,-8.49421 4.79466,-10.17359 6.38875,-15.32496 7.32697,-23.67746 0.85994,-7.65565 0.0515,-17.96118 -2.0195,-25.74406 -5.10637,-19.18966 -20.56041,-35.392741 -38.06686,-39.911889 -5.6041,-1.446653 -15.56333,-1.290238 -21.43409,0.336635 -14.28674,3.959058 -25.72812,13.810634 -32.91025,28.337304 -4.65867,9.4227 -6.12483,15.52787 -6.53965,27.23151 -0.35224,9.93829 0.49105,16.64627 3.01488,23.9819 0.70087,2.03713 1.27431,3.94648 1.27431,4.24301 0,0.29652 -9.95714,0.53913 -22.12698,0.53913 h -22.12698 l 0.42389,-1.4382 c 3.72255,-12.63004 3.80347,-13.17312 3.78612,-25.40824 -0.02,-14.08028 -0.92856,-18.41512 -5.96203,-28.44445 -6.05264,-12.06006 -14.61841,-21.07504 -24.62573,-25.917156 -6.63478,-3.210292 -11.98429,-4.423773 -19.55318,-4.435439 -13.27933,-0.02047 -24.39936,5.061767 -34.49786,15.766715 -5.6263,5.96417 -9.08497,11.4298 -12.06142,19.06029 -3.61598,9.27001 -4.04059,12.28745 -3.7391,26.57189 0.23983,11.36296 0.40801,12.86015 1.9771,17.60127 0.94323,2.85005 3.29748,8.29645 5.23167,12.10311 1.93419,3.80667 3.5167,7.1242 3.5167,7.3723 0,0.24809 -2.37303,1.07968 -5.27341,1.84796 -14.26065,3.77751 -32.50503,10.1979 -48.144506,16.94256 -4.506334,1.9434 -8.419705,3.53345 -8.69638,3.53345 -0.276674,0 -0.695803,-0.76802 -0.931398,-1.7067 z"
     id="path8" />
  <path
     style="fill:#aad400;fill-opacity:1;stroke-width:0.639201"
     d="M 90.285579,95.603964 C 72.221037,85.644369 61.457914,69.683983 60.297999,51.13608 c -0.66805,-10.682612 1.785256,-18.415131 7.72097,-24.335545 6.558786,-6.541881 14.00394,-9.223665 25.598473,-9.220707 17.930108,0.0046 31.590868,3.76385 42.835398,11.787777 3.84192,2.741539 14.39306,13.297009 15.66244,15.66887 0.57349,1.071583 -0.23005,1.740531 -7.07679,5.891427 -15.72514,9.53349 -30.8473,22.586084 -40.93366,35.331608 -8.528925,10.777485 -8.911047,11.219019 -9.698975,11.20706 -0.4196,-0.0064 -2.273724,-0.844538 -4.120276,-1.862606 z"
     id="path9" />
  <path
     style="fill:#aad400;fill-opacity:1;stroke-width:0.639201"
     d="m 165.20676,184.78663 c -7.45788,-7.8866 -12.54175,-22.88522 -11.53244,-34.02342 1.82441,-20.13303 14.28762,-36.75736 29.39852,-39.21387 6.72031,-1.09249 15.82493,1.08798 21.39703,5.1244 16.83725,12.19683 22.27096,39.60519 11.80154,59.52852 -2.80085,5.33003 -3.76021,5.80301 -14.60349,7.1997 -4.57029,0.58869 -13.38746,1.91912 -19.59372,2.95654 -6.20625,1.03741 -11.80458,1.88619 -12.44073,1.88619 -0.63614,0 -2.62816,-1.55612 -4.42671,-3.45806 z m 35.18275,-24.21298 c 3.43061,-1.93585 4.81215,-5.78549 3.45428,-9.62531 -2.29127,-6.47932 -11.08285,-7.38093 -14.66617,-1.50407 -1.91913,3.14747 -1.64156,6.3528 0.78993,9.12212 3.34456,3.80924 6.24025,4.36695 10.42196,2.00726 z"
     id="path10" />
  <path
     style="fill:#aad400;fill-opacity:1;stroke-width:0.639201"
     d="m 336.85893,187.53556 c -1.58203,-0.31297 -10.40519,-1.69789 -19.60703,-3.07757 -9.20185,-1.37969 -17.32321,-2.82566 -18.04747,-3.21327 -1.63214,-0.87349 -5.98111,-9.79633 -7.49232,-15.37206 -1.53041,-5.64658 -1.53685,-18.43752 -0.0124,-24.60924 3.33526,-13.5027 12.54601,-24.53071 23.79757,-28.49279 5.34441,-1.88196 13.36787,-1.87797 18.3093,0.009 13.01338,4.96965 22.91783,20.31303 24.51908,37.98348 0.99721,11.00451 -3.84044,25.47932 -11.3202,33.87144 -3.49821,3.92489 -4.10041,4.09706 -10.14654,2.90091 z m -16.84071,-27.10162 c 2.2716,-1.48841 4.05156,-4.76184 4.0543,-7.45606 0.005,-4.75232 -5.1157,-8.16507 -10.43136,-6.95233 -3.03763,0.69302 -4.65104,2.11327 -5.57252,4.90539 -2.44817,7.41802 5.49315,13.73342 11.94958,9.503 z"
     id="path11" />
  <path
     style="fill:#aad400;fill-opacity:1;stroke-width:0.639201"
     d="M 411.65298,90.903612 C 405.62861,82.685967 390.30434,67.274808 381.9226,61.004668 378.40699,58.374745 371.88211,53.948519 367.42287,51.168609 l -8.10772,-5.05438 2.02148,-2.814852 c 11.8723,-16.531887 31.47621,-25.744967 54.70715,-25.710251 16.00947,0.02392 25.8767,4.464804 31.65732,14.247805 2.90278,4.912603 3.82531,10.29206 3.42778,19.988123 -0.25305,6.172371 -0.6383,8.49981 -2.02713,12.24675 -4.81553,12.991863 -13.56441,23.314937 -25.40645,29.977853 -7.30536,4.110357 -6.58461,4.298652 -12.04232,-3.146045 z"
     id="path12" />
</svg>
