<?xml version="1.0" encoding="UTF-8" standalone="no"?>
<!-- Created with Inkscape (http://www.inkscape.org/) -->

<svg
   version="1.1"
   id="svg1"
   width="512"
   height="512"
   viewBox="0 0 512 512"
   sodipodi:docname="hippo-outline-white.svg"
   inkscape:export-filename="hippo-outline.png"
   inkscape:export-xdpi="96"
   inkscape:export-ydpi="96"
   inkscape:version="1.3 (0e150ed6c4, 2023-07-21)"
   xmlns:inkscape="http://www.inkscape.org/namespaces/inkscape"
   xmlns:sodipodi="http://sodipodi.sourceforge.net/DTD/sodipodi-0.dtd"
   xmlns="http://www.w3.org/2000/svg"
   xmlns:svg="http://www.w3.org/2000/svg">
  <defs
     id="defs1" />
  <sodipodi:namedview
     id="namedview1"
     pagecolor="#ffffff"
     bordercolor="#000000"
     borderopacity="0.25"
     inkscape:showpageshadow="2"
     inkscape:pageopacity="0.0"
     inkscape:pagecheckerboard="0"
     inkscape:deskcolor="#d1d1d1"
     inkscape:zoom="1.5644531"
     inkscape:cx="255.6804"
     inkscape:cy="204.86392"
     inkscape:window-width="1722"
     inkscape:window-height="1237"
     inkscape:window-x="962"
     inkscape:window-y="58"
     inkscape:window-maximized="0"
     inkscape:current-layer="svg1" />
  <path
     style="fill:#ffffff;fill-opacity:1"
     d="m 233,511.41105 c -1.925,-0.22106 -7.775,-0.88474 -13,-1.47483 -12.50197,-1.41192 -26.99261,-4.33235 -40.25455,-8.11285 l -10.75456,-3.06574 -4.93082,2.12118 C 159.51287,502.83496 157.34868,503 136.24393,503 h -22.8853 l -5.42245,-2.75 c -6.04265,-3.06454 -11.256637,-9.14197 -12.890573,-15.02526 -0.568949,-2.04861 -1.036963,-7.18034 -1.04003,-11.40384 L 94,466.1418 88.442578,464.98808 C 73.814805,461.95137 55.514467,453.90316 44,445.44291 16.794672,425.45382 2.3285506,393.83371 0.33510127,350 -1.0506506,319.52887 5.7016519,292.86357 20.507318,270.33853 27.96619,258.99076 47.429324,239.49635 59.25,231.53358 L 68,225.63932 68,206.87088 C 68,186.01208 69.650227,170.47403 73.668283,153.5 76.303967,142.36571 82.925735,121.97808 85.562485,116.87917 86.353118,115.35025 87,113.87651 87,113.60419 c 0,-0.27232 -3.2625,-2.1944 -7.25,-4.27128 C 74.693989,106.6995 69.888466,102.96118 63.870227,96.979693 56.570916,89.724954 54.541154,86.945498 50.704582,78.951308 38.424253,53.36303 40.796056,29.037355 57.086305,13.499089 67.634197,3.4381041 80.747238,-0.61852224 99.5,0.37806605 128.1981,1.9031849 149.86038,12.975086 164.66045,33.682509 l 4.41878,6.182508 5.71039,-1.98709 c 8.23134,-2.864329 27.332,-7.439959 39.883,-9.554111 15.70617,-2.645622 66.94859,-2.645622 82.65476,0 12.58287,2.119521 31.6562,6.691458 39.94025,9.573806 l 5.76763,2.006785 2.64708,-4.202203 c 1.4559,-2.311212 5.38547,-7.06743 8.73237,-10.569372 C 369.27579,9.5833617 387.79467,1.6909952 412.5,0.37806605 c 19.49559,-1.03606483 33.71568,3.66945855 43.65868,14.44695095 15.19232,16.467382 17.04546,39.493587 5.16086,64.126291 -3.84441,7.968152 -5.91423,10.797275 -13.18977,18.028385 -6.01824,5.981487 -10.82376,9.719807 -15.87977,12.353217 -3.9875,2.07688 -7.25,3.92061 -7.25,4.09719 0,0.17657 1.08308,2.77008 2.40685,5.76335 3.45073,7.80271 9.12385,26.15275 11.60429,37.53475 3.62667,16.64164 4.94896,29.93026 4.96934,49.94024 l 0.0195,19.16844 3.75,2.26042 c 7.44414,4.48715 19.92103,14.85969 28.31909,23.54277 17.70765,18.30865 27.82489,37.10294 33.0667,61.42631 1.88112,8.72892 2.25126,13.53794 2.26543,29.43362 0.0178,19.93613 -0.96184,28.67249 -4.93437,44.00519 -10.63588,41.05114 -40.08339,69.00774 -82.71685,78.52894 l -5.75,1.28413 -0.006,7.59087 c -0.003,4.17498 -0.47108,9.267 -1.04003,11.31561 -1.63393,5.88329 -6.84792,11.96072 -12.89057,15.02526 l -5.42245,2.75 h -22.8853 c -21.10475,0 -23.26894,-0.16504 -27.81614,-2.12119 l -4.93082,-2.12118 -10.75456,3.03841 c -25.59115,7.23008 -40.40409,9.24109 -71.25455,9.67352 -13.475,0.18888 -26.075,0.16255 -28,-0.0585 z m 64.5,-18.85609 c 6.05,-0.95837 16.625,-3.16561 23.5,-4.90498 10.12292,-2.56109 12.48415,-3.49409 12.41667,-4.90623 -0.0458,-0.95906 -0.15834,-5.73821 -0.25,-10.62033 L 333,463.24684 322.49823,460.61535 c -5.77598,-1.44732 -17.13848,-4.71772 -25.25,-7.26754 -38.50059,-12.10251 -43.76947,-12.19693 -77.71908,-1.39276 -8.26603,2.6306 -20.76665,6.25907 -27.77915,8.06328 l -12.75,3.28037 -0.16667,8.85065 c -0.0917,4.86786 -0.20416,9.63103 -0.25,10.58483 -0.0666,1.38684 2.11985,2.29605 10.91667,4.5395 10.06701,2.56738 29.13986,6.02421 39,7.06849 2.2,0.233 16.15,0.31825 31,0.18945 19.81917,-0.1719 29.92552,-0.6976 38,-1.97666 z m -139.48709,-7.06164 c 3.45227,-1.78523 5.25005,-7.151 4.78974,-14.29571 -0.25819,-4.00754 -0.59645,-4.66958 -2.30265,-4.50678 -20.08607,1.91656 -30.81966,2.47629 -39.25,2.0468 l -10.25,-0.52219 0.0318,6.64228 c 0.055,11.48902 1.27345,12.07306 25.26786,12.11187 14.83743,0.024 19.41373,-0.28714 21.71325,-1.47627 z m 238.30283,0.34334 c 3.72146,-1.98206 4.61953,-4.10134 4.65246,-10.97894 l 0.0318,-6.64228 -10.25,0.52219 c -8.43034,0.42949 -19.16393,-0.13024 -39.25,-2.0468 -1.7062,-0.1628 -2.04446,0.49924 -2.30265,4.50678 -0.44597,6.92217 1.34653,12.48965 4.58751,14.24868 3.4951,1.89696 39.08876,2.22365 42.53088,0.39037 z M 154.6052,450.43313 c 20.87397,-2.44662 37.42305,-6.36065 60.9995,-14.42701 32.14787,-10.99895 48.86687,-11.00113 80.77128,-0.0105 55.76396,19.20988 106.92487,21.64087 142.17778,6.75579 38.67041,-16.32807 58.10095,-52.89149 56.17423,-105.70582 C 493.6356,307.10161 483.77727,284.07246 463,262.92872 427.38881,226.68941 361.76391,203.39801 277,196.91413 225.63924,192.98538 151.25383,205.67884 103.83926,226.46307 68.134797,242.11415 41.809446,264.5411 28.799589,290.39045 20.178084,307.52056 17,321.62372 17,342.75265 c 0,65.5363 33.417097,103.90329 95.06244,109.14351 11.99234,1.01942 25.25422,0.56335 42.54276,-1.46303 z M 102.40211,383.04722 C 79.136719,379.43406 59.498764,361.75335 53.47888,339 c -1.90812,-7.21212 -1.875651,-22.0565 0.06454,-29.50538 3.919167,-15.04669 15.911858,-30.40141 29.142632,-37.31247 13.29562,-6.94492 28.618952,-8.81262 42.717942,-5.20671 16.985,4.34404 31.06612,15.75606 38.40514,31.12539 4.73253,9.91085 6.19087,16.20939 6.19087,26.73829 0,22.19919 -12.63759,42.34247 -33.05667,52.6896 -9.13258,4.62783 -24.48383,7.08043 -34.54122,5.5185 z m 25.99794,-19.85365 c 17.67321,-8.2703 27.9253,-27.00719 24.78794,-45.30287 -3.21214,-18.73173 -17.18695,-32.70055 -36.03623,-36.02079 -15.75475,-2.77514 -34.32934,6.00868 -42.859417,20.268 -14.302742,23.90921 -3.01208,53.3686 24.1946,63.12812 7.980897,2.86289 21.345127,1.93698 29.913107,-2.07246 z m 265.0765,19.86271 c -18.04315,-2.81109 -32.878,-12.32675 -42.55226,-27.29471 -5.62643,-8.70518 -8.04519,-16.62994 -8.62586,-28.26157 -0.91384,-18.30522 4.46167,-32.38239 17.21769,-45.08894 32.38124,-32.25568 87.41537,-17.05538 98.91416,27.31987 1.96291,7.57513 2.00775,22.02371 0.0908,29.26907 -7.56274,28.5849 -36.8825,48.44389 -65.04457,44.05628 z m 24.95583,-19.87784 c 22.20268,-10.38989 31.55923,-36.29932 20.95082,-58.01537 -7.71412,-15.79125 -26.93097,-25.94675 -44.05371,-23.28098 -18.966,2.95273 -33.26724,17.05468 -36.51748,36.00861 -2.95122,17.21021 6.25094,35.53426 22.08253,43.9724 7.94441,4.23433 12.11523,5.11974 22.27931,4.72961 7.16418,-0.27498 9.8199,-0.86923 15.25853,-3.41427 z M 99.414234,210.03226 c 12.990556,-5.61494 34.726726,-13.09841 43.835766,-15.09205 3.1625,-0.69216 5.75,-1.6301 5.75,-2.08432 0,-0.45421 -1.31718,-2.9701 -2.92708,-5.59087 -1.60989,-2.62076 -4.17913,-8.36502 -5.70943,-12.76502 -2.4902,-7.15997 -2.78235,-9.36504 -2.78235,-21 0,-11.46701 0.30994,-13.88442 2.62838,-20.5 3.833,-10.93736 7.34694,-16.66247 14.88885,-24.25776 18.97146,-19.105761 46.12334,-19.223753 65.31137,-0.28382 6.41644,6.33348 13.35468,18.1092 15.57213,26.42933 3.24918,12.19132 2.87437,28.40388 -0.911,39.40627 L 233.10772,180 H 256 278.89228 l -1.93271,-5.61753 c -5.35894,-15.57602 -4.08579,-35.3044 3.21911,-49.88247 4.59503,-9.17009 10.14155,-15.91387 17.27546,-21.00452 19.55004,-13.950626 42.38639,-11.935118 59.44749,5.24676 11.24275,11.32233 16.94081,24.52484 17.80564,41.25598 0.64492,12.47673 -1.35785,21.8613 -7.1843,33.66411 C 365.03534,188.70161 363,193.0175 363,193.2532 c 0,0.2357 2.5875,1.00358 5.75,1.7064 12.6073,2.80179 31.66904,9.72835 57,20.71235 1.83161,0.79423 1.64624,-24.52954 -0.2882,-39.37073 C 420.38191,137.32769 407.34082,108.17167 385.06048,85.975753 361.48486,62.489473 331.17681,49.415322 287.5,43.890546 272.82307,42.034028 236.25141,42.294653 221.1123,44.363652 189.27804,48.714308 166.55392,56.583511 145.36587,70.594106 107.81602,95.423934 85.980012,141.46776 84.944373,198 84.6441,214.39095 84.785133,216.30267 86.25,215.69798 c 0.6875,-0.2838 6.611405,-2.83337 13.164234,-5.66572 z M 185.5,186.07418 c 6.6,-1.06185 14.475,-2.21175 17.5,-2.55533 10.25297,-1.16454 10.57382,-1.31729 13.27358,-6.31945 C 220.1156,170.08083 222,162.456 222,154.0286 c 0,-18.17815 -8.0737,-33.41139 -21.17915,-39.96026 -8.27618,-4.13565 -17.88699,-4.33466 -25.52491,-0.52852 -15.21003,7.57948 -24.80716,29.20058 -21.40693,48.2271 1.54461,8.64309 5.70257,17.66836 10.67601,23.17337 3.0551,3.38163 4.22889,4.04924 6.34197,3.60709 1.42616,-0.29841 7.99301,-1.41136 14.59301,-2.4732 z m 7.857,-25.06576 c -2.729,-1.10129 -5.357,-4.82771 -5.357,-7.59607 0,-1.17845 0.93266,-3.32832 2.07258,-4.77749 4.26139,-5.41748 13.92742,-2.4447 13.92742,4.28335 0,4.28283 -0.9087,5.98322 -4.07152,7.61878 -3.19066,1.64995 -3.5816,1.678 -6.57148,0.47143 z m 154.11861,23.8869 c 4.93545,-5.46295 9.09489,-14.50835 10.63538,-23.1284 3.40023,-19.02652 -6.1969,-40.64762 -21.40693,-48.2271 -7.63792,-3.80614 -17.24873,-3.60713 -25.52491,0.52852 -19.9936,9.99092 -27.51693,40.77935 -15.43458,63.1644 2.02587,3.75334 3.19612,4.83412 5.65496,5.22262 1.70526,0.26944 9.62547,1.43086 17.60047,2.58093 7.975,1.15007 16.3,2.46064 18.5,2.91238 2.2,0.45173 4.51014,0.87308 5.13364,0.93633 0.6235,0.0633 2.80238,-1.73211 4.84197,-3.98968 z M 312.5,160.86944 c -3.17549,-1.77524 -4.5,-4.00058 -4.5,-7.56057 0,-4.57321 2.96718,-7.30887 7.92742,-7.30887 7.02169,0 10.42625,7.25433 5.82258,12.40659 -2.67603,2.99491 -6.48445,4.00892 -9.25,2.46285 z M 100.63611,91.25 C 111.26137,76.344475 128.21367,61.131905 145.19148,51.267125 149.48617,48.771742 153,46.494868 153,46.207404 153,44.450717 143.80368,34.27024 138.85949,30.553626 127.13552,21.740558 116.33498,18.155474 98.949794,17.306171 89.744935,16.856495 86.203377,17.089668 81.508569,18.454485 66.924795,22.694103 59.617,32.869681 59.781088,48.708437 59.923727,62.476795 65.449919,75.345319 75.550336,85.429376 80.651994,90.522772 92.252336,98 95.052687,98 c 0.424467,0 2.937009,-3.0375 5.583423,-6.75 z m 323.45918,3.130589 c 12.93872,-6.799109 23.7808,-21.095357 26.93923,-35.521797 1.71887,-7.851129 0.84446,-20.304334 -1.7806,-25.358792 -5.39734,-10.3924 -14.52406,-15.53129 -28.92118,-16.284353 -23.36714,-1.222252 -44.88619,7.336148 -56.88901,22.625484 -2.44336,3.112378 -4.44276,5.935634 -4.4431,6.273902 -3.5e-4,0.338267 3.5132,2.656709 7.80789,5.152092 16.97781,9.86478 33.93011,25.07735 44.55537,39.982875 2.64641,3.7125 5.04386,6.75 5.32765,6.75 0.2838,0 3.61548,-1.628735 7.40375,-3.619411 z"
     id="path1" />
</svg>
