<?xml version="1.0" encoding="UTF-8" standalone="no"?>
<!-- Created with Inkscape (http://www.inkscape.org/) -->

<svg
   version="1.1"
   id="svg1"
   width="512"
   height="512"
   viewBox="0 0 512 512"
   sodipodi:docname="owl-filled.svg"
   inkscape:version="1.3 (0e150ed6c4, 2023-07-21)"
   xmlns:inkscape="http://www.inkscape.org/namespaces/inkscape"
   xmlns:sodipodi="http://sodipodi.sourceforge.net/DTD/sodipodi-0.dtd"
   xmlns="http://www.w3.org/2000/svg"
   xmlns:svg="http://www.w3.org/2000/svg">
  <defs
     id="defs1" />
  <sodipodi:namedview
     id="namedview1"
     pagecolor="#ffffff"
     bordercolor="#000000"
     borderopacity="0.25"
     inkscape:showpageshadow="2"
     inkscape:pageopacity="0.0"
     inkscape:pagecheckerboard="0"
     inkscape:deskcolor="#d1d1d1"
     inkscape:zoom="2.3300781"
     inkscape:cx="255.78541"
     inkscape:cy="256"
     inkscape:window-width="3440"
     inkscape:window-height="1369"
     inkscape:window-x="-8"
     inkscape:window-y="-8"
     inkscape:window-maximized="1"
     inkscape:current-layer="svg1" />
  <path
     style="fill:#aad400;fill-opacity:1;stroke-width:0.42917"
     d="m 342.65011,264.33118 c -7.29286,-0.65139 -16.60891,-2.91517 -23.99127,-5.8298 -4.18804,-1.65349 -13.95573,-6.54435 -15.62546,-7.82394 l -1.03367,-0.79216 4.57481,-9.69137 c 2.51615,-5.33025 4.86428,-10.80272 5.21808,-12.16105 0.81977,-3.14729 0.81832,-9.86193 -0.003,-13.3449 -1.31109,-5.56081 -4.68724,-10.38143 -9.8178,-14.01831 -5.38654,-3.81834 -12.15527,-6.49747 -23.86967,-9.44786 -4.3668,-1.09982 -9.1405,-2.39019 -10.60822,-2.86747 -2.49789,-0.81229 -2.68709,-0.96649 -2.95804,-2.41079 -0.51327,-2.73599 0.16421,-15.11483 1.13361,-20.71302 4.78936,-27.65808 22.19942,-50.75567 47.41002,-62.89796 10.52076,-5.067163 18.2652,-7.173829 29.33479,-7.979744 8.22957,-0.59915 18.76815,-0.0362 25.3277,1.352959 38.49795,8.152945 67.37607,43.663275 67.42856,82.914335 0.0299,22.34196 -8.3469,43.24578 -23.86415,59.55176 -11.75682,12.3544 -27.93238,21.24584 -44.89996,24.68075 -8.72297,1.76588 -15.68711,2.19931 -23.75646,1.47857 z M 318.9705,186.20397 c 0.87954,-0.44522 3.56009,-2.54389 5.95678,-4.66373 6.79778,-6.01256 10.26881,-8.04251 17.0541,-9.97368 4.79718,-1.36532 11.37594,-1.25655 16.50766,0.27295 6.44488,1.92089 9.31577,3.6363 16.26631,9.71941 5.02676,4.39941 7.08248,5.55927 9.85314,5.55927 3.62563,0 7.65304,-3.97894 7.65304,-7.56094 0,-2.74386 -1.26208,-4.87237 -5.48873,-9.25686 -6.46422,-6.70559 -13.63411,-11.32642 -21.76358,-14.02612 -5.51146,-1.83029 -9.92188,-2.35857 -17.32424,-2.0751 -10.23371,0.3919 -17.32392,2.63699 -25.68509,8.13312 -5.6845,3.73664 -11.09372,9.0038 -12.74161,12.40698 -2.57876,5.3256 -0.94408,10.44965 3.88795,12.18705 1.85511,0.66702 3.47682,0.46589 5.82427,-0.72235 z"
     id="path2" />
  <path
     style="fill:#aad400;fill-opacity:1;stroke-width:0.42917"
     d="M 253.64463,133.57871 C 247.85592,122.93402 242.37738,115.3271 235.21972,107.99589 219.61183,92.009554 201.4728,82.465926 179.10692,78.472837 c -4.75312,-0.848599 -6.97736,-0.984963 -16.23684,-0.995461 -11.12105,-0.0126 -15.0609,0.381546 -23.64833,2.365831 -14.56081,3.364548 -31.70967,11.806261 -42.39191,20.867883 -4.642418,3.9381 -4.475408,3.85104 -4.957051,2.58422 -0.796223,-2.09422 -3.48187,-14.844568 -4.50345,-21.380524 -2.927294,-18.728505 -2.505746,-38.768796 1.059553,-50.370779 2.010671,-6.543009 5.618167,-11.573624 9.725325,-13.561865 4.029703,-1.950747 7.987983,-0.584281 18.819563,6.496846 7.84099,5.126024 13.23491,7.773841 18.95413,9.304361 3.79361,1.015209 4.9578,1.124478 12.13579,1.139061 11.33645,0.02303 14.75972,-0.632269 41.57001,-7.957547 34.05696,-9.305262 40.23652,-10.144183 71.08716,-9.650613 26.14583,0.418299 31.89308,1.285851 58.79631,8.875356 13.22211,3.730008 26.20639,7.014459 31.32943,7.924967 5.59192,0.993843 14.31231,1.299569 19.26974,0.675574 8.68304,-1.092939 14.44699,-3.469501 24.58338,-10.136093 11.34003,-7.458212 14.62326,-8.583274 19.07958,-6.537989 7.92694,3.638172 12.0529,14.710881 12.6797,34.028109 0.39834,12.276224 -0.84488,25.051006 -3.92883,40.370951 -1.67828,8.337095 -2.32578,10.059495 -3.77842,10.050885 -0.52635,-0.003 -3.45757,-1.85308 -6.53382,-4.123641 -9.83524,-7.259328 -18.49636,-11.812265 -29.61274,-15.566689 -11.92298,-4.026839 -21.41306,-5.625051 -33.40122,-5.625051 -7.91664,0 -12.14846,0.39321 -18.95754,1.761486 -19.56933,3.93243 -37.48448,13.396658 -51.86981,27.401815 -7.9792,7.76832 -12.48116,13.70101 -18.09016,23.83921 -1.82828,3.30461 -3.5587,6.34613 -3.84537,6.75894 -0.45603,0.65668 -0.80577,0.22728 -2.79647,-3.43337 z"
     id="path3" />
  <path
     style="fill:#aad400;fill-opacity:1;stroke-width:0.42917"
     d="m 155.55215,264.37987 c -40.64113,-3.59698 -72.795873,-34.41162 -78.069621,-74.81593 -3.359831,-25.74103 5.412611,-51.34975 23.969281,-69.9717 14.00872,-14.058 29.22012,-21.878136 47.85778,-24.603535 6.01543,-0.879642 20.38039,-0.985951 25.74023,-0.190493 13.59048,2.016971 28.25955,8.473378 39.95893,17.587418 20.33207,15.83907 32.62243,41.63098 32.62243,68.45975 0,4.61817 -0.0656,4.99735 -1.0704,6.19154 -1.13678,1.35099 -1.2566,1.3908 -12.01929,3.99378 -10.57542,2.55768 -21.93767,7.06056 -26.06535,10.32975 -2.35802,1.86759 -5.27013,5.83246 -7.10286,9.67064 -1.56019,3.26739 -1.59773,3.46482 -1.74109,9.15526 -0.13435,5.33265 -0.0545,6.08987 0.96059,9.11387 0.60891,1.81391 3.05199,7.18408 5.42907,11.93372 2.37709,4.74964 4.26234,8.68299 4.18946,8.74079 -0.62962,0.49927 -6.90712,3.94496 -10.00343,5.49084 -13.27016,6.6253 -30.85538,10.13572 -44.65573,8.9143 z m -24.50553,-77.90574 c 0.74381,-0.35424 3.46058,-2.48492 6.03727,-4.73484 5.62146,-4.90856 9.67006,-7.50733 14.36485,-9.22072 7.86731,-2.87121 16.48665,-2.34174 25.29529,1.55386 3.18771,1.40976 7.10156,4.27754 11.09422,8.12903 4.13753,3.99123 5.8043,4.91673 8.85478,4.91673 4.22901,0 7.34426,-3.24137 7.30314,-7.59883 -0.0601,-6.36726 -8.27798,-14.76755 -20.09676,-20.5428 -13.97375,-6.82828 -29.75552,-6.85232 -43.34278,-0.066 -5.53067,2.76236 -9.57147,5.72184 -14.4333,10.57092 -5.27682,5.26299 -6.57116,7.39259 -6.28748,10.34491 0.2219,2.30935 2.28379,5.63805 4.10453,6.62633 1.52004,0.82506 5.39428,0.83674 7.10624,0.0214 z"
     id="path4" />
  <path
     style="fill:#aad400;fill-opacity:1;stroke-width:0.42917"
     d="m 252.56664,264.19536 c -12.53519,-3.98114 -29.53181,-22.33356 -35.13804,-37.94097 -3.4036,-9.47544 -0.0789,-13.10093 16.25455,-17.72502 15.9647,-4.5197 28.12377,-4.55364 44.20453,-0.12341 11.21101,3.08862 16.71637,6.16967 17.64655,9.87578 1.58922,6.33194 -6.11522,21.19228 -16.70996,32.23025 -6.50601,6.7782 -12.74004,11.13817 -18.8661,13.19462 -3.60305,1.2095 -4.86036,1.29264 -7.39153,0.48875 z"
     id="path5" />
  <path
     style="fill:#aad400;fill-opacity:1;stroke-width:0.42917"
     d="m 69.794235,386.1351 c -9.100498,-20.0595 -13.961856,-35.18584 -16.858279,-52.4553 -0.695351,-4.14592 -0.791782,-7.30816 -0.791782,-25.9648 0,-22.3964 0.05883,-23.30489 2.181624,-33.68985 2.770158,-13.55196 7.245657,-27.09039 13.478027,-40.77117 1.7205,-3.7767 3.166831,-6.91604 3.214071,-6.97631 0.04724,-0.0603 1.402753,2.06412 3.012252,4.72087 8.51365,14.05324 19.341942,25.21718 32.898122,33.91788 12.26037,7.86902 25.01321,12.70528 40.06251,15.19291 6.69313,1.10637 23.75509,1.10852 30.47108,0.004 13.78234,-2.26698 25.82344,-6.62226 38.24557,-13.83348 2.62366,-1.52307 4.96022,-2.76922 5.19235,-2.76922 0.23214,0 1.94804,1.35337 3.81311,3.0075 8.77282,7.78057 20.58716,13.51616 29.61459,14.37722 8.52278,0.81293 22.14948,-5.152 32.93671,-14.41764 l 3.79845,-3.26266 3.49802,2.11639 c 11.21945,6.78805 24.80363,12.08058 36.03948,14.04133 9.46376,1.6515 21.02739,2.14743 30.07235,1.28972 18.16797,-1.72283 38.63378,-10.29942 53.90108,-22.58827 9.33716,-7.5156 18.83992,-18.77689 24.80081,-29.39032 0.64284,-1.14457 1.28068,-2.08123 1.41744,-2.08147 0.4311,-7.6e-4 5.85675,11.58629 7.84988,16.76425 5.09725,13.24213 8.49149,26.87428 10.62985,42.69224 0.86265,6.38126 0.98583,9.10521 0.99873,22.0854 0.0119,11.99654 -0.134,15.90588 -0.76891,20.60017 -2.47066,18.26711 -8.3534,38.49371 -15.63379,53.75356 -1.54845,3.2456 -2.9299,5.89442 -3.06989,5.88625 -0.13999,-0.008 -1.49755,-1.87153 -3.01682,-4.14081 -12.58748,-18.80164 -31.43089,-36.603 -52.81524,-49.89454 -30.33619,-18.85561 -71.41865,-32.13271 -106.4342,-34.39759 -9.24741,-0.59814 -46.03076,-0.27843 -51.92959,0.45136 -28.7403,3.55568 -57.3527,12.07063 -82.40067,24.52215 -30.02377,14.92504 -52.568445,33.99215 -69.722891,58.96799 -1.621246,2.36043 -3.065688,4.4317 -3.209872,4.60282 -0.144183,0.17112 -0.807561,-0.89108 -1.474172,-2.36043 z"
     id="path6" />
  <path
     style="fill:#aad400;fill-opacity:1;stroke-width:0.42917"
     d="m 244.19782,494.34178 c -5.78307,-0.15939 -13.18858,-0.59684 -16.45669,-0.97212 -3.26812,-0.37527 -6.10562,-0.68232 -6.30557,-0.68232 -0.19994,0 -0.42293,-8.44928 -0.49553,-18.77619 l -0.13198,-18.7762 -1.01418,-1.93126 c -1.41018,-2.68535 -4.76917,-5.73817 -8.13899,-7.39714 l -2.84552,-1.40085 h -29.83637 -29.83636 l -2.00094,0.98571 c -4.29256,2.11461 -8.2044,6.74632 -9.87444,11.69157 -0.56325,1.66786 -1.0376,2.45845 -1.36127,2.2688 -2.4694,-1.44684 -12.76585,-9.15216 -16.65585,-12.46434 -6.47049,-5.50938 -23.232041,-22.33518 -28.056659,-28.16422 -2.118239,-2.55923 -5.244448,-6.68642 -6.947132,-9.17153 l -3.095788,-4.51839 0.692644,-1.34314 c 2.513127,-4.87332 14.483838,-21.19578 20.184705,-27.52252 12.88612,-14.30079 31.61428,-27.84616 52.25686,-37.79538 23.71345,-11.4293 48.15622,-18.19682 77.47313,-21.45013 8.4843,-0.94151 31.19167,-1.30893 40.55936,-0.65628 38.16953,2.65929 73.85619,13.72879 103.34877,32.05734 17.27038,10.73291 32.42607,24.34119 43.62653,39.17224 3.39171,4.49112 10.6842,15.81047 11.01422,17.09621 0.30925,1.20479 -4.63556,8.37487 -10.5409,15.28453 -7.90107,9.2448 -22.50175,23.54116 -30.8234,30.18096 -2.57357,2.05344 -11.53052,8.541 -12.84011,9.30015 -0.32848,0.19042 -0.81159,-0.63264 -1.40594,-2.39528 -1.82623,-5.41596 -6.99051,-10.90158 -11.39788,-12.10708 -1.72877,-0.47286 -7.7782,-0.57355 -31.12391,-0.51808 l -28.97806,0.0689 -2.84549,1.40085 c -3.3698,1.65898 -6.72877,4.71181 -8.13895,7.39714 l -1.01418,1.93126 -0.128,18.71216 -0.128,18.71215 -6.95331,0.74754 c -3.82432,0.41114 -10.33302,0.82895 -14.46378,0.92846 -4.13076,0.0995 -9.15205,0.22939 -11.15842,0.28862 -2.00637,0.0592 -8.37955,-0.0227 -14.16262,-0.1821 z m 16.96935,-33.212 c 3.07032,-0.789 8.02354,-3.07211 10.78122,-4.96944 2.99746,-2.0623 6.91805,-6.23274 8.15603,-8.67576 3.50309,-6.91301 -3.57958,-14.22486 -10.37097,-10.70655 -0.94418,0.48913 -3.24617,2.16268 -5.11554,3.71899 -3.95124,3.28953 -6.32384,4.55244 -8.55261,4.55244 -2.36498,0 -3.96784,-0.8307 -8.23219,-4.2664 -4.85234,-3.90944 -6.72022,-4.89203 -9.32005,-4.9028 -5.04505,-0.0209 -8.99809,5.91414 -7.16048,10.75064 0.84924,2.23515 3.76315,5.59829 7.35082,8.48408 3.41608,2.74776 9.24435,5.97439 11.5028,6.36816 2.5813,0.45005 8.58811,0.2564 10.96097,-0.35336 z m -61.17388,-33.70602 c 5.59993,-0.90817 10.93011,-3.74021 15.47835,-8.22398 6.12616,-6.03932 7.2974,-10.6971 3.71566,-14.77647 -3.61707,-4.11962 -7.88937,-3.52906 -14.47313,2.00061 -6.89961,5.79494 -9.86097,5.7534 -16.94433,-0.23769 -3.66804,-3.10242 -6.12701,-4.45842 -8.11234,-4.47354 -2.15468,-0.0164 -4.66146,0.98292 -6.11713,2.43859 -1.60611,1.60611 -2.82845,5.10989 -2.44738,7.01527 0.28163,1.40816 4.46179,6.50757 7.68962,9.38062 4.47678,3.98474 8.51502,6.0029 13.78204,6.88776 2.97397,0.49964 4.29116,0.49765 7.42864,-0.0112 z m 121.64258,-0.41942 c 1.8443,-0.48306 4.24647,-1.33266 5.33816,-1.88798 4.05235,-2.06135 12.83928,-10.63884 13.84032,-13.51043 0.65224,-1.87102 -0.53412,-5.63406 -2.34815,-7.44809 -1.46152,-1.46151 -3.96611,-2.46157 -6.1237,-2.44515 -1.98533,0.0151 -4.4443,1.37112 -8.11234,4.47354 -7.03043,5.94632 -10.0619,6.01678 -16.74511,0.38915 -5.29829,-4.46145 -7.49637,-5.36711 -10.84062,-4.4666 -4.99061,1.34384 -7.12054,6.63244 -4.63884,11.51823 2.82673,5.56504 10.90086,11.61721 18.16267,13.61428 3.10806,0.85475 7.6586,0.76073 11.46761,-0.23695 z M 142.24238,410.06122 c 1.38228,-0.36003 4.03205,-1.44478 5.88837,-2.41055 4.45523,-2.31786 10.98225,-8.40955 12.63917,-11.79618 1.0874,-2.22257 1.12776,-2.50857 0.64758,-4.58884 -0.99033,-4.29035 -3.41106,-6.48708 -7.13083,-6.47099 -2.87072,0.0124 -5.2655,1.16721 -9.622,4.63983 -4.55247,3.62882 -5.69714,4.21359 -8.24809,4.21359 -2.38447,0 -4.47155,-1.08594 -8.0947,-4.21179 -4.28832,-3.69972 -5.8284,-4.47066 -8.93087,-4.47066 -3.60762,0 -5.736,1.1434 -7.00394,3.76263 -1.96266,4.05431 -0.1755,8.44895 5.71585,14.05534 4.00855,3.81465 7.85386,6.07113 12.36481,7.25584 3.13239,0.82265 8.66064,0.83288 11.77465,0.0218 z m 120.55091,-0.39449 c 6.6235,-2.06748 14.87082,-8.47762 17.47502,-13.58226 1.64901,-3.23232 0.73193,-7.04089 -2.34617,-9.7435 -3.62393,-3.18185 -7.40657,-2.04668 -15.43434,4.63182 -2.962,2.46415 -5.42141,3.20199 -8.42419,2.52731 -1.99486,-0.44821 -3.13046,-1.19199 -7.6749,-5.02679 -3.32664,-2.80716 -4.8989,-3.50817 -7.86361,-3.50607 -5.87618,0.004 -9.36568,6.04655 -6.62046,11.46397 2.79106,5.50789 11.84355,12.06531 18.86993,13.66895 3.15954,0.72111 8.99405,0.5107 12.01872,-0.43343 z m 118.26087,0.39038 c 4.63648,-1.09293 9.18663,-3.78097 13.3881,-7.90913 4.33319,-4.25759 5.9735,-7.06863 5.9735,-10.23697 0,-4.16219 -4.24114,-7.81552 -8.29038,-7.14138 -2.51597,0.41888 -4.31486,1.41994 -8.44095,4.69728 -4.51125,3.58328 -5.67817,4.18117 -8.16054,4.18117 -2.48917,0 -3.65525,-0.60004 -8.18856,-4.21359 -4.36176,-3.47681 -6.7494,-4.6268 -9.63713,-4.64166 -2.87079,-0.0148 -4.98594,1.29665 -6.22735,3.86104 -1.33762,2.76316 -1.28733,5.55655 0.14401,7.99895 1.46324,2.49682 9.08737,9.70538 11.86224,11.21565 4.76712,2.5946 12.02244,3.498 17.57706,2.18864 z M 204.07041,374.92822 c 8.44245,-2.7025 16.01424,-9.69389 17.12654,-15.81373 0.71176,-3.91604 -1.95819,-7.52656 -6.28127,-8.49402 -2.09403,-0.46863 -2.525,-0.43374 -4.22805,0.34221 -1.04299,0.47522 -3.60951,2.32242 -5.70338,4.1049 -4.35427,3.70671 -6.21066,4.72047 -8.6389,4.71764 -2.23637,-0.003 -3.74655,-0.82364 -7.81201,-4.24711 -5.52321,-4.65102 -8.90841,-5.98145 -11.96773,-4.70349 -3.19172,1.33328 -5.72497,4.75892 -5.74646,7.77076 -0.0241,3.38151 8.60796,12.58309 14.73813,15.71047 4.54965,2.32106 12.36747,2.57965 18.51313,0.61237 z m 119.30931,0.32676 c 3.6753,-0.88694 6.66731,-2.8232 11.19013,-7.24157 4.42713,-4.3249 6.62511,-7.45629 6.611,-9.41847 -0.0216,-3.00175 -2.55944,-6.42901 -5.74646,-7.76032 -3.05932,-1.27796 -6.44452,0.0525 -11.96773,4.70349 -4.06546,3.42347 -5.57564,4.2445 -7.81201,4.24711 -2.42824,0.003 -4.28463,-1.01093 -8.6389,-4.71764 -2.09387,-1.78248 -4.66039,-3.62968 -5.70338,-4.1049 -1.69464,-0.77212 -2.14024,-0.80944 -4.18938,-0.35087 -2.63419,0.58951 -4.7165,2.15148 -5.56022,4.1708 -0.82987,1.98616 -0.76007,6.55425 0.12039,7.87797 2.63731,3.96507 10.58721,10.49302 14.61297,11.99925 4.44447,1.66289 11.62288,1.91297 17.08359,0.59515 z m -61.09496,-16.65883 c 1.56827,-0.3324 3.6264,-0.99974 4.57362,-1.48298 4.30331,-2.19538 11.52832,-9.24423 13.54965,-13.21927 1.33016,-2.61583 0.52464,-5.2854 -2.54716,-8.44151 -3.93536,-4.04336 -6.59073,-3.48608 -14.17515,2.97496 -3.40994,2.90487 -6.09068,4.46076 -7.68572,4.46076 -1.63975,0 -4.31337,-1.59325 -8.15423,-4.8592 -5.94007,-5.05094 -8.63837,-5.98584 -11.80218,-4.08916 -5.0962,3.05512 -6.36606,6.61853 -3.89428,10.92794 2.16771,3.77927 9.00379,10.21069 13.04396,12.27183 3.84917,1.9637 11.58758,2.62321 17.09149,1.45663 z"
     id="path7" />
  <path
     style="fill:#aad400;fill-opacity:1;stroke-width:0.42917"
     d="m 192.91199,494.01955 c -2.01223,-0.93164 -3.81444,-2.74035 -4.53462,-4.55098 -0.34166,-0.859 -0.5839,-5.89403 -0.72782,-15.12825 l -0.21572,-13.84074 h 5.35664 c 2.94615,0 6.83423,-0.1249 8.64017,-0.27756 l 3.28353,-0.27756 -0.0102,13.68913 c -0.006,7.52902 -0.18329,14.43491 -0.39478,15.34643 -0.72101,3.10741 -4.44322,5.83432 -7.9638,5.83432 -0.94418,0 -2.48919,-0.35766 -3.43336,-0.79479 z"
     id="path8" />
  <path
     style="fill:#aad400;fill-opacity:1;stroke-width:0.42917"
     d="m 159.00754,494.18514 c -1.90892,-1.02547 -4.08668,-3.22854 -4.87451,-4.93116 -0.58454,-1.26329 -0.71788,-3.70248 -0.83872,-15.34283 l -0.14368,-13.84074 h 8.82955 8.82954 l -0.002,12.55323 c -10e-4,6.90427 -0.18539,13.66994 -0.40893,15.03482 -0.44164,2.6965 -1.39461,4.19799 -3.70998,5.8454 -1.91466,1.3623 -5.77558,1.70476 -7.68079,0.68128 z"
     id="path9" />
  <path
     style="fill:#aad400;fill-opacity:1;stroke-width:0.42917"
     d="m 312.22129,494.01955 c -2.30318,-1.06634 -4.06267,-3.02355 -4.53044,-5.03953 -0.2115,-0.91152 -0.38915,-7.81741 -0.39478,-15.34643 l -0.0102,-13.68913 3.28353,0.27756 c 1.80594,0.15266 5.69516,0.27756 8.6427,0.27756 h 5.35916 l -0.22295,13.84074 c -0.14709,9.1307 -0.39563,14.27888 -0.73035,15.12825 -1.16026,2.94415 -4.7378,5.34577 -7.96327,5.34577 -0.94417,0 -2.48918,-0.35766 -3.43336,-0.79479 z"
     id="path10" />
  <path
     style="fill:#aad400;fill-opacity:1;stroke-width:0.42917"
     d="m 346.54033,494.23234 c -1.59674,-0.69562 -3.96991,-3.01503 -4.61687,-4.5123 -0.30951,-0.71629 -0.53697,-6.16976 -0.6415,-15.37972 l -0.16194,-14.26991 h 8.86467 8.86468 l -0.14368,13.84074 c -0.11937,11.49868 -0.25885,14.09491 -0.82429,15.34283 -0.76562,1.6897 -3.73378,4.54768 -5.36849,5.1692 -1.51155,0.57469 -4.42938,0.48146 -5.97258,-0.19084 z"
     id="path11" />
</svg>
