<?xml version="1.0" encoding="UTF-8" standalone="no"?>
<!-- Created with Inkscape (http://www.inkscape.org/) -->

<svg
   version="1.1"
   id="svg1"
   width="512"
   height="512"
   viewBox="0 0 512 512"
   sodipodi:docname="owl-outline-white.svg"
   inkscape:version="1.3 (0e150ed6c4, 2023-07-21)"
   xmlns:inkscape="http://www.inkscape.org/namespaces/inkscape"
   xmlns:sodipodi="http://sodipodi.sourceforge.net/DTD/sodipodi-0.dtd"
   xmlns="http://www.w3.org/2000/svg"
   xmlns:svg="http://www.w3.org/2000/svg">
  <defs
     id="defs1" />
  <sodipodi:namedview
     id="namedview1"
     pagecolor="#ffffff"
     bordercolor="#000000"
     borderopacity="0.25"
     inkscape:showpageshadow="2"
     inkscape:pageopacity="0.0"
     inkscape:pagecheckerboard="0"
     inkscape:deskcolor="#d1d1d1"
     inkscape:zoom="2.3300781"
     inkscape:cx="255.78541"
     inkscape:cy="256"
     inkscape:window-width="3440"
     inkscape:window-height="1369"
     inkscape:window-x="-8"
     inkscape:window-y="-8"
     inkscape:window-maximized="1"
     inkscape:current-layer="svg1" />
  <path
     style="fill:#ffffff;fill-opacity:1"
     d="m 154,510.51664 c -10.19706,-3.28686 -17,-12.96204 -17,-24.17749 v -6.26816 l -8.25,-5.28449 C 96.559239,454.16691 70.281774,424.91966 53.920472,391.5 27.144962,336.80824 27.746349,275.12359 55.590441,220.21021 L 63.049322,205.5 l -1.66365,-9.3661 c -2.360326,-13.28829 -1.49806,-31.41123 2.076044,-43.6339 2.943192,-10.06509 6.827722,-18.92249 12.118143,-27.63146 1.953422,-3.21568 3.316812,-6.22671 3.029756,-6.69118 -0.287057,-0.46447 -1.863812,-6.20688 -3.5039,-12.76092 C 67.685607,75.764553 66.452893,47.925369 71.69987,28.5 76.539098,10.584198 87.634419,0 101.57617,0 107.86171,0 117.76689,3.9129544 124.45224,9.0369973 138.67947,19.94157 148.02423,20.934991 172.5,14.144846 218.62725,1.3480787 226.58524,0 256,0 c 29.40728,0 37.12433,1.3060746 83.5,14.13198 24.38772,6.7448 33.5835,5.843591 47.43259,-4.6485101 C 394.31375,3.8914847 403.95324,0 410.42383,0 c 5.86162,0 13.14607,2.8692718 17.89337,7.0480077 17.02681,14.9876013 19.97727,57.1657033 7.23246,103.3911723 l -2.46462,8.93919 3.44339,5.66843 c 5.18428,8.53425 9.08503,17.45093 12.00985,27.4532 3.57411,12.22267 4.43637,30.34561 2.07605,43.6339 l -1.66365,9.3661 7.45888,14.71021 c 34.93831,68.90441 26.49702,147.87709 -22.35769,209.16797 -12.75269,15.99895 -32.63999,33.77484 -50.80187,45.40832 l -8.25,5.28449 0,6.26816 c 0,11.66998 -6.94559,21.10415 -17.89648,24.30874 -6.79669,1.98894 -12.56058,1.37122 -19.37467,-2.0764 l -5.28952,-2.67625 -4.96966,2.79079 c -6.18911,3.47558 -15.64226,3.88416 -22.14486,0.95712 -4.00482,-1.8027 -4.47063,-1.80408 -15.97496,-0.0475 -16.67684,2.54641 -49.26368,2.56431 -66.43626,0.0365 -11.69193,-1.72106 -12.81001,-1.7371 -15.73276,-0.22568 -7.03597,3.63844 -18.10742,2.91816 -24.4384,-1.5899 l -2.89912,-2.06435 -5.53631,2.80111 c -6.56901,3.32362 -13.8907,4.03149 -20.307,1.96329 z m 14.54775,-18.16266 c 2.37418,-2.56179 2.45225,-3.1189 2.45225,-17.5 V 460 h -9 -9 v 14.42327 c 0,14.05794 0.0656,14.50121 2.58889,17.5 3.49672,4.15561 9.32714,4.3494 12.95886,0.43071 z m 33.9977,0.19147 C 204.93455,490.15636 205,489.68871 205,475.00652 v -15.08439 l -8.75,0.28894 -8.75,0.28893 v 14.6719 c 0,14.15227 0.0859,14.76322 2.42431,17.25 3.30628,3.516 9.17128,3.57342 12.62114,0.12355 z m 78.41871,1.31336 L 291,492.71762 v -18.71093 c 0,-17.75389 0.1155,-18.88472 2.25807,-22.10881 1.24194,-1.86883 4.27944,-4.43758 6.75,-5.70833 4.22225,-2.17173 5.2724,-2.27624 17.49193,-1.74076 15.53842,0.68093 14.91494,0.68197 29.97281,-0.0499 7.34204,-0.35686 13.34802,-0.16991 15.52839,0.48334 4.46742,1.33847 9.54394,6.50156 11.25665,11.44859 l 1.31299,3.79248 8.94054,-6.31164 c 11.06645,-7.81243 32.05388,-28.48923 40.30926,-39.71265 3.39865,-4.62055 6.17936,-8.71366 6.17936,-9.0958 0,-0.38214 -3.2373,-5.60169 -7.19399,-11.599 -24.14522,-36.59778 -69.8947,-64.02153 -123.23982,-73.87402 -75.21507,-13.89171 -155.14771,8.90716 -199.13421,56.79826 C 95.245475,383.0641 81,403.0487 81,404.99192 c 0,0.48674 2.782772,4.62518 6.183938,9.19653 8.38554,11.27062 29.382682,31.91273 40.304682,39.62319 l 8.94054,6.31164 1.31299,-3.79248 c 1.71271,-4.94703 6.78923,-10.11012 11.25665,-11.44859 2.18037,-0.65325 8.18635,-0.8402 15.52839,-0.48334 15.05787,0.73189 14.43439,0.73085 29.97281,0.0499 12.21953,-0.53548 13.26968,-0.43097 17.49193,1.74076 2.47056,1.27075 5.50806,3.8395 6.75,5.70833 2.14301,3.22475 2.25807,4.35336 2.25807,22.14991 v 18.75202 l 8.25,0.96073 c 11.84016,1.37883 39.98245,1.4323 51.71416,0.0983 z m -31.89284,-32.96578 c -4.48208,-1.3632 -10.96702,-5.87127 -14.9162,-10.36914 -3.91645,-4.46058 -4.15744,-8.61248 -0.70057,-12.06934 3.72494,-3.72495 7.71555,-3.26071 12.87833,1.49817 2.3585,2.17399 5.49845,4.41285 6.97765,4.97524 3.58553,1.36322 6.94967,0.009 12.35659,-4.97524 5.16278,-4.75888 9.15339,-5.22312 12.87833,-1.49817 3.72733,3.72732 3.261,7.71524 -1.50705,12.88796 -7.6483,8.29743 -19.16087,12.22887 -27.96708,9.55052 z m -61.04213,-34.79705 c -4.07011,-1.44192 -6.9812,-3.50085 -11.37006,-8.04173 -5.34973,-5.53502 -5.84122,-6.40404 -5.27618,-9.32892 0.7957,-4.11894 3.94247,-6.72533 8.11968,-6.72533 2.48051,0 4.50227,1.09797 8.28615,4.5 3.95756,3.55819 5.75219,4.5 8.57477,4.5 2.81345,0 4.64309,-0.95333 8.63645,-4.5 5.96782,-5.30027 10.26186,-5.97907 13.82569,-2.18555 3.61939,3.85267 2.89391,8.00192 -2.38607,13.64665 -8.16954,8.73389 -18.42818,11.6713 -28.41043,8.13488 z M 310.5,427.06169 C 301.30657,424.81362 291,415.63547 291,409.69666 291,405.41597 294.45344,402 298.78107,402 c 2.31861,0 4.49203,1.18998 8.21893,4.5 3.99336,3.54667 5.823,4.5 8.63645,4.5 2.82258,0 4.61721,-0.94181 8.57477,-4.5 3.78388,-3.40203 5.80564,-4.5 8.28615,-4.5 4.19615,0 7.32462,2.6103 8.13156,6.78472 0.58598,3.03135 0.14268,3.77552 -5.74699,9.64747 -5.05079,5.0356 -7.51484,6.697 -11.81344,7.96528 -5.80664,1.71321 -7.83934,1.82064 -12.5685,0.66422 z M 129.93879,409.67305 c -5.21758,-1.45047 -8.87878,-3.87453 -14.10567,-9.33929 C 109.1529,393.34953 111.13141,385 119.46662,385 c 2.69129,0 4.59983,1.00645 8.53338,4.5 3.91341,3.47566 5.84827,4.5 8.5,4.5 2.65173,0 4.58659,-1.02434 8.5,-4.5 7.12563,-6.32857 13.54254,-6.11962 15.85584,0.51631 1.45713,4.17993 0.31834,6.6117 -5.75785,12.29526 -7.91902,7.40732 -16.23822,9.84148 -25.1592,7.36148 z m 119.85354,-0.053 C 241.06175,407.22881 231,398.28034 231,392.90701 231,388.64837 234.54161,385 238.67565,385 c 2.77613,0 4.59994,0.96152 8.53557,4.5 4.06923,3.65859 5.71256,4.5 8.78878,4.5 3.07622,0 4.71955,-0.84141 8.78878,-4.5 6.1403,-5.52066 10.7816,-6.13293 14.13864,-1.86514 3.47102,4.41269 2.73084,7.80212 -2.94286,13.47582 -7.97185,7.97185 -17.20405,10.97123 -26.19223,8.50941 z m 119.01347,0.0192 c -5.17383,-1.43477 -6.29873,-2.15375 -12.64783,-8.08382 -5.32691,-4.97534 -6.42277,-7.49742 -5.01381,-11.53915 2.3133,-6.63593 8.73021,-6.84488 15.85584,-0.51631 3.91341,3.47566 5.84827,4.5 8.5,4.5 2.65173,0 4.58659,-1.02434 8.5,-4.5 5.80539,-5.15601 10.50481,-5.99519 14,-2.5 3.8442,3.8442 2.95316,8.35698 -2.81877,14.27603 -7.82826,8.02779 -17.04572,10.95051 -26.37543,8.36325 z M 185.33687,373.93769 C 179.88119,371.23714 171,361.84896 171,358.78237 c 0,-3.05813 2.59134,-6.6765 5.60091,-7.82074 3.26326,-1.24069 6.83707,0.2656 12.06621,5.08565 6.02361,5.55237 9.77971,5.4628 16.12572,-0.38457 5.70919,-5.26057 7.26408,-5.88743 11.20009,-4.51533 6.45325,2.24962 6.85381,8.89383 0.92401,15.32691 -8.42293,9.13779 -21.8072,12.30093 -31.58007,7.4634 z m 120.00166,0.12888 c -2.28881,-1.03924 -6.45131,-4.09663 -9.25,-6.7942 C 292.02065,363.35145 291,361.71588 291,359.1181 c 0,-4.46571 1.41523,-6.7186 5.00707,-7.97072 3.93601,-1.3721 5.4909,-0.74524 11.20009,4.51533 6.34601,5.84737 10.10211,5.93694 16.12572,0.38457 5.22914,-4.82005 8.80295,-6.32634 12.06621,-5.08565 3.00957,1.14424 5.60091,4.76261 5.60091,7.82074 0,3.0987 -8.97445,12.54276 -14.42766,15.18261 -5.52967,2.67687 -15.45739,2.72436 -21.23381,0.10159 z m -60.00166,-17.12888 c -2.28972,-1.1334 -6.45222,-4.48111 -9.25,-7.43935 -6.21614,-6.57266 -6.70547,-9.95859 -2.01014,-13.90945 4.66775,-3.92766 7.09988,-3.33783 14.65093,3.55306 C 251.69394,341.8489 253.86374,343 256,343 c 2.13626,0 4.30606,-1.1511 7.27234,-3.85805 C 267.98191,334.84412 271.05612,333 273.51118,333 276.1253,333 281,338.52181 281,341.48294 c 0,3.40555 -8.64563,12.68301 -14.42766,15.48204 -5.75269,2.78483 -15.57989,2.7722 -21.23547,-0.0273 z m 76.73882,135.48421 c 2.33845,-2.48678 2.42431,-3.09773 2.42431,-17.25 V 460.5 l -8.75,-0.28893 -8.75,-0.28894 v 15.08439 c 0,14.68219 0.0654,15.14984 2.45455,17.53893 3.44986,3.44987 9.31486,3.39245 12.62114,-0.12355 z m 34.33542,-0.49863 C 358.93442,488.92448 359,488.48121 359,474.42327 V 460 h -9 -9 v 14.85398 c 0,14.3811 0.0781,14.93821 2.45225,17.5 3.63172,3.91869 9.46214,3.7249 12.95886,-0.43071 z M 86.399638,368.76437 C 116.62481,333.52512 167.95228,308.36365 225,300.82046 c 12.25295,-1.62016 49.74705,-1.62016 62,0 57.08926,7.54868 106.64343,31.70747 137.79774,67.17954 4.10595,4.675 9.39476,11.36593 11.75291,14.86873 l 4.28755,6.36874 2.11209,-4.14003 c 7.42343,-14.55113 14.19786,-36.95124 16.57389,-54.80273 4.42612,-33.25413 -1.91456,-71.65749 -16.57627,-100.39681 l -2.11447,-4.1447 -3.66672,6.07562 c -15.40447,25.52462 -42.20376,43.36341 -72.41706,48.20398 -10.46006,1.67584 -29.00881,0.78972 -39.27408,-1.87621 -10.0762,-2.61684 -20.8961,-7.0523 -28.55946,-11.70754 l -5.92306,-3.59807 -5.24653,4.61346 c -6.28085,5.52297 -16.64873,10.92266 -24.23025,12.61933 -4.41729,0.98855 -6.66184,0.97943 -11.26628,-0.0458 -7.87268,-1.75288 -17.79035,-6.92012 -24.00318,-12.50599 l -5.18134,-4.65847 -6.78274,3.9528 C 188.93728,281.59703 159.22156,284.98936 131.5,276.27678 108.28775,268.98142 87.214215,252.49635 74.944966,232.03581 l -3.876277,-6.46418 -4.150064,8.96418 c -5.530663,11.9463 -10.323197,26.79994 -13.109411,40.6304 -1.945379,9.65664 -2.283249,14.44133 -2.283249,32.33379 0,17.93809 0.335479,22.66596 2.300874,32.42592 2.711903,13.46704 7.696705,28.84202 13.243673,40.84841 l 3.983919,8.62318 4.355128,-6.44875 c 2.395321,-3.54682 7.340856,-9.92979 10.990079,-14.18439 z M 176.3086,263.50542 c 10.34008,-1.80316 19.074,-4.86956 27.85236,-9.77869 l 6.54872,-3.66226 -5.56072,-11.14965 c -5.07062,-10.16694 -5.56044,-11.73423 -5.5575,-17.78223 0.003,-5.41941 0.53168,-7.60214 2.89237,-11.93322 1.58903,-2.91535 4.66582,-6.60722 6.83732,-8.20416 4.91641,-3.61557 17.89929,-8.3744 29.18365,-10.69717 10.15059,-2.0894 10.08704,-1.98068 9.16733,-15.68198 C 245.55527,143.08045 227.34307,115.75764 199.5,102.34594 186.62093,96.142226 177.02316,93.917866 162.93871,93.872558 139.26057,93.79639 120.00723,101.38471 103.13582,117.44267 53.165465,165.00369 77.197013,248.58548 145,263.04641 c 10.56486,2.25326 20.20882,2.39465 31.3086,0.45901 z m -54.23602,-79.14028 c -3.81415,-4.8489 -2.84619,-8.03291 4.67742,-15.38593 18.86873,-18.44093 45.72797,-19.97859 66.88885,-3.8293 9.72643,7.4229 12.88033,15.13481 8.0467,19.67578 -3.90378,3.66741 -8.29753,2.92928 -13.09459,-2.19983 -5.65168,-6.04289 -10.97748,-9.26388 -18.49157,-11.18351 -11.88322,-3.0358 -23.00433,0.34719 -33.24168,10.11197 -4.68686,4.4705 -6.33629,5.44568 -9.21089,5.44568 -2.59183,0 -4.04017,-0.68461 -5.57424,-2.63486 z M 263.5,262.63674 c 10.51408,-4.92842 22.96599,-18.21513 29.15399,-31.10853 7.06101,-14.71242 4.33903,-18.44187 -17.65399,-24.1881 -12.94366,-3.38187 -25.05634,-3.38187 -38,0 -21.99302,5.74623 -24.715,9.47568 -17.65399,24.1881 7.90106,16.46276 26.51663,33.45225 36.65399,33.45225 1.375,0 4.75,-1.05467 7.5,-2.34372 z m 101.63953,0.77825 c 37.56542,-7.12181 65.53677,-37.24721 69.83794,-75.21609 4.85741,-42.87912 -24.63697,-83.62471 -67.15372,-92.770851 -9.57862,-2.060538 -27.30967,-2.061024 -36.17718,-9.93e-4 -34.3776,7.986334 -60.16479,34.931234 -66.1216,69.090094 -1.60447,9.2007 -2.00307,21.27314 -0.75966,23.0078 0.40408,0.56372 5.01664,1.97991 10.25013,3.1471 26.85776,5.98988 37.3092,14.64325 37.34584,30.92087 0.012,5.3261 -0.64095,7.43328 -5.18811,16.743 -2.86101,5.85754 -5.25397,10.98647 -5.31768,11.3976 -0.2109,1.36077 13.51102,8.22937 21.64451,10.83432 14.28901,4.57641 27.68629,5.49246 41.63953,2.84715 z m -54.96522,-78.72944 c -4.52442,-4.81603 -1.43224,-12.19467 8.18684,-19.53564 6.82756,-5.21056 12.26222,-7.84872 19.85737,-9.63939 17.28592,-4.07542 33.96877,0.70215 47.03148,13.46869 7.75047,7.57474 8.73157,11.13013 4.29545,15.56624 -4.08981,4.08982 -7.76576,3.33712 -14.36969,-2.94239 -6.76017,-6.42809 -11.7603,-9.18496 -19.46517,-10.73231 -10.88412,-2.18585 -22.38746,1.77898 -31.33777,10.8011 -6.14716,6.19648 -10.36699,7.09216 -14.19851,3.0137 z m -49.67719,-54.31933 c 17.68517,-33.680087 56.63054,-55.409952 94.82462,-52.908124 20.13334,1.318795 41.23099,9.174893 56.66604,21.100645 8.32304,6.430709 8.15988,6.493939 10.42024,-4.037791 5.72413,-26.670462 5.91989,-51.551281 0.51917,-65.985994 C 420.34495,21.633279 415.31936,17 410.41554,17 c -4.18211,0 -6.82527,1.288838 -17.37442,8.472003 C 382.77394,32.463162 374.73184,35 362.83617,35 353.22573,35 345.09164,33.238767 314.65748,24.568109 292.5469,18.268832 282.6744,16.998832 255.87166,17.005895 c -30.57935,0.0081 -32.93683,0.3943 -76.37166,12.51253 -29.8703,8.333752 -43.71199,7.412923 -60.51039,-4.025502 C 104.4673,15.604346 100.6316,14.75053 94.584075,20.060325 83.44683,29.838955 81.873636,66.508057 91.098418,101.30641 l 1.009051,3.80642 3.412536,-2.99625 c 10.662015,-9.36137 27.099875,-17.87925 41.575725,-21.543985 39.14262,-9.909423 79.44967,3.538364 104.51944,34.871205 3.54523,4.43091 8.11963,11.31677 10.16535,15.30191 2.04571,3.98514 3.94448,7.24279 4.21948,7.23922 0.275,-0.004 2.2987,-3.43199 4.49712,-7.61871 z"
     id="path1" />
</svg>
