<?xml version="1.0" encoding="UTF-8" standalone="no"?>
<!-- Created with Inkscape (http://www.inkscape.org/) -->

<svg
   version="1.1"
   id="svg1"
   width="512"
   height="512"
   viewBox="0 0 512 512"
   sodipodi:docname="panda-outline.svg"
   inkscape:version="1.3 (0e150ed6c4, 2023-07-21)"
   xmlns:inkscape="http://www.inkscape.org/namespaces/inkscape"
   xmlns:sodipodi="http://sodipodi.sourceforge.net/DTD/sodipodi-0.dtd"
   xmlns="http://www.w3.org/2000/svg"
   xmlns:svg="http://www.w3.org/2000/svg">
  <defs
     id="defs1" />
  <sodipodi:namedview
     id="namedview1"
     pagecolor="#ffffff"
     bordercolor="#000000"
     borderopacity="0.25"
     inkscape:showpageshadow="2"
     inkscape:pageopacity="0.0"
     inkscape:pagecheckerboard="0"
     inkscape:deskcolor="#d1d1d1"
     inkscape:zoom="2.3300781"
     inkscape:cx="255.78541"
     inkscape:cy="256"
     inkscape:window-width="3440"
     inkscape:window-height="1369"
     inkscape:window-x="-8"
     inkscape:window-y="-8"
     inkscape:window-maximized="1"
     inkscape:current-layer="svg1" />
  <path
     style="fill:#000000"
     d="m 236.5,511.41379 c -2.2,-0.21768 -8.90661,-0.87134 -14.90359,-1.45256 -30.59426,-2.96521 -62.42395,-11.3717 -90.46777,-23.89332 C 47.497316,448.72636 -3.3274744,374.9062 0.36821191,296.14573 1.845546,264.66158 9.5569875,231.83277 22.160157,203.37402 L 27.087381,192.24803 21.61606,184.9751 C -8.1760213,145.37299 -6.7391628,88.990886 25.065336,49.626009 41.050343,29.841142 63.605928,16.215313 89.077467,10.956281 103.73979,7.9289962 126.04082,8.5830521 139.96499,12.448736 c 15.45153,4.289717 29.24989,11.681567 44.20907,23.683024 l 2.67406,2.145343 9.82594,-3.182088 C 202.07833,33.344866 212.125,30.71069 219,29.241291 c 11.61592,-2.48268 14.2328,-2.671635 37,-2.671635 22.7672,0 25.38408,0.188955 37,2.671635 6.875,1.469399 16.92167,4.103575 22.32594,5.853724 l 9.82594,3.182088 2.67406,-2.145343 c 18.77258,-15.06087 36.44417,-23.307196 56.10804,-26.1824346 12.57641,-1.838913 33.3667,-0.75085 45.27183,2.3693066 54.71015,14.338715 90.29219,68.898133 81.25902,124.597848 -2.83409,17.47538 -10.05046,34.72534 -20.13498,48.13052 l -5.42455,7.21077 4.51007,10.12111 c 9.44845,21.20338 16.64008,46.50569 20.21462,71.12112 2.62017,18.04336 2.40555,45.48624 -0.47629,60.90214 -17.39285,93.03987 -103.14533,162.23299 -217.6537,175.62335 -9.39299,1.0984 -48.06456,2.07454 -55,1.3883 z m 48.64405,-17.43918 C 391.99044,483.39521 473.80898,420.71756 492.01461,335.5 c 2.72594,-12.75967 3.76997,-41.44881 2.05815,-56.55639 C 484.14219,191.30196 424.3516,107.14558 342.22893,65.220563 311.70626,49.63822 284.96716,42.634374 256,42.634374 c -28.85133,0 -55.33168,6.912741 -86.11062,22.479324 C 93.220484,103.88932 34.710995,181.64889 19.862949,264.5 c -2.015203,11.2447 -2.32914,16.24056 -2.325061,37 0.0045,22.81709 0.14376,24.59146 2.825771,36 5.146756,21.89289 13.075858,40.11774 25.493216,58.59553 36.049119,53.64328 102.683735,89.92674 179.643125,97.81812 11.76381,1.20626 47.70611,1.24299 59.64405,0.061 z m -46.94033,-26.14792 c -52.49521,-6.58486 -94.68214,-42.67258 -118.8358,-101.65502 -2.56664,-6.26766 -4.88551,-10.57523 -5.61902,-10.43799 -0.68689,0.12853 -3.6453,0.78684 -6.57423,1.46292 -6.16544,1.42314 -9.534053,0.19892 -12.117466,-4.40375 -1.338207,-2.38419 -1.317937,-3.02287 0.196741,-6.19919 1.155069,-2.4222 2.566682,-3.72935 4.467356,-4.13676 10.382109,-2.22538 15.701579,-6.50717 18.761619,-15.10177 2.78773,-7.82976 3.63019,-9.15934 6.57705,-10.37997 3.30514,-1.36903 6.26852,-0.61232 8.97386,2.29153 2.52957,2.71517 2.48495,6.27173 -0.16763,13.36138 -2.66021,7.11003 -2.97437,6.82688 13.57599,12.23596 19.52219,6.38036 47.6283,11.22121 73.05781,12.58312 6.05,0.32401 14.7125,0.82943 19.25,1.12315 l 8.25,0.53403 v -18.30388 -18.30388 l -4.29687,-2.27949 c -5.04452,-2.67611 -21.75344,-21.90937 -24.72927,-28.46532 -5.50238,-12.12208 0.4528,-27.35338 12.95627,-33.13767 4.17065,-1.92941 6.31705,-2.11403 24.56987,-2.11344 18.62129,6.1e-4 20.28009,0.15055 24.06306,2.17496 12.35882,6.61368 17.83787,21.23321 12.42665,33.15752 -3.05482,6.73169 -19.42072,25.5871 -24.58817,28.32842 L 264,322.49657 v 18.31205 18.31205 l 9.75,-0.58335 c 5.3625,-0.32084 13.8,-0.81955 18.75,-1.10823 24.87969,-1.451 53.11801,-6.37504 72.05781,-12.56506 16.55036,-5.40908 16.2362,-5.12593 13.57599,-12.23596 -2.85098,-7.61993 -2.74365,-11.10913 0.43967,-14.29245 2.11107,-2.11107 3.20516,-2.47095 6.08923,-2.00293 4.68355,0.76003 6.10966,2.10821 7.43447,7.02818 2.64308,9.81565 7.68103,15.69052 15.1979,17.7226 6.67453,1.80437 8.53823,2.99959 9.64995,6.18865 1.30282,3.73728 -0.31118,7.51967 -4.11969,9.65446 -2.25797,1.26566 -3.50435,1.30773 -8,0.27002 -2.92893,-0.67608 -5.88734,-1.33439 -6.57423,-1.46292 -0.73351,-0.13724 -3.05238,4.17033 -5.61902,10.43799 -15.14634,36.98686 -37.51901,65.26475 -65.65693,82.98691 -24.82836,15.6377 -57.74533,22.55994 -88.77143,18.66811 z m 42.59083,-17.81228 c 9.11868,-1.89721 24.68853,-7.18473 27.75143,-9.42437 1.70874,-1.24946 1.69331,-1.46678 -0.33733,-4.75244 -3.17004,-5.12923 -13.95567,-15.02943 -20.20865,-18.54966 -18.05694,-10.16548 -42.11304,-10.75578 -60.97587,-1.49625 -10.79802,5.30062 -26.61428,20.82638 -24.57591,24.12452 0.85947,1.39066 15.83956,6.99736 24.6566,9.22841 16.25777,4.11383 36.52005,4.44209 53.68973,0.86979 z m -90.31218,-23.7662 c 4.34289,-6.91428 15.20543,-17.10638 23.50203,-22.05147 3.97087,-2.3668 11.33633,-5.73451 16.36768,-7.48381 8.84705,-3.07594 9.69059,-3.18054 25.64792,-3.18054 15.95733,0 16.80087,0.1046 25.64792,3.18054 5.03135,1.7493 12.39681,5.11701 16.36768,7.48381 8.2966,4.94509 19.15914,15.13719 23.50203,22.05147 1.6403,2.61152 3.28761,4.74902 3.66068,4.75 1.96342,0.005 24.0821,-22.82487 30.94765,-31.94296 C 363.4613,389.31323 378,362.93059 378,359.36154 c 0,-1.80126 -0.27935,-1.76373 -9,1.20924 -24.66826,8.40969 -58.17433,13.1099 -100.5,14.0981 -48.78806,1.13907 -95.37044,-3.97545 -124,-13.6146 -10.35727,-3.48714 -10.5,-3.51015 -10.5,-1.69274 0,3.56905 14.5387,29.95169 21.87404,39.69371 6.86555,9.11809 28.98423,31.94814 30.94765,31.94296 0.37307,-9.8e-4 2.02038,-2.13848 3.66068,-4.75 z M 261.1158,305.75 c 1.6663,-1.39038 12.26457,-13.6428 15.68656,-18.13486 2.91215,-3.82279 2.77825,-7.77168 -0.39125,-11.53841 L 273.82221,273 H 256 238.17779 l -2.5889,3.07673 c -4.34725,5.16641 -3.59736,7.6966 5.53213,18.66577 C 251.0044,306.61751 251.4687,307 256,307 c 1.98976,0 4.29187,-0.5625 5.1158,-1.25 z M 121.20171,296.04396 C 91.510973,287.9965 73.149205,261.95693 70.047425,223.5 67.517716,192.1358 78.41825,158.65031 99.89734,131.80369 c 20.38076,-25.47383 50.73863,-40.159238 76.25923,-36.88987 10.12243,1.296754 14.97416,2.86869 23.40337,7.58258 23.43989,13.10833 36.64457,40.49583 36.64457,76.0036 0,51.34172 -34.60213,102.55225 -78.70451,116.48125 -10.20707,3.22374 -26.55899,3.70247 -36.29829,1.06271 z m 29.04244,-15.97852 c 22.82764,-5.83833 43.88711,-24.94582 57.34507,-52.02982 9.31149,-18.73927 13.00079,-35.43395 12.05162,-54.53562 -1.46004,-29.38284 -11.69565,-48.48712 -31.12232,-58.0883 -6.79977,-3.36062 -8.7525,-3.85475 -16.74354,-4.2368 -10.36969,-0.49578 -17.50756,0.80887 -26.41218,4.82761 -28.32201,12.78196 -51.741216,45.68347 -58.00969,81.49749 -3.17067,18.11517 0.148269,44.28407 7.326393,57.76656 3.715429,6.97859 15.545797,18.74584 21.820497,21.70407 11.10741,5.23662 21.60523,6.19942 33.74415,3.09481 z M 124.5,244.79218 c -4.83534,-2.77306 -5.63699,-6.64857 -2.60261,-12.58202 4.91815,-9.61698 16.91969,-19.31391 28.83638,-23.29903 L 157.5,206.64841 154,205.72108 c -6.32683,-1.67629 -18.81977,-0.35243 -26,2.75519 -8.26963,3.57911 -11.67509,3.60278 -14.68628,0.10206 -4.55252,-5.29261 -1.98295,-10.69726 7.13713,-15.01175 12.01138,-5.68229 24.17319,-6.8597 36.99184,-3.58124 9.49882,2.42939 17.34468,6.79899 24.29433,13.53026 4.23136,4.09839 5.26298,5.73644 5.26298,8.35674 0,6.45586 -3.74906,9.11304 -12.89922,9.14244 -14.49535,0.0466 -31.81951,8.53002 -37.61531,18.41981 -3.40987,5.81849 -7.77751,7.77086 -11.98547,5.35759 z m -2.04545,-76.24673 c -2.61824,-2.61823 -3.14593,-6.38508 -1.36155,-9.71923 2.45545,-4.58804 23.74334,-11.98597 38.407,-13.34713 11.90522,-1.1051 27.58556,3.51557 34.1263,10.0563 4.87846,4.87846 1.50224,13.46461 -5.29451,13.46461 -1.93768,0 -4.80028,-0.90947 -6.36135,-2.02105 C 177.2613,163.62575 171.1547,162 163.26862,162 c -8.57163,0 -16.04581,1.71769 -26.11057,6.00063 -8.55552,3.6407 -11.49858,3.74975 -14.7035,0.54482 z M 358.4095,296.51584 C 331.84998,290.73707 305.10936,268.35168 289.65432,238.95877 278.51035,217.7648 273.79549,199.79029 273.79549,178.5 c 0,-35.0895 12.52727,-61.56568 35.69786,-75.44688 38.42151,-23.017831 92.20686,2.36545 117.48799,55.44688 9.35499,19.64216 13.24204,35.90607 13.26444,55.5 0.049,42.86018 -19.47146,73.74562 -51.84179,82.02456 -8.93503,2.28519 -20.85245,2.48039 -29.99449,0.49128 z m 23.79128,-15.6411 c 11.25294,-2.3895 23.36036,-10.86874 30.41278,-21.29909 4.15932,-6.15153 8.77321,-20.07309 10.43886,-31.49736 6.64088,-45.54811 -22.5982,-98.57109 -62.81087,-113.90301 -5.83959,-2.22647 -8.34704,-2.57738 -18.74155,-2.62282 -11.83898,-0.0518 -12.10478,-0.002 -19.80848,3.67602 -19.57747,9.34808 -30.10233,29.05808 -31.38314,58.77152 -0.67376,15.63059 1.16554,27.07126 6.73113,41.86848 16.39187,43.58099 53.31815,71.76798 85.16127,65.00626 z m -4.35272,-35.89996 c -0.90856,-0.53042 -2.81511,-2.94921 -4.23677,-5.37508 -5.89304,-10.05572 -23.10505,-18.53799 -37.71207,-18.58492 C 326.74906,220.98538 323,218.3282 323,211.87234 c 0,-2.6203 1.03162,-4.25835 5.26298,-8.35674 6.94965,-6.73127 14.79551,-11.10087 24.29433,-13.53026 12.81865,-3.27846 24.98046,-2.10105 36.99184,3.58124 9.12008,4.31449 11.68965,9.71914 7.13713,15.01175 -3.01119,3.50072 -6.41665,3.47705 -14.68628,-0.10206 -7.18023,-3.10762 -19.67317,-4.43148 -26,-2.75519 l -3.5,0.92733 6.76623,2.26272 C 374.35902,213.95839 390,229.01956 390,238.50562 c 0,5.38291 -7.32922,9.28467 -12.15194,6.46916 z m -5.18667,-77.00621 c -17.79504,-7.70165 -34.67987,-8.07604 -44.63183,-0.98962 -8.56912,6.10175 -18.68068,-3.66826 -11.64903,-11.25554 6.11671,-6.60003 22.00088,-11.36923 34.11947,-10.24432 14.66366,1.36116 35.95155,8.75909 38.407,13.34713 1.78438,3.33415 1.25669,7.101 -1.36155,9.71923 -3.20635,3.20636 -6.4315,3.08136 -14.88406,-0.57688 z M 40.105203,168.75 C 46.264668,158.10091 60.132426,137.95077 68.811876,127.03859 78.204677,115.22956 104.60198,88.694975 116,79.605064 c 11.13677,-8.881571 31.01911,-22.004027 43.33315,-28.60013 11.3363,-6.072367 11.38899,-5.377687 -0.97048,-12.794499 C 111.3306,9.9868929 48.812517,29.836741 25.445061,80.412535 18.868411,94.646833 17.49273,101.555 17.561677,120 c 0.05598,14.97697 0.310444,17.3112 2.756726,25.28832 2.739833,8.93436 7.827894,19.95343 12.412252,26.88086 1.394315,2.10695 2.680469,3.83082 2.858121,3.83082 0.177652,0 2.210044,-3.2625 4.516427,-7.25 z M 488.05754,155.20715 c 9.6545,-23.19115 9.07705,-51.89635 -1.5047,-74.799165 C 472.17905,49.297802 442.06641,28.488782 407,25.433831 c -16.66284,-1.45165 -38.27588,3.723151 -53.36267,12.776604 -12.35947,7.416812 -12.30678,6.722132 -0.97048,12.794499 12.31404,6.596103 32.19638,19.718559 43.33315,28.60013 11.43612,9.120299 37.80563,35.637726 47.26926,47.534406 8.40675,10.56808 24.49667,33.98166 29.70442,43.22498 l 3.30406,5.86444 4.28983,-6.66733 c 2.3594,-3.66703 5.72989,-10.12651 7.48997,-14.35441 z"
     id="path1" />
</svg>
