<?xml version="1.0" encoding="UTF-8" standalone="no"?>
<!-- Created with Inkscape (http://www.inkscape.org/) -->

<svg
   version="1.1"
   id="svg1"
   width="512"
   height="512"
   viewBox="0 0 512 512"
   sodipodi:docname="panda-filled.svg"
   inkscape:version="1.3 (0e150ed6c4, 2023-07-21)"
   xmlns:inkscape="http://www.inkscape.org/namespaces/inkscape"
   xmlns:sodipodi="http://sodipodi.sourceforge.net/DTD/sodipodi-0.dtd"
   xmlns="http://www.w3.org/2000/svg"
   xmlns:svg="http://www.w3.org/2000/svg">
  <defs
     id="defs1" />
  <sodipodi:namedview
     id="namedview1"
     pagecolor="#ffffff"
     bordercolor="#000000"
     borderopacity="0.25"
     inkscape:showpageshadow="2"
     inkscape:pageopacity="0.0"
     inkscape:pagecheckerboard="0"
     inkscape:deskcolor="#d1d1d1"
     inkscape:zoom="2.3300781"
     inkscape:cx="255.78541"
     inkscape:cy="256"
     inkscape:window-width="3440"
     inkscape:window-height="1369"
     inkscape:window-x="-8"
     inkscape:window-y="-8"
     inkscape:window-maximized="1"
     inkscape:current-layer="svg1" />
  <path
     style="fill:#aad400;fill-opacity:1;stroke-width:0.42917"
     d="m 240.54987,494.35613 c -17.62901,-0.42994 -30.90474,-2.13924 -50.2129,-6.46511 C 119.09608,471.93001 61.872852,430.80466 34.187737,375.66925 27.478567,362.30782 20.719118,341.41252 18.693957,327.77377 17.192184,317.65984 17.462283,281.29981 19.120325,270.3772 30.601637,194.74229 80.7441,120.05861 148.58926,77.542275 c 29.89112,-18.731777 59.23255,-29.933299 88.09808,-33.632732 9.22635,-1.182458 30.58388,-1.082843 39.91283,0.18616 18.73479,2.548466 35.15443,7.35269 53.7857,15.737161 69.82923,31.424668 126.94167,94.507686 151.7808,167.648126 8.99926,26.49888 13.21548,52.1331 12.45541,75.72773 -0.74332,23.07424 -2.33863,33.53156 -7.53069,49.36417 -13.04437,39.77755 -40.27757,74.08253 -78.95057,99.45205 -31.79121,20.85508 -70.44015,34.78874 -112.13502,40.42679 -14.08039,1.90397 -31.2696,2.49425 -55.45593,1.9044 z m 25.79518,-25.7175 c 26.72713,-2.14601 50.47426,-10.87996 70.32192,-25.86369 13.86966,-10.47072 27.69216,-25.5014 37.77028,-41.07167 5.93347,-9.16698 13.0396,-22.66729 17.62028,-33.47527 3.22702,-7.61404 5.23543,-11.56902 6.02975,-11.87383 0.35504,-0.13624 2.69209,0.18385 5.19345,0.71131 5.87089,1.23799 8.56107,1.05904 10.7654,-0.71612 3.1053,-2.50072 4.19183,-5.77832 3.04782,-9.19395 -0.99603,-2.97377 -2.90822,-4.27388 -9.00842,-6.12485 -7.99616,-2.42626 -12.29276,-7.03579 -15.33541,-16.45234 -0.70224,-2.17335 -1.62634,-4.54325 -2.05354,-5.26645 -1.10316,-1.8675 -3.98485,-3.14344 -7.20446,-3.18993 -2.92135,-0.0422 -4.34068,0.75885 -6.2773,3.54275 -1.78967,2.57265 -1.67194,5.61553 0.47653,12.31683 1.83044,5.70933 1.83876,5.76373 1.01924,6.66989 -1.16475,1.28789 -3.17183,2.2347 -8.99011,4.24093 -18.68219,6.44189 -42.8664,11.32046 -66.94093,13.50368 -6.3346,0.57446 -34.78975,2.39033 -37.45703,2.39033 h -0.9537 l 0.002,-18.13244 0.002,-18.13244 2.89531,-1.47465 c 7.02634,-3.5787 24.43914,-23.97422 26.7656,-31.3504 1.97002,-6.24604 1.38909,-13.09948 -1.63266,-19.26122 -2.15029,-4.38474 -7.64336,-9.96546 -11.80323,-11.99156 -4.09306,-1.99356 -9.27036,-2.38361 -28.03037,-2.11177 -16.26684,0.23572 -17.85904,0.43462 -22.28472,2.78386 -1.19789,0.63586 -3.74107,2.70561 -5.6515,4.59945 -5.68425,5.63486 -8.23717,12.20269 -7.76094,19.9664 0.38901,6.34181 2.11804,9.85335 9.23852,18.76275 8.09095,10.12368 14.84303,16.76511 19.23366,18.91848 l 2.28952,1.12289 v 18.15033 c 0,17.00043 -0.0476,18.15024 -0.75105,18.14895 -2.88477,-0.005 -36.76212,-2.26649 -41.95138,-2.8001 -22.76539,-2.34097 -45.01606,-6.98725 -62.6139,-13.07471 -5.87292,-2.03157 -7.86098,-2.97118 -9.03641,-4.27088 -0.8338,-0.92196 -0.83046,-0.94633 0.81568,-5.94676 2.89888,-8.80584 2.52673,-12.14345 -1.67245,-14.99922 -1.62722,-1.10664 -2.48711,-1.3948 -4.16208,-1.3948 -4.64889,0 -6.45004,1.79059 -9.38831,9.33326 -1.09272,2.80505 -2.57904,5.96095 -3.30294,7.0131 -3.06128,4.44942 -7.35157,7.23749 -14.03225,9.11896 -4.265304,1.20123 -4.968122,1.71418 -6.465351,4.71873 -1.432381,2.87441 -1.367507,4.35847 0.312329,7.14501 2.600887,4.3144 5.657402,5.07646 13.587912,3.38778 2.35737,-0.50197 4.57888,-0.80032 4.93669,-0.66302 0.74573,0.28616 2.76852,4.16899 5.40425,10.37367 8.58899,20.21903 17.41648,35.33171 29.32994,50.21291 4.56082,5.69697 17.39662,18.48136 23.0262,22.93399 27.17627,21.49464 60.21511,31.53287 94.67699,28.76583 z M 382.17603,297.36648 c 17.15309,-2.19125 33.12068,-12.30927 43.2053,-27.37745 9.60118,-14.34585 14.28374,-30.83455 14.82252,-52.19455 0.49833,-19.7561 -2.11685,-33.81766 -9.65615,-51.92021 -12.0289,-28.88252 -31.55947,-50.94711 -55.82793,-63.0714 -6.99759,-3.495934 -13.79422,-5.80377 -21.72731,-7.377636 -5.51381,-1.093895 -19.15789,-1.104191 -24.19436,-0.01825 -12.63577,2.72445 -23.15976,8.439326 -32.21336,17.492926 -12.51099,12.51098 -19.96557,29.95449 -22.35714,52.31506 -0.67957,6.35378 -0.56945,21.47659 0.2036,27.96133 2.07605,17.41493 8.58422,35.52663 19.0009,52.87795 11.37162,18.94199 28.4632,35.07769 46.68525,44.0743 14.2289,7.02511 26.79565,9.18774 42.05868,7.23793 z M 150.71209,296.824 c 15.57674,-2.88466 33.14688,-12.90152 47.14202,-26.87597 20.24007,-20.21014 33.58317,-47.3238 37.61227,-76.42945 1.02163,-7.38004 1.02085,-23.8705 -10e-4,-31.29226 -4.19148,-30.42901 -17.7417,-51.39451 -40.19249,-62.18759 -8.82287,-4.241543 -17.37032,-5.87272 -28.7544,-5.487432 -10.80451,0.365674 -19.27435,2.510005 -29.82732,7.551472 -15.96741,7.6281 -28.93517,18.54532 -40.323712,33.94748 -22.049463,29.82025 -31.097859,66.1043 -24.882496,99.77875 4.992034,27.04651 17.574462,45.7725 37.469348,55.76431 5.06475,2.54367 11.84059,4.8214 16.68531,5.60886 4.99701,0.81221 19.8552,0.58811 25.07294,-0.37817 z"
     id="path2" />
  <path
     style="fill:#aad400;fill-opacity:1;stroke-width:0.42917"
     d="m 129.32362,280.92826 c -6.03143,-1.14953 -11.85067,-3.42619 -16.05468,-6.28108 -3.63761,-2.47025 -11.93576,-10.58703 -15.053175,-14.72414 -3.234815,-4.29292 -4.731254,-7.26803 -6.801558,-13.52234 -3.892882,-11.76025 -5.815792,-28.28694 -4.75043,-40.82819 1.829037,-21.53108 11.49146,-44.92874 26.053173,-63.08802 12.47335,-15.55497 29.25844,-26.85564 45.00308,-30.2986 4.54304,-0.99345 17.0016,-1.0078 21.5817,-0.0249 6.76164,1.45113 16.43472,7.10428 22.39286,13.08686 10.74927,10.79337 16.23207,25.58886 17.62991,47.57478 1.19504,18.79627 -2.60427,36.10333 -12.08843,55.06668 -9.13963,18.27448 -21.17971,32.51197 -35.68939,42.203 -7.23063,4.82934 -15.93912,8.59803 -23.94438,10.36217 -4.37451,0.96402 -14.34973,1.22255 -18.27868,0.47374 z m 1.43805,-35.46925 c 1.63745,-0.61735 3.73345,-2.68014 5.81863,-5.72648 3.34934,-4.89319 6.59742,-7.8209 12.55633,-11.31788 7.08097,-4.15546 14.61997,-6.36695 24.39212,-7.1552 8.93888,-0.72104 11.50786,-1.76155 13.001,-5.26578 0.77145,-1.81053 0.74996,-5.34129 -0.0441,-7.2417 -0.34789,-0.83261 -2.15183,-2.99908 -4.00877,-4.81438 -8.78515,-8.58817 -18.62788,-13.46089 -30.97983,-15.3368 -9.7762,-1.48473 -19.19547,-0.2685 -28.73836,3.71075 -11.29635,4.71041 -14.73932,10.82976 -9.31795,16.56122 3.26192,3.44851 5.81675,3.34016 16.02514,-0.6796 6.26814,-2.46821 18.47082,-3.57699 24.54532,-2.23028 l 2.72874,0.60496 -4.5036,1.58475 c -6.27844,2.20929 -9.74701,3.90595 -14.47274,7.07938 -7.56149,5.0777 -13.04283,10.90566 -16.1278,17.14769 -2.76195,5.58842 -2.1125,9.27678 2.13764,12.14004 2.22716,1.50041 4.63978,1.8247 6.98821,0.93931 z m -0.46617,-74.85008 c 1.43955,-0.33951 5.01239,-1.5817 7.93965,-2.76044 10.81715,-4.35582 18.25921,-5.86181 26.99536,-5.46285 7.4206,0.33888 9.83861,1.05504 17.46846,5.17375 5.30442,2.8634 10.53869,1.63833 12.6251,-2.95488 1.43499,-3.15912 0.78163,-6.80086 -1.6838,-9.38532 -5.14892,-5.39747 -19.5409,-10.15968 -30.70386,-10.15968 -12.92138,0 -39.49309,8.64389 -42.10635,13.69736 -2.68225,5.18691 0.84258,12.01648 6.41889,12.43697 0.23605,0.0178 1.60699,-0.24541 3.04655,-0.58491 z"
     id="path3" />
  <path
     style="fill:#aad400;fill-opacity:1;stroke-width:0.42917"
     d="M 33.242358,172.40948 C 27.006828,163.03269 20.415802,147.2918 18.735437,137.76362 17.250553,129.34387 17.561581,107.28454 19.284204,98.842862 21.527741,87.848462 28.144167,73.783281 35.942238,63.431259 49.361723,45.616746 69.402059,32.70485 91.15563,27.857523 c 7.005186,-1.560958 12.67496,-2.163642 20.42861,-2.171516 17.4647,-0.01774 32.22418,4.163093 48.06696,13.615636 5.62955,3.358853 7.72516,4.96658 7.72516,5.926661 0,0.916147 -1.14526,1.689308 -8.79799,5.939452 -16.98368,9.432345 -37.4354,23.370427 -48.06705,32.758267 -6.04654,5.339134 -26.247733,25.400687 -32.978945,32.750957 -7.088664,7.74061 -11.561814,13.3497 -19.352128,24.26656 -6.970104,9.76746 -13.467515,19.61296 -18.638256,28.24247 -1.940019,3.23772 -3.686969,5.98544 -3.88211,6.10605 -0.195141,0.1206 -1.283026,-1.17656 -2.417523,-2.88258 z"
     id="path4" />
  <path
     style="fill:#aad400;fill-opacity:1;stroke-width:0.42917"
     d="m 473.93361,171.52966 c -5.54012,-9.92423 -20.81326,-32.25421 -30.1401,-44.06612 -6.97541,-8.83395 -31.05843,-33.624116 -42.30483,-43.547023 -10.7331,-9.470009 -32.15444,-24.02742 -48.92539,-33.248478 -3.54066,-1.946733 -6.80918,-3.898455 -7.26338,-4.337161 -1.34207,-1.296286 -0.41754,-2.400935 4.70935,-5.626805 15.58909,-9.808751 33.32881,-15.083659 50.83567,-15.115995 14.58993,-0.02695 29.65494,3.772807 43.27153,10.914111 36.97641,19.392514 56.30131,58.90741 49.0045,100.202751 -2.09075,11.83232 -6.26241,22.28498 -13.48022,33.77644 -1.59155,2.53391 -3.03203,4.69258 -3.20105,4.79705 -0.16903,0.10446 -1.29677,-1.58249 -2.50608,-3.74877 z"
     id="path5" />
  <path
     style="fill:#aad400;fill-opacity:1;stroke-width:0.42917"
     d="m 363.86519,280.8633 c -13.13816,-2.37731 -26.41678,-9.72938 -38.28552,-21.1978 -17.64692,-17.05172 -31.30699,-43.8482 -34.43446,-67.54887 -0.85923,-6.51148 -0.60836,-22.9784 0.45538,-29.89031 3.58739,-23.30991 13.17919,-38.18292 30.11679,-46.69898 7.23492,-3.63765 7.63819,-3.71293 19.4729,-3.63522 8.90611,0.0585 11.00788,0.19767 13.73866,0.90984 18.17191,4.73914 37.99576,20.99984 50.83672,41.6993 7.2705,11.71996 12.80474,25.40356 15.6286,38.64227 2.95419,13.84975 2.97088,29.54725 0.0446,41.99152 -1.99768,8.49539 -5.30075,17.89227 -7.84534,22.31911 -4.81331,8.37375 -15.64537,17.50116 -25.16818,21.20744 -7.07611,2.75402 -16.7267,3.61915 -24.56018,2.2017 z m 21.83495,-35.85107 c 1.02512,-0.49625 2.3897,-1.59237 3.0324,-2.43581 1.02325,-1.34284 1.16628,-1.91105 1.15033,-4.56964 -0.0152,-2.53283 -0.2387,-3.46344 -1.34826,-5.61399 -3.03512,-5.88266 -9.12345,-12.29354 -16.11853,-16.97247 -5.08214,-3.39939 -8.59364,-5.14592 -14.33044,-7.12763 l -4.66149,-1.61024 1.93,-0.56319 c 3.35939,-0.98029 8.82345,-1.1216 14.47935,-0.37447 5.09102,0.67252 7.26584,1.25912 15.28181,4.1219 6.16559,2.20195 9.54232,1.78654 12.03417,-1.48045 1.64293,-2.154 2.121,-3.80265 1.77389,-6.11737 -0.75293,-5.02088 -10.16721,-10.67035 -22.11197,-13.26929 -5.03575,-1.09568 -15.89468,-1.09064 -21.02934,0.01 -11.74114,2.51623 -20.97428,7.48205 -28.652,15.40977 -4.34099,4.48233 -5.22313,7.09205 -3.77231,11.16 1.41237,3.96018 3.59289,4.91043 13.05885,5.69098 10.56392,0.87107 17.53681,2.99887 25.49995,7.7814 4.16931,2.50401 9.16292,7.06371 11.06672,10.1051 2.06941,3.30595 4.24705,5.91916 5.28042,6.33662 1.74372,0.70443 5.48799,0.46224 7.43645,-0.48099 z m 0.12383,-74.86678 c 4.7264,-2.3862 5.72758,-9.40354 1.84598,-12.93861 -4.44686,-4.04987 -21.26582,-9.75069 -34.1076,-11.56084 -17.71521,-2.49711 -39.82011,6.11135 -39.82011,15.50739 0,1.83733 1.35302,4.56902 2.91336,5.88197 3.30682,2.7825 6.92115,2.70325 12.1594,-0.26663 6.60403,-3.74421 11.35774,-4.79795 19.87206,-4.405 8.00731,0.36956 14.83501,2.06362 24.47639,6.07298 6.31959,2.62799 9.88626,3.10937 12.66052,1.70874 z"
     id="path6" />
  <path
     style="fill:#aad400;fill-opacity:1;stroke-width:0.42917"
     d="m 252.56535,306.2614 c -1.64706,-0.7178 -6.814,-6.21089 -12.3987,-13.18134 -8.17651,-10.20536 -8.52177,-12.14356 -3.23567,-18.1641 l 1.34738,-1.53457 h 17.73266 17.73266 l 1.573,1.82397 c 3.3558,3.89121 4.06366,7.21003 2.24912,10.54507 -1.17474,2.15912 -8.88989,11.47253 -13.7339,16.579 -2.83414,2.98771 -3.88257,3.80927 -5.25688,4.11939 -2.38809,0.53887 -4.49381,0.4732 -6.00967,-0.18742 z"
     id="path7" />
  <path
     style="fill:#aad400;fill-opacity:1;stroke-width:0.42917"
     d="m 178.47599,423.26907 c -17.21258,-16.8821 -23.74949,-25.06752 -33.3312,-41.7368 -7.60075,-13.22299 -12.06308,-23.17519 -10.39121,-23.17519 0.2946,0 4.18738,1.15754 8.65063,2.57231 13.35349,4.23282 23.91883,6.66222 39.20769,9.01542 36.13122,5.56117 82.35638,6.59587 124.24476,2.78107 23.92236,-2.17862 42.71702,-5.74664 61.18994,-11.61642 10.48207,-3.33068 9.81422,-3.24583 9.4904,-1.2057 -0.53543,3.3734 -10.58081,22.27835 -17.53577,33.00152 -3.53711,5.45352 -7.30267,10.13731 -14.37247,17.87716 -6.89294,7.54622 -19.23506,19.67523 -20.02094,19.67523 -0.75742,0 -1.83065,-1.23076 -4.53785,-5.20392 -5.74515,-8.43173 -17.54972,-18.74293 -26.79978,-23.4094 -4.21072,-2.12423 -13.58548,-5.85543 -17.70691,-7.04744 -2.84416,-0.8226 -4.79224,-1.02138 -11.97988,-1.2224 -4.72087,-0.13203 -12.44593,-0.13325 -17.1668,-0.003 -9.82153,0.27159 -11.38676,0.60655 -21.16001,4.52825 -7.86089,3.15432 -12.55241,5.70234 -18.00926,9.78102 -5.80925,4.34207 -14.20935,12.73291 -17.231,17.21197 -2.77684,4.11619 -3.85418,5.36463 -4.6294,5.36463 -0.31989,0 -3.87982,-3.23487 -7.91094,-7.1886 z"
     id="path8" />
  <path
     style="fill:#aad400;fill-opacity:1;stroke-width:0.42917"
     d="m 245.69992,451.87399 c -9.94852,-0.81421 -18.3897,-2.59395 -28.26014,-5.95839 -6.30563,-2.14934 -13.82834,-5.23057 -14.56238,-5.9646 -2.33848,-2.33849 10.70632,-15.89273 21.47183,-22.31039 10.53232,-6.27864 26.16803,-9.37621 39.1725,-7.76042 16.02599,1.9912 26.69545,7.32508 38.53124,19.26253 5.03967,5.08296 7.81329,9.08196 7.11807,10.26285 -1.0855,1.84382 -14.9192,7.08917 -25.48956,9.66493 -11.38295,2.77377 -25.55939,3.82016 -37.98156,2.80349 z"
     id="path9" />
</svg>
