<?xml version="1.0" encoding="UTF-8" standalone="no"?>
<!-- Created with Inkscape (http://www.inkscape.org/) -->

<svg
   version="1.1"
   id="svg1"
   width="512"
   height="512"
   viewBox="0 0 512 512"
   sodipodi:docname="rhino-outline-white.svg"
   inkscape:version="1.3 (0e150ed6c4, 2023-07-21)"
   xmlns:inkscape="http://www.inkscape.org/namespaces/inkscape"
   xmlns:sodipodi="http://sodipodi.sourceforge.net/DTD/sodipodi-0.dtd"
   xmlns="http://www.w3.org/2000/svg"
   xmlns:svg="http://www.w3.org/2000/svg">
  <defs
     id="defs1" />
  <sodipodi:namedview
     id="namedview1"
     pagecolor="#ffffff"
     bordercolor="#000000"
     borderopacity="0.25"
     inkscape:showpageshadow="2"
     inkscape:pageopacity="0.0"
     inkscape:pagecheckerboard="0"
     inkscape:deskcolor="#d1d1d1"
     inkscape:zoom="2.3300781"
     inkscape:cx="255.78541"
     inkscape:cy="256"
     inkscape:window-width="3440"
     inkscape:window-height="1369"
     inkscape:window-x="-8"
     inkscape:window-y="-8"
     inkscape:window-maximized="1"
     inkscape:current-layer="svg1" />
  <path
     style="fill:#ffffff;fill-opacity:1"
     d="M 226.5,511.40124 C 149.68875,506.67778 104.17518,491.63182 76.5,461.81394 64.778482,449.1849 57.612994,435.1193 53.672644,417.00465 51.974274,409.19687 51.601383,403.9294 51.583972,387.5 c -0.03627,-34.2232 5.556971,-62.36707 18.736951,-94.27997 l 3.419614,-8.27996 -2.861703,-11.22004 c -5.112656,-20.04546 -4.838516,-28.27955 1.169331,-35.12211 1.630204,-1.8567 4.563229,-4.13469 6.517833,-5.06221 2.505432,-1.18891 3.271247,-2.03293 2.595946,-2.86106 C 79.23204,228.308 77,218.4694 77,212.32923 c 0,-10.98926 5.293366,-21.43797 14.156687,-27.94425 4.021773,-2.95225 4.843346,-4.09215 4.843509,-6.72015 5.95e-4,-9.58703 7.060984,-42.78187 12.460474,-58.58365 1.39426,-4.08035 2.42349,-7.51956 2.28718,-7.64268 C 110.61153,111.31538 105.775,111.65877 100,112.2016 64.630226,115.52621 46.098516,108.02396 37.134371,86.751516 34.666884,80.896027 34.505009,79.549767 34.579072,65.5 34.851188,13.879764 55.140621,-6.2076669 99.240186,1.4826538 120.08035,5.1168735 141.20584,15.666353 168.76585,36.201827 l 4.26586,3.178566 11.23414,-3.618518 C 209.5022,27.63325 222.23956,25.878285 256,25.878285 c 33.61788,0 47.44608,1.895189 71.73415,9.831339 l 11.23414,3.670769 4.26586,-3.178566 C 370.79416,15.666353 391.91965,5.1168735 412.75981,1.4826538 456.69858,-6.179625 476.94693,13.725743 477.37162,65 c 0.12131,14.646277 -0.0167,15.844327 -2.50599,21.751516 -5.10594,12.116702 -12.67484,19.056164 -25.73909,23.598604 -6.92801,2.40887 -24.47744,3.25145 -38.12654,1.83053 -5.225,-0.54394 -9.61012,-0.88448 -9.74471,-0.75677 -0.1346,0.12772 1.03556,4.02209 2.60034,8.65417 4.14979,12.28424 8.80118,32.49245 11.00539,47.81347 1.88582,13.108 1.99767,13.44617 5.28279,15.97255 5.7214,4.39994 9.06642,8.42001 11.76222,14.13593 2.22422,4.71602 2.59386,6.85415 2.59322,15 -6e-4,7.65743 -0.42466,10.41804 -2.18637,14.23328 l -2.18562,4.73327 3.43028,1.62778 c 4.72106,2.24029 9.13397,7.54879 10.50965,12.64254 1.48808,5.50995 0.64366,13.40893 -2.93222,27.42892 l -2.8479,11.16578 4.89925,12.33422 c 12.32024,31.01705 17.22021,56.72431 17.21828,90.33421 -0.001,22.16339 -1.56923,32.55989 -6.93823,46.00465 -6.21609,15.566 -18.01395,30.71669 -32.31439,41.49781 -24.08301,18.15622 -62.779,29.92482 -115.15198,35.02114 -10.71251,1.04241 -68.63033,2.04606 -79.5,1.37764 z m 87.34571,-18.83251 c 75.73597,-8.59835 115.64362,-31.93457 127.42646,-74.51332 1.83108,-6.61682 2.09802,-10.41263 2.14885,-30.55541 0.0699,-27.69729 -1.70983,-40.39218 -9.06996,-64.69674 -2.59492,-8.5689 -2.67512,-8.68845 -5.45556,-8.13236 -11.76169,2.35234 -13.0169,-8.28842 -4.8796,-41.36606 4.35992,-17.72287 4.81437,-22.37089 2.38439,-24.38759 -1.01856,-0.84533 -6.19535,-1.59579 -14.25,-2.06576 -15.14685,-0.88378 -24.24288,-3.25571 -36.23286,-9.4483 -15.75815,-8.13876 -20.46098,-14.95054 -14.46288,-20.94864 2.98579,-2.9858 6.70346,-3.13805 11.04881,-0.45247 l 3.23943,2.00207 0.46488,-7.75207 c 0.76876,-12.81937 7.45435,-22.94166 18.60074,-28.16234 5.81443,-2.72334 5.65381,-0.48629 1.65785,-23.08974 -2.51519,-14.22737 -6.28103,-28.20255 -11.18286,-41.5 l -2.94903,-8 -4.91718,0.11168 c -2.70446,0.0614 -6.81215,0.26884 -9.12821,0.46093 -9.92627,0.82329 -13.19978,-11.358929 -4.0772,-15.173131 4.36889,-1.826657 27.47403,-1.841984 43.10463,-0.02859 6.59673,0.765324 16.9774,1.183564 23.5,0.946822 18.16819,-0.659427 25.30752,-4.876435 29.21985,-17.259373 1.59918,-5.061569 0.66274,-28.512758 -1.49054,-37.327492 -3.18228,-13.027088 -9.37715,-20.943754 -18.10923,-23.142518 -6.79131,-1.710073 -20.98724,-1.303516 -29.93649,0.857351 -17.81314,4.301123 -33.94653,13.192486 -61.31279,33.790427 -18.99969,14.300622 -23.63684,16.643119 -28.04977,14.169581 -3.94318,-2.210233 -5.62158,-6.322662 -4.08976,-10.020791 0.67563,-1.631127 2.37476,-3.566312 3.77584,-4.300412 2.5223,-1.321567 2.49383,-1.350182 -2.88805,-2.902038 -35.35443,-10.1944 -88.51651,-10.1944 -123.87094,0 -5.38188,1.551856 -5.41035,1.580471 -2.88805,2.902038 1.40108,0.7341 3.10021,2.669285 3.77584,4.300412 1.53182,3.698129 -0.14658,7.810558 -4.08976,10.020791 -4.41293,2.473538 -9.05008,0.131041 -28.04977,-14.169581 -35.33253,-26.59397 -55.41524,-35.711715 -78.69677,-35.729097 -12.230529,-0.0091 -16.520021,1.346389 -22.220076,7.021754 -7.671242,7.638014 -11.476127,23.498784 -10.746202,44.795842 0.3246,9.470869 0.675726,11.203978 3.111929,15.360051 5.865225,10.005862 13.319755,12.340558 36.722741,11.501255 C 100.06799,95.360143 110.65,94.565843 114.5,93.920797 c 9.34215,-1.565225 30.09611,-0.698135 34.21008,1.42928 3.33924,1.72679 4.30646,3.426225 4.25812,7.481713 -0.0634,5.31811 -5.24672,8.52462 -11.4682,7.09446 -6.10953,-1.40442 -11.37357,-1.031 -12.39596,0.87935 -4.09337,7.64853 -12.82622,40.17438 -15.08762,56.1944 -0.58228,4.125 -1.26152,8.73044 -1.50942,10.23431 -0.40661,2.46669 0.0312,2.94161 4.47293,4.8524 10.80749,4.64926 19.02007,17.58157 19.02007,29.9508 0,3.27937 0.26652,5.96249 0.59227,5.96249 0.32575,0 1.73644,-0.9 3.13486,-2 7.02805,-5.52827 16.44879,2.19722 12.24893,10.04474 -1.26578,2.36512 -10.41724,8.6435 -18.64743,12.7931 -9.51637,4.79809 -19.4635,7.24083 -31.82863,7.81622 -6.05,0.28152 -12.4625,0.95943 -14.25,1.50645 -3.016882,0.92325 -3.25,1.30696 -3.25,5.34946 0,2.39518 1.359268,9.62664 3.020596,16.06991 C 90.975944,284.92025 93,296.77203 93,304.59204 c 0,8.14858 -2.278565,10.82228 -8.633085,10.13016 l -4.133086,-0.45017 -3.091453,10.11399 c -3.925839,12.84375 -5.890028,22.17253 -7.701133,36.57597 -1.901735,15.12422 -1.861559,39.36576 0.08373,50.52086 6.28907,36.0642 32.601469,59.64116 80.975029,72.55687 14.03356,3.74695 36.36458,7.49265 53,8.88997 7.15,0.60058 14.8,1.26301 17,1.47207 11.05149,1.0502 79.84939,-0.30078 93.34571,-1.83303 z M 179.73447,450.97109 c -9.78017,-2.45778 -18.20597,-9.47967 -22.58651,-18.82313 -3.55729,-7.58751 -3.76829,-20.16951 -0.45892,-27.36519 3.26927,-7.10848 10.33358,-14.07102 17.57308,-17.31991 17.07936,-7.66476 38.22345,0.94143 44.732,18.20707 2.93105,7.77539 2.51265,20.61004 -0.88604,27.17948 -7.16614,13.85169 -23.90663,21.75727 -38.37361,18.12168 z m 18.1746,-18.90634 c 3.84828,-2.74022 7.03736,-9.05571 7.06897,-13.99903 0.0778,-12.16917 -13.50862,-20.70403 -24.58853,-15.44626 -12.62746,5.99212 -13.16841,22.88509 -0.97821,30.54762 4.36915,2.74636 13.88954,2.17902 18.49777,-1.10233 z m 117.37697,18.54867 c -10.75247,-3.52414 -18.72814,-10.84707 -22.36438,-20.53407 -2.89229,-7.70508 -2.4314,-19.47053 1.04118,-26.57935 10.26706,-21.01802 38.6732,-25.3564 54.5922,-8.3377 6.865,7.33924 8.92343,12.60042 8.93519,22.8377 0.008,7.11748 -0.42092,9.41863 -2.63819,14.14796 -5.36013,11.43287 -15.87659,18.57752 -28.5616,19.40411 -4.24513,0.27662 -8.36999,-0.0752 -11.0044,-0.93865 z m 16.6445,-17.0775 c 6.92539,-3.58126 11.00692,-12.34073 9.0817,-19.49045 -3.03423,-11.2683 -15.55137,-16.4358 -25.57833,-10.5596 -4.83407,2.83295 -8.44702,9.09503 -8.41195,14.57985 0.043,6.72867 4.92477,13.93818 10.97804,16.21275 2.98981,1.12344 11.16476,0.68769 13.93054,-0.74255 z m -166.29568,-60.6085 c -3.7835,-2.9761 -3.51925,-7.89091 0.89911,-16.72269 4.32215,-8.63948 10.82476,-16.05611 16.90574,-19.28207 3.57953,-1.89894 4.65597,-3.06757 4.99395,-5.42169 0.23697,-1.65053 0.96921,-7.05097 1.62719,-12.00097 3.71062,-27.91492 17.24339,-65.61148 31.48324,-87.69901 6.93289,-10.75365 18.71273,-22.00508 25.82423,-24.66584 7.12154,-2.66451 10.11164,-2.6758 17.09083,-0.0645 11.56796,4.32813 24.5377,19.7743 35.60646,42.40513 10.67527,21.8263 19.01614,48.52815 21.87354,70.02427 0.65798,4.95 1.39022,10.35044 1.62719,12.00097 0.33798,2.35412 1.41442,3.52275 4.99395,5.42169 C 337.673,341.75694 349,358.45903 349,367.06178 c 0,5.79882 -5.77039,9.4985 -11.42841,7.32732 -0.8756,-0.336 -3.66227,-4.61934 -6.1926,-9.51854 -5.55907,-10.76338 -9.93989,-14.87129 -15.85683,-14.86901 -2.21219,8.6e-4 -5.44229,0.78836 -7.17801,1.75 -23.76995,13.16933 -28.81809,14.57496 -52.34415,14.57496 -23.52606,0 -28.5742,-1.40563 -52.34415,-14.57496 -1.73572,-0.96164 -5.06835,-1.74914 -7.40585,-1.75 -3.6215,-0.001 -4.83779,0.58624 -8.22467,3.97312 -2.18608,2.18608 -5.62016,7.24217 -7.63131,11.23577 -2.01114,3.9936 -4.38504,7.81569 -5.27532,8.49352 -2.45576,1.86974 -6.54534,1.53488 -9.48384,-0.77654 z M 276.5399,348.4968 c 3.27806,-0.82676 9.1101,-3.14996 12.9601,-5.16266 3.85,-2.01271 9.33839,-4.82377 12.19641,-6.2468 6.21905,-3.09652 6.25546,-3.32078 3.32331,-20.47199 -5.98811,-35.02671 -23.22416,-74.11524 -39.44608,-89.45726 C 260.75778,222.60345 259.61997,222 255.84794,222 c -3.95545,0 -4.76154,0.50056 -10.88574,6.75973 -17.80346,18.19583 -36.95346,65.8642 -39.56949,98.49676 l -0.58069,7.24351 5.34399,2.57584 c 2.9392,1.41672 8.49399,4.22993 12.34399,6.25159 3.85,2.02166 9.475,4.32041 12.5,5.10834 7.71738,2.01018 33.66053,2.04829 41.5399,0.061 z M 182.17431,150.68555 c -2.95029,-3.14044 -2.91384,-8.64729 0.0757,-11.4351 6.13815,-5.72398 24.63401,-12.95329 42.1974,-16.49331 16.00673,-3.22627 47.09847,-3.22627 63.1052,0 17.44235,3.51563 34.50066,10.05102 41.41039,15.86517 3.91446,3.2938 4.246,8.89327 0.72256,12.20338 -3.29442,3.09494 -6.51243,2.71865 -14.85877,-1.73748 -16.1427,-8.61863 -34.30354,-12.46759 -58.82678,-12.46759 -24.52324,0 -42.68408,3.84896 -58.82678,12.46759 -8.43976,4.50601 -11.91833,4.87646 -14.99891,1.59734 z m 19.17298,-41.18157 C 198.02549,108.10726 197,106.34398 197,102.029 c 0,-5.691787 4.92683,-8.390706 24,-13.147217 8.74454,-2.180734 11.52782,-2.369635 35,-2.375458 24.51822,-0.0061 25.91562,0.09923 36.29497,2.73522 12.75549,3.239453 20.41692,6.351607 21.74494,8.833026 1.23772,2.312699 1.22874,6.554929 -0.0188,8.885989 -2.07388,3.87508 -6.15387,4.10684 -16.08363,0.91361 -12.55261,-4.0367 -25.76181,-5.86202 -42.43748,-5.86425 -18.74155,-0.003 -29.01319,1.72952 -50.05237,8.43998 -0.5788,0.18461 -2.42395,-0.24105 -4.10034,-0.94592 z m -87.06891,117.77689 c 2.96079,-2.63102 5.67465,-9.21825 5.69966,-13.83453 0.0285,-5.26437 -4.08154,-13.48555 -7.85683,-15.71567 -3.58824,-2.11962 -6.33627,-2.18794 -10.08257,-0.25065 -9.849992,5.09363 -11.67615,20.46038 -3.466003,29.16567 3.292773,3.49136 3.626683,3.60929 8.564013,3.02453 2.8257,-0.33466 6.03948,-1.40987 7.14173,-2.38935 z m 299.1055,-0.73142 c 8.29297,-8.29296 6.44777,-23.96531 -3.42252,-29.06943 -8.21936,-4.2504 -16.3947,2.313 -17.73922,14.24155 -0.83728,7.42826 3.81878,16.24197 9.27786,17.5626 5.61311,1.35789 8.44233,0.70683 11.88388,-2.73472 z"
     id="path1" />
</svg>
