<?xml version="1.0" encoding="UTF-8" standalone="no"?>
<!-- Created with Inkscape (http://www.inkscape.org/) -->

<svg
   version="1.1"
   id="svg1"
   width="512"
   height="512"
   viewBox="0 0 512 512"
   sodipodi:docname="rhino-filled.svg"
   inkscape:version="1.3 (0e150ed6c4, 2023-07-21)"
   xmlns:inkscape="http://www.inkscape.org/namespaces/inkscape"
   xmlns:sodipodi="http://sodipodi.sourceforge.net/DTD/sodipodi-0.dtd"
   xmlns="http://www.w3.org/2000/svg"
   xmlns:svg="http://www.w3.org/2000/svg">
  <defs
     id="defs1" />
  <sodipodi:namedview
     id="namedview1"
     pagecolor="#ffffff"
     bordercolor="#000000"
     borderopacity="0.25"
     inkscape:showpageshadow="2"
     inkscape:pageopacity="0.0"
     inkscape:pagecheckerboard="0"
     inkscape:deskcolor="#d1d1d1"
     inkscape:zoom="2.3300781"
     inkscape:cx="255.78541"
     inkscape:cy="256"
     inkscape:window-width="3440"
     inkscape:window-height="1369"
     inkscape:window-x="-8"
     inkscape:window-y="-8"
     inkscape:window-maximized="1"
     inkscape:current-layer="svg1" />
  <path
     style="fill:#aad400;fill-opacity:1;stroke-width:0.42917"
     d="m 214.58508,493.73053 c -15.34991,-1.40493 -20.96055,-2.01951 -29.28183,-3.20732 -45.18452,-6.44996 -75.19353,-18.45432 -94.319176,-37.72998 -10.73998,-10.82421 -17.059128,-22.55405 -20.587272,-38.21486 -2.618239,-11.62189 -2.806434,-37.78329 -0.402394,-55.93759 1.720178,-12.99006 3.884154,-22.73076 8.174988,-36.79805 l 2.205349,-7.23013 3.909862,0.23037 c 4.710459,0.27755 6.357192,-0.3713 7.74294,-3.05085 0.794318,-1.53593 0.884155,-2.43967 0.853247,-8.5834 -0.04458,-8.86202 -0.786723,-13.22444 -6.132909,-36.0503 -2.941428,-12.55859 -3.222493,-16.71692 -1.215674,-17.98572 1.537997,-0.97239 4.831499,-1.47311 14.309519,-2.17553 12.9796,-0.96191 19.66568,-2.2348 27.40722,-5.21777 6.59717,-2.54202 15.50602,-7.64774 21.83379,-12.5131 4.29231,-3.30031 5.30928,-7.70369 2.69245,-11.658 -2.64639,-3.99896 -7.65889,-4.69846 -12.27749,-1.71331 -1.47987,0.95649 -2.75667,1.67308 -2.83732,1.59243 -0.0806,-0.0806 -0.33447,-2.74622 -0.56404,-5.92348 -0.47291,-6.54511 -1.40858,-10.10095 -3.94807,-15.00401 -3.41399,-6.59148 -7.91778,-10.98265 -14.99052,-14.61567 -2.31532,-1.18929 -4.31298,-2.43158 -4.43925,-2.76063 -0.33779,-0.88028 2.45124,-18.27249 4.16456,-25.96988 3.20461,-14.39731 7.62834,-30.18395 10.68499,-38.13081 2.40586,-6.25489 1.60472,-6.00727 16.03057,-4.95482 2.95453,0.21555 3.72532,0.12493 5.15004,-0.60552 3.12108,-1.60017 4.46509,-3.8572 4.46509,-7.49835 0,-4.29381 -2.49756,-6.722261 -8.15424,-7.928585 C 140.4387,93.110243 120.75161,92.87704 113.94468,93.727093 95.572126,96.021467 75.607451,96.202448 67.5943,94.14726 61.699938,92.635495 57.030428,88.804919 53.960594,82.963012 c -2.095617,-3.987965 -2.501101,-7.03809 -2.499555,-18.802073 0.0027,-20.907996 3.546086,-33.161847 11.829846,-40.910898 4.693167,-4.390228 8.245291,-5.559408 18.03686,-5.936828 10.768192,-0.415063 21.698965,1.51178 32.283175,5.690778 13.39801,5.289983 26.07308,13.010938 48.6154,29.61384 16.56129,12.197747 20.67424,14.730048 24.52547,15.1001 2.72188,0.261541 3.91879,-0.09213 5.74844,-1.698587 3.06849,-2.694167 3.94407,-6.190414 2.40097,-9.587149 -0.73245,-1.612295 -3.11612,-4.114481 -4.41536,-4.634891 -1.03727,-0.415481 0.39061,-1.017423 5.82826,-2.45699 35.48162,-9.393412 83.89018,-9.393412 119.3718,0 5.43765,1.439567 6.86553,2.041509 5.82826,2.45699 -1.29924,0.52041 -3.68291,3.022596 -4.41536,4.634891 -1.5431,3.396735 -0.66752,6.892982 2.40097,9.587149 1.82965,1.606457 3.02656,1.960128 5.74844,1.698587 3.82262,-0.367305 7.88297,-2.858432 24.31088,-14.91535 13.39726,-9.832626 13.59439,-9.97275 20.39078,-14.493278 17.57802,-11.691787 33.13514,-18.372415 47.41811,-20.362553 5.78755,-0.806417 18.6036,-0.676025 22.27554,0.226634 6.6268,1.629043 11.32753,5.702396 14.83777,12.857461 4.18521,8.530879 5.52538,16.062835 5.8949,33.130094 0.25846,11.937857 0.005,13.880715 -2.48022,18.979595 -3.00934,6.175291 -7.80994,9.516827 -16.27988,11.331886 -4.01716,0.860856 -5.71744,0.965822 -15.66471,0.967075 -7.53296,9.49e-4 -13.52892,-0.241301 -18.45431,-0.745589 -14.60433,-1.495267 -37.09249,-1.648099 -42.32876,-0.287668 -2.41318,0.626966 -4.99242,2.666129 -5.79162,4.578894 -1.47789,3.537098 -0.20341,7.846988 2.93238,9.916318 l 1.78919,1.1807 9.05653,-0.13745 9.05654,-0.13745 2.83212,7.86251 c 5.41217,15.0252 8.5902,27.04399 11.72498,44.34198 2.25929,12.46696 2.66734,16.00487 1.99156,17.26756 -0.26275,0.49097 -2.07381,1.66658 -4.02456,2.61246 -9.05374,4.39001 -14.92598,11.34712 -17.47711,20.70595 -0.6924,2.5401 -1.65425,10.59942 -1.72469,14.45113 -0.006,0.32138 -0.86706,0.005 -2.1721,-0.79802 -4.57775,-2.81671 -7.97198,-3.05435 -11.1142,-0.77814 -3.15586,2.28609 -4.26068,6.0722 -2.72771,9.34762 2.80043,5.98357 18.01723,15.0947 31.88357,19.09044 5.21962,1.50409 10.61399,2.32942 20.17099,3.08612 15.1487,1.19943 15.87935,1.49925 15.87923,6.51591 -9e-5,3.5051 -0.55796,6.5244 -3.61459,19.56292 -5.58826,23.83756 -6.51369,33.79959 -3.61837,38.95111 1.41694,2.5211 2.8194,3.09317 7.15619,2.91906 l 3.72478,-0.14955 0.72587,1.5021 c 1.53277,3.17191 6.44631,20.63282 8.09155,28.7544 2.734,13.49616 3.90743,34.25363 3.0824,54.52663 -0.30168,7.413 -0.74691,13.3181 -1.13338,15.03177 -3.48437,15.45034 -12.42057,30.75432 -24.10025,41.27368 -11.48503,10.34407 -26.62768,18.51993 -45.89167,24.77801 -19.23107,6.24738 -47.59292,11.31738 -69.52556,12.42846 -26.95113,1.36528 -75.9342,1.72201 -87.7653,0.63917 z M 194.7651,451.05436 c 6.35547,-1.5236 11.74563,-4.45032 16.55042,-8.98645 7.05221,-6.65785 9.70711,-13.19383 9.70711,-23.89744 0,-6.53265 -0.85821,-10.59925 -3.29408,-15.60886 -1.65925,-3.41241 -2.58437,-4.67804 -5.67445,-7.76301 -4.31479,-4.30767 -8.05667,-6.64819 -13.77749,-8.61775 -3.88675,-1.33814 -4.37769,-1.40428 -10.51467,-1.41674 -5.95249,-0.0121 -6.72148,0.08 -10.20583,1.22209 -8.67777,2.84435 -16.77,9.88959 -20.66806,17.99398 -3.98522,8.28561 -3.56933,21.65077 0.93311,29.98688 4.27314,7.91156 11.45483,13.91045 19.85529,16.58521 3.65621,1.16413 4.17358,1.23717 9.22715,1.30245 2.97448,0.0384 5.38736,-0.2072 7.8615,-0.80036 z m 137.84177,-0.24055 c 3.74938,-0.93259 9.95924,-3.98768 12.97031,-6.38106 3.37888,-2.68574 6.80346,-6.9645 8.90393,-11.1248 2.59378,-5.13741 3.00666,-7.18025 3.01254,-14.90569 0.008,-10.17345 -1.28471,-14.30832 -6.4981,-20.78894 -4.74318,-5.89611 -11.13271,-10.21829 -17.74492,-12.00349 -4.1113,-1.11 -11.39686,-1.31998 -15.68693,-0.45212 -13.05686,2.64133 -23.44509,12.5775 -25.91678,24.78899 -0.84817,4.19044 -0.85787,12.46881 -0.0193,16.43385 1.68448,7.96432 7.74253,16.10913 15.46142,20.78725 3.15524,1.91229 8.10209,3.87012 10.92601,4.32427 3.2713,0.52604 11.23882,0.1557 14.59178,-0.67826 z m -158.36271,-76.3634 c 1.50706,-0.77933 3.00085,-2.89506 6.22607,-8.81827 4.40786,-8.09517 9.05909,-13.71403 12.4055,-14.98633 3.41974,-1.30018 7.7523,-0.19868 15.32466,3.89613 12.25391,6.62638 19.45714,9.48361 27.62861,10.95916 6.32697,1.14247 34.01503,1.14247 40.342,0 8.16145,-1.47374 15.9123,-4.55573 27.68494,-11.00845 7.85317,-4.30441 10.94877,-5.03006 15.26291,-3.57785 3.21397,1.08187 7.04305,5.23026 10.44647,11.31762 7.02766,12.56967 7.44105,13.02249 11.6719,12.78542 4.27494,-0.23954 7.00282,-2.53415 7.86559,-6.61628 0.38789,-1.83527 -0.70765,-6.7425 -2.27888,-10.20778 -3.68937,-8.13674 -12.07209,-18.01033 -18.40553,-21.67898 -1.71356,-0.99258 -3.4074,-2.25011 -3.76411,-2.79451 -0.38566,-0.58859 -1.16781,-4.71176 -1.92949,-10.17149 -2.63927,-18.91824 -6.60646,-34.81498 -12.9309,-51.8148 -7.00363,-18.82548 -15.46496,-35.15322 -24.16669,-46.63425 -12.34794,-16.29182 -24.43074,-22.62622 -36.07442,-18.91196 -1.88304,0.60067 -4.33223,1.62531 -5.44266,2.27698 -5.6468,3.31391 -14.03451,11.29517 -19.44109,18.49902 -12.28769,16.3724 -26.1779,50.0666 -32.22631,78.17303 -0.8385,3.89646 -2.188,11.70753 -2.99887,17.35793 -0.84493,5.88771 -1.74119,10.68074 -2.09944,11.22752 -0.34382,0.52472 -2.18732,1.88331 -4.09665,3.01907 -7.80632,4.64353 -15.19382,14.09244 -19.15132,24.49531 -1.50933,3.9675 -1.60441,7.88549 -0.24445,10.07256 1.91187,3.07463 7.34508,4.7169 10.39216,3.1412 z m 15.47845,-221.91178 c 1.28207,-0.37132 5.22793,-2.08887 8.76859,-3.81678 12.71771,-6.20652 22.79717,-9.08946 38.62531,-11.04769 5.74204,-0.71039 32.02494,-0.71039 37.76698,0 16.04985,1.98566 25.90439,4.83278 39.10998,11.29944 8.35352,4.09065 10.77201,4.71146 13.55631,3.47982 2.9622,-1.31032 4.36205,-3.44934 4.52694,-6.91738 0.24548,-5.16268 -2.07587,-7.55502 -12.13037,-12.50134 -9.09512,-4.47434 -23.60902,-9.02462 -34.76278,-10.89854 -14.14059,-2.37573 -40.82554,-2.5795 -55.57753,-0.42441 -12.93507,1.88966 -27.17163,6.25581 -38.41073,11.78002 -6.38162,3.13667 -9.82339,5.68555 -10.78503,7.98707 -1.39115,3.3295 -0.22647,8.09379 2.47679,10.13162 2.27931,1.71824 3.52403,1.88725 6.83554,0.92817 z m 19.72949,-43.07261 c 16.07303,-4.98762 25.50268,-6.65509 40.47562,-7.15741 17.80304,-0.59726 33.01419,1.28985 48.9893,6.07767 11.39028,3.41371 15.66035,2.05321 16.02181,-5.10476 0.19791,-3.919088 -0.5457,-5.855954 -2.79203,-7.27234 -2.67058,-1.683888 -8.91565,-4.001269 -16.25122,-6.030399 -12.03905,-3.33018 -12.5472,-3.382582 -34.96012,-3.604956 -28.66375,-0.28439 -33.05627,0.132287 -48.55582,4.606047 -7.23297,2.087711 -11.59821,4.068224 -13.64613,6.191265 -1.27205,1.318715 -1.49982,1.880439 -1.6599,4.093553 -0.25982,3.59198 0.17203,5.36002 1.67676,6.86475 1.16818,1.16817 4.24372,2.48799 5.98086,2.56657 0.36345,0.0164 2.48784,-0.53705 4.72087,-1.22999 z"
     id="path2" />
  <path
     style="fill:#aad400;fill-opacity:1;stroke-width:0.42917"
     d="m 99.804817,227.44375 c -9.937664,-9.39863 -7.31874,-26.56799 4.673493,-30.63887 5.55796,-1.8867 11.02818,2.43801 14.04501,11.10387 1.81197,5.20489 1.47603,8.9224 -1.31905,14.59652 -2.35328,4.77725 -5.28964,6.53042 -11.6992,6.98507 l -3.28956,0.23334 z"
     id="path3" />
  <path
     style="fill:#aad400;fill-opacity:1;stroke-width:0.42917"
     d="m 245.48533,349.52091 c -10.12381,-0.67289 -13.55014,-1.80463 -29.29086,-9.67498 -9.53341,-4.7667 -11.05093,-5.65796 -11.04967,-6.4896 0.009,-6.14045 1.99688,-19.01914 4.55327,-29.50386 6.03816,-24.76481 18.37022,-52.9011 30.02198,-68.49682 3.43384,-4.59616 10.37144,-11.57455 12.31365,-12.38606 2.09652,-0.87598 6.01854,-0.84213 7.97856,0.0688 2.19656,1.02092 10.09822,9.05614 13.29954,13.52433 14.2674,19.91349 26.70426,52.04885 31.81712,82.21165 2.05797,12.14074 2.00117,14.09134 -0.47086,16.17142 -2.00205,1.68461 -21.11093,11.03442 -25.26829,12.36355 -2.00637,0.64145 -4.99983,1.36762 -6.65213,1.61371 -3.03517,0.45205 -22.89187,0.88763 -27.25231,0.59781 z"
     id="path4" />
  <path
     style="fill:#aad400;fill-opacity:1;stroke-width:0.42917"
     d="m 183.1417,434.28241 c -7.1734,-1.69003 -12.79081,-9.75308 -12.23238,-17.55795 0.73209,-10.23189 10.88455,-17.48367 20.74162,-14.81548 5.20183,1.40807 9.29526,4.79868 11.66866,9.6652 0.98418,2.01801 1.15296,2.92077 1.16344,6.22297 0.0111,3.48809 -0.12432,4.1514 -1.39666,6.84237 -1.76205,3.72667 -3.89167,6.35378 -6.28988,7.75922 -3.31311,1.94162 -9.68054,2.82 -13.6548,1.88367 z"
     id="path5" />
  <path
     style="fill:#aad400;fill-opacity:1;stroke-width:0.42917"
     d="m 318.87147,434.19885 c -6.68566,-1.90486 -12.12994,-10.21159 -11.46912,-17.49926 0.51035,-5.6283 4.28031,-10.93666 9.65288,-13.59193 3.07468,-1.51959 3.51426,-1.61783 7.16057,-1.60037 5.06624,0.0243 7.89822,1.10432 11.40251,4.34868 4.97329,4.60439 6.66423,10.55165 4.77165,16.78256 -1.58094,5.20489 -5.49874,9.55515 -10.01279,11.11802 -2.54176,0.88002 -9.08636,1.13161 -11.5057,0.4423 z"
     id="path6" />
  <path
     style="fill:#aad400;fill-opacity:1;stroke-width:0.42917"
     d="m 402.12966,229.20504 c -4.76636,-1.44986 -8.52279,-6.66005 -9.54005,-13.23215 -0.8407,-5.43139 1.39135,-12.48123 5.13788,-16.22775 7.20739,-7.20739 18.31083,-1.47725 20.3665,10.51053 1.20381,7.02007 -2.10954,14.96666 -7.53873,18.08058 -1.79538,1.02974 -2.67331,1.25569 -4.77487,1.22887 -1.41627,-0.0181 -3.05909,-0.18011 -3.65073,-0.36008 z"
     id="path7" />
</svg>
