<?xml version="1.0" encoding="UTF-8" standalone="no"?>
<!-- Created with Inkscape (http://www.inkscape.org/) -->

<svg
   version="1.1"
   id="svg1"
   width="512"
   height="512"
   viewBox="0 0 512 512"
   sodipodi:docname="apple_filled.svg"
   inkscape:version="1.3 (0e150ed6c4, 2023-07-21)"
   xmlns:inkscape="http://www.inkscape.org/namespaces/inkscape"
   xmlns:sodipodi="http://sodipodi.sourceforge.net/DTD/sodipodi-0.dtd"
   xmlns="http://www.w3.org/2000/svg"
   xmlns:svg="http://www.w3.org/2000/svg">
  <defs
     id="defs1" />
  <sodipodi:namedview
     id="namedview1"
     pagecolor="#ffffff"
     bordercolor="#000000"
     borderopacity="0.25"
     inkscape:showpageshadow="2"
     inkscape:pageopacity="0.0"
     inkscape:pagecheckerboard="0"
     inkscape:deskcolor="#d1d1d1"
     inkscape:zoom="1.359375"
     inkscape:cx="255.63218"
     inkscape:cy="255.63218"
     inkscape:window-width="1763"
     inkscape:window-height="1237"
     inkscape:window-x="978"
     inkscape:window-y="68"
     inkscape:window-maximized="0"
     inkscape:current-layer="svg1" />
  <path
     style="fill:#aad400;fill-opacity:1;stroke:none;stroke-width:0.735632"
     d="M 175.44478,493.9962 C 149.68165,491.13136 114.94285,471.82001 95.214073,449.39583 66.533672,416.79701 50.849969,378.35148 44.378206,324.78161 c -1.831732,-15.16212 -1.830316,-51.32084 0.0026,-66.2069 4.476139,-36.35318 13.525847,-61.75876 29.600142,-83.09756 20.398772,-27.0796 54.526062,-43.79762 94.595672,-46.33982 43.33294,-2.74925 73.90474,2.58046 100.65906,17.54831 4.25142,2.37847 9.16404,4.75262 10.91694,5.27589 2.83854,0.84733 3.46827,0.79996 5.758,-0.43314 6.81177,-3.66838 5.94449,-10.71439 -1.97531,-16.04789 -2.07557,-1.39777 -3.49976,-2.70559 -3.16487,-2.90627 0.33488,-0.20068 2.42957,-0.72415 4.65486,-1.16327 9.34809,-1.84469 21.40553,-2.62751 40.82758,-2.65072 16.58092,-0.0198 22.17572,0.23722 28.68966,1.318 32.02413,5.31341 54.89025,16.11199 73.53068,34.72505 13.64757,13.62752 22.90919,29.21502 29.81276,50.17551 10.98555,33.3541 13.71862,73.32432 8.0557,117.81201 -3.46061,27.18647 -10.24356,51.15574 -20.58298,72.73518 -6.03791,12.60174 -10.8663,20.72696 -17.96156,30.22574 -17.87096,23.92477 -39.20311,40.75195 -64.39483,50.79582 -12.77153,5.09197 -19.17462,6.59435 -32.20518,7.55643 -22.88987,1.69003 -36.48109,-1.02537 -63.42701,-12.67212 -3.65278,-1.57882 -7.13833,-2.50162 -10.31432,-2.73071 -4.60494,-0.33214 -5.40052,-0.1112 -19.86207,5.51579 -8.28574,3.22398 -17.05119,6.38836 -19.47878,7.03196 -8.6855,2.30268 -32.7406,3.85146 -42.67016,2.7473 z"
     id="path2" />
  <path
     style="fill:#aad400;fill-opacity:1;stroke:none;stroke-width:0.735632"
     d="m 240.58504,117.24306 c -7.17249,-2.03961 -21.02649,-4.18919 -34.97584,-5.42682 -18.55389,-1.64617 -21.10117,-2.32778 -29.20262,-7.81414 -16.55966,-11.214319 -26.20713,-28.437104 -29.61473,-52.868593 -1.13599,-8.144669 -1.545,-27.20683 -0.67691,-31.5473 l 0.45977,-2.298851 h 8.18842 c 22.23829,0 45.00909,5.360437 59.90307,14.101686 6.13689,3.601728 16.75514,14.558597 20.90965,21.576475 4.29558,7.256178 8.37865,17.132961 9.80624,23.720937 1.14958,5.305024 2.73324,35.748416 2.03995,39.214876 -0.2281,1.14047 -0.79137,2.21272 -1.25171,2.38278 -0.46035,0.17005 -2.97373,-0.29842 -5.58529,-1.04105 z"
     id="path3" />
</svg>
