<?xml version="1.0" encoding="UTF-8" standalone="no"?>
<!-- Created with Inkscape (http://www.inkscape.org/) -->

<svg
   version="1.1"
   id="svg1"
   width="512"
   height="512"
   viewBox="0 0 512 512"
   sodipodi:docname="apple_outline.svg"
   inkscape:version="1.3 (0e150ed6c4, 2023-07-21)"
   xmlns:inkscape="http://www.inkscape.org/namespaces/inkscape"
   xmlns:sodipodi="http://sodipodi.sourceforge.net/DTD/sodipodi-0.dtd"
   xmlns="http://www.w3.org/2000/svg"
   xmlns:svg="http://www.w3.org/2000/svg">
  <defs
     id="defs1" />
  <sodipodi:namedview
     id="namedview1"
     pagecolor="#ffffff"
     bordercolor="#000000"
     borderopacity="0.25"
     inkscape:showpageshadow="2"
     inkscape:pageopacity="0.0"
     inkscape:pagecheckerboard="0"
     inkscape:deskcolor="#d1d1d1"
     inkscape:zoom="1.359375"
     inkscape:cx="255.63218"
     inkscape:cy="255.63218"
     inkscape:window-width="1763"
     inkscape:window-height="1237"
     inkscape:window-x="978"
     inkscape:window-y="68"
     inkscape:window-maximized="0"
     inkscape:current-layer="svg1" />
  <path
     style="fill:#000000;fill-opacity:1;stroke:none"
     d="M 173.5,511.02929 C 137.24167,505.85572 100.88502,484.05922 75.152146,452.06789 50.287401,421.15584 34.766285,382.03108 28.313634,334 26.89496,323.43993 26.501545,313.85793 26.507097,290 c 0.0078,-33.35639 0.902591,-42.43422 6.456546,-65.5 C 47.542768,163.95235 85.075107,127.21192 144.77748,115.04535 150.29766,113.92041 155.82027,113 157.04994,113 c 1.93038,0 1.51732,-0.71713 -3.02391,-5.25 -6.19407,-6.18266 -9.61529,-10.976514 -13.88561,-19.456669 -9.22531,-18.319973 -13.50181,-44.79303 -11.1703,-69.148216 1.11962,-11.6956763 2.63738,-16.3579612 5.74289,-17.6411018 3.31355,-1.36909592 25.70753,-1.75743613 36.08242,-0.62571514 37.85359,4.12917154 62.0778,16.49068494 77.50324,39.54957494 2.28275,3.412394 2.7105,3.674867 3.2594,2 4.33912,-13.240003 9.62925,-21.655554 19.14326,-30.453127 C 277.84065,5.3730384 286.78237,0 290.62949,0 c 3.02496,0 7.04322,3.5075364 7.64907,6.676882 0.85846,4.49071 -0.86424,7.030494 -7.69469,11.344309 -12.67133,8.002669 -20.91765,19.819185 -24.12262,34.56637 -1.82785,8.4106 -3.35835,64.739969 -1.78542,65.712089 0.54051,0.33405 3.04488,-0.0132 5.56527,-0.77177 17.02447,-5.12361 51.85549,-7.74598 74.74034,-5.62708 79.97538,7.40492 125.82852,52.10948 138.57025,135.0992 2.22304,14.47915 3.04476,54.09251 1.49849,72.2389 -4.41754,51.84251 -18.84919,93.59924 -44.15583,127.7611 -8.38867,11.324 -26.31788,29.11547 -37.18309,36.89744 -16.20203,11.60433 -34.51875,20.11065 -53.37276,24.78641 -9.40641,2.33278 -12.95258,2.69565 -26.8385,2.74638 -22.89259,0.0836 -35.82934,-2.66207 -57.26192,-12.15327 l -10.26191,-4.54439 -8.23809,3.774 c -10.97819,5.02929 -23.28622,9.13223 -33.15582,11.05265 -9.55429,1.85906 -32.58124,2.68305 -41.08226,1.47007 z M 217,492.0698 c 4.675,-1.18112 13.85478,-4.44257 20.39951,-7.24767 6.54472,-2.80511 13.40624,-5.44001 15.24781,-5.85535 4.43264,-0.99973 9.95149,0.33391 19.09312,4.61387 10.19963,4.77531 19.99841,7.95034 30.75956,9.96682 12.37709,2.31929 35.74317,1.5633 46.5,-1.50446 24.34883,-6.94409 44.36358,-18.66767 62.4084,-36.55553 34.71649,-34.41451 53.66671,-82.43182 57.67793,-146.14817 3.41068,-54.17686 -7.23411,-102.88674 -28.8145,-131.85345 -20.64706,-27.71391 -49.91635,-43.42215 -90.2456,-48.43301 -18.25341,-2.26796 -55.38411,-0.76926 -68.46071,2.76327 l -2.93448,0.79273 3.77177,2.33108 c 8.07374,4.98985 9.94468,10.50609 5.10533,15.05242 -3.66155,3.43985 -7.00055,2.85648 -16.50814,-2.88417 -14.38542,-8.68588 -31.96011,-14.42011 -54.18515,-17.67943 -14.02915,-2.05739 -51.61782,-1.54874 -64.33255,0.87054 -44.98262,8.55903 -74.196299,29.57165 -92.038361,66.20071 -19.40667,39.84115 -23.761242,104.59509 -10.899424,162.07809 10.751984,48.05358 35.579626,88.4597 69.006615,112.30586 15.5629,11.10227 36.10512,20.00816 53.44887,23.17226 8.57934,1.56517 35.67698,0.36901 45,-1.98641 z M 247.73678,100.25 C 247.20952,79.605346 246.09492,73.615983 240.50285,61.378109 233.19783,45.391569 223.44254,34.885832 209.56671,28.062161 195.27813,21.035515 176.12476,17.016576 156.875,17.005895 L 146.25,17 l -0.625,3.125 c -0.97246,4.862293 -0.73226,19.453752 0.48356,29.375 2.9303,23.911745 11.78073,41.528403 26.20097,52.15268 11.13979,8.20738 13.46646,8.99563 30.19047,10.22822 15.22612,1.1222 27.94938,3.01279 37,5.49795 9.51579,2.6129 8.78006,4.14288 8.23678,-17.12885 z"
     id="path1" />
</svg>
