<?xml version="1.0" encoding="UTF-8" standalone="no"?>
<!-- Created with Inkscape (http://www.inkscape.org/) -->

<svg
   version="1.1"
   id="svg1"
   width="512"
   height="512"
   viewBox="0 0 512 512"
   sodipodi:docname="aubergine-outline.svg"
   inkscape:version="1.3 (0e150ed6c4, 2023-07-21)"
   xmlns:inkscape="http://www.inkscape.org/namespaces/inkscape"
   xmlns:sodipodi="http://sodipodi.sourceforge.net/DTD/sodipodi-0.dtd"
   xmlns="http://www.w3.org/2000/svg"
   xmlns:svg="http://www.w3.org/2000/svg">
  <defs
     id="defs1" />
  <sodipodi:namedview
     id="namedview1"
     pagecolor="#ffffff"
     bordercolor="#000000"
     borderopacity="0.25"
     inkscape:showpageshadow="2"
     inkscape:pageopacity="0.0"
     inkscape:pagecheckerboard="0"
     inkscape:deskcolor="#d1d1d1"
     inkscape:zoom="0.96122328"
     inkscape:cx="203.90684"
     inkscape:cy="329.26793"
     inkscape:window-width="1350"
     inkscape:window-height="1237"
     inkscape:window-x="1024"
     inkscape:window-y="86"
     inkscape:window-maximized="0"
     inkscape:current-layer="svg1" />
  <path
     style="fill:#000000"
     d="M 172.5,511.01219 C 96.560897,502.92598 43.282789,458.83458 28.931349,392.199 25.660341,377.01129 25.142262,349.19054 27.836706,333.4169 36.358989,283.52632 66.822781,242.13489 111.5,219.74283 c 12.13038,-6.0797 23.26275,-9.88718 40,-13.68076 48.20786,-10.92652 73.45717,-19.81623 91.96279,-32.378 8.80154,-5.97456 21.66535,-18.75886 29.80399,-29.61978 3.94186,-5.26036 10.21942,-12.77883 13.95012,-16.70771 3.73071,-3.92888 6.7831,-7.88134 6.7831,-8.78324 0,-6.41662 14.93523,-23.814626 26.01175,-30.301009 6.79106,-3.976826 16.79564,-7.53044 27.98825,-9.941386 7.13283,-1.536449 12.9232,-1.819764 36,-1.761432 18.4752,0.0467 27.74111,-0.281475 28.23469,-1 2.44968,-3.566101 -0.39052,-20.239674 -6.29692,-36.966458 -4.3132,-12.214878 -4.61225,-14.398074 -2.52509,-18.434194 2.3271,-4.500126 11.26391,-12.1356565 17.36765,-14.8387698 6.45702,-2.8595699 16.79349,-5.28679883 22.62451,-5.31272758 3.27199,-0.01454958 4.5274,0.63708967 7.74629,4.02084318 2.1128,2.2210137 5.84431,8.1835132 8.29225,13.2500002 9.16493,18.968615 11.33022,35.872044 7.58561,59.217501 -2.76355,17.229142 -2.3818,22.367549 2.28638,30.774582 9.5482,17.19559 15.31442,44.25508 16.36866,76.81415 1.16512,35.98332 -3.91469,55.15692 -16.19364,61.12249 l -4.3164,2.09707 -2.20032,9.52192 c -9.92927,42.96916 -35.37475,91.34787 -70.39484,133.83956 -12.92239,15.67941 -44.9254,47.22095 -60.57883,59.70533 -38.91808,31.03905 -77.66564,51.20659 -112.63072,58.62264 -11.26458,2.3892 -34.10376,3.36805 -46.86928,2.00874 z m 41.30555,-17.92674 c 14.91196,-2.89068 30.98561,-8.63954 48.19445,-17.23708 34.60244,-17.28739 62.78571,-38.48899 95.00915,-71.47311 45.00154,-46.06385 76.56301,-98.7989 89.00282,-148.71193 l 3.19928,-12.83666 -3.0662,-6.16334 c -3.5783,-7.1927 -5.2558,-13.50596 -8.14756,-30.66333 -4.06786,-24.13534 -8.27088,-37.12963 -15.55241,-48.08261 -5.73067,-8.62017 -10.99184,-13.22411 -20.14336,-17.62709 -12.76089,-6.1395 -20.04823,-6.34554 -60.80172,-1.71909 -14.90509,1.69207 -30.28058,1.40794 -36.71012,-0.67839 -4.73834,-1.53755 -4.73281,-1.54221 -16.13161,13.60718 -28.21485,37.4985 -54.55983,52.29299 -120.88568,67.88547 -27.28115,6.4135 -32.87774,8.15766 -45.27259,14.10904 C 93.877612,247.23753 70.162275,269.76586 57.164206,295.5601 51.490448,306.81948 49.194284,313.02099 46.45961,324.4712 41.697132,344.41193 41.095586,364.22882 44.622245,385 53.585985,437.79428 91.90858,476.78033 148,490.16747 c 21.21091,5.06233 48.50109,6.27245 65.80555,2.91798 z M 466.52517,221.65061 c 5.22732,-17.44211 3.31941,-57.78587 -4.07946,-86.26258 -2.39193,-9.20602 -3.54033,-12.03769 -9.68798,-23.88803 -4.92332,-9.49028 -5.45948,-21.476983 -1.76682,-39.5 1.63746,-7.992048 1.17971,-24.012965 -0.92075,-32.225688 -1.90262,-7.43917 -8.03602,-21.017146 -10.0584,-22.267046 -1.63159,-1.008379 -11.0453,2.115874 -16.15103,5.36026 l -4.63926,2.947977 2.95998,8.342248 c 7.08056,19.95547 9.14558,37.607444 5.50364,47.04565 -1.92227,4.981627 -7.23396,10.440937 -10.95343,11.257836 -1.22741,0.269574 -15.95666,0.649801 -32.73166,0.844949 -27.22993,0.316772 -31.32064,0.580401 -38.15411,2.458878 -14.45118,3.972534 -25.85798,11.250246 -32.30507,20.611146 -2.13049,3.09338 -3.5332,5.9617 -3.11714,6.37406 1.25334,1.24215 23.17737,0.53745 37.57632,-1.20782 22.0015,-2.66675 40.30482,-3.08717 48,-1.10252 9.7422,2.51259 21.97256,8.93872 28.83959,15.15303 15.10461,13.66889 23.31983,32.65063 29.17347,67.40704 2.6777,15.89909 3.66853,20.31044 5.57952,24.84114 l 1.54327,3.65886 1.92285,-2.34939 c 1.05757,-1.29217 2.61748,-4.66717 3.46647,-7.5 z"
     id="path1" />
</svg>
