<?xml version="1.0" encoding="UTF-8" standalone="no"?>
<!-- Created with Inkscape (http://www.inkscape.org/) -->

<svg
   version="1.1"
   id="svg1"
   width="512"
   height="512"
   viewBox="0 0 512 512"
   sodipodi:docname="aubergine-filled.svg"
   inkscape:version="1.3 (0e150ed6c4, 2023-07-21)"
   xmlns:inkscape="http://www.inkscape.org/namespaces/inkscape"
   xmlns:sodipodi="http://sodipodi.sourceforge.net/DTD/sodipodi-0.dtd"
   xmlns="http://www.w3.org/2000/svg"
   xmlns:svg="http://www.w3.org/2000/svg">
  <defs
     id="defs1" />
  <sodipodi:namedview
     id="namedview1"
     pagecolor="#ffffff"
     bordercolor="#000000"
     borderopacity="0.25"
     inkscape:showpageshadow="2"
     inkscape:pageopacity="0.0"
     inkscape:pagecheckerboard="0"
     inkscape:deskcolor="#d1d1d1"
     inkscape:zoom="0.96122328"
     inkscape:cx="203.90684"
     inkscape:cy="329.26793"
     inkscape:window-width="1350"
     inkscape:window-height="1237"
     inkscape:window-x="1024"
     inkscape:window-y="86"
     inkscape:window-maximized="0"
     inkscape:current-layer="svg1" />
  <path
     style="fill:#aad400;fill-opacity:1;stroke:none;stroke-width:1.04034"
     d="M 173.01021,493.64716 C 143.01039,490.48261 116.52592,480.98721 95.487594,465.8532 84.571982,458.00101 69.559063,442.05018 62.648275,430.96228 52.107327,414.05004 45.803073,394.4113 43.590818,371.59531 38.941737,323.64724 58.770817,278.69236 97.389638,249.62699 116.71047,235.08571 130.05641,229.3583 164.92364,220.64478 c 49.96076,-12.48547 66.54967,-18.70813 87.84212,-32.95042 11.87549,-7.94338 22.51477,-18.3485 35.54659,-34.76423 12.68065,-15.97339 12.23426,-15.6221 18.005,-14.16901 6.38189,1.60698 25.48827,1.44136 41.67672,-0.36126 32.95123,-3.66919 41.90318,-3.25358 53.97062,2.50568 8.78156,4.19105 15.23641,10.10918 20.83071,19.09865 6.11316,9.82321 10.18925,22.34572 14.12107,43.38248 3.89064,20.81654 4.56676,23.43216 8.53306,33.01073 l 3.11488,7.52238 -3.65174,13.38124 c -5.19929,19.05202 -9.98544,31.47012 -19.94474,51.74844 -22.57431,45.96398 -62.54292,94.38534 -108.26226,131.15811 -30.21773,24.30458 -72.45527,45.93642 -101.35508,51.90873 -9.55855,1.97532 -30.83439,2.74457 -42.34038,1.53086 z"
     id="path2" />
  <path
     style="fill:#aad400;fill-opacity:1;stroke:none;stroke-width:1.04034"
     d="m 459.38147,225.49391 c -0.92685,-2.71789 -2.86435,-11.49576 -4.30556,-19.50639 -6.70377,-37.26137 -13.36396,-53.97609 -26.9692,-67.68305 -7.7653,-7.82335 -18.7735,-14.34365 -29.58484,-17.52347 -7.24482,-2.13084 -27.6837,-2.20224 -48.05253,-0.16785 -23.00683,2.29786 -34.49791,2.89353 -37.09787,1.92307 l -2.37203,-0.88538 3.30374,-4.98774 c 6.08921,-9.19303 20.63966,-17.948055 34.82232,-20.95264 3.95521,-0.837909 12.61705,-1.531599 19.24853,-1.541534 6.63148,-0.0099 20.62981,-0.328582 31.10742,-0.708105 l 19.05018,-0.690041 3.64723,-3.202315 c 5.4864,-4.817113 7.43227,-10.049616 7.45913,-20.057689 0.0266,-9.927009 -1.86556,-19.884096 -6.35678,-33.450646 -1.78938,-5.405104 -2.81838,-10.102897 -2.31954,-10.589535 2.28856,-2.232532 12.6132,-6.554598 15.87225,-6.644378 3.18641,-0.08778 3.91929,0.404831 5.96301,4.008062 7.51984,13.258104 10.26282,32.537481 7.27796,51.154076 -3.18958,19.893463 -2.07159,29.664785 5.02131,43.886805 5.9005,11.8311 9.35133,25.17284 12.16142,47.01889 1.73068,13.45456 1.70456,43.5909 -0.0446,51.49688 -1.23515,5.58258 -4.69663,14.0446 -5.74511,14.0446 -0.22068,0 -1.15956,-2.22372 -2.08642,-4.94162 z"
     id="path3" />
</svg>
