<?xml version="1.0" encoding="UTF-8" standalone="no"?>
<!-- Created with Inkscape (http://www.inkscape.org/) -->

<svg
   version="1.1"
   id="svg1"
   width="512"
   height="512"
   viewBox="0 0 512 512"
   sodipodi:docname="blueberries-outline.svg"
   inkscape:version="1.3 (0e150ed6c4, 2023-07-21)"
   xmlns:inkscape="http://www.inkscape.org/namespaces/inkscape"
   xmlns:sodipodi="http://sodipodi.sourceforge.net/DTD/sodipodi-0.dtd"
   xmlns="http://www.w3.org/2000/svg"
   xmlns:svg="http://www.w3.org/2000/svg">
  <defs
     id="defs1" />
  <sodipodi:namedview
     id="namedview1"
     pagecolor="#ffffff"
     bordercolor="#000000"
     borderopacity="0.25"
     inkscape:showpageshadow="2"
     inkscape:pageopacity="0.0"
     inkscape:pagecheckerboard="0"
     inkscape:deskcolor="#d1d1d1"
     inkscape:zoom="1.359375"
     inkscape:cx="256"
     inkscape:cy="255.63218"
     inkscape:window-width="1350"
     inkscape:window-height="1237"
     inkscape:window-x="1160"
     inkscape:window-y="57"
     inkscape:window-maximized="0"
     inkscape:current-layer="svg1" />
  <path
     style="fill:#000000"
     d="M 114.14516,510.98442 C 105.70087,507.40733 102,501.3819 102,491.21078 v -6.86891 l -5.12367,-2.39979 c -2.818018,-1.31989 -6.151538,-3.75931 -7.407822,-5.42094 -2.607122,-3.44832 -4.771686,-10.5675 -3.902053,-12.83372 0.32223,-0.83972 -1.91989,-6.62541 -4.982488,-12.85709 -16.118247,-32.79692 -16.305009,-66.43494 -0.547181,-98.55359 4.960215,-10.11024 13.915409,-23.06 19.830133,-28.6756 l 3.053271,-2.89886 -7.564894,-4.66717 C 67.928265,299.11397 48.586928,269.78277 43.951536,238.08114 42.299986,226.78612 43.232094,205.79659 45.821654,195.9692 55.89067,157.75726 82.091194,129.25049 118.5,116.89352 c 7.01297,-2.38017 7.98989,-3.00377 7.91805,-5.05434 -0.0451,-1.28655 -0.67199,-8.41186 -1.39315,-15.834031 -2.24252,-23.079893 -0.0755,-49.038444 6.08976,-72.949834 3.37921,-13.1059146 5.12322,-16.6251055 9.80116,-19.777569 5.39373,-3.6348378 9.00037,-3.76385392 22.36242,-0.7999461 36.06325,7.9993851 68.76663,24.0126351 89.34791,43.7493091 15.18672,14.563503 23.12422,26.997658 30.72691,48.133975 0.53922,1.499104 1.60998,0.4203 5.50519,-5.54656 18.00323,-27.578183 43.19331,-44.548633 77.14203,-51.970243 9.43763,-2.063184 13.12972,-2.296659 36.49972,-2.308115 22.88197,-0.01122 27.5536,0.26648 38.95482,2.315595 15.26751,2.743993 19.68504,4.337304 23.0226,8.303778 4.16074,4.944756 4.77539,9.35913 2.99993,21.54544 -4.67471,32.086073 -15.68613,62.736721 -30.51016,84.926081 -5.92394,8.86726 -23.082,26.44634 -30.09503,30.8335 l -4.62785,2.89505 6.12785,7.20354 c 25.52763,30.00881 33.37213,71.63312 20.42372,108.37185 -3.72152,10.5591 -5.62202,14.37281 -12.26862,24.61924 -14.31806,22.07281 -37.57095,38.83747 -64.02726,46.16178 -9.30599,2.57633 -11.28391,2.76522 -28.5,2.7218 -16.22942,-0.0409 -19.48187,-0.32888 -26.5,-2.34611 -4.4,-1.26469 -8.96076,-2.51937 -10.13501,-2.78817 l -2.13502,-0.48873 2.03125,7.84459 c 3.04563,11.76205 3.04247,37.47183 -0.006,49.552 -6.4258,25.46282 -19.48942,46.26509 -38.49712,61.30207 -21.94229,17.35854 -47.79162,25.64901 -74.75802,23.97662 -13.90193,-0.86217 -14.43237,-0.86135 -19.60277,0.0303 -4.1618,0.71768 -9.07358,-0.8915 -15.42505,-5.05352 -2.43659,-1.59665 -2.71612,-1.53939 -7.7449,1.58667 -5.61378,3.48972 -12.8411,4.73147 -17.08212,2.93493 z M 125.69859,491.75 c 3.96116,-2.84469 5.31202,-3.25 10.8319,-3.25 5.52661,0 6.88734,0.40951 11.00515,3.31201 5.96697,4.20591 7.39414,3.74463 6.727,-2.17427 -1.11082,-9.85516 2.62671,-16.52103 11.89734,-21.21881 2.66201,-1.34894 4.84002,-2.86865 4.84002,-3.37713 0,-0.50849 -2.70305,-2.36523 -6.00678,-4.1261 -8.24011,-4.39193 -10.45892,-8.13063 -10.60511,-17.86966 -0.0625,-4.16154 -0.57037,-7.60679 -1.14988,-7.79996 -0.5709,-0.1903 -3.14476,1.13898 -5.71969,2.95396 C 143.4134,441.09361 142.05647,441.5 136.5,441.5 c -5.55647,0 -6.9134,-0.40639 -11.01854,-3.29996 -2.57493,-1.81498 -5.14879,-3.14426 -5.71969,-2.95396 -0.57951,0.19317 -1.08741,3.63842 -1.14988,7.79996 -0.148,9.85936 -2.5408,13.87969 -10.7175,18.00727 -3.24192,1.63652 -5.89439,3.39261 -5.89439,3.90244 0,0.50983 2.5875,2.30899 5.75,3.99813 8.27651,4.4206 10.70247,8.40911 10.93107,17.97166 0.0996,4.16595 0.21208,7.68696 0.25,7.82446 0.26148,0.94833 2.89547,-0.2193 6.76752,-3 z m 78.23414,0.26412 c 32.22723,-9.20245 56.72107,-33.68422 66.11394,-66.08139 1.533,-5.2875 2.3057,-11.35495 2.67722,-21.02234 0.61451,-15.99041 -0.93169,-25.604 -6.25813,-38.91039 -2.68753,-6.71393 -4.29238,-9.23544 -7.63758,-12 -15.05747,-12.44391 -25.32875,-24.58321 -32.3643,-38.25031 l -3.88624,-7.54935 -6.1873,4.41517 c -8.44791,6.0283 -23.03759,12.77674 -34.42535,15.92342 -16.08245,4.44391 -36.81373,4.55652 -56.22521,0.3054 l -5.76023,-1.26149 -6.06172,5.95858 C 101.29678,345.94771 92.309529,361.27105 87.842546,378 c -3.196871,11.97235 -3.186043,34.72334 0.02213,46.5 2.135589,7.83939 8.84667,23.5 10.070512,23.5 0.34089,0 1.631012,-0.70828 2.866942,-1.57396 1.98305,-1.38898 2.17207,-2.13983 1.60837,-6.38917 -1.06152,-8.00214 2.93172,-16.094 9.65896,-19.57279 4.81557,-2.49022 12.86131,-1.89132 17.98476,1.33875 2.44518,1.54156 4.90808,3.08119 5.47311,3.4214 0.56503,0.34021 3.46918,-0.92106 6.45366,-2.80283 8.45931,-5.33375 17.74866,-4.64952 23.72128,1.74723 3.63953,3.89798 5.50035,9.59991 5.13189,15.72512 l -0.33416,5.55511 4.5,2.35455 c 8.73113,4.56841 12,9.39384 12,17.71413 0,7.43467 -4.30942,13.34486 -12.5,17.14321 -2.52041,1.16883 -3.96918,2.4994 -3.91667,3.59712 0.0458,0.95817 0.15834,3.38179 0.25,5.38583 l 0.16667,3.6437 12.75,-0.57544 c 8.46384,-0.38199 15.24866,-1.28892 20.18273,-2.69784 z M 338.08729,357.54298 c 37.1841,-5.60529 67.09422,-32.46567 77.32941,-69.44463 3.69749,-13.35874 3.56489,-34.31759 -0.3064,-48.42857 C 401.90564,191.53841 352.40461,161.65664 304,172.59701 c -15.22389,3.44089 -30.04138,10.951 -42.33155,21.45537 -0.45735,0.39089 -0.0556,5.35131 0.89281,11.02314 4.76463,28.49453 -2.94227,59.38183 -20.69543,82.94205 l -6.20416,8.23354 1.6999,4.62445 c 5.2126,14.18045 21.24888,33.47129 35.37085,42.54936 19.8871,12.78408 42.21194,17.60673 65.35487,14.11806 z m -20.05754,-35.07109 c -7.7955,-3.50561 -11.23176,-9.4957 -10.92276,-19.04059 0.11483,-3.54688 0.0252,-6.61578 -0.19911,-6.81978 -0.22433,-0.20401 -2.73088,-1.53762 -5.57011,-2.96359 -7.60124,-3.81763 -10.66723,-8.87086 -10.49799,-17.30229 0.14551,-7.24942 3.26639,-11.55024 11.8526,-16.33387 l 4.50841,-2.51177 0.1496,-7.65944 c 0.1355,-6.93704 0.43926,-8.02165 3.22071,-11.5 4.43115,-5.54137 8.75116,-7.52543 15.45452,-7.09785 4.21601,0.26892 6.62877,1.11144 10.18017,3.55487 2.56001,1.76133 4.89783,3.20242 5.19515,3.20242 0.29732,0 2.56082,-1.42399 5.02999,-3.16442 9.05564,-6.38301 20.46175,-4.49159 26.31795,4.36417 2.42829,3.67205 2.73279,5.02224 2.59494,11.50603 l -0.15617,7.34578 3.46418,1.44743 C 387.18245,263.06331 392,269.34181 392,276.89506 c 0,7.86953 -3.8623,13.43554 -12.31569,17.74832 l -4.81569,2.45689 0.68134,5.45333 c 1.78997,14.3264 -12.17264,25.44208 -24.64613,19.62087 -2.42211,-1.13036 -5.59542,-2.83341 -7.05181,-3.78455 -2.59403,-1.69412 -2.7535,-1.66163 -7.82798,1.59465 -6.14947,3.94611 -12.72817,4.85547 -17.99429,2.48732 z m 12.46434,-18.36601 c 7.98507,-5.06398 15.27152,-4.94324 22.47652,0.37244 5.31661,3.92247 6.02939,3.44837 6.02939,-4.01044 0,-10.25624 3.49963,-15.92217 12.42785,-20.12076 2.16031,-1.01592 4.07818,-2.31324 4.26194,-2.88295 0.18375,-0.5697 -2.10373,-2.23144 -5.0833,-3.69276 -3.03793,-1.48994 -6.6668,-4.29447 -8.26194,-6.38516 -2.50002,-3.27665 -2.88726,-4.73702 -3.19717,-12.05723 C 358.95344,250.74806 358.45163,247 358.03224,247 c -0.41939,0 -1.83571,0.83637 -3.14738,1.8586 -8.25321,6.43202 -17.06219,6.86754 -25.23075,1.24743 -2.63706,-1.81435 -5.10054,-2.99286 -5.47439,-2.61891 -0.37384,0.37395 -0.67972,3.93597 -0.67972,7.91561 0,9.44704 -2.8423,14.14988 -10.94901,18.11612 -3.05304,1.49372 -5.55099,3.28345 -5.55099,3.97718 0,0.69373 1.4625,1.83784 3.25,2.54247 9.67397,3.81346 14.41746,11.30145 13.38951,21.13643 -0.72582,6.94418 0.0221,7.26398 6.85458,2.93095 z M 177.5,313.02522 c 30.13293,-8.02682 54.99442,-31.24164 65.11559,-60.80272 18.38502,-53.69748 -14.64951,-110.94967 -70.83789,-122.76926 -8.07472,-1.69857 -25.84986,-1.90676 -34.34404,-0.40226 -19.74804,3.49781 -37.956728,13.34542 -51.98689,28.11554 C 68.128386,175.39827 59.650431,196.74121 59.693272,222 c 0.02786,16.42447 2.470916,26.75821 9.811258,41.5 8.637392,17.34669 19.812055,29.47297 36.28196,39.37167 8.15077,4.89876 22.80076,10.36163 32.38023,12.07435 8.76332,1.56679 30.164,0.52171 39.33328,-1.9208 z m -82,-50.68685 C 87.771176,258.26384 84.312991,251.50246 85.367761,242.52802 l 0.642266,-5.46469 -5.512053,-2.60761 c -7.486353,-3.54162 -10.765467,-8.00567 -11.299026,-15.38204 -0.676676,-9.35496 2.975493,-14.77077 13.038058,-19.33418 l 3.737007,-1.69475 -0.620007,-5.93191 c -0.778713,-7.45032 2.019087,-14.00783 7.533506,-17.6571 7.099105,-4.69796 13.729218,-4.46961 21.600278,0.74397 4.62533,3.06369 4.8575,3.11064 7.39374,1.49507 10.15963,-6.47159 16.83485,-7.13355 24.01562,-2.38154 5.73177,3.79311 8.53994,10.23077 7.75184,17.77091 l -0.617,5.90321 5.93612,2.99654 C 166.3189,204.69457 170,210.16482 170,217.3777 c 0,8.3357 -4.51333,14.43188 -13.44882,18.16536 l -3.56483,1.48948 0.62872,5.34938 c 2.02104,17.19595 -14.75553,27.49771 -28.91523,17.75557 C 122.19173,258.41187 119.93775,257 119.69098,257 c -0.24677,0 -3.06422,1.575 -6.261,3.5 -6.56802,3.95506 -12.71869,4.58569 -17.92998,1.83837 z M 107.81982,244.75 c 4.19259,-2.91141 5.40945,-3.25 11.68018,-3.25 6.31184,0 7.47388,0.32898 11.82028,3.34639 2.65115,1.84052 5.08469,3.08197 5.40788,2.75879 0.32318,-0.32319 0.49366,-3.4896 0.37883,-7.03648 -0.32741,-10.11362 3.24637,-15.71867 12.75658,-20.00718 2.27504,-1.0259 4.13643,-2.42306 4.13643,-3.10481 0,-0.68175 -1.72591,-1.93012 -3.83537,-2.77416 -9.18481,-3.67503 -13.45275,-10.08933 -13.06326,-19.63278 0.33086,-8.10688 -0.32742,-8.61532 -6.0541,-4.67606 -8.06498,5.54773 -15.20988,5.55761 -23.18329,0.032 -5.40984,-3.74902 -6.59987,-2.90255 -6.07724,4.32276 0.68379,9.4532 -4.017905,16.48069 -13.53674,20.233 -1.7875,0.70463 -3.25,1.82462 -3.25,2.48888 0,0.66426 2.290805,2.2807 5.090678,3.59209 8.790746,4.11737 12.611442,10.86569 11.615452,20.51587 -0.48679,4.7166 -0.21086,6.44166 1.03036,6.44166 0.22174,0 2.50924,-1.4625 5.08333,-3.25 z m 153.3324,-80.08649 c 2.15562,-12.8023 3.91707,-19.94857 8.10395,-32.87791 3.09583,-9.56012 3.12526,-9.83664 1.85255,-17.41093 C 269.55526,105.1295 265.83857,93.679725 261.73577,85.5 246.28165,54.689221 212.40457,31.946951 163.5,19.552633 158,18.158719 152.72993,17.014139 151.78874,17.009122 c -2.10896,-0.01124 -3.83096,5.448733 -7.25209,22.994448 -4.63649,23.778783 -5.3244,50.911916 -1.72096,67.87951 l 0.71847,3.38308 11.98292,0.33183 c 20.52309,0.56833 38.2217,5.58493 54.42557,15.42671 4.50533,2.73641 8.38246,4.9753 8.61584,4.9753 0.93724,0 -4.87721,-13.86048 -9.61484,-22.91987 C 202.88542,97.495479 197.32514,89.853729 188.14821,80.5 184.37099,76.65 180.75652,72.496734 180.11606,71.270519 177.60991,66.472244 182.28497,60 188.25704,60 c 2.39095,0 4.66719,1.639671 11.40197,8.213324 18.02791,17.596605 31.4321,43.026806 40.91276,77.618986 1.90114,6.93671 4.52739,14.23025 5.83611,16.20785 1.30872,1.97761 3.80293,6.41548 5.5427,9.86194 3.01139,5.96553 3.26492,6.19875 5.28239,4.85921 1.70103,-1.12945 2.47435,-3.51651 3.91925,-12.0978 z m 135.2133,4.6171 c 14.43562,-9.54903 27.9213,-26.06321 37.09093,-45.42048 7.94938,-16.78132 15.45808,-42.814077 18.03195,-62.517024 0.77581,-5.938809 1.54478,-5.403013 -11.12308,-7.750197 C 419.0112,49.636278 394.19288,49.264208 374,52.597977 330.55627,59.770374 301.32503,86.713813 285.68605,134 c -3.76509,11.38416 -8.20232,28.81706 -7.51086,29.50852 0.23598,0.23598 3.1056,-0.67069 6.37693,-2.01484 3.27134,-1.34414 9.38978,-3.22825 13.59655,-4.18692 l 7.64866,-1.74303 2.70759,-5.53187 c 8.45266,-17.26959 26.81777,-38.24932 42.90895,-49.01785 10.21895,-6.838718 25.71123,-14.16107 31.29224,-14.790132 5.75627,-0.648814 9.29389,2.318443 9.29389,7.795448 0,4.664138 -1.47938,5.977659 -11.62165,10.318734 -16.4814,7.05433 -31.03176,17.71459 -41.851,30.66194 C 332.57766,142.11998 326,151.60609 326,153.06657 c 0,0.37126 3.2625,0.99232 7.25,1.38014 18.43793,1.79327 38.05317,8.48852 51.25,17.49312 1.65,1.12585 3.38948,2.04996 3.86552,2.05358 0.47603,0.004 4.07603,-2.11714 8,-4.7128 z"
     id="path1" />
</svg>
