<?xml version="1.0" encoding="UTF-8" standalone="no"?>
<!-- Created with Inkscape (http://www.inkscape.org/) -->

<svg
   version="1.1"
   id="svg1"
   width="512"
   height="512"
   viewBox="0 0 512 512"
   sodipodi:docname="blueberries-filled.svg"
   inkscape:version="1.3 (0e150ed6c4, 2023-07-21)"
   xmlns:inkscape="http://www.inkscape.org/namespaces/inkscape"
   xmlns:sodipodi="http://sodipodi.sourceforge.net/DTD/sodipodi-0.dtd"
   xmlns="http://www.w3.org/2000/svg"
   xmlns:svg="http://www.w3.org/2000/svg">
  <defs
     id="defs1" />
  <sodipodi:namedview
     id="namedview1"
     pagecolor="#ffffff"
     bordercolor="#000000"
     borderopacity="0.25"
     inkscape:showpageshadow="2"
     inkscape:pageopacity="0.0"
     inkscape:pagecheckerboard="0"
     inkscape:deskcolor="#d1d1d1"
     inkscape:zoom="1.359375"
     inkscape:cx="256"
     inkscape:cy="255.63218"
     inkscape:window-width="1350"
     inkscape:window-height="1237"
     inkscape:window-x="1160"
     inkscape:window-y="57"
     inkscape:window-maximized="0"
     inkscape:current-layer="svg1" />
  <path
     style="fill:#aad400;fill-opacity:1;stroke:none;stroke-width:0.735632"
     d="m 171.22555,490.58965 c -0.42668,-4.9127 -0.0371,-5.66156 4.02275,-7.73275 4.03255,-2.05725 8.50461,-6.29998 10.32467,-9.79523 1.16497,-2.2372 1.55202,-4.29267 1.53316,-8.14213 -0.0406,-8.2857 -3.3354,-13.01155 -12.36911,-17.7413 l -3.70254,-1.93853 -0.0263,-6.34399 c -0.0302,-7.30661 -1.52091,-11.47291 -5.48184,-15.32139 -3.60727,-3.50484 -7.0799,-4.8921 -12.26684,-4.90041 -3.86093,-0.006 -5.45893,0.45332 -10.77049,3.09698 l -6.23692,3.10423 -5.63228,-2.9663 c -5.02017,-2.64393 -6.19067,-2.9663 -10.77038,-2.9663 -6.45613,0 -9.166,1.1285 -12.90217,5.37302 -3.61813,4.11042 -4.69443,7.46792 -4.69443,14.64429 0,5.53607 -0.39923,6.47289 -3.515476,8.24917 -2.01999,1.15141 -10.537067,-20.40535 -11.881641,-30.07247 -1.012151,-7.2771 -1.011642,-24.42493 9.4e-4,-31.70512 2.367374,-17.02079 12.398435,-35.98351 27.179107,-51.37941 l 5.81233,-6.05425 6.46674,1.31159 c 15.78323,3.20117 37.88872,3.65324 49.86276,1.01973 12.67016,-2.78662 28.88268,-9.71081 39.89736,-17.03973 6.99036,-4.65123 6.22241,-4.8296 9.88842,2.29686 6.14912,11.95345 15.80744,23.97791 27.71937,34.51016 8.71604,7.70653 10.35881,10.10758 13.97904,20.43145 3.4224,9.75972 4.52265,16.95721 4.51775,29.55345 -0.007,18.27498 -2.17323,28.38287 -9.00114,42.0026 -11.40373,22.7472 -30.01609,39.17182 -54.13964,47.77596 -7.20664,2.57039 -15.6807,3.97476 -27.59047,4.57246 l -9.84611,0.49414 z"
     id="path2" />
  <path
     style="fill:#aad400;fill-opacity:1;stroke:none;stroke-width:0.735632"
     d="m 119.17241,489.59943 c 0,-11.48119 -2.49318,-15.95152 -11.98964,-21.49776 l -5.13065,-2.99646 3.96244,-2.39992 c 10.85143,-6.57233 12.24641,-8.67786 12.9506,-19.54713 0.23554,-3.63562 0.71318,-6.78631 1.06142,-7.00153 0.34824,-0.21523 2.69852,0.87183 5.22283,2.41568 4.22306,2.58278 5.08913,2.82569 10.84254,3.04101 6.19609,0.23189 6.29812,0.20653 11.23405,-2.79236 2.73964,-1.66451 5.25688,-2.85597 5.59387,-2.6477 0.33699,0.20827 0.84403,3.44293 1.12675,7.18813 0.8214,10.88083 1.94012,12.55999 12.84509,19.28 l 3.94917,2.43361 -4.68481,2.79322 c -9.61949,5.73542 -11.78839,9.14909 -12.26504,19.30419 -0.20219,4.30756 -0.61931,6.8046 -1.13668,6.8046 -0.44951,0 -2.81002,-1.24138 -5.24559,-2.75862 -4.26868,-2.65918 -4.66695,-2.75819 -11.04899,-2.74676 -6.54471,0.0117 -6.67476,0.0476 -11.33244,3.12643 -2.59146,1.71302 -4.99146,3.11458 -5.33333,3.11458 -0.34187,0 -0.62159,-2.30094 -0.62159,-5.11321 z"
     id="path3" />
  <path
     style="fill:#aad400;fill-opacity:1;stroke:none;stroke-width:0.735632"
     d="m 323.88449,299.94081 c 0.0744,-5.32293 -0.20155,-7.05263 -1.57931,-9.89871 -1.94571,-4.01929 -5.32259,-7.19477 -10.37223,-9.75362 -1.97942,-1.00305 -3.79561,-2.14194 -4.03599,-2.53087 -0.24037,-0.38893 1.84386,-2.03926 4.63162,-3.6674 8.61529,-5.0316 11.12672,-9.10423 11.15552,-18.09021 0.0155,-4.8432 0.5744,-7.72414 1.4984,-7.72414 0.32841,0 2.60594,1.19665 5.06117,2.65923 7.72757,4.60329 16.06683,4.28962 23.59291,-0.88741 2.09632,-1.44201 3.93164,-2.50169 4.07849,-2.35483 0.14685,0.14685 0.5633,3.80388 0.92544,8.12673 0.91787,10.95645 1.97494,12.42879 14.33236,19.9629 1.12553,0.68622 1.85912,1.55074 1.63019,1.92116 -0.22894,0.37043 -2.41637,1.73955 -4.86097,3.04251 -8.04127,4.28595 -10.42012,8.4652 -11.35193,19.94351 -0.49991,6.15805 -1.03586,6.72417 -4.10015,4.33099 -3.83276,-2.99335 -8.36328,-4.74404 -12.42104,-4.79975 -4.3315,-0.0595 -7.12622,0.84357 -12.72203,4.11081 -5.41658,3.16259 -5.56638,3.04217 -5.46245,-4.3909 z"
     id="path4" />
  <path
     style="fill:#aad400;fill-opacity:1;stroke:none;stroke-width:0.735632"
     d="M 136.16891,314.08085 C 118.02929,310.14582 99.968692,300.47111 87.528569,288.02517 74.918201,275.4089 64.3917,255.56946 61.364102,238.71264 c -1.199874,-6.68056 -1.336186,-23.52743 -0.253359,-31.31267 2.47551,-17.79826 10.911552,-35.0444 23.854774,-48.76729 13.591405,-14.4101 27.585973,-22.77625 46.650043,-27.88802 6.35681,-1.70449 8.42737,-1.89541 21.02812,-1.93897 14.74087,-0.0509 18.33102,0.41529 28.68965,3.72576 18.79029,6.0051 34.96799,17.40718 46.80151,32.98579 19.82526,26.09959 24.46129,59.61603 12.51566,90.48276 -10.30227,26.62044 -35.56473,49.3637 -62.5061,56.27296 -11.56118,2.96492 -32.4871,3.8662 -41.97549,1.80789 z m -22.39445,-53.36466 6.00435,-3.08283 3.55887,2.16522 c 5.56162,3.38369 8.3628,4.28572 13.12209,4.22558 5.09325,-0.0644 9.04194,-1.80237 12.65237,-5.56889 3.65278,-3.81069 4.76077,-7.27257 4.70289,-14.69391 l -0.0506,-6.48507 3.8534,-1.83145 c 8.82592,-4.19478 12.53926,-9.5571 12.48621,-18.03097 -0.0507,-8.10021 -3.69698,-13.25846 -12.38376,-17.51886 l -3.96155,-1.94292 0.0541,-6.74435 c 0.0471,-5.87021 -0.1941,-7.23413 -1.86078,-10.52317 -2.04861,-4.04273 -6.11613,-7.5195 -10.48339,-8.96083 -4.42649,-1.46087 -10.01417,-0.51546 -16.3162,2.76063 l -5.6781,2.95173 -6.06695,-3.20081 c -7.38388,-3.8956 -12.12433,-4.27635 -18.173124,-1.45966 -7.273651,3.38705 -10.180068,8.72226 -10.071962,18.48874 l 0.07328,6.62069 -5.629026,2.95919 c -7.89123,4.14844 -9.989727,7.22497 -10.35075,15.17485 -0.448605,9.87847 2.228856,14.25269 11.628403,18.99757 l 4.314817,2.17811 -0.08826,6.8279 c -0.08075,6.24697 0.09471,7.16261 2.062364,10.76206 2.154262,3.94081 5.928691,7.17198 10.29809,8.81586 3.982558,1.49832 9.756778,0.47674 16.303198,-2.88441 z"
     id="path5" />
  <path
     style="fill:#aad400;fill-opacity:1;stroke:none;stroke-width:0.735632"
     d="m 315.50349,357.88991 c -15.17691,-1.48455 -31.05324,-7.18164 -43.6874,-15.67683 -12.73124,-8.56049 -28.75953,-28.01027 -33.90697,-41.14494 l -1.79255,-4.57403 2.22423,-2.9597 c 12.74169,-16.95483 19.76185,-31.56631 23.61994,-49.16158 2.14141,-9.76615 2.66885,-27.86922 1.11397,-38.23418 -1.77284,-11.81788 -1.86681,-11.39645 3.42637,-15.366 10.43797,-7.82784 23.25493,-14.04143 35.64513,-17.28057 9.71534,-2.53986 26.81021,-3.20654 37.12732,-1.44793 38.7522,6.60556 70.38754,37.55698 77.16432,75.49608 1.27306,7.12713 1.27109,26.72852 -0.003,33.83908 -2.94196,16.41348 -11.89649,33.88852 -24.09146,47.01524 -19.2796,20.75263 -49.11939,32.20683 -76.83949,29.49536 z m 20.22825,-37.42832 5.51065,-3.02442 5.60804,3.02493 c 7.75359,4.18224 12.99765,4.62998 18.74532,1.60049 7.42481,-3.91348 10.77265,-10.37946 10.1233,-19.55205 l -0.3528,-4.98372 4.50078,-2.51858 c 8.67991,-4.85715 12.23006,-10.14634 12.21802,-18.203 -0.0116,-7.78263 -4.8025,-14.13851 -13.3488,-17.70938 l -2.65589,-1.10971 -0.29613,-7.61377 c -0.22714,-5.84014 -0.62115,-8.12786 -1.69141,-9.82066 -6.65274,-10.52251 -17.59191,-12.79374 -28.15047,-5.84469 -2.11791,1.39389 -4.19197,2.53435 -4.60902,2.53435 -0.41704,0 -2.4911,-1.14696 -4.60901,-2.54881 -8.52485,-5.64258 -18.85854,-4.99451 -24.90495,1.5619 -3.82359,4.1461 -4.40156,5.7353 -4.92475,13.54138 l -0.50382,7.51705 -4.7816,2.85471 c -5.64776,3.3718 -9.27971,7.20014 -10.29367,10.85025 -1.28728,4.63406 -0.87886,10.40193 1.02629,14.49352 1.88123,4.04022 4.48291,6.36734 10.4679,9.36324 l 3.77524,1.88975 0.29412,7.20402 c 0.34535,8.45884 2.07438,12.88652 6.28699,16.09964 6.6206,5.04977 13.852,5.17589 22.56567,0.39356 z"
     id="path7" />
  <path
     style="fill:#aad400;fill-opacity:1;stroke:none;stroke-width:0.735632"
     d="m 102.17128,246.29629 c -0.0449,-0.73193 -0.0243,-3.4825 0.0456,-6.11238 0.24077,-9.0498 -2.721845,-14.09225 -11.217677,-19.09275 -3.061868,-1.80217 -5.400331,-3.54639 -5.196585,-3.87606 0.203746,-0.32967 1.989973,-1.42007 3.969393,-2.42312 8.627529,-4.3719 11.832709,-9.24879 12.320199,-18.746 0.17652,-3.43908 0.56713,-6.51857 0.868,-6.8433 0.30088,-0.32473 3.15564,0.78342 6.34392,2.46256 5.48487,2.88867 6.07844,3.03877 11.02813,2.78882 4.53319,-0.22891 5.84004,-0.63992 9.79343,-3.0801 2.50919,-1.54876 5.00298,-2.64677 5.54175,-2.44003 0.68488,0.26281 1.07572,2.44039 1.29913,7.23823 0.45861,9.84897 3.09558,13.9559 11.77345,18.33647 2.42187,1.22256 4.23948,2.60027 4.07681,3.09014 -0.16146,0.48619 -2.25268,1.96494 -4.64716,3.28611 -8.63462,4.76418 -11.3421,9.62444 -11.3421,20.36041 0,3.55048 -0.29221,5.55931 -0.80866,5.55931 -0.44477,0 -2.81986,-1.24138 -5.27798,-2.75862 -4.31139,-2.66115 -4.70718,-2.75862 -11.20072,-2.75862 -6.52899,0 -6.87351,0.0864 -11.45765,2.87305 -2.59944,1.58018 -4.97453,3.00661 -5.27798,3.16985 -0.30345,0.16324 -0.58844,-0.30205 -0.63332,-1.03397 z"
     id="path8" />
  <path
     style="fill:#aad400;fill-opacity:1;stroke:none;stroke-width:0.735632"
     d="m 254.08967,174.89655 c -0.60845,-1.11264 -2.73358,-4.904 -4.72253,-8.42524 -3.6879,-6.52911 -5.32908,-10.90216 -11.4012,-30.37936 -10.12649,-32.48215 -23.56122,-55.395227 -42.19668,-71.966873 -4.15649,-3.696174 -5.05041,-4.171054 -7.85161,-4.171054 -5.53178,0 -10.25579,5.84712 -8.48561,10.503036 0.39467,1.038055 4.57244,6.134014 9.28394,11.324352 9.41095,10.3674 15.68278,19.197449 20.62459,29.037189 4.12123,8.20587 8.61912,19.05312 8.11115,19.5611 -0.21537,0.21537 -2.63701,-0.93646 -5.38142,-2.55961 -18.45183,-10.91317 -32.888,-15.16916 -55.65419,-16.40766 -6.85036,-0.37267 -12.52011,-0.76533 -12.59944,-0.87259 -0.0793,-0.10726 -0.57171,-2.18122 -1.09418,-4.60881 -1.54695,-7.187769 -1.83787,-35.737906 -0.48372,-47.471706 2.07948,-18.01888 6.55306,-38.460625 8.83058,-40.350796 1.20844,-1.002916 5.95059,-0.02754 21.20123,4.36069 37.64302,10.831439 67.20324,29.680477 82.97916,52.911539 6.59103,9.705725 12.31583,23.781733 15.03026,36.956043 1.66912,8.10094 1.53213,9.52471 -2.04784,21.28346 -3.28854,10.80151 -5.19572,18.70601 -7.75587,32.14506 -1.99168,10.45496 -4.05193,13.40058 -6.38662,9.13123 z"
     id="path9" />
  <path
     style="fill:#aad400;fill-opacity:1;stroke:none;stroke-width:0.735632"
     d="m 383.26437,170.60915 c -12.31412,-7.89669 -29.32735,-13.69012 -47.44828,-16.15732 -4.85517,-0.66104 -8.9481,-1.32089 -9.0954,-1.46633 -0.4633,-0.45744 2.92027,-5.59702 8.59108,-13.04965 12.05232,-15.8393 27.30421,-27.33796 48.85951,-36.83602 6.23182,-2.74597 7.92067,-4.73035 7.92067,-9.306727 0,-4.230007 -1.91241,-6.885117 -5.63153,-7.818554 -4.91053,-1.232467 -21.7938,5.775752 -34.48381,14.314171 -16.65225,11.20441 -33.62364,30.16797 -42.97255,48.01687 l -3.7001,7.06421 -5.75644,1.24375 c -3.16604,0.68406 -9.0243,2.38168 -13.01835,3.77248 -3.99406,1.3908 -7.41915,2.3715 -7.61132,2.17933 -0.51386,-0.51386 1.08649,-7.46009 4.40443,-19.11708 13.1358,-46.150472 37.05885,-74.282382 73.25068,-86.137948 21.708,-7.111011 52.81493,-8.480183 81.65731,-3.594146 10.25599,1.737413 13.44789,2.682962 13.44789,3.983721 0,2.506692 -3.44062,19.848388 -5.62455,28.349405 -8.20697,31.945658 -19.5794,54.228458 -36.28165,71.089148 -7.38948,7.45959 -18.89385,16.12578 -21.35162,16.08409 -0.61049,-0.0104 -2.93068,-1.18639 -5.15597,-2.6134 z"
     id="path10" />
</svg>
