<?xml version="1.0" encoding="UTF-8" standalone="no"?>
<!-- Created with Inkscape (http://www.inkscape.org/) -->

<svg
   version="1.1"
   id="svg1"
   width="512"
   height="512"
   viewBox="0 0 512 512"
   sodipodi:docname="broccoli-outline-white.svg"
   inkscape:version="1.3 (0e150ed6c4, 2023-07-21)"
   xmlns:inkscape="http://www.inkscape.org/namespaces/inkscape"
   xmlns:sodipodi="http://sodipodi.sourceforge.net/DTD/sodipodi-0.dtd"
   xmlns="http://www.w3.org/2000/svg"
   xmlns:svg="http://www.w3.org/2000/svg">
  <defs
     id="defs1" />
  <sodipodi:namedview
     id="namedview1"
     pagecolor="#ffffff"
     bordercolor="#000000"
     borderopacity="0.25"
     inkscape:showpageshadow="2"
     inkscape:pageopacity="0.0"
     inkscape:pagecheckerboard="0"
     inkscape:deskcolor="#d1d1d1"
     inkscape:zoom="0.96122328"
     inkscape:cx="226.79434"
     inkscape:cy="320.9452"
     inkscape:window-width="1350"
     inkscape:window-height="1237"
     inkscape:window-x="1011"
     inkscape:window-y="74"
     inkscape:window-maximized="0"
     inkscape:current-layer="svg1" />
  <path
     style="fill:#ffffff;stroke:none;fill-opacity:1"
     d="M 195.4628,510.40865 C 185.01856,506.70031 179.53099,497.97233 178.54442,483.5 c -2.11089,-30.9656 -6.20775,-60.15949 -10.23259,-72.91663 -7.3003,-23.13902 -24.74598,-46.60524 -47.36722,-63.71375 L 113.5,341.23924 104,340.66681 C 63.99939,338.25657 30.054772,309.52458 19.921917,269.5 16.73795,256.92339 16.702942,238.24524 19.839448,225.5 27.114307,195.93849 50.169266,169.85046 77.75,159.97082 c 3.4375,-1.23134 6.25,-2.64643 6.25,-3.14465 0,-0.49821 -0.842246,-2.57542 -1.871657,-4.61601 -4.929557,-9.7718 -6.454778,-25.9576 -3.590903,-38.10705 3.279149,-13.91116 14.427657,-29.292293 26.58407,-36.676925 15.74116,-9.56225 34.4849,-11.519006 51.62245,-5.389135 3.16582,1.132373 6.16655,2.149781 6.66828,2.260905 0.50172,0.111125 1.28052,-1.477394 1.73065,-3.530042 1.73409,-7.907721 7.32086,-20.329801 12.8716,-28.619773 34.13604,-50.9818587 105.36277,-56.470378 147.09808,-11.334938 10.5626,11.423118 16.98694,23.699358 22.45956,42.917833 0.26066,0.915396 1.45016,0.761988 4.63921,-0.598313 10.54519,-4.498101 25.65674,-5.814157 36.78866,-3.203903 19.41822,4.553256 35.24088,18.902214 42.81761,38.829631 2.25475,5.93015 2.56325,8.24602 2.56325,19.24155 0,11.28305 -0.26831,13.18149 -2.75601,19.5 -1.51581,3.85 -2.98085,7.69901 -3.25564,8.55336 -0.37824,1.17597 1.52053,2.32155 7.81558,4.71533 26.97421,10.25733 48.62514,35.32552 56.01349,64.85432 3.26378,13.04428 3.07646,32.22401 -0.44388,45.44682 -9.19474,34.53661 -36.84128,60.94357 -71.23666,68.04266 -4.95976,1.02368 -11.95475,1.86715 -15.54442,1.87437 l -6.52669,0.0131 -8.47331,6.69477 c -23.06889,18.22673 -39.04145,39.929 -46.28515,62.8886 -3.97419,12.59661 -8.40602,43.98693 -10.22411,72.41663 -0.99197,15.51156 -6.61645,24.16368 -17.89556,27.52872 -7.18528,2.14368 -114.03088,2.03686 -120.1057,-0.12007 z m 118.14509,-17.74779 c 2.5871,-2.22534 2.75826,-2.94296 3.51794,-14.75 2.55582,-39.72304 7.89875,-67.88221 16.43347,-86.61042 7.83614,-17.19529 22.75703,-37.40079 35.29854,-47.80044 3.31638,-2.75 6.05506,-5.25354 6.08597,-5.56342 0.0309,-0.30988 -3.20631,-1.81481 -7.19381,-3.34429 -9.18717,-3.5239 -19.13359,-9.33351 -26.55847,-15.51256 l -5.79627,-4.8237 -6.12091,7.78671 c -7.2569,9.23186 -17.04206,17.61225 -26.97773,23.10477 -5.75067,3.17902 -8.20196,5.3303 -12.1549,10.66729 -6.08375,8.21386 -12.98845,19.81182 -17.67795,29.69401 C 268.29832,394.28665 263.40401,398 256,398 c -7.40401,0 -12.29832,-3.71335 -16.46377,-12.49119 -4.6895,-9.88219 -11.5942,-21.48015 -17.67795,-29.69401 -3.95294,-5.33699 -6.40423,-7.48827 -12.1549,-10.66729 -9.94259,-5.49634 -19.72199,-13.87439 -26.99489,-23.12661 l -6.13807,-7.80854 -5.03521,4.29971 c -7.33715,6.2654 -18.65976,12.96572 -27.13182,16.05566 -4.07187,1.48509 -7.37649,2.97739 -7.3436,3.31622 0.0329,0.33883 2.5204,2.64105 5.52782,5.11605 7.19695,5.92284 18.37072,18.65168 24.57926,28 6.45918,9.72572 13.95805,25.3117 17.26158,35.87724 4.40123,14.07621 8.6361,44.29444 10.86701,77.5422 0.3306,4.92709 0.8514,6.31014 3.10663,8.25 L 201.11153,495 H 256 310.88847 Z M 257,379.74987 c 0,-0.68757 2.475,-5.72962 5.5,-11.20455 3.025,-5.47493 5.5,-10.08738 5.5,-10.24987 C 268,358.13295 262.6,358 256,358 c -6.6,0 -12,0.13295 -12,0.29545 0,0.16249 2.475,4.77494 5.5,10.24987 3.025,5.47493 5.5,10.51698 5.5,11.20455 0,0.68757 0.45,1.25013 1,1.25013 0.55,0 1,-0.56256 1,-1.25013 z m 18.44198,-40.73214 c 20.7036,-5.30263 38.88387,-19.78824 49.00251,-39.04406 3.70786,-7.05607 4.81736,-7.97367 9.64116,-7.97367 2.3198,0 4.51866,1.61153 10.66821,7.81866 16.86122,17.01908 34.29549,24.52902 56.74614,24.44379 22.23073,-0.0844 41.43936,-8.53064 56.21777,-24.71959 13.479,-14.76551 20.2475,-32.16284 20.2475,-52.04286 0,-21.52767 -7.28266,-38.80782 -22.97786,-54.52135 -7.17976,-7.18815 -10.15461,-9.34598 -19,-13.78176 -6.85306,-3.43667 -13.25976,-5.82698 -18.48741,-6.89757 -13.55069,-2.7751 -15.97413,-7.78368 -8.5342,-17.6378 7.61585,-10.08712 10.50219,-20.81908 8.84947,-32.90402 -4.39712,-32.152393 -42.2132,-47.552507 -68.33655,-27.829186 -9.93359,7.499936 -15.65748,4.817718 -16.83859,-7.890573 C 330.81782,66.430473 319.84011,46.278358 304.20384,33.836395 289.91027,22.462838 274.26976,17 256,17 c -28.1403,0 -53.44422,14.634468 -67.07986,38.795502 -4.32391,7.661543 -8.76825,21.720439 -9.56027,30.242239 -1.20704,12.987303 -6.75027,15.351519 -17.47778,7.454375 -25.88062,-19.052231 -62.245073,-4.42292 -67.918456,27.323394 -2.09173,11.70461 1.512992,24.82771 9.495766,34.56963 2.48148,3.02833 3.5406,5.31773 3.5406,7.6534 0,3.64162 -3.24796,7.96146 -5.98598,7.96146 -3.918065,0 -17.816089,4.37861 -24.373004,7.67878 -26.572941,13.37446 -42.606289,39.27286 -42.606289,68.82122 0,20.18901 6.812093,37.43065 20.773877,52.5794 14.622699,15.86585 34.095187,24.25329 56.191396,24.20348 12.32961,-0.0278 21.12763,-1.8952 31.49371,-6.68462 10.20955,-4.71711 15.76343,-8.70644 24.75243,-17.7796 6.14955,-6.20713 8.34841,-7.81866 10.66821,-7.81866 4.71588,0 6.03261,0.95914 8.75153,6.37479 16.62102,33.10647 53.06259,49.78993 88.7761,40.64294 z M 121.9662,218.25 c -1.85047,-2.33543 -2.10106,-3.62535 -1.66228,-8.55651 0.97345,-10.93988 8.31191,-21.37056 18.84667,-26.78812 5.05146,-2.59774 17.23621,-3.72092 23.02537,-2.12245 3.62399,1.00063 3.69468,0.96277 6.49396,-3.4784 3.28625,-5.21377 9.82756,-10.26597 16.55601,-12.78708 6.57058,-2.46195 19.5277,-1.76365 25.62348,1.38094 10.54584,5.44021 17.87349,15.85823 18.84667,26.79511 0.43878,4.93116 0.18819,6.22108 -1.66228,8.55651 -1.68332,2.12447 -3.03267,2.75 -5.93207,2.75 -4.86511,0 -7.64755,-2.9924 -8.53283,-9.17674 -1.29197,-9.02533 -7.29531,-14.88724 -15.98436,-15.60781 -4.62064,-0.38318 -6.20834,-0.0399 -9.94543,2.15016 -4.56627,2.67601 -8.63911,8.99067 -8.63911,13.39435 0,2.77597 -3.82585,7.00741 -7.00698,7.7498 -1.79977,0.42002 -3.82725,-0.28945 -7.18728,-2.51504 -7.79012,-5.15996 -15.96981,-5.25188 -21.9186,-0.2463 -3.54148,2.97996 -6.83175,9.38622 -6.86518,13.36672 -0.0619,7.37228 -9.53954,10.83465 -14.05576,5.13486 z m 266.27234,2.0839 c -1.85175,-0.74602 -3.15669,-3.62932 -4.24876,-9.38778 -1.20746,-6.3669 -4.02686,-10.41423 -9.03416,-12.96876 -6.55468,-3.34395 -10.87378,-2.63909 -22.24102,3.62963 -5.48108,3.02267 -9.4843,-0.15403 -11.73419,-9.31152 -2.76215,-11.24243 -15.38227,-16.71666 -25.42468,-11.02846 -4.80043,2.71904 -7.63354,7.3179 -8.69704,14.1175 -0.51897,3.31807 -1.55205,5.73038 -2.94018,6.86549 -2.96708,2.42626 -8.41868,2.24983 -11.02532,-0.35681 -1.81574,-1.81574 -2.05364,-3.02462 -1.72193,-8.75 0.67314,-11.61858 7.62167,-21.91394 18.35482,-27.19559 4.27703,-2.10467 6.37501,-2.44638 14.97392,-2.43887 8.43722,0.007 10.65984,0.35994 14.2222,2.25614 5.58912,2.975 10.96624,7.78134 13.89388,12.41902 2.14899,3.40422 2.62715,3.67413 4.94654,2.7923 3.89817,-1.48208 15.52903,-1.16714 20.50924,0.55536 12.99897,4.49592 22.02387,16.94992 22.32353,30.80558 0.0854,3.95004 -0.32834,5.18794 -2.25617,6.75 -2.21126,1.79171 -7.039,2.39966 -9.90068,1.24677 z"
     id="path1" />
</svg>
