<?xml version="1.0" encoding="UTF-8" standalone="no"?>
<!-- Created with Inkscape (http://www.inkscape.org/) -->

<svg
   version="1.1"
   id="svg1"
   width="512"
   height="512"
   viewBox="0 0 512 512"
   sodipodi:docname="broccoli-filled.svg"
   inkscape:version="1.3 (0e150ed6c4, 2023-07-21)"
   xmlns:inkscape="http://www.inkscape.org/namespaces/inkscape"
   xmlns:sodipodi="http://sodipodi.sourceforge.net/DTD/sodipodi-0.dtd"
   xmlns="http://www.w3.org/2000/svg"
   xmlns:svg="http://www.w3.org/2000/svg">
  <defs
     id="defs1" />
  <sodipodi:namedview
     id="namedview1"
     pagecolor="#ffffff"
     bordercolor="#000000"
     borderopacity="0.25"
     inkscape:showpageshadow="2"
     inkscape:pageopacity="0.0"
     inkscape:pagecheckerboard="0"
     inkscape:deskcolor="#d1d1d1"
     inkscape:zoom="0.96122328"
     inkscape:cx="226.79434"
     inkscape:cy="320.9452"
     inkscape:window-width="1350"
     inkscape:window-height="1237"
     inkscape:window-x="1011"
     inkscape:window-y="74"
     inkscape:window-maximized="0"
     inkscape:current-layer="svg1" />
  <path
     style="fill:#aad400;fill-opacity:1;stroke:none;stroke-width:1.04034"
     d="m 198.7321,492.11 c -2.15283,-2.29158 -2.56578,-4.30581 -3.7858,-18.46605 -4.16823,-48.37872 -7.98649,-65.95501 -19.1818,-88.29821 -7.26191,-14.49306 -15.50562,-25.69665 -28.21545,-38.34613 l -9.46431,-9.41937 3.52142,-1.21469 c 7.24776,-2.50008 21.73071,-10.55649 27.86848,-15.50237 3.49441,-2.81583 6.70223,-5.11648 7.12849,-5.11257 0.42625,0.004 1.92868,1.70078 3.33871,3.77082 4.45665,6.54274 17.20849,18.41411 24.99687,23.27093 4.12901,2.57485 9.10325,6.02283 11.05386,7.66218 4.4235,3.71764 12.90605,16.41396 20.88609,31.26139 3.35649,6.24498 7.29543,12.24502 8.75321,13.3334 5.64285,4.213 14.9308,4.22076 20.56102,0.0172 1.4451,-1.07893 4.24221,-4.97227 6.21578,-8.65187 13.46565,-25.10583 20.11409,-34.12961 29.64286,-40.23352 12.2872,-7.87092 20.26306,-14.69834 27.18251,-23.26853 6.52821,-8.08562 6.56332,-8.11034 8.49125,-5.98 4.62886,5.11484 23.5983,16.24434 34.10311,20.00853 1.69739,0.60823 0.59482,2.11071 -7.56142,10.30395 -12.12709,12.1821 -20.41024,23.34098 -27.58427,37.16092 -10.92822,21.05197 -16.05744,44.08812 -19.74842,88.6933 -1.22053,14.74994 -1.60025,16.64936 -3.79561,18.98622 l -2.43941,2.59663 h -54.77538 -54.77538 z"
     id="path2" />
  <path
     style="fill:#aad400;fill-opacity:1;stroke:none;stroke-width:1.04034"
     d="m 239.7986,339.25126 c -20.54563,-4.69986 -39.61293,-18.55898 -49.43401,-35.93123 -5.96906,-10.55853 -6.90882,-11.50438 -11.4304,-11.50438 -3.61822,0 -5.02063,0.93407 -14.19695,9.4559 -8.38873,7.7904 -12.02019,10.33686 -20.61778,14.45764 -15.54422,7.45026 -27.4865,9.4821 -43.06799,7.32749 -30.287034,-4.18809 -54.300833,-24.72614 -63.394409,-54.21875 -9.866212,-31.99844 4.916928,-69.57651 34.099792,-86.68012 6.894525,-4.04077 20.892786,-9.29883 27.861536,-10.46541 8.878871,-1.48636 9.983231,-8.40637 2.975171,-18.64268 -13.009029,-19.00165 -11.00497,-40.47169 5.20907,-55.806253 7.78897,-7.366479 15.4122,-10.65772 25.97624,-11.214929 10.5159,-0.554668 17.36978,1.305281 26.4598,7.180443 7.65613,4.948398 13.26571,6.227537 15.87362,3.619624 1.81448,-1.814473 3.85127,-7.967909 3.8609,-11.664348 0.01,-3.810129 5.08156,-19.952764 8.2252,-26.180284 8.89828,-17.627397 24.0425,-30.77149 42.80756,-37.153902 35.89101,-12.2073194 74.66026,3.010611 92.06897,36.139443 4.95859,9.436228 7.3932,16.809874 8.85809,26.828354 2.12655,14.54351 6.77679,16.935382 18.14174,9.331283 18.84846,-12.611208 41.31395,-10.560271 55.97146,5.10979 7.87797,8.422189 11.31412,16.978979 11.31412,28.174679 0,9.5846 -2.27195,16.87355 -7.95783,25.53046 -7.84588,11.94557 -6.19324,16.28809 7.48405,19.66535 3.87883,0.95777 11.95812,4.12171 17.95397,7.031 9.51866,4.61858 12.02611,6.43268 19.76648,14.30073 4.87571,4.95612 10.63247,12.03483 12.79282,15.73046 13.40206,22.92642 13.19907,52.92536 -0.51713,76.42216 -5.0558,8.66094 -18.66698,22.45095 -27.02727,27.38239 -20.66861,12.19167 -50.26415,13.52287 -70.79447,3.18433 -9.18177,-4.62371 -14.21307,-8.26331 -23.74236,-17.17498 -7.87989,-7.3692 -8.55443,-7.76872 -12.60843,-7.46772 -4.18056,0.31041 -4.42093,0.54229 -10.03563,9.68109 -10.66097,17.35241 -25.40161,29.41018 -43.34297,35.45435 -10.19097,3.43318 -29.26994,4.44571 -39.53296,2.09802 z M 133.81796,218.7317 c 1.13154,-1.28742 2.63391,-4.63216 3.33859,-7.43274 3.4483,-13.70439 13.80831,-18.00085 26.84076,-11.13131 3.35414,1.768 6.64771,3.21556 7.31905,3.21679 2.78585,0.005 7.40402,-5.31359 8.54369,-9.83966 2.30059,-9.13647 10.48477,-15.09553 18.65281,-13.58149 8.12305,1.5057 12.3403,6.04795 14.7956,15.93578 1.45536,5.86094 4.20881,8.52794 8.80435,8.52794 5.43606,0 7.80138,-2.91532 7.8077,-9.62316 0.0104,-11.08242 -6.90973,-22.39092 -17.49985,-28.59714 -4.02836,-2.36077 -6.27895,-2.86126 -14.47927,-3.21992 -9.21476,-0.40303 -10.04954,-0.25727 -16.38205,2.86021 -5.72896,2.82037 -15.10478,11.19894 -15.10478,13.49821 0,0.34859 -5.03265,0.63953 -11.18366,0.64656 -9.54351,0.0109 -11.89966,0.36357 -16.06579,2.40477 -10.39711,5.09407 -18.02657,15.82601 -19.17198,26.96818 -0.52819,5.13804 -0.29427,6.39108 1.65156,8.84681 2.97391,3.7532 9.06228,4.01422 12.13327,0.52017 z m 264.52847,0.6321 c 2.26067,-1.58344 2.40407,-2.25062 1.95645,-9.10299 -0.77381,-11.84626 -7.37053,-21.96517 -17.91154,-27.47507 -4.6848,-2.44879 -6.49846,-2.76516 -16.38963,-2.859 l -11.12192,-0.10551 -4.86373,-5.40963 c -7.44378,-8.27928 -12.6113,-10.85874 -22.82804,-11.39498 -11.23368,-0.58961 -18.33968,1.46116 -24.81599,7.16184 -6.54228,5.75874 -9.71142,11.50915 -11.23299,20.38223 -1.12689,6.57153 -1.07115,7.7037 0.49712,10.09718 3.28521,5.01388 11.26698,4.78117 13.92485,-0.40596 0.7291,-1.42291 1.84192,-4.67684 2.47293,-7.23094 1.49067,-6.03365 7.40129,-12.07693 12.80293,-13.09029 8.69993,-1.63212 17.1076,4.0589 19.90299,13.472 1.71814,5.7856 5.0761,9.98399 7.98539,9.98399 1.06095,0 4.60754,-1.33708 7.8813,-2.97128 8.67413,-4.32998 11.06028,-4.68515 16.13724,-2.40201 6.02292,2.70855 8.57876,5.86744 10.66044,13.17585 2.68641,9.43145 3.05619,9.88323 8.08928,9.88323 2.4274,0 5.51121,-0.7689 6.85292,-1.70866 z"
     id="path3" />
  <path
     style="fill:#aad400;fill-opacity:1;stroke:none;stroke-width:1.04034"
     d="m 250.69705,369.69215 c -2.92362,-5.75411 -5.11126,-10.66642 -4.86145,-10.91624 0.24982,-0.24982 5.07969,-0.32012 10.73304,-0.15624 l 10.27883,0.29798 -5.41738,10.61826 -5.41738,10.61825 z"
     id="path4" />
</svg>
