<?xml version="1.0" encoding="UTF-8" standalone="no"?>
<!-- Created with Inkscape (http://www.inkscape.org/) -->

<svg
   version="1.1"
   id="svg1"
   width="512"
   height="512"
   viewBox="0 0 512 512"
   sodipodi:docname="carrot-outline.svg"
   inkscape:version="1.3 (0e150ed6c4, 2023-07-21)"
   xmlns:inkscape="http://www.inkscape.org/namespaces/inkscape"
   xmlns:sodipodi="http://sodipodi.sourceforge.net/DTD/sodipodi-0.dtd"
   xmlns="http://www.w3.org/2000/svg"
   xmlns:svg="http://www.w3.org/2000/svg">
  <defs
     id="defs1" />
  <sodipodi:namedview
     id="namedview1"
     pagecolor="#ffffff"
     bordercolor="#000000"
     borderopacity="0.25"
     inkscape:showpageshadow="2"
     inkscape:pageopacity="0.0"
     inkscape:pagecheckerboard="0"
     inkscape:deskcolor="#d1d1d1"
     inkscape:zoom="1.1455078"
     inkscape:cx="232.21142"
     inkscape:cy="280.66155"
     inkscape:window-width="1350"
     inkscape:window-height="1237"
     inkscape:window-x="987"
     inkscape:window-y="71"
     inkscape:window-maximized="0"
     inkscape:current-layer="svg1" />
  <path
     style="fill:#000000;stroke:none"
     d="m 244.11233,510.41945 c -17.0869,-4.59524 -31.20025,-19.0869 -34.98176,-35.91945 -0.6178,-2.75 -10.34992,-65.81802 -21.62692,-140.15115 -14.37776,-94.77195 -20.49972,-137.64555 -20.49051,-143.5 0.0156,-9.89333 2.72364,-23.84071 6.35945,-32.75304 6.32436,-15.50268 20.31519,-32.49296 33.37741,-40.53306 L 213,113.71573 V 107.85786 102 h -6.13398 c -8.37015,0 -13.17315,-1.63797 -18.467,-6.297804 C 182.10076,90.158248 179.66574,84.994451 179.57989,77 c -0.0526,-4.902921 0.50813,-7.676217 2.28233,-11.28712 l 2.35213,-4.787119 -2.26618,-5.212881 C 180.26149,51.833016 179.68023,48.582132 179.67512,43 c -0.009,-10.035092 2.88183,-17.461711 9.29326,-23.873145 6.66632,-6.666315 12.69394,-9.3226127 22.5171,-9.9230116 6.8558,-0.4190311 8.48268,-0.8867646 11.5,-3.3062976 8.99853,-7.2157357 21.73998,-7.6350401 30.82849,-1.0145246 2.57927,1.8788693 2.63732,1.8752277 5.64605,-0.3542146 8.54712,-6.3333391 19.8509,-5.9911284 28.84368,0.8732135 3.89429,2.9725822 5.18945,3.3695568 12.34482,3.7837747 9.84205,0.5697479 15.96782,3.2906932 22.52531,10.0053012 9.01052,9.22641 11.99253,24.98879 6.90939,36.521784 l -2.29757,5.212881 2.35213,4.787119 c 1.7742,3.610903 2.33498,6.384199 2.28233,11.28712 -0.0859,7.994451 -2.52087,13.158248 -8.81913,18.702196 C 318.30713,100.36203 313.50413,102 305.13398,102 H 299 l 0.009,5.75 0.009,5.75 6.24126,3.98769 c 3.43269,2.19323 9.63357,7.36823 13.77974,11.5 17.71016,17.64865 26.8709,41.19159 25.68591,66.01231 -0.46766,9.7955 -40.50155,275.55348 -42.55731,282.50921 -1.84062,6.22783 -6.57971,14.07186 -11.8226,19.56847 -11.85084,12.42438 -30.08116,17.68532 -46.23216,13.34177 z m 26.71891,-18.92412 c 2.91855,-1.58847 6.69248,-4.46672 8.3865,-6.3961 6.55818,-7.46936 7.01126,-9.50462 17.4971,-78.59923 l 9.86445,-65 -22.63871,-0.5 c -24.0654,-0.53151 -25.13714,-0.75659 -27.00578,-5.67149 -1.08158,-2.84477 0.64052,-8.03086 3.10464,-9.34962 C 261.0836,325.42007 271.94726,325 285.3548,325 h 23.48629 l 0.57228,-2.75 C 309.95122,319.66546 326,214.38236 326,213.43852 326,213.19733 317.69617,213 307.54705,213 c -19.6599,0 -22.56722,-0.5541 -24.43678,-4.65732 -1.70901,-3.75088 -1.33766,-6.2062 1.34428,-8.88813 C 286.90232,197.00677 286.96609,197 307.58563,197 h 20.67653 l -0.4874,-10.25 C 326.32055,156.16812 304.27055,129.32409 274,121.2837 c -8.8755,-2.35749 -27.21136,-2.34385 -36,0.0268 -21.3513,5.75926 -41.27485,23.09065 -48.9612,42.59108 -6.5292,16.56471 -6.66842,26.10974 -0.93121,63.84684 L 192.4027,256 h 18.64943 C 234.52425,256 238,257.07731 238,264.35247 238,272.03925 235.22297,273 213.00435,273 h -18.09498 l 0.56251,3.25 C 196.60808,282.81459 213,391.08781 213,392.02811 213,392.61275 218.79564,393 227.54545,393 c 14.10999,0 14.61894,0.0735 17,2.45455 3.24735,3.24734 3.24735,7.84356 0,11.0909 -2.35518,2.35519 -2.9826,2.45455 -15.5,2.45455 C 220.97756,409 216,409.38321 216,410.00434 c 0,4.21839 9.32733,61.38943 10.55074,64.66981 3.27834,8.79036 10.15726,15.59411 19.15194,18.94266 2.46207,0.91658 6.61471,1.29991 11.80971,1.09017 6.56172,-0.26494 8.97313,-0.84641 13.31885,-3.21165 z M 239.50037,104.51736 c 9.02303,-1.91122 23.22615,-1.91873 33.16166,-0.0175 4.31088,0.8249 8.11822,1.4999 8.46074,1.5 0.34252,9e-5 0.83715,-2.23086 1.09916,-4.95767 0.53993,-5.619172 4.11219,-11.129338 8.7801,-13.543211 C 292.77913,86.579976 296.64756,86 301,86 c 14.42347,0 19.37821,-7.294891 11.07383,-16.304073 -5.27999,-5.728123 -5.82783,-8.349075 -2.65897,-12.720962 1.38531,-1.911231 3.32119,-4.580174 4.30194,-5.930986 1.24928,-1.720647 1.7832,-4.288997 1.7832,-8.577842 0,-5.210281 -0.43055,-6.686302 -2.89153,-9.912816 -1.63238,-2.140153 -4.89236,-4.676054 -7.48622,-5.823444 -4.08956,-1.809006 -5.20748,-1.905879 -10.16867,-0.881163 C 286.69054,27.555418 286.23283,27.429173 281,22 c -5.7523,-5.968131 -7.83412,-6.239448 -15.34601,-2 -7.08655,3.999406 -12.22143,3.999406 -19.30798,0 -7.51189,-4.239448 -9.59371,-3.968131 -15.34601,2 -5.23283,5.429173 -5.69054,5.555418 -13.95358,3.848714 -4.96119,-1.024716 -6.07911,-0.927843 -10.16867,0.881163 -2.59386,1.14739 -5.85384,3.683291 -7.48622,5.823444 -2.46098,3.226514 -2.89153,4.702535 -2.89153,9.912816 0,4.288845 0.53392,6.857195 1.7832,8.577842 0.98075,1.350812 2.89325,3.985068 4.25,5.853904 1.35674,1.868836 2.4668,4.216315 2.4668,5.216621 0,1.000305 -2.025,4.098778 -4.5,6.885496 -8.64145,9.729808 -4.37237,17 9.98246,17 3.61998,0 8.083,0.627253 9.91784,1.393895 4.92597,2.058204 8.80683,7.70634 9.37777,13.648265 0.26201,2.72681 0.9818,4.95784 1.59953,4.95784 0.61773,0 4.27298,-0.66719 8.12277,-1.48264 z"
     id="path1" />
</svg>
