<?xml version="1.0" encoding="UTF-8" standalone="no"?>
<!-- Created with Inkscape (http://www.inkscape.org/) -->

<svg
   version="1.1"
   id="svg1"
   width="512"
   height="512"
   viewBox="0 0 512 512"
   sodipodi:docname="cauliflower-filled.svg"
   inkscape:version="1.3 (0e150ed6c4, 2023-07-21)"
   xmlns:inkscape="http://www.inkscape.org/namespaces/inkscape"
   xmlns:sodipodi="http://sodipodi.sourceforge.net/DTD/sodipodi-0.dtd"
   xmlns="http://www.w3.org/2000/svg"
   xmlns:svg="http://www.w3.org/2000/svg">
  <defs
     id="defs1" />
  <sodipodi:namedview
     id="namedview1"
     pagecolor="#ffffff"
     bordercolor="#000000"
     borderopacity="0.25"
     inkscape:showpageshadow="2"
     inkscape:pageopacity="0.0"
     inkscape:pagecheckerboard="0"
     inkscape:deskcolor="#d1d1d1"
     inkscape:zoom="0.96122328"
     inkscape:cx="187.26138"
     inkscape:cy="283.49293"
     inkscape:window-width="1350"
     inkscape:window-height="1237"
     inkscape:window-x="1032"
     inkscape:window-y="102"
     inkscape:window-maximized="0"
     inkscape:current-layer="svg1" />
  <path
     style="fill:#aad400;fill-opacity:1;stroke:none;stroke-width:1.04034"
     d="m 236.73768,322.85894 c -9.08976,-9.81778 -14.53024,-17.15285 -23.64339,-31.87688 -16.68278,-26.95425 -36.37667,-40.06029 -60.16416,-40.0385 -9.98058,0.009 -21.5035,2.11271 -26.92206,4.91476 -2.86784,1.48301 -3.0048,1.41097 -9.0618,-4.76635 -15.1688,-15.47013 -34.905241,-24.8178 -52.399663,-24.8178 -3.823024,0 -3.948978,-0.12012 -4.509739,-4.30091 -1.139661,-8.4968 2.225989,-21.65213 8.106758,-31.68691 5.596763,-9.55015 15.693859,-16.91668 30.575909,-22.30724 7.941555,-2.87659 13.082225,-7.60265 14.085255,-12.94927 0.39434,-2.10201 0.15129,-8.14568 -0.54012,-13.43039 -2.44346,-18.67642 2.04107,-32.8924 14.23291,-45.118358 13.46825,-13.505954 30.46229,-17.860119 49.35344,-12.645195 11.09714,3.063379 20.18504,3.258369 24.23097,0.519898 1.89035,-1.279477 4.99375,-6.088461 8.7065,-13.491463 4.35224,-8.678119 7.21746,-12.916164 11.66628,-17.255982 17.13407,-16.714278 43.16027,-19.37518 63.14836,-6.456249 8.4568,5.465893 13.13958,11.225542 19.67668,24.201614 3.51962,6.986403 6.62273,11.740953 8.48597,13.00208 4.04594,2.738471 13.13384,2.543481 24.23098,-0.519898 18.90565,-5.218928 35.85853,-0.867894 49.40694,12.680516 12.34032,12.340317 16.65469,26.026147 14.27964,45.297117 -1.96172,15.91724 1.00215,21.97905 12.58362,25.73644 18.67956,6.06022 32.36771,19.00348 37.34902,35.31653 1.9107,6.25728 2.92982,14.66862 2.30036,18.98622 -0.63875,4.38138 -0.68358,4.42162 -4.94791,4.43951 -6.29378,0.0264 -17.00824,2.5127 -24.60203,5.70888 -9.59983,4.04052 -17.15879,9.17469 -25.71723,17.46756 l -7.52332,7.28986 -7.56162,-2.24121 c -9.56913,-2.83622 -27.63094,-3.11387 -36.24055,-0.55709 -15.06178,4.47287 -29.11316,14.28444 -39.94953,27.89531 -10.35139,13.00171 -17.79999,19.58895 -32.32925,28.59068 -6.84171,4.23884 -16.09648,10.44188 -20.56615,13.78451 -4.46967,3.34265 -8.2881,6.07754 -8.4854,6.07754 -0.1973,0 -3.46236,-3.3522 -7.25567,-7.44933 z m 0.71854,-110.16208 c 1.00044,-1.97357 1.8274,-4.52462 1.83771,-5.669 0.0321,-3.56817 4.50144,-10.09922 8.291,-12.11571 4.90414,-2.60956 12.84082,-2.53111 17.21151,0.17011 4.43361,2.74012 6.48366,6.00106 7.8873,12.54601 1.4656,6.83386 3.88564,9.28283 9.17317,9.28283 6.01455,0 8.80892,-3.82831 8.075,-11.06284 -1.13008,-11.13953 -9.09742,-22.57975 -19.19792,-27.56609 -4.11095,-2.02946 -6.56357,-2.4341 -14.8101,-2.4434 -8.69918,-0.01 -10.51143,0.31986 -15.12672,2.75169 -6.47945,3.41409 -13.40756,10.78308 -16.25106,17.28526 -2.8701,6.56298 -3.12027,15.88486 -0.50406,18.78243 3.92459,4.34665 10.72023,3.35306 13.41417,-1.96129 z m -77.2437,1.09322 c 2.14042,-2.14043 2.78655,-7.6798 1.18948,-10.19771 -0.47263,-0.74514 -3.11967,-2.85183 -5.8823,-4.68153 -7.43584,-4.92478 -9.35179,-8.04082 -9.35179,-15.20944 0,-7.53352 1.82061,-10.98 7.58455,-14.35789 4.1488,-2.43136 5.20979,-2.60389 12.318,-2.00303 7.26783,0.61436 7.94196,0.4937 10.27463,-1.83897 1.67716,-1.67716 2.72955,-4.25348 3.20666,-7.85008 1.18821,-8.95726 6.92055,-15.31842 14.75055,-16.36864 6.23636,-0.83647 13.01476,2.71271 16.48276,8.63041 3.02313,5.15859 7.04947,8.7388 9.82771,8.7388 3.3954,0 8.26225,-5.06987 8.26225,-8.60691 0,-5.05195 -3.80967,-11.66971 -9.94704,-17.27891 -6.91622,-6.32103 -13.80542,-8.85782 -23.70225,-8.72782 -12.87119,0.16908 -25.98083,9.03171 -30.37346,20.53367 -1.64095,4.29675 -1.92133,4.50219 -7.07548,5.18415 -11.00651,1.45632 -21.21737,8.67015 -26.52184,18.73729 -2.42771,4.60746 -2.76309,6.44228 -2.76496,15.12672 -0.002,8.30963 0.37729,10.59469 2.38083,14.35157 7.20667,13.5134 23.08597,22.07404 29.3417,15.81832 z m 206.58867,-0.96886 c 19.22925,-11.02941 22.85717,-36.50775 7.5092,-52.73597 -5.60912,-5.93082 -12.11038,-9.24889 -20.23302,-10.32639 -5.20449,-0.6904 -5.30648,-0.77445 -7.57211,-6.24071 -2.73777,-6.60536 -9.37049,-13.09247 -17.0349,-16.66096 -7.63269,-3.55371 -19.79587,-3.56548 -27.39649,-0.0265 -7.31238,3.40476 -13.74817,9.47059 -16.65335,15.69605 -3.32578,7.12675 -3.15673,10.14206 0.75308,13.43196 5.43405,4.57244 8.8601,3.17692 15.03338,-6.12351 2.87218,-4.32715 4.79271,-6.02641 8.34389,-7.38262 10.8105,-4.12857 21.30833,2.88705 22.96088,15.34457 0.37476,2.82506 1.51032,6.16018 2.52347,7.41136 1.66423,2.05524 2.65776,2.24544 10.28977,1.96994 10.08811,-0.36415 15.13577,1.83185 18.67172,8.12324 4.82762,8.58959 2.02129,17.28378 -7.62061,23.60918 -6.04236,3.96397 -6.78473,4.99125 -6.80559,9.41745 -0.0365,7.75534 7.92392,9.83104 17.23068,4.49293 z"
     id="path2" />
  <path
     style="fill:#aad400;fill-opacity:1;stroke:none;stroke-width:1.04034"
     d="m 239.7986,473.23226 c -8.56837,-0.69316 -9.51682,-1.1904 -13.38406,-7.01663 -2.0416,-3.07581 -6.3036,-7.96095 -9.47109,-10.85586 -10.87057,-9.93508 -23.24561,-13.91744 -50.49762,-16.25042 -27.6562,-2.36758 -41.49887,-6.36008 -56.89193,-16.40878 C 75.835275,400.68882 56.276685,361.33046 51.491717,305.86026 51.14621,301.85494 50.384909,295.80147 49.799937,292.40808 47.70056,280.22975 38.652521,266.71288 27.894557,259.68363 l -6.338145,-4.14135 5.036197,-3.19386 c 9.335128,-5.92016 15.357519,-7.56796 29.737749,-8.13658 11.339432,-0.44839 14.140867,-0.2204 20.28665,1.65101 12.934253,3.9385 23.359362,11.56641 33.293082,24.36008 2.66031,3.42623 5.76671,6.25901 7.2801,6.63885 1.83641,0.46091 5.99366,-0.67779 13.66052,-3.74171 l 11.02077,-4.40425 11.51128,0.41374 c 10.03853,0.36081 12.3099,0.79596 17.75334,3.40125 8.36629,4.00421 20.32772,16.16224 26.78968,27.23003 7.25624,12.42817 16.13762,24.47426 25.64637,34.78496 l 8.40402,9.11279 -3.63727,7.65907 c -3.59046,7.56049 -6.74626,20.45301 -6.74626,27.56076 0,4.3056 4.94216,9.68895 8.8949,9.68895 4.89324,0 7.5232,-3.92753 9.14971,-13.66401 3.15918,-18.91123 11.37884,-29.13178 36.49814,-45.38278 23.27138,-15.05548 24.42845,-15.95163 33.69487,-26.09675 19.38,-21.21772 24.19886,-25.5956 32.90549,-29.8943 7.9709,-3.93545 8.64249,-4.08121 18.8047,-4.08121 9.82814,0 11.21192,0.2719 20.52672,4.03329 6.85783,2.76925 10.80957,3.82713 12.60915,3.37546 1.50955,-0.37887 4.60235,-3.2327 7.29324,-6.72971 9.96577,-12.95128 21.6274,-21.16259 34.97366,-24.62603 5.17821,-1.34378 9.68656,-1.64468 19.24631,-1.28453 13.6447,0.51403 19.74374,2.21985 29.05892,8.12736 l 5.02948,3.1896 -2.47942,1.65597 c -14.4297,9.6374 -21.62325,18.9522 -24.73209,32.02507 -1.08857,4.5775 -2.72636,15.62498 -3.63955,24.54996 -6.91545,67.58807 -40.23763,112.14084 -91.66632,122.56068 -5.72188,1.15929 -17.19164,2.57495 -25.48836,3.14588 -23.53484,1.61956 -36.83284,6.1598 -47.81126,16.32388 -3.35852,3.10939 -7.57349,7.9397 -9.36659,10.73399 -1.7931,2.79431 -4.03171,5.37662 -4.97471,5.73848 -2.09729,0.80481 -33.1218,1.547 -40.32103,0.96459 z m -3.19394,-45.11681 c 1.3874,-1.3874 2.15142,-3.90114 2.45303,-8.07083 0.84654,-11.7033 -4.06729,-16.9802 -12.52227,-13.44749 -3.92005,1.63791 -4.94278,4.27429 -4.94278,12.74139 0,5.48893 1.58244,9.22059 4.54013,10.70634 2.9596,1.4867 7.98094,0.56153 10.47189,-1.92941 z"
     id="path3" />
</svg>
