<?xml version="1.0" encoding="UTF-8" standalone="no"?>
<!-- Created with Inkscape (http://www.inkscape.org/) -->

<svg
   version="1.1"
   id="svg1"
   width="512"
   height="512"
   viewBox="0 0 512 512"
   sodipodi:docname="cherries-filled.svg"
   inkscape:version="1.3 (0e150ed6c4, 2023-07-21)"
   xmlns:inkscape="http://www.inkscape.org/namespaces/inkscape"
   xmlns:sodipodi="http://sodipodi.sourceforge.net/DTD/sodipodi-0.dtd"
   xmlns="http://www.w3.org/2000/svg"
   xmlns:svg="http://www.w3.org/2000/svg">
  <defs
     id="defs1" />
  <sodipodi:namedview
     id="namedview1"
     pagecolor="#ffffff"
     bordercolor="#000000"
     borderopacity="0.25"
     inkscape:showpageshadow="2"
     inkscape:pageopacity="0.0"
     inkscape:pagecheckerboard="0"
     inkscape:deskcolor="#d1d1d1"
     inkscape:zoom="0.96122328"
     inkscape:cx="249.68184"
     inkscape:cy="300.13838"
     inkscape:window-width="1350"
     inkscape:window-height="1237"
     inkscape:window-x="947"
     inkscape:window-y="75"
     inkscape:window-maximized="0"
     inkscape:current-layer="svg1" />
  <path
     style="fill:#aad400;fill-opacity:1;stroke-width:1.04034"
     d="m 342.73869,493.55509 c -14.90034,-1.74093 -34.27312,-9.52026 -48.2077,-19.35826 -20.27579,-14.31498 -36.58492,-38.08358 -43.39879,-63.24849 -2.20573,-8.14619 -2.54374,-11.65872 -2.5757,-26.76599 -0.0311,-14.71049 0.31675,-18.71706 2.25816,-26.00853 11.56184,-43.42342 46.06232,-75.85078 88.33651,-83.02838 9.62635,-1.63443 29.43143,-1.65603 38.49262,-0.042 15.50552,2.76197 35.00509,11.2193 46.51931,20.1763 8.44975,6.57313 21.1244,19.81428 26.20318,27.37434 6.24367,9.29408 12.34261,22.94023 15.41432,34.48892 2.31809,8.71535 2.69356,12.30439 2.74329,26.22264 0.0471,13.18322 -0.35152,17.76094 -2.1848,25.09023 -5.01309,20.04185 -15.77166,39.05279 -30.08863,53.16816 -10.96606,10.81164 -17.63918,15.62844 -29.9973,21.65269 -13.02259,6.34817 -22.84497,9.06742 -37.45227,10.3684 -12.82581,1.1423 -15.59651,1.13273 -26.0622,-0.0901 z"
     id="path2" />
  <path
     style="fill:#aad400;fill-opacity:1;stroke-width:1.04034"
     d="M 140.96621,442.5318 C 106.3739,439.8757 70.809866,414.66202 54.277842,381.07273 34.772089,341.4415 40.873267,294.94895 70.072108,260.71633 83.85821,244.55355 105.3685,231.14483 126.40143,225.60271 c 9.13269,-2.40644 12.43657,-2.74402 27.04887,-2.76375 14.66854,-0.0198 17.84468,0.29791 26.74281,2.67512 24.69666,6.59794 46.07925,20.7224 60.55742,40.00176 8.93188,11.89386 18.29175,30.03136 18.29386,35.44978 2.8e-4,0.74107 -2.27804,4.7241 -5.06296,8.85116 -10.39123,15.39915 -18.6422,35.15999 -21.48326,51.45184 -1.63281,9.36325 -1.97447,34.11749 -0.60387,43.75282 l 0.7867,5.5305 -6.84462,5.73466 c -24.00417,20.11157 -52.00021,28.76905 -84.87017,26.2452 z"
     id="path3" />
  <path
     style="fill:#aad400;fill-opacity:1;stroke-width:1.04034"
     d="m 204.42701,171.76318 c -22.54446,-3.70155 -45.65871,-11.73233 -72.56379,-25.21147 -8.99927,-4.50853 -11.18366,-6.03862 -11.18366,-7.83379 0,-3.3294 8.75006,-24.6801 15.835,-38.63842 22.11122,-43.562179 50.7462,-70.635568 83.92376,-79.347053 26.79937,-7.036752 66.72929,-1.204357 105.62439,15.428111 11.16252,4.773354 13.56021,7.013594 7.50656,7.013594 -13.70212,0 -58.86057,8.55277 -76.78412,14.542505 -29.05853,9.710844 -62.25223,26.622619 -73.94522,37.674156 -4.55568,4.305767 -5.1168,8.377917 -1.74509,12.664357 3.74602,4.76229 7.32982,3.83204 21.88754,-5.68132 27.06127,-17.68435 53.00671,-28.087974 88.90357,-35.648638 22.47387,-4.73349 58.70897,-8.478584 58.70897,-6.067891 0,2.457406 -10.94647,26.608381 -17.01187,37.532972 -21.73033,39.139157 -49.06236,63.628747 -80.41172,72.049207 -10.34666,2.77912 -36.17982,3.58663 -48.74432,1.52368 z"
     id="path4" />
  <path
     style="fill:#aad400;fill-opacity:1;stroke-width:1.04034"
     d="m 353.08107,247.99505 c 0.38754,-4.64694 2.13101,-16.92779 3.87436,-27.29077 10.26194,-60.99958 31.71068,-115.81087 60.50919,-154.628514 4.46302,-6.015731 8.39014,-12.02556 8.72693,-13.355177 0.79776,-3.14952 -0.97358,-6.92058 -4.26317,-9.076003 -2.48396,-1.627551 -3.14552,-1.571486 -12.27138,1.039957 -5.30524,1.518137 -16.16351,5.07643 -24.12951,7.907317 -7.96599,2.830886 -14.55866,5.147066 -14.65036,5.147066 -0.0917,0 0.0404,-2.498268 0.29365,-5.551707 0.32439,-3.911716 -0.0571,-6.552493 -1.29155,-8.939577 -0.96356,-1.863329 -1.55783,-3.581977 -1.32059,-3.819217 0.97371,-0.973706 22.90397,-8.829132 34.05333,-12.197912 10.82771,-3.271592 29.73201,-7.782916 39.76987,-9.49068 3.49796,-0.595118 4.32126,-0.251299 8.39919,3.507612 2.48661,2.292071 5.38321,5.76825 6.43691,7.724842 l 1.91581,3.557439 -6.93201,9.444413 c -20.45161,27.863995 -43.47858,69.173621 -56.28948,100.981471 -6.96025,17.28143 -15.49526,44.4303 -19.71239,62.7028 -3.50337,15.17986 -7.90148,41.81506 -7.91351,47.92471 l -0.006,2.86094 h -7.95214 -7.95213 z"
     id="path5" />
  <path
     style="fill:#aad400;fill-opacity:1;stroke-width:1.04034"
     d="m 185.1807,208.94094 c -3.14703,-0.84649 -6.15019,-1.95789 -6.67367,-2.4698 -0.88904,-0.86936 3.19427,-7.94571 9.35538,-16.21283 l 2.41843,-3.24512 8.48021,1.35783 c 4.66412,0.74681 8.61565,1.50488 8.78118,1.68461 0.67353,0.73128 -14.2325,20.6063 -15.38893,20.51889 -0.6879,-0.052 -3.82557,-0.7871 -6.9726,-1.63358 z"
     id="path6" />
</svg>
