<?xml version="1.0" encoding="UTF-8" standalone="no"?>
<!-- Created with Inkscape (http://www.inkscape.org/) -->

<svg
   version="1.1"
   id="svg1"
   width="512"
   height="512"
   viewBox="0 0 512 512"
   sodipodi:docname="cherries-outline-white.svg"
   inkscape:version="1.3 (0e150ed6c4, 2023-07-21)"
   xmlns:inkscape="http://www.inkscape.org/namespaces/inkscape"
   xmlns:sodipodi="http://sodipodi.sourceforge.net/DTD/sodipodi-0.dtd"
   xmlns="http://www.w3.org/2000/svg"
   xmlns:svg="http://www.w3.org/2000/svg">
  <defs
     id="defs1" />
  <sodipodi:namedview
     id="namedview1"
     pagecolor="#ffffff"
     bordercolor="#000000"
     borderopacity="0.25"
     inkscape:showpageshadow="2"
     inkscape:pageopacity="0.0"
     inkscape:pagecheckerboard="0"
     inkscape:deskcolor="#d1d1d1"
     inkscape:zoom="0.96122328"
     inkscape:cx="249.68184"
     inkscape:cy="300.13838"
     inkscape:window-width="1350"
     inkscape:window-height="1237"
     inkscape:window-x="947"
     inkscape:window-y="75"
     inkscape:window-maximized="0"
     inkscape:current-layer="svg1" />
  <path
     style="fill:#ffffff;fill-opacity:1"
     d="m 347,511.43252 c -1.375,-0.24135 -5.875,-0.93195 -10,-1.53466 C 322.29978,507.75 300.63121,499.25475 288,490.68723 268.18848,477.24943 253.73966,460.55103 243.27598,439 c -2.53689,-5.225 -4.70399,-9.62968 -4.81578,-9.78819 -0.11178,-0.1585 -3.97355,2.55263 -8.58172,6.02473 -40.6315,30.6145 -96.19112,33.76968 -140.702775,7.99037 C 49.638616,420.32867 26,379.13281 26,333.12837 c 0,-22.29899 4.206506,-39.99823 14.042583,-59.08538 20.765115,-40.29523 61.293087,-66.412 106.699247,-68.75845 l 11.24183,-0.58094 2.67663,-4.6018 c 1.47214,-2.53099 4.61871,-7.5114 6.99238,-11.06759 2.37366,-3.55618 3.98536,-6.76337 3.58154,-7.12708 -0.40381,-0.36371 -3.20921,-1.44634 -6.23421,-2.40585 -15.86312,-5.03168 -49.6895,-20.8448 -56.06442,-26.20894 -7.62633,-6.41713 -7.92827,-13.08784 -1.37702,-30.42245 C 133.43681,54.396018 174.08396,11.706048 222.15041,2.5189592 256.24694,-3.998015 296.14636,3.2685943 341.1973,24.200159 l 8.74373,4.062512 8.27949,-3.524464 c 22.33801,-9.508988 48.24208,-17.4988191 72.05909,-22.2258485 12.04761,-2.39112435 14.37292,-2.58691504 18.5,-1.55769547 10.30766,2.57054817 19.53877,10.85276997 25.42685,22.81314397 4.87553,9.903611 4.5322,12.027406 -3.67486,22.732193 -39.22974,51.168899 -71.30336,122.26194 -81.43256,180.5 -2.28132,13.11653 -4.54015,30.93304 -3.97734,31.37135 0.20806,0.16205 5.10126,1.77111 10.87376,3.5757 43.69362,13.65943 74.36835,46.18593 86.81226,92.05295 2.37709,8.76172 2.57739,11.09313 2.57739,30 0,18.90687 -0.2003,21.23828 -2.57739,30 -5.45161,20.09409 -12.65625,34.65151 -24.74496,49.9987 -18.04722,22.9118 -45.66673,39.64915 -75.08756,45.50285 -7.46381,1.48503 -31.24402,2.76144 -35.9752,1.93097 z m 39.20581,-19.73604 c 19.2671,-5.07961 36.1665,-14.82521 50.41679,-29.07451 40.03586,-40.03309 44.15625,-101.51154 9.82686,-146.62197 -5.5351,-7.27337 -17.66992,-18.71702 -25.44984,-24.00026 -8.91903,-6.0568 -23.03688,-12.50049 -34.03463,-15.53415 -18.11654,-4.99733 -43.16775,-4.49905 -61.44133,1.2221 -39.28826,12.30047 -67.74988,44.1508 -76.68233,85.81231 -1.6643,7.76242 -1.6643,33.23758 0,41 9.93093,46.31848 44.28591,80.51132 89.50024,89.07783 11.74621,2.22549 35.88581,1.27666 47.86424,-1.88135 z M 180.07377,440.69669 c 5.26558,-1.37065 12.93104,-3.88972 17.03437,-5.59794 9.12748,-3.79977 23.53979,-13.02092 30.74483,-19.67085 l 5.35297,-4.94056 -1.24174,-9.86519 c -1.49136,-11.84839 -0.79855,-32.04026 1.45686,-42.45978 3.64877,-16.85656 12.42215,-36.56457 21.78288,-48.93181 2.63783,-3.48506 4.78223,-7.10014 4.76532,-8.03352 -0.0169,-0.93337 -1.75167,-5.82959 -3.85502,-10.88049 -15.98097,-38.37602 -51.86091,-64.77945 -92.71364,-68.22636 -84.046301,-7.09132 -145.085188,77.37896 -111.914902,154.8764 7.133666,16.66675 21.000905,34.27595 35.390109,44.93984 13.446483,9.96524 31.446073,17.7587 47.586023,20.6038 12.32312,2.17229 33.54056,1.32867 45.61194,-1.81354 z M 282.17215,281.72018 C 295.46413,271.69704 315.86959,262.19915 330.5,259.22557 l 4,-0.81298 0.72281,-6.9563 C 342.07824,185.47972 360.95092,123.41283 387.81363,78.5 391.10322,73 393.64695,68.34355 393.46635,68.152334 392.97681,67.633996 382.80628,71.548873 371.5,76.6077 l -10,4.474352 -6.6762,13.708974 C 336.35886,132.70712 311.73878,161.30433 284.39678,176.59485 272.00055,183.52722 249.84594,190 238.51453,190 c -9.21097,0 -9.84335,0.42096 -17.82288,11.86418 -12.14819,17.42139 -11.45816,15.80735 -7.64046,17.87165 24.51461,13.25547 45.36939,35.26981 56.52748,59.67052 2.15673,4.71638 3.9988,8.57938 4.09348,8.58444 0.0947,0.005 3.91968,-2.81671 8.5,-6.27061 z M 369.69276,245 c 3.73847,-34.08079 15.14385,-75.53971 30.49625,-110.85487 13.82773,-31.80795 34.66361,-67.997657 54.1825,-94.109269 l 5.57957,-7.46414 -2.82932,-5.03586 c -1.55613,-2.769724 -4.69799,-6.36063 -6.98191,-7.979793 l -4.15258,-2.943932 -7.62886,1.281875 c -17.68397,2.971431 -41.77994,9.780028 -60.98629,17.232386 l -10.12788,3.929774 1.95396,3.721914 c 1.55923,2.970013 1.84576,4.97837 1.41836,9.941368 l -0.5356,6.219453 5.20952,-2.067419 c 15.33248,-6.084759 39.73394,-13.863406 43.50497,-13.868429 3.3525,-0.0045 7.20455,4.28503 7.20455,8.022698 0,2.345681 -1.66978,5.209031 -6.75,11.574955 -27.23083,34.122407 -50.42353,90.211119 -61.20093,148.006999 -2.65379,14.23142 -6.01321,37.85669 -6.03343,42.43032 l -0.0156,3.53803 8.21564,-0.038 8.21564,-0.038 z m -168.20059,-44.58829 7.46129,-10.89074 -9.69817,-1.7112 c -5.33399,-0.94117 -9.93602,-1.37062 -10.22673,-0.95435 -4.39397,6.29183 -12.02496,18.21361 -12.24315,19.12728 -0.17588,0.73649 2.97658,2.03546 8.21459,3.38481 4.675,1.20432 8.61945,2.13236 8.76544,2.0623 0.146,-0.0701 3.62302,-5.02819 7.72673,-11.0181 z M 242.6364,172.91775 C 278.31479,167.95534 308.59486,143.82177 332.87063,101 338.89216,90.378194 345.91895,75.362873 349.8861,64.640195 l 2.168,-5.859806 -10.27705,0.666222 C 283.35952,63.233598 232.60182,79.375498 197.6079,105.2951 c -7.8712,5.83011 -12.13814,6.6191 -15.83012,2.92712 -3.51789,-3.51789 -2.97317,-8.849859 1.27222,-12.45298 16.8022,-14.260263 52.04846,-31.471306 82.45,-40.261014 17.13518,-4.954133 53.15068,-11.30758 65.80122,-11.607906 2.30933,-0.05482 5.32378,-0.425837 6.69878,-0.824474 2.32067,-0.672802 2.0696,-0.943516 -3.5,-3.773904 -11.05108,-5.615994 -28.93198,-12.214306 -42.57645,-15.711335 -52.5171,-13.459941 -87.3608,-6.457999 -118.78954,23.871105 -20.43908,19.723956 -38.43556,49.283368 -50.80845,83.453428 -2.68,7.40131 -3.13289,9.59936 -2.11738,10.27643 0.7105,0.47371 8.49182,4.42349 17.29182,8.77728 38.85478,19.22338 75.07674,27.12981 105.1364,22.9489 z"
     id="path1" />
</svg>
