<?xml version="1.0" encoding="UTF-8" standalone="no"?>
<!-- Created with Inkscape (http://www.inkscape.org/) -->

<svg
   version="1.1"
   id="svg1"
   width="512"
   height="512"
   viewBox="0 0 512 512"
   sodipodi:docname="coconut-outline-white.svg"
   inkscape:version="1.3 (0e150ed6c4, 2023-07-21)"
   xmlns:inkscape="http://www.inkscape.org/namespaces/inkscape"
   xmlns:sodipodi="http://sodipodi.sourceforge.net/DTD/sodipodi-0.dtd"
   xmlns="http://www.w3.org/2000/svg"
   xmlns:svg="http://www.w3.org/2000/svg">
  <defs
     id="defs1" />
  <sodipodi:namedview
     id="namedview1"
     pagecolor="#ffffff"
     bordercolor="#000000"
     borderopacity="0.25"
     inkscape:showpageshadow="2"
     inkscape:pageopacity="0.0"
     inkscape:pagecheckerboard="0"
     inkscape:deskcolor="#d1d1d1"
     inkscape:zoom="0.80999634"
     inkscape:cx="223.4578"
     inkscape:cy="394.44623"
     inkscape:window-width="1350"
     inkscape:window-height="1237"
     inkscape:window-x="837"
     inkscape:window-y="64"
     inkscape:window-maximized="0"
     inkscape:current-layer="svg1" />
  <path
     style="fill:#ffffff;fill-opacity:1"
     d="m 323,510.96227 c -27.38184,-3.35652 -54.57747,-13.41142 -76.91614,-28.43779 l -8.41614,-5.66121 -9.58386,0.67244 C 203.68745,479.24746 171.75219,470.90367 141,454.78314 91.025191,428.58597 47.454276,384.34455 23.524655,335.5 -7.1223839,272.94402 -7.6788899,207.39091 21.911671,145.5 55.203352,75.867914 125.37582,18.235826 195.64447,2.8146462 c 14.35707,-3.15080541 38.45395,-3.14129642 54.25548,0.02141 32.93092,6.591186 67.41758,23.5019077 97.60005,47.8587227 12.86689,10.383392 34.82822,32.954193 44.79488,46.038025 26.59541,34.913416 43.01636,72.507066 49.25684,112.767196 2.30821,14.89129 2.31242,43.27215 0.009,57.5 -0.93514,5.775 -1.94147,12.10156 -2.2363,14.05901 l -0.53606,3.55901 12.85605,4.15454 c 29.76149,9.61768 48.96256,22.54326 56.61438,38.11112 3.16741,6.4442 3.2401,6.89333 3.17308,19.6058 -0.23821,45.18783 -22.14613,92.32057 -57.02973,122.69391 -24.52813,21.35676 -51.93999,34.4538 -84.5478,40.39585 -10.19087,1.85707 -36.62212,2.63726 -46.85388,1.38303 z m 48.78181,-18.8143 c 55.45063,-11.97761 98.52287,-50.70569 115.92152,-104.22996 1.96288,-6.03852 3.29974,-11.24827 2.9708,-11.57722 -0.32895,-0.32894 -2.76594,0.79303 -5.41554,2.49327 -12.03423,7.72234 -35.94435,16.54399 -58.40957,21.55024 -46.68487,10.40345 -107.79044,11.40071 -157.84902,2.57615 -28.67026,-5.05413 -60.00335,-15.79882 -73.15437,-25.08596 -1.4599,-1.03097 -2.9224,-1.87449 -3.25,-1.87449 -1.24367,0 -0.48265,3.58433 2.92001,13.75303 18.64376,55.71608 65.66916,94.88374 125.11641,104.21001 9.95804,1.56225 40.5381,0.4771 51.14976,-1.81507 z M 215.87187,456.25 c -24.50403,-26.44231 -39.90578,-60.9068 -43.9881,-98.43212 -1.6434,-15.10637 -0.85805,-23.39655 2.94901,-31.12977 10.77937,-21.89602 46.48875,-39.20229 98.40534,-47.69137 42.75985,-6.99184 95.16353,-6.9586 136.66872,0.0867 6.27376,1.06494 11.64402,1.69907 11.9339,1.40919 1.38461,-1.3846 4.16133,-21.52451 4.75554,-34.49259 C 429.22336,188.66745 403.42068,127.6158 356.90244,81.097561 306.3296,30.524719 243.38055,7.5257898 191.87388,20.80308 120.34921,39.24057 50.421013,106.40575 26.398419,179.74023 15.996604,211.49415 14.162646,246.14524 21.153036,278.84732 35.77246,347.23914 93.552333,415.86646 162.5,446.73039 c 17.64516,7.89874 39.35482,13.64052 53.38684,14.11978 L 220.27368,461 Z M 210.4018,194.58069 c -18.25377,-4.17011 -30.41474,-17.17072 -30.39203,-32.49041 0.0483,-32.56626 51.7314,-45.94293 75.79218,-19.6166 19.60999,21.45646 2.05673,51.20937 -31.30195,53.05704 -4.87079,0.26979 -10.38532,-0.10182 -14.0982,-0.95003 z m 21.60753,-16.65609 c 5.58916,-1.38892 11.72732,-5.95207 14.1503,-10.51944 1.98977,-3.75075 2.09514,-4.61144 1.00855,-8.23816 -3.43362,-11.46041 -22.64423,-17.7023 -37.44219,-12.16567 -12.28106,4.59493 -16.94376,14.26727 -10.89401,22.59863 6.0666,8.35457 19.49661,11.72434 33.17735,8.32464 z M 162.90698,126.95304 C 147.64583,124.65584 135.60483,116.17641 130.31306,104 c -2.25744,-5.194405 -2.0367,-15.575671 0.45077,-21.199006 8.02515,-18.142188 34.48235,-27.45743 56.48466,-19.887528 16.33623,5.62049 26.91118,19.561507 25.46527,33.571033 -2.03597,19.726631 -25.56159,34.118071 -49.80678,30.468541 z M 185,108.0691 c 12.1641,-6.18784 14.93499,-15.214415 7.18638,-23.410683 C 178.46401,70.143257 145,76.826564 145,94.082306 c 0,6.267414 5.30758,11.857004 14.64253,15.420534 5.91138,2.25661 19.62749,1.48109 25.35747,-1.43374 z m 79.5,18.85818 c -13.88986,-2.07523 -28.34642,-12.92737 -32.04171,-24.05284 -2.18611,-6.58179 -1.55629,-15.801854 1.48691,-21.76702 7.35959,-14.425987 27.64278,-23.240184 46.67225,-20.281739 14.49026,2.252752 26.0111,9.741014 31.31421,20.353465 C 324.42826,106.18706 297.771,131.89816 264.5,126.92728 Z m 19.46319,-17.50899 c 3.55678,-1.05625 6.85611,-3.02722 9.9315,-5.93295 4.23419,-4.000585 4.60531,-4.739423 4.60531,-9.168288 0,-6.568339 -2.92882,-10.418239 -10.91766,-14.351131 -5.54953,-2.732024 -7.37846,-3.123816 -14.58234,-3.123816 -7.20388,0 -9.03281,0.391792 -14.58234,3.123816 -13.30159,6.548349 -14.97885,17.165093 -4.03101,25.515419 7.06108,5.38575 19.23926,7.00679 29.57654,3.93695 z M 370,391.9584 c 58.21485,-4.10241 108.06341,-20.49049 121.5,-39.944 2.5384,-3.6751 3,-5.29099 3,-10.50193 0,-5.04941 -0.49695,-6.90948 -2.75939,-10.32824 C 479.21156,312.25154 431.86525,295.90584 375.5,291.05365 c -15.32398,-1.31916 -52.45175,-1.33168 -68,-0.0229 -44.59761,3.75393 -84.27523,14.71027 -105.06018,29.0107 -6.54688,4.50437 -12.99049,12.28209 -14.42752,17.41465 -1.09985,3.92828 -1.04702,5.16451 0.38046,8.90231 11.46155,30.01164 97.22611,51.54639 181.60724,45.60003 z m -53.5,-17.62029 c -26.78271,-2.18069 -43.92927,-4.80724 -61.19201,-9.3735 -18.36589,-4.85808 -27.82988,-8.65604 -31.23578,-12.53515 -7.659,-8.72312 -5.44641,-20.68346 4.78138,-25.84611 14.5129,-7.32563 47.65452,-14.76068 78.14641,-17.5315 14.68013,-1.334 52.92727,-1.33676 68.5,-0.005 25.53676,2.18395 55.03858,8.27951 72.31205,14.94086 8.47049,3.26657 13.53924,7.57938 14.79685,12.59009 0.99325,3.95745 -0.19339,11.37864 -2.28439,14.28639 -6.65784,9.25842 -47.83509,19.87534 -89.71973,23.13285 -11.80251,0.91793 -44.48907,1.12394 -54.10478,0.34102 z m 56,-16.38958 c 13.85272,-1.18999 32.47709,-4.17728 44,-7.05745 14.5091,-3.62657 30.77409,-9.01731 29.8762,-9.90193 -1.50077,-1.4786 -27.28583,-8.83848 -39.8762,-11.38195 -22.34661,-4.51439 -30.09686,-5.10798 -66.5,-5.09315 -36.92113,0.015 -44.04339,0.64538 -68.5,6.06245 -11.78504,2.61035 -33.45688,9.07929 -34.83816,10.39902 -1.07541,1.02748 14.36353,6.13418 30.01078,9.92658 13.89431,3.36755 28.56083,5.79067 42.32738,6.99309 13.89126,1.21332 49.64702,1.24335 63.5,0.0533 z"
     id="path1" />
</svg>
