<?xml version="1.0" encoding="UTF-8" standalone="no"?>
<!-- Created with Inkscape (http://www.inkscape.org/) -->

<svg
   version="1.1"
   id="svg1"
   width="512"
   height="512"
   viewBox="0 0 512 512"
   sodipodi:docname="coconut-filled.svg"
   inkscape:version="1.3 (0e150ed6c4, 2023-07-21)"
   xmlns:inkscape="http://www.inkscape.org/namespaces/inkscape"
   xmlns:sodipodi="http://sodipodi.sourceforge.net/DTD/sodipodi-0.dtd"
   xmlns="http://www.w3.org/2000/svg"
   xmlns:svg="http://www.w3.org/2000/svg">
  <defs
     id="defs1" />
  <sodipodi:namedview
     id="namedview1"
     pagecolor="#ffffff"
     bordercolor="#000000"
     borderopacity="0.25"
     inkscape:showpageshadow="2"
     inkscape:pageopacity="0.0"
     inkscape:pagecheckerboard="0"
     inkscape:deskcolor="#d1d1d1"
     inkscape:zoom="0.80999634"
     inkscape:cx="223.4578"
     inkscape:cy="394.44623"
     inkscape:window-width="1350"
     inkscape:window-height="1237"
     inkscape:window-x="837"
     inkscape:window-y="64"
     inkscape:window-maximized="0"
     inkscape:current-layer="svg1" />
  <path
     style="fill:#aad400;fill-opacity:1;stroke-width:1.23457;stroke:none"
     d="M 201.23548,458.44318 C 127.06099,442.80859 53.239869,374.9338 27.573845,298.77011 20.607944,278.09886 18.053314,262.15767 18.076775,239.50725 18.1013,215.83105 20.368125,201.24154 27.255827,180.43 35.782305,154.66682 47.056411,133.75521 65.188797,110.07059 106.42116,56.212661 171.38711,17.884326 221.4059,17.90628 c 36.93786,0.01621 77.37954,15.916427 113.16351,44.491825 42.8035,34.180857 73.3136,80.694685 85.80476,130.812645 5.91575,23.73562 7.08434,53.71555 3.01969,77.46948 -1.76568,10.31871 -0.73562,9.88868 -17.21919,7.18864 -30.38595,-4.97728 -86.66975,-5.62544 -119.57957,-1.3771 -60.15999,7.76609 -101.58205,26.49702 -112.9389,51.07061 -2.26994,4.91165 -2.65296,7.88964 -2.5684,19.97005 0.26057,37.23018 14.79167,73.64968 43.22439,108.33383 l 3.28919,4.01236 -5.40516,-0.13221 c -2.97284,-0.0727 -7.90517,-0.65918 -10.96074,-1.30323 z m 41.01216,-266.20426 c 7.56746,-3.39238 16.78944,-11.92082 19.64118,-18.16406 7.40524,-16.21211 -3.12779,-36.57206 -22.38157,-43.26277 -17.18691,-5.97246 -38.90374,-1.90276 -50.40791,9.44637 -17.52682,17.29062 -10.13482,43.80562 14.78112,53.0196 9.13451,3.37798 29.75995,2.81934 38.36718,-1.03914 z m -56.97705,-66.3958 c 12.76719,-3.68463 23.06863,-12.83593 26.86592,-23.86639 7.07836,-20.561365 -13.97469,-42.138244 -41.06352,-42.085263 -18.47258,0.03613 -35.33933,9.504307 -40.97993,23.004159 -2.1943,5.251709 -2.17639,16.655082 0.0345,21.946434 3.84093,9.19264 13.84305,17.33583 26.046,21.20524 6.9123,2.19181 21.14091,2.09196 29.09705,-0.20418 z m 108.67728,-2.18495 c 15.80195,-7.51844 24.61999,-22.6883 21.00095,-36.128367 -1.889,-7.015222 -7.96941,-15.680861 -13.63226,-19.42836 -13.81909,-9.145041 -33.99124,-10.747821 -49.22527,-3.911199 -8.83101,3.963124 -17.63986,12.63527 -19.95261,19.642984 -0.86918,2.633624 -1.32603,8.130253 -1.04395,12.560222 0.39746,6.242 1.25862,8.94728 4.14841,13.03203 4.88661,6.90725 11.01492,11.66355 19.81116,15.3758 6.49765,2.74218 8.6383,3.0268 19.6383,2.61103 10.2033,-0.38565 13.54479,-1.03713 19.25527,-3.75414 z"
     id="path2" />
  <path
     style="fill:#aad400;fill-opacity:1;stroke-width:1.23457;stroke:none"
     d="m 312.34709,357.44365 c -21.48286,-1.70442 -44.16343,-6.14858 -64.19782,-12.57929 -4.4136,-1.41669 -8.46802,-2.97812 -9.00982,-3.46983 -1.16591,-1.05813 25.88265,-8.92743 43.16526,-12.55817 10.23055,-2.14924 18.12279,-2.648 50.1541,-3.16959 38.44126,-0.62597 51.58017,0.12493 71.1901,4.06858 14.70595,2.95743 41.0159,10.66971 39.93077,11.70496 -1.46052,1.3934 -24.29212,8.22246 -34.93586,10.44951 -25.64447,5.36575 -67.92908,7.80447 -96.29673,5.55383 z"
     id="path3" />
  <path
     style="fill:#aad400;fill-opacity:1;stroke-width:1.23457;stroke:none"
     d="m 298.77699,390.09727 c -47.3215,-5.38386 -86.39411,-18.32217 -102.14074,-33.82238 -10.33707,-10.1753 -10.99061,-15.9146 -3.04929,-26.77848 12.60299,-17.24113 58.76105,-32.66028 112.48109,-37.57443 21.26749,-1.94549 71.05483,-0.8908 88.99546,1.88527 39.27906,6.0779 69.43177,16.05314 86.78254,28.70975 12.48113,9.10442 15.49232,19.80096 8.34983,29.66088 -11.31506,15.61999 -49.39983,30.15193 -96.36694,36.77057 -19.96254,2.81313 -74.61733,3.4737 -95.05195,1.14882 z m 88.26179,-17.35644 c 37.02849,-4.47478 68.33097,-13.67941 73.98847,-21.75662 1.22996,-1.75602 1.9378,-5.43154 1.9378,-10.06221 0,-6.69112 -0.34621,-7.62213 -4.17836,-11.23632 -6.68714,-6.30678 -27.47368,-12.77846 -58.78488,-18.30208 -13.95049,-2.46101 -19.58091,-2.7224 -58.64224,-2.7224 -47.51757,0 -56.73427,0.95065 -88.41675,9.11963 -24.19319,6.23795 -32.10616,10.99704 -33.86393,20.36676 -0.96735,5.15642 2.4444,13.6623 6.67983,16.65359 7.60578,5.37162 36.01472,13.31351 60.04504,16.78597 30.73156,4.4408 70.30266,4.89176 101.23502,1.15368 z"
     id="path4" />
  <path
     style="fill:#aad400;fill-opacity:1;stroke-width:1.23457;stroke:none"
     d="M 320.37182,493.30015 C 264.9166,484.29097 218.5781,447.34024 198.96413,396.48859 c -8.01294,-20.77455 -8.34024,-19.96172 5.28607,-13.1277 20.88957,10.47677 50.40818,18.63244 83.40542,23.044 23.28592,3.1132 84.82159,3.10721 108.02518,-0.0105 32.68218,-4.39131 60.84121,-12.24752 82.40778,-22.99129 6.6204,-3.29808 12.03709,-5.87793 12.03709,-5.733 0,0.83707 -7.49874,21.89825 -9.2698,26.03544 -6.54348,15.28554 -22.19471,37.1675 -35.18952,49.1984 -20.61716,19.08784 -47.15545,32.76997 -74.34691,38.33042 -10.73155,2.19451 -42.28099,3.47377 -50.94762,2.0658 z"
     id="path5" />
  <path
     style="fill:#aad400;fill-opacity:1;stroke-width:1.23457;stroke:none"
     d="m 207.47203,175.08613 c -8.94011,-4.62579 -12.18599,-10.39903 -9.48334,-16.86737 3.64117,-8.71454 18.1188,-14.5374 29.69482,-11.94316 7.8424,1.75752 12.0922,4.07234 15.99769,8.71375 3.96287,4.7096 4.08075,8.21433 0.4557,13.54861 -4.05768,5.97092 -11.0549,9.13098 -21.29639,9.6178 -7.5293,0.3579 -9.50809,-0.0373 -15.36848,-3.06963 z"
     id="path6" />
  <path
     style="fill:#aad400;fill-opacity:1;stroke-width:1.23457;stroke:none"
     d="m 262.66086,108.59469 c -7.81952,-2.50337 -14.51159,-9.205566 -14.51159,-14.533558 0,-5.286119 2.56959,-8.721873 9.62486,-12.869239 4.96752,-2.920107 7.14628,-3.409626 15.06661,-3.385149 14.65574,0.04529 24.69147,6.781565 24.69147,16.573641 0,11.248035 -19.41573,19.162305 -34.87135,14.214305 z"
     id="path7" />
  <path
     style="fill:#aad400;fill-opacity:1;stroke-width:1.23457;stroke:none"
     d="m 160.35266,108.79108 c -19.50081,-6.96882 -18.86954,-24.12527 1.10132,-29.930957 12.48633,-3.629875 25.97463,0.314215 32.08176,9.380973 3.74831,5.564802 2.90096,9.212597 -3.49932,15.064434 -7.25588,6.63411 -19.92055,8.97454 -29.68376,5.48555 z"
     id="path8" />
</svg>
