<?xml version="1.0" encoding="UTF-8" standalone="no"?>
<!-- Created with Inkscape (http://www.inkscape.org/) -->

<svg
   version="1.1"
   id="svg1"
   width="512"
   height="512"
   viewBox="0 0 512 512"
   sodipodi:docname="corn-filled.svg"
   inkscape:version="1.3 (0e150ed6c4, 2023-07-21)"
   xmlns:inkscape="http://www.inkscape.org/namespaces/inkscape"
   xmlns:sodipodi="http://sodipodi.sourceforge.net/DTD/sodipodi-0.dtd"
   xmlns="http://www.w3.org/2000/svg"
   xmlns:svg="http://www.w3.org/2000/svg">
  <defs
     id="defs1" />
  <sodipodi:namedview
     id="namedview1"
     pagecolor="#ffffff"
     bordercolor="#000000"
     borderopacity="0.25"
     inkscape:showpageshadow="2"
     inkscape:pageopacity="0.0"
     inkscape:pagecheckerboard="0"
     inkscape:deskcolor="#d1d1d1"
     inkscape:zoom="1.1298828"
     inkscape:cx="261.08902"
     inkscape:cy="366.8522"
     inkscape:window-width="1350"
     inkscape:window-height="1237"
     inkscape:window-x="1043"
     inkscape:window-y="85"
     inkscape:window-maximized="0"
     inkscape:current-layer="svg1" />
  <path
     style="fill:#aad400;fill-opacity:1;stroke:none;stroke-width:0.885048"
     d="m 245.7275,289.32931 c -14.57054,-15.30239 -31.71097,-27.96227 -47.76224,-35.27706 -13.11455,-5.9765 -34.19508,-12.03891 -46.40087,-13.34413 l -5.53155,-0.59151 -0.11486,-8.98484 c -0.22149,-17.32608 0.24468,-30.33142 1.51172,-42.17412 7.19887,-67.28601 30.00751,-123.01769 62.04537,-151.604527 7.43031,-6.62994 12.38355,-9.925183 20.92643,-13.92172 44.81721,-20.966427 91.8482,14.603484 117.63679,88.969637 11.17813,32.23422 16.99559,66.57982 18.09297,106.81883 l 0.54773,20.08417 -2.12601,0.46505 c -1.1693,0.25577 -5.31219,0.9158 -9.20639,1.46673 -20.36835,2.88161 -43.55018,11.72701 -60.22755,22.98077 -12.37969,8.35373 -29.25583,23.66636 -36.72096,33.31891 l -2.17682,2.81467 z m -26.58218,-61.77494 c 2.26812,-2.57344 2.74306,-6.52817 3.54913,-29.55307 0.37928,-10.83385 0.95395,-17.29737 1.57379,-17.70095 0.537,-0.34964 4.90457,-0.84714 9.70571,-1.10556 8.1709,-0.4398 8.86452,-0.62698 10.84184,-2.92576 2.6153,-3.04047 2.78486,-8.06865 0.37773,-11.20173 -1.552,-2.02005 -2.42991,-2.24464 -10.37964,-2.65515 l -8.68423,-0.44845 0.26378,-3.98271 c 0.22834,-3.44748 2.47206,-17.10117 6.82283,-41.51898 1.72855,-9.70117 -0.17642,-13.27107 -7.11095,-13.32582 -8.2072,-0.0648 -8.555,1.04151 -17.71164,56.33922 l -0.46729,2.82198 -16.42199,0.27568 -16.42199,0.27568 -2.13411,2.48323 c -2.94744,3.42961 -2.74791,6.93415 0.61271,10.76168 l 2.74683,3.12847 h 15.37452 15.37452 l -0.41435,2.43388 c -0.49943,2.93363 -2.19654,33.30873 -2.19654,39.31394 0,3.99827 0.23403,4.43316 3.76145,6.98969 4.38477,3.1779 7.89445,3.04786 10.93789,-0.40527 z M 241.19557,82.348869 c 4.71708,-5.001557 7.20562,-14.878052 4.59824,-18.249424 -2.20768,-2.854546 -5.8535,-4.573605 -8.37336,-3.948169 -3.96006,0.982899 -6.36627,3.995486 -8.3146,10.409952 -2.08963,6.879665 -1.74466,9.595915 1.61406,12.708674 3.38059,3.133022 6.94801,2.81937 10.47566,-0.921033 z"
     id="path2" />
  <path
     style="fill:#aad400;fill-opacity:1;stroke:none;stroke-width:0.885048"
     d="m 232.51307,488.5709 c -10.15165,-9.55079 -9.87289,-9.47537 -44.0017,-11.9051 -23.76336,-1.69179 -36.78619,-6.73338 -49.00726,-18.97236 -7.82142,-7.83289 -12.3244,-15.25462 -15.44803,-25.46116 -2.49465,-8.1513 -3.48156,-16.18733 -4.5594,-37.12546 -2.19363,-42.61341 -5.29146,-62.37609 -13.03035,-83.12756 -6.41031,-17.18894 -11.45066,-25.17864 -24.300323,-38.51962 l -8.82721,-9.16472 5.591622,-1.72386 c 14.698106,-4.53133 19.19098,-5.01363 46.746331,-5.01804 28.91885,-0.005 32.36984,0.42709 50.44771,6.31115 47.39667,15.42685 78.5626,51.62662 90.68625,105.33365 2.81705,12.47937 4.6689,27.22819 5.75295,45.81871 0.84746,14.53324 0.94402,15.04894 3.27283,17.47968 3.52516,3.67948 7.86159,3.47449 11.7684,-0.55632 l 2.96681,-3.06097 -0.59474,-12.64862 c -1.68742,-35.88724 -7.36196,-62.82008 -18.60306,-88.29502 -2.24926,-5.0973 -4.08954,-10.1358 -4.08954,-11.19666 0,-5.07208 20.98322,-27.45586 33.6318,-35.87662 20.71867,-13.79339 44.00366,-21.70969 70.21946,-23.87281 12.00532,-0.99059 30.3051,-0.52636 40.41148,1.02516 8.33081,1.27893 25.57206,5.30371 26.05293,6.08177 0.22594,0.36557 -2.40446,3.42297 -5.84533,6.79422 -13.77622,13.49747 -21.64697,26.73409 -28.498,47.92646 -6.18473,19.13128 -8.57769,35.85053 -10.70613,74.80223 -0.73795,13.50483 -1.97465,27.61839 -2.74822,31.36349 -2.98807,14.46618 -8.6289,24.58766 -19.19078,34.43452 -11.77294,10.97593 -24.15189,15.59349 -46.17094,17.22255 -34.73539,2.56987 -34.83859,2.59704 -45.24894,11.91426 l -6.41925,5.7452 -17.12607,-0.0382 -17.12606,-0.0382 z"
     id="path3" />
</svg>
