<?xml version="1.0" encoding="UTF-8" standalone="no"?>
<!-- Created with Inkscape (http://www.inkscape.org/) -->

<svg
   version="1.1"
   id="svg1"
   width="512"
   height="512"
   viewBox="0 0 512 512"
   sodipodi:docname="corn-outline-white.svg"
   inkscape:version="1.3 (0e150ed6c4, 2023-07-21)"
   xmlns:inkscape="http://www.inkscape.org/namespaces/inkscape"
   xmlns:sodipodi="http://sodipodi.sourceforge.net/DTD/sodipodi-0.dtd"
   xmlns="http://www.w3.org/2000/svg"
   xmlns:svg="http://www.w3.org/2000/svg">
  <defs
     id="defs1" />
  <sodipodi:namedview
     id="namedview1"
     pagecolor="#ffffff"
     bordercolor="#000000"
     borderopacity="0.25"
     inkscape:showpageshadow="2"
     inkscape:pageopacity="0.0"
     inkscape:pagecheckerboard="0"
     inkscape:deskcolor="#d1d1d1"
     inkscape:zoom="1.1298828"
     inkscape:cx="261.08902"
     inkscape:cy="366.8522"
     inkscape:window-width="1350"
     inkscape:window-height="1237"
     inkscape:window-x="1043"
     inkscape:window-y="85"
     inkscape:window-maximized="0"
     inkscape:current-layer="svg1" />
  <path
     style="fill:#ffffff;stroke:none;fill-opacity:1"
     d="m 233.69779,510.38486 c -3.39888,-1.04455 -6.57429,-3.20444 -10.86626,-7.39116 -3.33523,-3.25343 -7.47423,-6.34255 -9.19779,-6.86471 -1.72356,-0.52215 -9.65874,-1.20623 -17.63374,-1.52016 -33.0734,-1.30192 -52.63949,-8.26241 -69.10076,-24.58206 -9.77957,-9.69544 -14.29484,-17.04261 -18.7605,-30.52677 -3.99132,-12.05187 -4.95699,-19.66619 -6.08749,-48 -1.07196,-26.86652 -2.830331,-41.45233 -6.976213,-57.8682 -6.70636,-26.55425 -16.920687,-43.7363 -33.174221,-55.80409 -9.231251,-6.85395 -9.114825,-20.09914 0.238052,-27.08207 6.013109,-4.48943 33.956888,-10.39843 54.111132,-11.44236 l 11.75,-0.60861 0.01,-11.09734 C 128.08536,142.90482 155.75934,62.492574 197.88836,24.551529 209.04372,14.505102 223.90036,6.0936745 237,2.4075629 c 8.90979,-2.50712757 28.89454,-2.51477594 38,-0.014543 30.90864,8.4870851 57.90496,35.0527621 77.84967,76.6078141 18.86915,39.314096 29.06185,85.499406 30.80948,139.604256 l 0.6494,20.10509 11.59573,0.60086 c 20.00965,1.03684 47.96524,6.96122 53.95685,11.4346 4.27565,3.19223 6.39843,6.90025 6.89221,12.03912 0.59568,6.19932 -1.68387,11.35265 -6.65416,15.04295 -16.25353,12.06779 -26.46786,29.24984 -33.17422,55.80409 -4.12913,16.34954 -5.90289,30.98632 -6.95217,57.3682 -1.06571,26.79475 -1.43344,30.58993 -3.98084,41.08412 -4.09845,16.88387 -10.92987,28.92479 -22.58689,39.81115 -15.62911,14.59587 -36.19533,21.53049 -67.40506,22.72799 -7.975,0.306 -15.95676,0.99895 -17.73723,1.53989 -1.78048,0.54094 -5.9219,3.62683 -9.20315,6.85754 -8.23183,8.105 -11.59241,8.99902 -33.49112,8.90966 -12.03804,-0.0491 -18.48382,-0.50461 -21.87071,-1.54549 z m 45.89458,-21.47079 c 10.04948,-9.349 12.45585,-10.1098 34.90763,-11.03637 21.74169,-0.89726 31.49486,-2.81831 43.47568,-8.56323 10.42691,-4.99981 21.33898,-15.91188 26.33879,-26.33879 6.11032,-12.74284 7.64322,-21.32345 8.66003,-48.47568 1.41491,-37.78267 4.82517,-59.82108 12.64427,-81.71211 6.27085,-17.55644 17.68286,-34.83775 28.86448,-43.70976 3.06515,-2.43204 5.22284,-4.74931 4.79488,-5.14949 -1.24926,-1.16817 -16.92434,-4.78931 -27.77813,-6.4171 -14.59563,-2.18898 -39.55428,-1.98116 -53.76125,0.44764 -34.40944,5.88259 -62.53402,21.37388 -82.19828,45.2756 -10.96195,13.32415 -10.67213,12.00084 -5.18378,23.66895 11.37354,24.17987 17.41785,51.86538 19.17126,87.8125 l 0.69343,14.21624 -3.03377,3.03376 c -3.66927,3.66928 -7.08754,3.88408 -10.8131,0.67948 -2.72505,-2.34398 -2.74028,-2.43042 -3.48125,-19.75 -3.71106,-86.74326 -43.43414,-139.93702 -115.42954,-154.57342 -7.17823,-1.45931 -13.5451,-1.8148 -31.96372,-1.7847 -23.71012,0.0388 -31.616266,1.01612 -48.191445,5.95746 l -5.191444,1.54765 10.19774,10.22865 c 10.771357,10.804 16.07824,18.80701 21.853789,32.95644 9.17581,22.47969 13.26112,46.39045 14.81653,86.71911 1.07022,27.74873 2.58232,36.26985 8.70036,49.02878 4.99981,10.42691 15.91188,21.33898 26.33879,26.33879 12.01681,5.76218 21.72285,7.66699 43.61026,8.5585 17.79827,0.72495 19.50928,0.96309 24.5,3.40982 2.95098,1.44675 7.82505,5.12497 10.83126,8.17383 L 238.43168,495 h 17.30938 17.30939 z M 260.34696,296.07228 c 10.2355,-13.42168 32.27595,-31.32491 48.82119,-39.65696 14.61728,-7.36114 33.33026,-13.30697 46.83185,-14.88027 3.025,-0.35249 6.80075,-0.89173 8.39056,-1.1983 l 2.89056,-0.5574 -0.58897,-22.63968 C 364.08464,116.90836 324.18654,33.430891 272.0201,19.060502 211.34743,2.3468869 155.41802,81.979803 145.9925,198.5 c -0.62287,7.7 -0.98849,20.3 -0.81249,28 l 0.31999,14 6.98449,0.77122 c 13.9457,1.53987 35.53546,8.17695 49.58374,15.24293 16.00058,8.04794 34.71242,22.64723 46.21127,36.05481 3.97127,4.63048 7.46553,8.42175 7.76501,8.42505 0.29949,0.003 2.23559,-2.21149 4.30245,-4.92173 z m -52.55566,-69.12713 -3.05486,-3.05486 0.65655,-14.69514 C 205.7541,201.11282 206.3215,191.0125 206.6539,186.75 L 207.25825,179 H 192.0522 176.84615 l -2.92307,-2.92308 c -3.44384,-3.44384 -3.72307,-6.79018 -0.86933,-10.41813 2.04987,-2.60597 2.08536,-2.61144 18.74235,-2.88485 l 16.68859,-0.27394 2.22122,-14.72411 c 3.05245,-20.2342 6.95086,-38.60312 8.78764,-41.40639 2.93205,-4.47487 10.16823,-4.34151 13.17195,0.24274 1.61271,2.4613 1.5436,3.32657 -1.4963,18.73412 -3.78036,19.16049 -6.27455,35.67416 -5.56224,36.8267 0.28109,0.45482 4.27686,0.82694 8.87948,0.82694 7.84944,0 8.49693,0.1634 10.44098,2.63486 2.33622,2.97002 2.57835,5.16099 0.96231,8.70782 C 244.26,177.91955 240.91081,179 231.45295,179 c -7.37226,0 -8.45681,0.22373 -8.48314,1.75 -0.0166,0.9625 -0.44677,11.425 -0.95593,23.25 -0.9215,21.40178 -0.93761,21.51028 -3.52557,23.75 -3.59386,3.11026 -7.04128,2.85087 -10.69701,-0.80485 z M 230.45455,82.545455 c -3.06354,-3.063536 -3.13316,-6.594157 -0.27722,-14.057215 1.67167,-4.36833 2.91727,-6.042576 5.36337,-7.209038 2.73711,-1.305237 3.58764,-1.326268 6.03634,-0.149257 1.56767,0.75353 3.53051,2.583535 4.36186,4.066676 1.37323,2.449838 1.33347,3.227724 -0.43446,8.5 -3.47558,10.364815 -9.80968,14.089052 -15.04989,8.848834 z"
     id="path1" />
</svg>
