<?xml version="1.0" encoding="UTF-8" standalone="no"?>
<!-- Created with Inkscape (http://www.inkscape.org/) -->

<svg
   version="1.1"
   id="svg1"
   width="512"
   height="512"
   viewBox="0 0 512 512"
   sodipodi:docname="grapes-outline-white.svg"
   inkscape:version="1.3 (0e150ed6c4, 2023-07-21)"
   xmlns:inkscape="http://www.inkscape.org/namespaces/inkscape"
   xmlns:sodipodi="http://sodipodi.sourceforge.net/DTD/sodipodi-0.dtd"
   xmlns="http://www.w3.org/2000/svg"
   xmlns:svg="http://www.w3.org/2000/svg">
  <defs
     id="defs1" />
  <sodipodi:namedview
     id="namedview1"
     pagecolor="#ffffff"
     bordercolor="#000000"
     borderopacity="0.25"
     inkscape:showpageshadow="2"
     inkscape:pageopacity="0.0"
     inkscape:pagecheckerboard="0"
     inkscape:deskcolor="#d1d1d1"
     inkscape:zoom="0.96122328"
     inkscape:cx="245.52048"
     inkscape:cy="309.50145"
     inkscape:window-width="1350"
     inkscape:window-height="1237"
     inkscape:window-x="1083"
     inkscape:window-y="53"
     inkscape:window-maximized="0"
     inkscape:current-layer="svg1" />
  <path
     style="fill:#fffffd;stroke:none;fill-opacity:1"
     d="m 414.31499,510.99239 c -21.00219,-3.07074 -44.44638,-16.95852 -55.55355,-32.9086 l -1.68258,-2.41622 -6.78943,3.12739 c -11.93898,5.49941 -22.80928,7.49745 -37.78943,6.94599 -11.02723,-0.40595 -14.44164,-0.95013 -22.5,-3.58605 -13.24859,-4.33366 -23.85672,-10.83612 -33.55781,-20.56992 -4.43179,-4.44674 -9.15679,-9.57974 -10.5,-11.40666 l -2.44219,-3.32168 -8,4.01214 c -16.25218,8.15075 -32.63327,11.2735 -48.47823,9.24146 -21.33904,-2.73662 -38.27181,-11.21358 -52.65733,-26.36156 -26.31104,-27.70556 -30.85004,-69.14576 -11.14071,-101.71251 4.4229,-7.30817 4.90464,-6.22302 -5.34341,-12.03617 -7.5414,-4.27782 -18.748026,-14.47908 -24.550374,-22.34793 l -4.312157,-5.84792 -15.758894,-0.27004 c -17.925729,-0.30717 -27.292907,-1.88347 -42.53947,-7.1585 -12.079878,-4.17942 -25.777978,-11.3633 -28.6644804,-15.03289 -2.46385766,-3.13229 -2.55123977,-5.97261 -0.4963869,-16.13488 2.5196809,-12.46107 8.4344566,-23.27582 17.9593453,-32.8374 l 8.098369,-8.12957 -3.789842,-4.37043 C 14.611117,197.24336 5.5141403,180.9529 1.413509,167.73438 -1.0762173,159.70866 -0.09884371,157.48295 7.9772014,152.78734 22.555664,144.31105 42.678772,138.04708 62,135.97097 c 6.325,-0.67963 11.644984,-1.35861 11.822187,-1.50885 0.177203,-0.15024 -0.912071,-2.22818 -2.420609,-4.61764 C 61.593687,114.30917 55.087019,91.343954 53.45437,66.5 52.41741,50.72062 55.281703,23.44012 59.568891,8.2632222 61.858386,0.15827484 63.69187,-0.44569204 83.478047,0.38731873 130.35474,2.3608574 170.85717,11.640765 195.46775,26.046375 c 6.58424,3.854029 7.04283,3.978758 8.33173,2.266072 2.55072,-3.389385 8.00162,-14.859831 9.19265,-19.3443016 C 214.55518,3.0829797 217.48594,0 221.51748,0 c 4.5368,0 15.95922,8.2601288 27.51682,19.898813 10.22491,10.296633 16.59489,19.132872 22.95901,31.847985 l 3.99218,7.976134 5.75726,0.665866 c 10.22422,1.1825 18.53991,3.673866 28.75725,8.615616 15.81776,7.650469 27.23789,18.28848 36.66142,34.150626 l 4.089,6.88281 3.12479,-2.0577 c 24.77279,-16.313038 57.96654,-18.41653 84.07131,-5.32761 19.56092,9.80784 34.23248,25.59175 41.67154,44.83094 4.92803,12.74509 6.13135,20.2326 5.62748,35.01652 -0.38492,11.29413 -0.8644,14.24659 -3.65397,22.5 -1.766,5.225 -4.74476,12.24755 -6.61947,15.60567 l -3.40855,6.10566 5.21822,3.59908 c 19.33112,13.33292 32.87392,38.41868 34.38346,63.68959 1.38714,23.22199 -7.83301,48.06932 -23.52742,63.40387 l -5.01895,4.90387 6.28558,6.88694 c 23.56855,25.82342 29.06015,64.14785 13.61399,95.00833 -5.24659,10.48236 -9.34418,15.95236 -18.37876,24.53432 -18.65994,17.72512 -44.77749,25.99032 -70.32468,22.25506 z m 29.06177,-17.96087 c 30.53206,-7.80879 51.65957,-35.00865 51.60846,-66.44148 -0.0187,-11.47332 -1.97176,-19.81412 -7.16303,-30.59004 -3.32622,-6.90448 -5.71172,-10.10943 -12.70853,-17.07409 -9.58913,-9.54508 -15.85706,-13.5193 -27.45397,-17.40739 -28.76107,-9.64272 -61.43686,1.84963 -78.13718,27.48148 -22.40218,34.38315 -10.65484,79.43898 25.69302,98.54319 14.06615,7.39308 32.50012,9.49377 48.16123,5.48833 z M 332.5,467.4648 c 3.3,-0.85748 8.36525,-2.63921 11.25611,-3.9594 l 5.25611,-2.40035 -1.95891,-4.96979 c -6.2074,-15.74832 -6.69719,-38.27472 -1.19878,-55.13526 3.82385,-11.72563 10.01838,-22.42639 18.03426,-31.15332 3.36116,-3.65932 6.11121,-6.92131 6.11121,-7.24885 0,-0.32755 -1.86893,-2.50856 -4.15317,-4.84669 -2.28425,-2.33812 -5.4547,-6.05114 -7.04546,-8.25114 -3.56752,-4.93384 -13.12763,-10.89795 -21.78609,-13.59135 -36.87079,-11.46944 -74.53309,7.89554 -86.72423,44.59135 -2.30862,6.94902 -2.65777,9.64215 -2.65777,20.5 0,10.84632 0.35118,13.56115 2.65455,20.52108 11.61282,35.08969 47.27825,55.02107 82.21217,45.94372 z M 215,441.47186 c 5.70298,-1.75918 16.1777,-6.60016 19.27939,-8.91013 1.69707,-1.26389 1.67427,-1.68916 -0.49284,-9.19346 -3.29283,-11.40241 -3.28429,-33.36231 0.0174,-44.80006 2.96457,-10.26983 9.81473,-23.42835 16.32153,-31.35215 l 5.16019,-6.28393 -3.8127,-5.53587 c -5.77868,-8.39038 -14.78806,-15.96513 -24.97299,-20.99634 -11.74102,-5.79989 -21.02188,-7.74167 -34,-7.11361 -45.70333,2.21175 -76.16141,47.50462 -61.08958,90.84365 3.55785,10.23059 8.10229,17.32021 16.6328,25.94824 6.06272,6.13203 9.3993,8.54695 17,12.3041 5.20123,2.57106 12.38178,5.33049 15.95678,6.13207 8.3237,1.86632 26.36317,1.3132 34,-1.04251 z m 191,-97.18047 c 4.81506,-1.32702 10.12909,-1.79139 20.5,-1.79139 15.69154,0 22.86788,1.43409 35.15251,7.02473 l 7.15252,3.25505 4.5323,-4.13989 c 30.59737,-27.94819 28.32197,-79.26762 -4.62145,-104.23203 -27.04027,-20.49103 -63.99767,-18.85556 -88.42292,3.91296 -8.4783,7.90323 -15.16517,18.14163 -18.79538,28.77798 -2.57858,7.55515 -2.86734,9.71038 -2.86734,21.4012 0,11.67403 0.29081,13.85191 2.85116,21.35223 3.48034,10.19535 8.77054,18.67566 16.68957,26.75374 l 5.98575,6.10596 7.67164,-3.31457 C 396.04776,347.57434 402.425,345.27665 406,344.29139 Z M 277.44034,325.51417 c 13.92172,-6.89325 22.41784,-8.83228 38.55966,-8.80032 10.22368,0.0202 15.27697,0.50503 20.82199,1.99756 l 7.32198,1.97083 -0.82198,-5.09112 C 342.86989,312.791 342.54048,304.2 342.58996,296.5 c 0.0796,-12.39362 0.4052,-14.9753 2.8373,-22.5 1.51104,-4.675 4.28306,-11.32799 6.16004,-14.78442 1.87699,-3.45644 3.4127,-6.98772 3.4127,-7.84731 0,-0.85958 -1.88654,-5.23159 -4.1923,-9.71557 -5.95582,-11.58218 -18.21153,-23.79475 -29.52082,-29.41691 -11.56255,-5.74805 -20.75037,-7.60113 -34.6345,-6.9854 -18.63516,0.82643 -31.28214,6.43062 -44.62675,19.77524 -13.34462,13.34461 -18.94881,25.99159 -19.77524,44.62675 -0.36616,8.25645 -0.0624,13.09522 1.16999,18.63433 l 1.66457,7.48194 5.10481,2.12147 c 12.05596,5.01023 29.85002,19.59718 35.43108,29.04516 0.99571,1.6856 2.02401,3.06472 2.28511,3.06472 0.26111,0 4.55158,-2.01862 9.53439,-4.48583 z m -133.87204,-16.44 c 5.74474,-5.04394 16.56485,-10.84815 26.4317,-14.17868 8.36327,-2.823 11.1478,-3.26333 23.27114,-3.67996 l 13.77114,-0.47325 -0.77114,-3.62114 C 205.84701,285.12951 205.56415,278.1 205.64256,271.5 c 0.21281,-17.91252 4.4285,-31.39344 14.5633,-46.57042 3.98925,-5.97395 4.04564,-6.17831 2.55772,-9.2691 C 214.9286,199.38512 195.15303,184.47324 176,180.39812 c -9.06999,-1.92979 -24.74328,-1.38751 -33,1.14177 -23.76213,7.27905 -42.10062,26.52221 -47.512068,49.85591 -2.004382,8.64273 -2.005621,24.272 -0.0025,32.1042 3.527187,13.79161 13.474704,29.36852 23.882834,37.39833 5.05413,3.89924 18.01474,11.09154 19.99976,11.09859 0.4774,0.002 2.36754,-1.31354 4.20032,-2.92275 z M 80.640189,272.25 c -2.930136,-13.5891 -3.81718,-21.49826 -3.280508,-29.25 2.648564,-38.25603 28.457979,-69.27368 64.914429,-78.01388 11.27916,-2.70411 28.24528,-2.68664 39.62264,0.0408 4.61821,1.1071 8.50079,1.89145 8.62795,1.74299 0.12716,-0.14846 -0.42268,-3.86992 -1.22187,-8.26992 -3.73083,-20.54021 1.42147,-43.38702 13.95171,-61.86611 11.12923,-16.412924 33.41481,-31.478598 50.638,-34.232697 C 256.15164,62.039948 258,61.501768 258,61.205238 258,60.028436 250.58583,47.262342 247.71732,43.5 243.77394,38.327854 232.27799,26.415239 228.78774,23.884319 l -2.71227,-1.966767 -2.63171,5.291224 c -1.44744,2.910173 -4.93596,8.989115 -7.75225,13.508759 -7.36074,11.812647 -10.27552,12.594093 -19.87508,5.328462 C 175.66616,30.79483 133.02898,19.306272 89.398649,17.371804 l -15.101351,-0.669559 -1.6747,10.752663 c -7.008293,44.997784 1.285975,82.994852 23.60514,108.138062 6.345872,7.14882 7.211042,10.40865 3.860612,14.54625 -1.889696,2.33367 -2.139452,2.36143 -21.749999,2.41757 C 63.349662,152.5997 56.666558,153.03271 51,154.3281 c -15.602905,3.56686 -32,10.0301 -32,12.61344 0,2.89361 7.536608,17.30973 12.446345,23.80754 2.596989,3.43699 7.844097,9.02401 11.660238,12.4156 3.816141,3.39158 7.178265,7.12206 7.471386,8.28995 0.989011,3.94053 -1.303411,7.20925 -8.333864,11.88309 -12.302068,8.1784 -20.725937,18.8742 -23.79513,30.21271 -0.964474,3.56306 -1.572552,6.61162 -1.351282,6.77458 2.565029,1.88907 19.034679,8.28999 26.318362,10.22862 11.75174,3.12785 18.848424,4.1699 29.450522,4.32443 L 81.233154,275 Z M 372.99924,233.00064 c 7.40932,-6.20344 17.5975,-11.74307 28.00076,-15.22489 9.00515,-3.01389 10.30739,-3.18202 25,-3.22763 13.47794,-0.0418 16.45658,0.25243 22.83262,2.25576 5.41731,1.70209 7.67687,2.01817 8.65058,1.21006 0.72488,-0.60159 2.90772,-4.33834 4.85076,-8.30387 9.7414,-19.88121 9.74124,-40.58748 -4.7e-4,-60.71007 -3.87885,-8.0122 -5.94866,-10.83893 -13.21631,-18.04944 -14.0315,-13.92119 -28.45885,-19.96401 -47.59708,-19.93578 -12.50027,0.0184 -20.63905,1.88402 -31.5201,7.22506 -6.78978,3.33281 -10.21383,5.89135 -17.01796,12.71622 -12.14781,12.18487 -17.91015,23.87074 -19.97857,40.51603 -0.7099,5.71278 -0.69757,10.58255 0.0402,15.8871 1.64785,11.84762 2.66968,13.84478 9.83243,19.21738 7.33352,5.5007 15.0619,14.47741 20.56409,23.88574 2.10286,3.59573 4.03913,6.53769 4.3028,6.53769 0.26368,0 2.62898,-1.79971 5.25622,-3.99936 z M 244.5,201.91994 c 17.66059,-11.55064 39.05631,-16.09868 59,-12.54149 4.95,0.88289 9.9,1.85687 11,2.16439 1.92411,0.53792 2.00404,0.0544 2.10639,-12.74185 0.0816,-10.20062 0.60415,-15.13733 2.24186,-21.17915 2.79718,-10.31928 8.0121,-21.01539 14.15138,-29.02532 l 4.9522,-6.46116 -4.15609,-8.31768 C 327.86282,101.944 315.82366,89.969086 304,84.180952 292.63746,78.618556 285.53271,76.908863 273.45574,76.830757 254.0384,76.705178 238.99428,82.938971 224.90027,96.95056 c -6.93615,6.89559 -9.40066,10.19373 -12.74006,17.04944 -5.67087,11.64216 -7.27664,18.46665 -7.29414,31 -0.0255,18.2816 4.82033,30.95756 15.80468,41.34231 3.75609,3.55106 8.85425,9.62315 11.32925,13.49354 2.475,3.87039 4.725,6.95275 5,6.8497 0.275,-0.10305 3.65,-2.24757 7.5,-4.76561 z"
     id="path1" />
</svg>
