<?xml version="1.0" encoding="UTF-8" standalone="no"?>
<!-- Created with Inkscape (http://www.inkscape.org/) -->

<svg
   version="1.1"
   id="svg1"
   width="512"
   height="512"
   viewBox="0 0 512 512"
   sodipodi:docname="grapes-filled.svg"
   inkscape:version="1.3 (0e150ed6c4, 2023-07-21)"
   xmlns:inkscape="http://www.inkscape.org/namespaces/inkscape"
   xmlns:sodipodi="http://sodipodi.sourceforge.net/DTD/sodipodi-0.dtd"
   xmlns="http://www.w3.org/2000/svg"
   xmlns:svg="http://www.w3.org/2000/svg">
  <defs
     id="defs1" />
  <sodipodi:namedview
     id="namedview1"
     pagecolor="#ffffff"
     bordercolor="#000000"
     borderopacity="0.25"
     inkscape:showpageshadow="2"
     inkscape:pageopacity="0.0"
     inkscape:pagecheckerboard="0"
     inkscape:deskcolor="#d1d1d1"
     inkscape:zoom="0.96122328"
     inkscape:cx="245.52048"
     inkscape:cy="309.50145"
     inkscape:window-width="1350"
     inkscape:window-height="1237"
     inkscape:window-x="1083"
     inkscape:window-y="53"
     inkscape:window-maximized="0"
     inkscape:current-layer="svg1" />
  <path
     style="fill:#aad400;fill-opacity:1;stroke:none;stroke-width:1.04034"
     d="m 59.299438,273.40262 c -13.146148,-2.24364 -41.613641,-11.63456 -41.613641,-13.7276 0,-0.42495 0.746867,-3.31541 1.659704,-6.42325 2.914344,-9.92215 9.485673,-18.96006 18.945897,-26.05734 16.242902,-12.1858 16.342873,-13.07994 2.999836,-26.83064 -9.298062,-9.58213 -16.719128,-20.35164 -20.292551,-29.44868 -1.463621,-3.72603 -1.436036,-4.08437 0.421428,-5.47464 2.403254,-1.79878 13.73862,-6.10628 23.771449,-9.03328 5.866113,-1.71139 11.900868,-2.30215 29.961355,-2.93303 16.465431,-0.57514 23.074907,-1.17109 24.304304,-2.1914 4.596451,-3.81471 3.357031,-9.14248 -4.178909,-17.96338 C 85.342753,121.68968 77.577418,105.06898 73.640319,87.006035 71.934192,79.178526 71.435034,73.114276 71.359745,59.299438 71.270206,42.869956 73.153771,21.038791 74.90535,18.204679 75.4838,17.268726 79.752965,17.261 93.062742,18.171822 c 28.618778,1.958456 54.657918,6.963351 74.432158,14.306356 12.20111,4.530784 17.49523,7.174613 27.67871,13.822457 4.37791,2.857934 8.77296,5.196245 9.76675,5.196245 4.14907,0 9.1059,-6.004084 17.60708,-21.326991 1.90471,-3.433125 3.61536,-6.413022 3.80147,-6.621994 0.70019,-0.786214 8.49821,6.398348 15.27284,14.071344 7.41266,8.395641 15.99534,22.047983 14.6049,23.2318 -0.45261,0.385349 -3.32055,1.248174 -6.3732,1.917388 -10.90318,2.390238 -25.36293,10.896412 -36.44535,21.439548 -18.93731,18.015795 -28.25204,44.258585 -25.05658,70.592955 0.6803,5.60644 1.01719,10.41325 0.74863,10.68181 -0.26855,0.26855 -3.86574,-0.22219 -7.99375,-1.09055 -9.35998,-1.96893 -28.5532,-2.01829 -37.53934,-0.0966 -24.32699,5.20248 -45.09972,21.08092 -56.636902,43.29261 -10.024146,19.29875 -12.213828,38.39454 -7.24251,63.1605 l 0.678695,3.38111 -9.233026,-0.14168 c -5.078165,-0.0779 -10.40341,-0.34143 -11.833879,-0.58556 z"
     id="path2" />
  <path
     style="fill:#aad400;fill-opacity:1;stroke:none;stroke-width:1.04034"
     d="m 232.82382,200.00556 c -1.99549,-3.00399 -7.17993,-9.32927 -11.52097,-14.05618 -12.13512,-13.21382 -15.61815,-22.54661 -15.59119,-41.77665 0.0265,-18.8839 6.24619,-33.31772 20.31052,-47.133727 14.7345,-14.474348 30.57782,-20.37976 51.69676,-19.269368 22.76868,1.197131 44.23846,15.218713 55.01252,35.927815 l 4.39896,8.45536 -4.86384,6.54576 c -10.74122,14.45553 -16.00291,30.66673 -16.00291,49.30476 0,6.49826 -0.45253,12.01579 -1.01396,12.36276 -0.55768,0.34467 -4.82277,-0.0959 -9.47799,-0.97894 -10.81317,-2.05122 -21.82131,-2.04054 -31.84975,0.0309 -10.63245,2.19619 -16.80862,4.61555 -27.64615,10.82968 -5.00671,2.8708 -9.26527,5.21963 -9.46347,5.21963 -0.1982,0 -1.99303,-2.45781 -3.98853,-5.46179 z"
     id="path3" />
  <path
     style="fill:#aad400;fill-opacity:1;stroke:none;stroke-width:1.04034"
     d="m 130.5628,307.11097 c -14.40884,-7.56862 -26.74094,-22.05548 -32.95485,-38.713 -2.014942,-5.40141 -2.323576,-8.2426 -2.315628,-21.31698 0.0083,-13.67422 0.259192,-15.74084 2.682651,-22.09846 4.072477,-10.68359 8.926077,-17.92634 17.502877,-26.11856 26.64947,-25.4545 64.78622,-25.61951 93.11261,-0.40288 5.96737,5.31224 14.04252,16.49286 14.04252,19.44285 0,0.98785 -2.32573,5.66572 -5.16827,10.39529 -9.63665,16.03387 -13.15834,30.68492 -12.20421,50.77225 l 0.55593,11.70383 -10.57795,0.0181 c -20.4629,0.035 -34.10115,4.86213 -54.27227,19.20938 -1.87826,1.33595 -2.89039,1.05462 -10.40341,-2.89178 z"
     id="path4" />
  <path
     style="fill:#aad400;fill-opacity:1;stroke:none;stroke-width:1.04034"
     d="m 266.11393,326.38613 c -2.19722,-3.71959 -13.36964,-14.67704 -20.18295,-19.79461 -2.92126,-2.19419 -8.5391,-5.59712 -12.4841,-7.56206 -3.94499,-1.96494 -7.46647,-3.9756 -7.82552,-4.46814 -1.74725,-2.39688 -3.24925,-17.06334 -2.65595,-25.93441 1.2416,-18.56479 6.13705,-29.10016 19.93201,-42.89511 13.87326,-13.87326 24.15621,-18.52497 43.88552,-19.85252 11.95613,-0.80451 22.01338,1.29599 33.6292,7.02361 12.22029,6.02568 23.85508,17.60724 29.96866,29.83152 l 4.32985,8.65769 -2.96825,5.90709 c -1.63255,3.2489 -4.30753,9.41824 -5.9444,13.70964 -2.9085,7.62523 -2.97648,8.26979 -2.99088,28.3608 -0.0124,17.32816 -0.24688,20.46916 -1.49211,19.99132 -8.38349,-3.21705 -34.57932,-3.8274 -46.33006,-1.07949 -3.97876,0.93044 -11.64893,3.78302 -17.04483,6.33909 -5.3959,2.55606 -9.88118,4.64738 -9.9673,4.64738 -0.0861,0 -0.92261,-1.29681 -1.85889,-2.8818 z"
     id="path5" />
  <path
     style="fill:#aad400;fill-opacity:1;stroke:none;stroke-width:1.04034"
     d="m 175.60981,440.16107 c -11.62901,-4.10458 -19.61865,-9.24291 -27.97993,-17.99456 -8.75782,-9.1667 -12.38709,-15.02748 -16.29656,-26.31676 -2.31513,-6.68535 -2.70624,-9.59008 -2.73148,-20.28664 -0.026,-11.01039 0.31197,-13.46539 2.86294,-20.79684 9.48501,-27.25976 30.82195,-43.94474 59.9714,-46.89623 13.3099,-1.34768 28.80697,2.80737 41.80575,11.20889 7.24108,4.68013 16.12986,13.49158 19.0157,18.85026 l 1.93862,3.5998 -3.55763,4.17577 c -8.5434,10.02782 -16.84048,27.63569 -18.72678,39.74158 -1.55189,9.95971 -0.64973,31.93602 1.61315,39.29593 0.92751,3.01667 1.36577,6.0036 0.97392,6.63764 -1.04636,1.69303 -16.90368,8.91912 -22.30279,10.16326 -2.55645,0.58909 -10.26593,1.07264 -17.13218,1.07455 -10.47329,0.003 -13.60675,-0.39276 -19.45413,-2.45665 z"
     id="path6" />
  <path
     style="fill:#aad400;fill-opacity:1;stroke:none;stroke-width:1.04034"
     d="m 299.61821,467.03926 c -11.48917,-3.00675 -22.73007,-9.5189 -31.17501,-18.06051 -8.95617,-9.05868 -13.65846,-16.4443 -17.27429,-27.13177 -3.47656,-10.27585 -3.66293,-30.98421 -0.36768,-40.8549 5.78077,-17.31587 18.80748,-32.57162 34.25221,-40.1132 12.97102,-6.33368 20.0167,-7.82446 33.81108,-7.15402 19.30834,0.93844 29.89112,5.87933 42.3461,19.77056 l 8.2072,9.15361 -5.63992,6.45704 c -13.56816,15.53393 -20.13873,30.8231 -21.9998,51.1917 -0.8691,9.51186 0.982,25.147 4.00711,33.84569 l 2.40779,6.9236 -7.04232,2.73985 c -3.87327,1.50691 -9.06772,3.20695 -11.54321,3.77785 -6.51353,1.50215 -23.33405,1.19619 -29.98926,-0.5455 z"
     id="path7" />
  <path
     style="fill:#aad400;fill-opacity:1;stroke:none;stroke-width:1.04034"
     d="m 415.89025,493.67656 c -14.87941,-2.71342 -25.84301,-8.45826 -36.78789,-19.27655 -14.38066,-14.21433 -20.96256,-31.16439 -19.94732,-51.36937 0.87497,-17.41348 7.18427,-31.36575 20.04926,-44.33655 18.65468,-18.80811 46.30839,-24.80984 71.26336,-15.46641 14.65078,5.48542 29.57253,19.03383 36.47149,33.11477 6.0987,12.44761 7.59244,19.63215 6.92726,33.31839 -0.90844,18.69112 -6.60159,31.46439 -19.9429,44.74432 -8.98076,8.93943 -18.8146,14.80487 -29.6979,17.71344 -7.21379,1.9279 -21.88368,2.73449 -28.33536,1.55796 z"
     id="path8" />
  <path
     style="fill:#aad400;fill-opacity:1;stroke:none;stroke-width:1.04034"
     d="m 377.87651,345.29952 c -7.44908,-8.31913 -12.95934,-17.34299 -16.04886,-26.28235 -2.05083,-5.93399 -2.3811,-8.90711 -2.32828,-20.95947 0.0546,-12.46838 0.36088,-14.83173 2.72863,-21.05812 7.89943,-20.77286 22.92758,-35.58976 43.38249,-42.77264 8.01652,-2.81505 10.23165,-3.14465 20.92932,-3.11422 14.04543,0.04 23.5091,2.60674 35.18436,9.54288 36.52911,21.70155 43.43686,73.10551 14.01521,104.294 l -6.74526,7.15033 -3.80143,-1.70586 c -11.78832,-5.28986 -20.86998,-7.58659 -32.53162,-8.22716 -15.4231,-0.84719 -25.61334,0.66886 -38.50077,5.72791 l -10.32919,4.05479 z"
     id="path9" />
  <path
     style="fill:#aad400;fill-opacity:1;stroke:none;stroke-width:1.04034"
     d="m 362.31025,227.5746 c -5.5423,-8.46871 -13.35729,-17.15318 -20.87062,-23.19264 -5.32613,-4.2813 -7.14414,-8.87372 -8.11329,-20.49463 -0.93289,-11.1862 1.50524,-23.18614 7.00048,-34.4548 3.37507,-6.92098 6.08101,-10.54531 13.23715,-17.72979 9.88098,-9.9201 18.74009,-15.10158 31.3622,-18.343 9.6008,-2.46552 29.15159,-1.64695 38.34492,1.60546 13.48576,4.77099 30.25086,18.83558 36.79586,30.86879 4.52992,8.32841 8.15677,20.6641 8.76672,29.81751 0.75188,11.28304 -1.50802,21.67373 -7.16355,32.93687 -5.02526,10.00799 -3.94901,9.58945 -17.40583,6.7689 -12.50023,-2.62005 -32.9191,-1.75141 -43.21283,1.83832 -9.89708,3.45141 -18.49886,7.91997 -26.27153,13.64788 -3.57778,2.63657 -6.65988,4.79377 -6.8491,4.79377 -0.18922,0 -2.71849,-3.62819 -5.62058,-8.06264 z"
     id="path10" />
</svg>
