<?xml version="1.0" encoding="UTF-8" standalone="no"?>
<!-- Created with Inkscape (http://www.inkscape.org/) -->

<svg
   version="1.1"
   id="svg1"
   width="512"
   height="512"
   viewBox="0 0 512 512"
   sodipodi:docname="mushroom-filled.svg"
   inkscape:version="1.3 (0e150ed6c4, 2023-07-21)"
   xmlns:inkscape="http://www.inkscape.org/namespaces/inkscape"
   xmlns:sodipodi="http://sodipodi.sourceforge.net/DTD/sodipodi-0.dtd"
   xmlns="http://www.w3.org/2000/svg"
   xmlns:svg="http://www.w3.org/2000/svg">
  <defs
     id="defs1" />
  <sodipodi:namedview
     id="namedview1"
     pagecolor="#ffffff"
     bordercolor="#000000"
     borderopacity="0.25"
     inkscape:showpageshadow="2"
     inkscape:pageopacity="0.0"
     inkscape:pagecheckerboard="0"
     inkscape:deskcolor="#d1d1d1"
     inkscape:zoom="1.1455078"
     inkscape:cx="228.71952"
     inkscape:cy="353.1185"
     inkscape:window-width="1350"
     inkscape:window-height="1237"
     inkscape:window-x="1010"
     inkscape:window-y="84"
     inkscape:window-maximized="0"
     inkscape:current-layer="svg1" />
  <path
     style="fill:#aad400;fill-opacity:1;stroke:none;stroke-width:0.872975"
     d="m 437.36061,323.73009 c -15.84816,-2.48678 -30.66094,-6.46331 -74.20289,-19.91997 -55.98531,-17.30227 -71.25977,-20.5191 -100.55859,-21.17778 -12.22255,-0.27479 -23.58924,-0.0551 -29.68116,0.5737 -19.92858,2.05694 -44.2379,8.10876 -93.24193,23.21264 -48.125705,14.83317 -61.340283,17.61665 -79.658979,16.77919 -9.057887,-0.41409 -10.923618,-0.78066 -15.953855,-3.1346 -14.571075,-6.81862 -23.124223,-23.85864 -25.839865,-51.47946 -1.2419,-12.6314 -0.491922,-40.76164 1.423571,-53.3954 5.783759,-38.1472 20.379242,-71.53544 44.649097,-102.13811 7.5062,-9.46482 28.215247,-30.195591 37.842101,-37.881799 26.07376,-20.817645 62.1116,-39.656283 92.53538,-48.372497 26.43197,-7.57259 38.82108,-9.190333 66.25092,-8.650909 18.69889,0.367725 22.88745,0.71556 32.31921,2.683919 69.28863,14.460174 130.20397,54.167986 165.58172,107.934836 18.49983,28.11592 30.34633,60.00802 34.36426,92.51248 1.17234,9.4841 1.1807,39.93948 0.0142,51.6542 -2.13807,21.47116 -9.77279,38.11315 -20.70246,45.12671 -7.70691,4.9455 -23.51384,7.49726 -35.1407,5.67285 z"
     id="path2" />
  <path
     style="fill:#aad400;fill-opacity:1;stroke:none;stroke-width:0.872975"
     d="m 222.42289,493.65689 c -34.7095,-2.55862 -62.21018,-12.28741 -74.43941,-26.33411 -4.57487,-5.25477 -9.07904,-15.05194 -10.20682,-22.20119 -1.32722,-8.41357 -0.34368,-30.04912 1.90051,-41.80701 4.26224,-22.33089 12.60603,-50.54197 21.98335,-74.32758 l 5.21163,-13.21931 9.59094,-2.80283 c 5.27502,-1.54156 9.74317,-2.65061 9.92922,-2.46456 0.18605,0.18605 -1.18326,5.08934 -3.04292,10.89622 -6.76534,21.12512 -10.80118,43.88365 -12.27831,69.23875 -1.10467,18.96181 -0.73633,21.86298 3.2164,25.33353 1.64299,1.44257 3.58235,2.62285 4.30969,2.62285 1.73496,0 5.88595,-2.16846 7.21384,-3.76847 0.63303,-0.76276 1.55898,-8.32113 2.33311,-19.04478 2.08699,-28.9103 4.74258,-46.35874 9.62736,-63.25621 2.97298,-10.28416 8.97016,-25.2648 10.75509,-26.86564 1.54242,-1.38335 9.93621,-3.28622 22.37539,-5.07252 22.21996,-3.19083 67.91699,0.25332 72.79225,5.48631 0.85873,0.92173 2.99464,5.30459 4.74645,9.73968 8.77963,22.22742 13.15764,45.09684 15.4145,80.52076 1.14,17.89354 1.19862,18.1973 3.84588,19.93185 4.03665,2.64493 6.01908,2.59519 9.94609,-0.24952 l 3.6862,-2.67026 -0.002,-8.94253 c -0.006,-27.01819 -4.23223,-55.19141 -12.3296,-82.20024 -1.85941,-6.20206 -3.28278,-11.36723 -3.16304,-11.47815 0.11973,-0.11091 4.51671,1.03511 9.77105,2.54673 l 9.55335,2.74839 4.24229,10.4757 c 9.67871,23.90019 19.57619,57.53154 23.39441,79.49354 2.43107,13.98329 2.65845,35.97709 0.4507,43.59598 -6.81027,23.50216 -27.32036,36.09022 -69.01849,42.36004 -10.11372,1.52072 -17.34092,1.89206 -41.90281,2.153 -16.32464,0.17343 -34.28242,-0.0239 -39.90618,-0.43842 z m 2.82221,-42.33771 c 1.40233,-0.72517 2.97278,-2.10905 3.48989,-3.07529 0.51712,-0.96622 1.51221,-13.23838 2.21134,-27.27144 1.31264,-26.34819 2.6199,-41.14046 5.6287,-63.69143 2.27004,-17.01396 2.23982,-18.28371 -0.51282,-21.55505 -1.78866,-2.1257 -2.94733,-2.6859 -5.5553,-2.6859 -5.25947,0 -7.44649,2.88664 -9.12048,12.03814 -4.29347,23.47196 -6.56508,47.65723 -7.19175,76.56885 -0.5654,26.08532 -0.33525,27.68888 4.26074,29.68633 3.60656,1.56745 3.7316,1.56719 6.78968,-0.0142 z m 70.39212,-1.63167 c 2.11923,-1.82289 2.45671,-2.81765 2.75663,-8.12555 0.81925,-14.49854 -2.25528,-60.25934 -5.59032,-83.20561 -2.41535,-16.61849 -3.60639,-21.20609 -6.06272,-23.35209 -4.11973,-3.59925 -10.1275,-2.23395 -12.22136,2.77739 -1.044,2.49862 -0.92356,4.96948 0.96458,19.78992 3.13571,24.6129 4.56533,41.24635 5.61972,65.38495 0.95515,21.86678 1.63918,26.40403 4.2064,27.90193 2.74382,1.60093 7.76668,1.03141 10.32707,-1.17094 z"
     id="path3" />
</svg>
