<?xml version="1.0" encoding="UTF-8" standalone="no"?>
<!-- Created with Inkscape (http://www.inkscape.org/) -->

<svg
   version="1.1"
   id="svg1"
   width="512"
   height="512"
   viewBox="0 0 512 512"
   sodipodi:docname="orange-outline.svg"
   inkscape:version="1.3 (0e150ed6c4, 2023-07-21)"
   xmlns:inkscape="http://www.inkscape.org/namespaces/inkscape"
   xmlns:sodipodi="http://sodipodi.sourceforge.net/DTD/sodipodi-0.dtd"
   xmlns="http://www.w3.org/2000/svg"
   xmlns:svg="http://www.w3.org/2000/svg">
  <defs
     id="defs1" />
  <sodipodi:namedview
     id="namedview1"
     pagecolor="#ffffff"
     bordercolor="#000000"
     borderopacity="0.25"
     inkscape:showpageshadow="2"
     inkscape:pageopacity="0.0"
     inkscape:pagecheckerboard="0"
     inkscape:deskcolor="#d1d1d1"
     inkscape:zoom="1.1455078"
     inkscape:cx="231.33845"
     inkscape:cy="332.16709"
     inkscape:window-width="1350"
     inkscape:window-height="1237"
     inkscape:window-x="1204"
     inkscape:window-y="92"
     inkscape:window-maximized="0"
     inkscape:current-layer="svg1" />
  <path
     style="fill:#000000;stroke:none"
     d="M 381.67499,510.94395 C 349.0958,507.15759 315.59041,492.20891 293.182,471.46216 l -7.19839,-6.6646 -10.2418,4.52065 C 249.74415,480.79337 224.79644,486 195.81062,486 111.48655,486 36.779689,432.01487 10.220762,351.8879 -3.2842086,311.14408 -3.3207973,269.58513 10.112191,228.56761 c 9.026774,-27.56318 23.835122,-52.23589 44.928923,-74.85768 7.930224,-8.50467 8.139413,-8.85297 6.442936,-10.72756 -2.502739,-2.76549 -1.551252,-7.91032 3.428024,-18.53581 8.1939,-17.48533 23.256985,-36.89768 34.303076,-44.207637 4.45556,-2.948549 4.45164,-2.775569 0.309873,-13.689654 C 95.437866,55.779095 93.704476,41.972784 94.334989,25.211067 95.185274,2.60688 96.321813,1.4335235 118.41829,0.3476161 c 20.64676,-1.01466319 36.13429,1.7471987 51.18111,9.127031 14.82835,7.2726839 25.54299,20.4095979 30.86783,37.8461779 l 2.08296,6.820826 4.75462,-6.958634 c 5.85375,-8.56726 15.22123,-18.883461 23.10263,-25.442432 5.31272,-4.421289 6.3215,-4.884838 9.51757,-4.373441 4.41327,0.706159 7.07499,3.792082 7.07499,8.202534 0,2.931697 -1.3541,4.690225 -10.88743,14.139216 -11.33104,11.230793 -18.03555,20.476448 -23.21043,32.007684 -3.188,7.10385 -7.40609,21.112803 -6.59982,21.919072 0.2581,0.258101 4.90816,0.918579 10.33348,1.467729 27.7226,2.806081 55.33075,11.901941 79.56461,26.213581 52.3608,30.92241 87.30224,84.69641 94.85058,145.97271 1.42232,11.54617 0.75809,44.95473 -1.08501,54.57256 l -1.21922,6.36223 60.08581,60.13777 c 41.66539,41.70143 60.55817,61.27756 61.62662,63.85565 4.50083,10.86021 -0.14483,17.95427 -20.91699,31.94086 -31.84187,21.44018 -70.74248,31.09985 -107.86721,26.78521 z M 428,492.51915 c 11.28589,-2.49246 26.79315,-7.89118 36.15132,-12.58577 8.31451,-4.17102 22.73597,-13.62542 28.24246,-18.51514 l 2.89378,-2.56966 -5.86248,-5.92429 C 486.20072,449.66593 483.20136,447 482.75984,447 c -0.44153,0 -3.60561,2.18951 -7.03131,4.86557 -14.07959,10.99862 -32.12293,19.25896 -50.79491,23.2542 -8.29909,1.77575 -13.60464,2.22714 -25.93362,2.2064 -16.91035,-0.0284 -25.00966,-1.31099 -40.22251,-6.36935 -42.11902,-14.00479 -74.69257,-51.3599 -83.43438,-95.68194 -2.1375,-10.83736 -2.37783,-34.60171 -0.45788,-45.27488 3.33355,-18.53146 12.12685,-38.8304 23.25546,-53.68414 3.22065,-4.29872 5.85654,-8.05495 5.85752,-8.34716 9.9e-4,-0.29222 -2.72233,-3.21722 -6.05182,-6.5 l -6.0536,-5.9687 -2.97764,3.5 c -13.97454,16.42605 -25.65569,40.85772 -30.59937,64 -2.61308,12.23233 -2.58848,44.98299 0.0428,56.95951 8.41674,38.30966 30.48212,70.82081 62.14142,91.55921 17.37083,11.37875 34.71763,18.1488 56.5,22.05062 10.22729,1.83198 40.8001,1.20243 51,-1.05019 z M 213.14405,468.94702 c 11.81034,-1.20086 22.2344,-3.16706 32.35595,-6.103 8.84713,-2.56628 27.29768,-9.70765 27.99472,-10.83548 0.28972,-0.46878 -2.40723,-5.17976 -5.99323,-10.46885 -20.88409,-30.80249 -30.53678,-66.98331 -27.44014,-102.85286 2.90613,-33.6629 14.60566,-62.81619 35.6727,-88.89045 7.56658,-9.36501 12.71662,-11.8068 20.55342,-9.74501 3.67122,0.96586 8.91667,5.79985 40.82087,37.61882 27.62756,27.55376 36.76283,36.10792 37.23811,34.86935 1.62509,-4.2349 1.7996,-29.47081 0.29072,-42.03954 -5.25099,-43.73988 -23.16199,-79.63404 -54.973,-110.1675 -27.21387,-26.12095 -60.98416,-42.44619 -98.97723,-47.8476 -5.60282,-0.79654 -12.31796,-1.4565 -14.92254,-1.46658 L 201.02879,111 l -3.13596,6.25 C 184.01251,144.91365 164.43076,163.24074 143,168.62568 c -14.2177,3.5725 -37.40349,-0.28965 -55.789366,-9.29306 l -9.394172,-4.60025 -7.490975,7.38381 C 17.050949,214.62862 1.9776933,293.90254 32.073606,363.29214 42.197598,386.63417 61.714457,412.3216 82,429.00358 c 36.1478,29.72644 85.07292,44.6279 131.14405,39.94344 z M 109,383.28377 c -7.59453,-2.72558 -8.02054,-12.42447 -0.6685,-15.2197 4.83005,-1.83639 10.6685,2.32426 10.6685,7.60267 0,4.28208 -6.17873,8.98844 -10,7.61703 z m -44.678822,-26.4725 c -4.707103,-2.2757 -5.300342,-10.3116 -0.984408,-13.3346 8.044704,-5.63473 17.149014,5.12845 10.208685,12.06878 -2.592162,2.59217 -5.621088,3.00781 -9.224277,1.26582 z m 57.751402,-27.44613 c -3.67317,-4.66968 -2.38786,-10.16348 2.8892,-12.34931 2.44148,-1.01129 3.63496,-1.01129 6.07644,0 C 139.14873,320.37531 136.79168,332 128,332 c -2.97338,0 -4.32876,-0.6025 -5.92742,-2.63486 z M 80.113796,313.25 c -1.159275,-0.9625 -2.386772,-3.19447 -2.727771,-4.95994 -0.51888,-2.68641 -0.124179,-3.70575 2.420065,-6.25 3.726047,-3.72604 7.398605,-3.92627 10.739365,-0.58551 7.069157,7.06915 -2.750612,18.17272 -10.431659,11.79545 z M 46.301689,279.49876 c -4.129193,-2.8922 -3.808435,-9.82332 0.611654,-13.21696 C 51.606109,262.67881 59,267.02226 59,273.38197 c 0,6.15069 -7.495244,9.76116 -12.698311,6.11679 z M 99,271.70599 c -3.160332,-1.59852 -5.248216,-5.86884 -4.441321,-9.08376 C 96.694429,254.11272 110,255.22945 110,263.91821 c 0,4.28283 -0.9087,5.98322 -4.07152,7.61878 -3.41564,1.76629 -3.75427,1.77455 -6.92848,0.169 z M 71.174314,235.68555 c -3.68334,-3.92074 -2.76929,-9.8094 1.897207,-12.22254 4.065121,-2.10215 5.709847,-1.83549 9.005402,1.46007 3.450474,3.45047 3.722545,6.79084 0.850497,10.44206 -2.768381,3.51943 -8.598471,3.67836 -11.753106,0.32041 z m 43.706826,-15.69226 c -0.89038,-0.52024 -2.1482,-2.22382 -2.79516,-3.78572 -2.3504,-5.67436 2.84774,-12.03995 8.76969,-10.73927 4.68151,1.02823 6.63464,4.0804 6.25948,9.7817 -0.2967,4.509 -7.71352,7.38459 -12.23401,4.74329 z m 297.90837,240.5519 c 17.91362,-1.48898 40.52876,-11.06865 56.68249,-24.01044 1.89329,-1.51684 0.59621,-2.95612 -32.49864,-36.0614 -19.10166,-19.10768 -34.66546,-33.92237 -34.90759,-33.22743 -2.37666,6.82118 -23.62043,91.44612 -23.10263,92.02974 0.85615,0.96499 18.12019,2.50018 23.53686,2.093 2.2,-0.16538 6.83028,-0.53594 10.28951,-0.82347 z m -38.40817,-51.58961 c 6.52474,-25.32442 11.68907,-46.2185 11.47629,-46.43128 -0.41453,-0.41453 -88.62583,25.91057 -89.39303,26.67777 -0.74606,0.74605 8.15708,18.35057 12.55758,24.8306 10.01575,14.74883 25.46769,27.8825 42.47782,36.10481 5.5,2.65857 10.22909,4.84024 10.50909,4.84814 0.28,0.008 5.84751,-20.70561 12.37225,-46.03004 z M 336.5,359.88197 c 24.2,-7.22544 44.32753,-13.42978 44.72784,-13.78741 0.40031,-0.35763 -14.12772,-15.48771 -32.28452,-33.6224 L 315.93097,279.5 313.94625,282 c -17.85851,22.49504 -26.77711,51.8812 -23.98965,79.04426 0.57387,5.59221 1.0434,10.56997 1.0434,11.06169 0,0.49173 0.3375,0.89836 0.75,0.90362 0.4125,0.005 20.55,-5.90215 44.75,-13.1276 z M 138.88822,152.93946 c 15.94419,-3.67573 32.29679,-19.34223 43.48915,-41.6645 C 184.36982,107.30119 186,103.85646 186,103.62 186,102.60218 169.83647,93.857747 162.65152,90.988526 127.80204,77.071819 102.89988,88.094364 82.648236,126.4007 80.641706,130.19609 79,133.89759 79,134.62627 c 0,1.82394 13.797902,9.75251 23.5,13.50361 14.11839,5.45855 26.48374,7.09293 36.38822,4.80958 z M 187.1093,65 c -4.51938,-33.586359 -23.32865,-48 -62.63825,-48 -7.581,0 -12.60474,0.40729 -13.00463,1.054326 -0.35838,0.57988 -0.64881,6.31738 -0.64539,12.75 0.007,12.543087 1.47124,20.920383 5.73888,32.826359 l 2.55597,7.130685 4.19206,-0.97008 c 6.68191,-1.546254 25.08608,-0.409743 34.27802,2.116767 4.44728,1.222386 12.99728,4.588787 19,7.480891 l 10.91404,5.258371 0.30925,-6.07366 C 187.97934,75.233147 187.66436,69.125 187.1093,65 Z"
     id="path1" />
</svg>
