<?xml version="1.0" encoding="UTF-8" standalone="no"?>
<!-- Created with Inkscape (http://www.inkscape.org/) -->

<svg
   version="1.1"
   id="svg1"
   width="512"
   height="512"
   viewBox="0 0 512 512"
   sodipodi:docname="orange-filled.svg"
   inkscape:version="1.3 (0e150ed6c4, 2023-07-21)"
   xmlns:inkscape="http://www.inkscape.org/namespaces/inkscape"
   xmlns:sodipodi="http://sodipodi.sourceforge.net/DTD/sodipodi-0.dtd"
   xmlns="http://www.w3.org/2000/svg"
   xmlns:svg="http://www.w3.org/2000/svg">
  <defs
     id="defs1" />
  <sodipodi:namedview
     id="namedview1"
     pagecolor="#ffffff"
     bordercolor="#000000"
     borderopacity="0.25"
     inkscape:showpageshadow="2"
     inkscape:pageopacity="0.0"
     inkscape:pagecheckerboard="0"
     inkscape:deskcolor="#d1d1d1"
     inkscape:zoom="1.1455078"
     inkscape:cx="231.33845"
     inkscape:cy="332.16709"
     inkscape:window-width="1350"
     inkscape:window-height="1237"
     inkscape:window-x="1204"
     inkscape:window-y="92"
     inkscape:window-maximized="0"
     inkscape:current-layer="svg1" />
  <path
     style="fill:#aad400;fill-opacity:1;stroke:none;stroke-width:0.872975"
     d="M 177.21398,468.24489 C 136.50405,463.56408 97.689531,445.07124 70.27451,417.2945 42.869124,389.52753 26.550657,358.0287 19.615166,319.50895 17.447469,307.46956 16.96082,280.8264 18.672053,267.87529 c 3.713875,-28.10768 14.100926,-55.68193 29.37633,-77.98462 6.226094,-9.09034 17.066379,-22.12037 24.295252,-29.20292 l 5.28452,-5.17755 9.949949,4.46208 c 20.965696,9.40212 39.857496,12.3712 56.026326,8.80521 19.64437,-4.3325 39.20153,-22.37378 54.02186,-49.83461 4.78477,-8.86578 3.7275,-8.5245 19.74455,-6.37343 41.15358,5.52687 76.38642,22.70627 104.66005,51.03184 31.08906,31.14617 48.47234,68.05338 52.46273,111.38592 1.59175,17.28518 0.8822,36.22848 -1.35699,36.22848 -0.61658,0 -16.33496,-14.96945 -34.92974,-33.26544 -18.59478,-18.29599 -35.35168,-34.38318 -37.23756,-35.7493 -10.51901,-7.61994 -19.96741,-2.23724 -34.67137,19.7521 -19.12762,28.60478 -27.961,59.93646 -26.80991,95.09384 0.98704,30.14658 8.94429,55.05419 26.62417,83.33834 3.44083,5.50462 6.25607,10.45996 6.25607,11.01187 0,1.09321 -13.63805,6.68815 -25.07758,10.28795 -20.60108,6.48277 -48.24281,9.0703 -70.07673,6.55984 z M 116.6295,380.70452 c 1.90976,-1.90977 2.96811,-3.80857 2.96811,-5.32515 0,-1.51658 -1.05835,-3.41539 -2.96811,-5.32515 -3.68873,-3.68873 -7.12566,-3.91133 -10.93251,-0.70808 -5.60116,4.71306 -2.28581,14.32649 4.94072,14.32649 2.27472,0 3.75886,-0.73519 5.99179,-2.96811 z M 73.270069,355.95567 c 5.804918,-5.38765 2.593472,-14.18585 -5.177997,-14.18585 -4.92599,0 -7.856778,2.94104 -7.856778,7.88425 0,2.81358 0.556733,4.15547 2.551774,6.1505 3.338981,3.33899 6.991486,3.39164 10.483001,0.1511 z m 60.771311,-25.93134 c 1.48388,-1.48386 2.14276,-3.11212 2.14276,-5.29524 0,-4.30498 -1.33061,-6.44516 -4.94649,-7.95596 -8.4549,-3.53268 -15.27305,5.70457 -9.38,12.70805 1.90112,2.25936 2.8779,2.68591 6.15051,2.68591 2.96665,0 4.39928,-0.50881 6.03322,-2.14276 z M 89.596037,314.03344 c 4.332244,-3.50925 4.937974,-8.32983 1.552277,-12.3535 -3.17671,-3.77531 -7.485546,-3.73606 -11.44776,0.10427 -1.65051,1.59974 -2.87873,3.66675 -2.87873,4.84472 0,2.64427 2.186356,6.86698 4.146614,8.00872 2.346013,1.36643 6.559053,1.07138 8.627599,-0.60421 z M 57.398124,278.45991 C 61.976635,273.1905 57.983316,264.948 50.85189,264.948 c -8.126883,0 -10.916253,11.71038 -3.69402,15.5083 3.097326,1.62878 7.904745,0.69154 10.240254,-1.99639 z m 49.977836,-7.34263 c 1.7103,-1.20967 2.24066,-2.43801 2.45159,-5.67792 0.34079,-5.2344 -1.4033,-8.07237 -5.4245,-8.82675 -5.692278,-1.06788 -10.12172,2.10394 -10.12172,7.24792 0,3.87022 1.243718,6.04556 4.635911,8.10847 2.987699,1.81693 4.967479,1.61758 8.458719,-0.85172 z M 82.220498,236.25042 c 3.597319,-3.2142 3.865014,-7.65571 0.668505,-11.09155 -3.230754,-3.47266 -5.685657,-4.12259 -9.225975,-2.44261 -8.402644,3.98732 -5.614054,15.72007 3.799755,15.98714 1.072732,0.0304 3.213704,-1.0734 4.757715,-2.45298 z m 41.679552,-16.22836 c 6.20131,-3.20682 4.13503,-13.59325 -2.96939,-14.92604 -5.69137,-1.06771 -11.0221,4.37157 -9.66049,9.8572 1.42867,5.75578 6.98737,7.98669 12.62988,5.06884 z"
     id="path2" />
  <path
     style="fill:#aad400;fill-opacity:1;stroke:none;stroke-width:0.872975"
     d="m 117.91162,152.25704 c -10.22673,-2.00607 -29.859645,-10.5106 -35.894432,-15.54867 l -2.892623,-2.41487 4.197837,-7.78443 c 12.044812,-22.3358 24.784118,-34.512756 41.055188,-39.242883 7.499,-2.180018 21.15201,-1.408848 31.01201,1.751666 7.46,2.391222 27.12122,11.960567 28.84723,14.040277 1.13391,1.36628 -4.87742,13.69422 -10.7822,22.11202 -5.13766,7.32418 -14.61773,16.86226 -20.98956,21.11799 -9.30374,6.21395 -22.06563,8.41849 -34.55345,5.9689 z"
     id="path3" />
  <path
     style="fill:#aad400;fill-opacity:1;stroke:none;stroke-width:0.872975"
     d="M 177.65047,79.431058 C 158.19348,70.058264 140.2974,66.956484 120.9717,69.607394 c -1.39838,0.191816 -2.15904,-1.165036 -4.51997,-8.062637 -1.56125,-4.561296 -3.32134,-11.043137 -3.9113,-14.404092 -1.06636,-6.074915 -1.41733,-28.044951 -0.46326,-28.999022 1.26041,-1.260411 26.5788,-0.222138 34.33828,1.408166 20.47329,4.301535 33.29197,16.188939 38.22468,35.447633 2.84099,11.09205 3.75705,28.578513 1.48229,28.295035 -0.33835,-0.04217 -4.15072,-1.779803 -8.47195,-3.861419 z"
     id="path4" />
  <path
     style="fill:#aad400;fill-opacity:1;stroke:none;stroke-width:0.872975"
     d="m 291.25729,369.65048 c -0.29408,-1.47042 -0.77506,-7.46121 -1.06885,-13.31287 -0.86087,-17.14711 2.62444,-34.68911 10.11235,-50.89666 3.58106,-7.75119 14.33893,-24.7794 15.65482,-24.7794 0.84212,0 64.91014,64.64263 64.4872,65.06557 -0.64299,0.643 -86.69191,26.59684 -88.18074,26.59684 -0.25855,0 -0.7107,-1.20307 -1.00478,-2.67348 z"
     id="path5" />
  <path
     style="fill:#aad400;fill-opacity:1;stroke:none;stroke-width:0.872975"
     d="m 351.1938,449.20513 c -13.05853,-6.79205 -20.08133,-11.87333 -29.54119,-21.37422 -10.16573,-10.20982 -15.81782,-18.54917 -22.57413,-33.3069 l -2.20146,-4.80864 2.36797,-0.90418 c 2.89624,-1.1059 61.41873,-18.71786 75.09612,-22.59969 5.43067,-1.5413 10.08117,-2.59513 10.33446,-2.34184 0.78163,0.78162 -21.75195,88.48033 -23.07281,89.79738 -0.34512,0.34412 -5.02915,-1.66374 -10.40896,-4.46191 z"
     id="path6" />
  <path
     style="fill:#aad400;fill-opacity:1;stroke:none;stroke-width:0.872975"
     d="m 389.41302,460.40462 c -4.52497,-0.40609 -8.59383,-1.10495 -9.04191,-1.55303 -1.42624,-1.42624 20.81406,-90.01954 22.59834,-90.01954 1.27813,0 52.55488,50.33154 60.80343,59.6826 6.90567,7.82871 7.08537,6.8436 -2.40545,13.1867 -21.37349,14.28478 -46.99087,20.94357 -71.95441,18.70327 z"
     id="path7" />
  <path
     style="fill:#aad400;fill-opacity:1;stroke:none;stroke-width:0.872975"
     d="m 382.79966,493.70196 c -33.46605,-3.32757 -69.8347,-22.77974 -91.99622,-49.20517 -8.56361,-10.21126 -14.32928,-19.17886 -20.17977,-31.38649 -9.57801,-19.98546 -12.80319,-32.66656 -13.63197,-53.59967 -1.04039,-26.27766 1.8141,-43.09514 10.91454,-64.30404 6.11927,-14.26118 12.44133,-24.88809 20.99056,-35.28356 l 3.05563,-3.71551 5.485,5.43624 c 3.01674,2.98993 5.48499,5.73787 5.48499,6.10654 0,0.36867 -3.01549,5.09408 -6.7011,10.50092 -10.09172,14.80472 -17.42347,31.6618 -21.36165,49.11451 -1.88458,8.35179 -1.58469,40.7681 0.46437,50.19608 7.91627,36.42372 33.15113,69.50488 65.81928,86.28455 10.00028,5.13654 26.01748,10.68245 35.982,12.45867 9.90268,1.76519 36.99149,1.53017 46.15835,-0.40048 20.11461,-4.23636 36.10597,-11.43996 53.16506,-23.94918 l 6.35154,-4.6575 5.65187,5.4272 c 3.10852,2.98497 5.65187,5.75497 5.65187,6.15557 0,1.11631 -12.26709,9.93807 -22.14526,15.92558 -13.40169,8.12321 -35.0002,16.01913 -49.00223,17.91407 -8.98123,1.21546 -32.11738,1.78104 -40.15686,0.98167 z"
     id="path8" />
</svg>
