<?xml version="1.0" encoding="UTF-8" standalone="no"?>
<!-- Created with Inkscape (http://www.inkscape.org/) -->

<svg
   version="1.1"
   id="svg1"
   width="512"
   height="512"
   viewBox="0 0 512 512"
   sodipodi:docname="pear-filled.svg"
   inkscape:version="1.3 (0e150ed6c4, 2023-07-21)"
   xmlns:inkscape="http://www.inkscape.org/namespaces/inkscape"
   xmlns:sodipodi="http://sodipodi.sourceforge.net/DTD/sodipodi-0.dtd"
   xmlns="http://www.w3.org/2000/svg"
   xmlns:svg="http://www.w3.org/2000/svg">
  <defs
     id="defs1" />
  <sodipodi:namedview
     id="namedview1"
     pagecolor="#ffffff"
     bordercolor="#000000"
     borderopacity="0.25"
     inkscape:showpageshadow="2"
     inkscape:pageopacity="0.0"
     inkscape:pagecheckerboard="0"
     inkscape:deskcolor="#d1d1d1"
     inkscape:zoom="1.1455078"
     inkscape:cx="262.76556"
     inkscape:cy="344.38875"
     inkscape:window-width="1350"
     inkscape:window-height="1237"
     inkscape:window-x="1185"
     inkscape:window-y="70"
     inkscape:window-maximized="0"
     inkscape:current-layer="svg1" />
  <path
     style="fill:#aad400;fill-opacity:1;stroke:none;stroke-width:0.872975"
     d="m 175.2844,493.62511 c -7.79719,-1.0849 -21.37114,-5.48219 -29.69556,-9.61989 -29.00046,-14.41486 -47.383586,-36.57427 -56.320342,-67.88974 -2.399197,-8.40708 -2.407438,-8.53039 -2.401607,-35.93475 0.0067,-31.71988 0.625237,-36.62181 7.049059,-55.8685 5.669343,-16.98617 10.8451,-26.07079 35.43966,-62.20454 20.44911,-30.04336 29.79907,-46.83286 48.63866,-87.33929 5.76177,-12.38821 12.23493,-25.74473 14.38481,-29.68116 17.16721,-31.43327 36.61733,-43.63968 67.33106,-42.2553 26.35266,1.18781 43.18109,12.73308 58.79393,40.33601 2.44418,4.32122 9.11165,17.87416 14.8166,30.11764 20.60327,44.21702 26.22502,54.34774 48.79598,87.93321 29.68299,44.16813 35.58027,55.65338 40.27488,78.4373 3.57476,17.34906 4.73081,44.3983 2.69418,63.03815 -1.1105,10.16356 -6.27531,26.43635 -11.41834,35.97583 -14.58655,27.05567 -39.11822,45.88741 -69.65585,53.47131 -10.85483,2.69576 -39.28745,2.69139 -51.84252,-0.008 -4.71405,-1.01352 -9.13349,-2.3096 -9.82097,-2.88016 -0.6875,-0.57057 -1.24999,-2.32931 -1.24999,-3.90831 0,-2.13413 -0.68931,-3.45094 -2.68591,-5.13097 -3.06599,-2.57986 -5.63025,-2.82103 -10.10688,-0.95057 -4.00109,1.67176 -3.79374,1.73967 -3.79374,-1.24248 0,-3.23181 -3.58501,-7.57114 -6.75576,-8.17728 -4.73111,-0.9044 -9.80808,2.68598 -9.84414,6.96169 -0.0278,3.29789 -1.27086,4.05113 -4.19231,2.54039 -6.20178,-3.20707 -12.09484,-0.39795 -12.97798,6.18638 -0.57666,4.29927 -1.40408,4.75354 -12.4975,6.86113 -8.80068,1.67201 -34.49978,2.40893 -42.95942,1.23185 z"
     id="path2" />
  <path
     style="fill:#aad400;fill-opacity:1;stroke:none;stroke-width:0.872975"
     d="M 171.03322,103.48105 C 157.41289,100.04313 148.00481,94.338258 137.20369,82.967483 129.29728,74.644092 122.88493,64.906495 116.09433,50.911466 110.4732,39.326634 109.85077,36.011 112.63312,32.473822 c 1.86119,-2.366123 10.81225,-6.202841 23.04883,-9.879488 17.26011,-5.186033 36.97402,-6.375648 49.80549,-3.00546 21.79686,5.724948 41.92419,26.933433 55.5355,58.518627 l 3.19096,7.404677 -8.53139,1.913335 c -11.43487,2.564501 -17.10469,4.977971 -27.45635,11.687347 l -8.7082,5.64417 -10.93375,0.19714 c -8.39153,0.1513 -12.47232,-0.19121 -17.55099,-1.47312 z"
     id="path3" />
</svg>
