<?xml version="1.0" encoding="UTF-8" standalone="no"?>
<!-- Created with Inkscape (http://www.inkscape.org/) -->

<svg
   version="1.1"
   id="svg1"
   width="512"
   height="512"
   viewBox="0 0 512 512"
   sodipodi:docname="peas-outline-white.svg"
   inkscape:version="1.3 (0e150ed6c4, 2023-07-21)"
   xmlns:inkscape="http://www.inkscape.org/namespaces/inkscape"
   xmlns:sodipodi="http://sodipodi.sourceforge.net/DTD/sodipodi-0.dtd"
   xmlns="http://www.w3.org/2000/svg"
   xmlns:svg="http://www.w3.org/2000/svg">
  <defs
     id="defs1" />
  <sodipodi:namedview
     id="namedview1"
     pagecolor="#ffffff"
     bordercolor="#000000"
     borderopacity="0.25"
     inkscape:showpageshadow="2"
     inkscape:pageopacity="0.0"
     inkscape:pagecheckerboard="0"
     inkscape:deskcolor="#d1d1d1"
     inkscape:zoom="0.80999634"
     inkscape:cx="249.38384"
     inkscape:cy="353.7053"
     inkscape:window-width="1350"
     inkscape:window-height="1237"
     inkscape:window-x="1187"
     inkscape:window-y="54"
     inkscape:window-maximized="0"
     inkscape:current-layer="svg1" />
  <path
     style="fill:#ffffff;stroke:none;fill-opacity:1"
     d="M 30.617739,510.8877 C 14.125451,507.01596 1.4696178,491.72863 0.28606138,474.24924 -0.30964683,465.4515 1.3170564,434.8072 3.5639198,412.5 12.704064,321.75528 38.900473,240.39158 78.698908,179.13746 124.3198,108.92195 190.48249,60.474476 281.5,30.636818 337.23354,12.366069 405.48455,1.056958 462.53616,0.63934357 L 481.57232,0.5 l 7.5724,3.73472 c 9.11789,4.4969652 14.78005,10.275642 19.19076,19.585671 L 511.5,30.5 511.36347,49 C 510.94415,105.81763 499.73583,174.14837 481.84922,228.93152 439.53816,358.52198 360.97801,437.79379 232.5,480.53954 181.23073,497.59727 128.57239,507.2881 67,510.99685 47.467144,512.17339 35.947128,512.13883 30.617739,510.8877 Z M 92,492.49453 c 106.85401,-10.18361 195.77343,-42.08512 259.5,-93.10048 14.09379,-11.28258 36.61147,-33.80026 47.89405,-47.89405 56.8198,-70.97727 91.54842,-178.74649 95.28831,-295.696949 0.55294,-17.291181 0.4175,-20.253055 -1.10895,-24.25 C 492.61706,29.048873 491.70869,27 491.55483,27 c -1.23018,0 -16.631,6.939453 -23.51454,10.595409 C 418.80281,63.746243 386.08487,106.90019 377.89064,156.5 c -2.40081,14.53212 -3.18562,16.6738 -7.49729,20.45949 -4.03798,3.5454 -7.66354,4.56592 -21.1941,5.96571 -80.83864,8.36309 -160.52253,89.86349 -166.77296,170.5748 -0.77931,10.06323 -2.66836,14.84301 -7.45951,18.8745 -3.56065,2.99609 -3.49944,2.97811 -18.98838,5.57884 -51.35806,8.62351 -95.487835,43.48017 -120.965451,95.54666 -9.05884,18.5128 -8.924746,17.89085 -4.292633,19.90992 3.241789,1.41305 6.697085,1.57704 24.279684,1.15232 11.275,-0.27236 27.925,-1.20283 37,-2.06771 z M 31.615629,446.17114 c 9.122079,-14.02751 18.003486,-24.8839 30.878885,-37.74552 l 12.087316,-12.07438 -3.779157,-7.92562 c -12.328308,-25.85483 -10.389717,-57.13006 4.976124,-80.27968 8.481236,-12.77753 20.640019,-23.2386 34.380923,-29.58038 11.62392,-5.36474 18.75239,-6.89257 32.58718,-6.98433 6.73579,-0.0447 12.24829,-0.33008 12.25,-0.63423 0.002,-0.30415 -1.30297,-2.32915 -2.89927,-4.5 -4.21325,-5.7297 -9.55674,-16.82777 -12.25219,-25.447 -2.02301,-6.46897 -2.34544,-9.56206 -2.34544,-22.5 0,-12.94408 0.32127,-16.02313 2.34401,-22.46476 8.73142,-27.80611 28.38512,-47.45981 56.19123,-56.19123 6.44163,-2.02274 9.52068,-2.34401 22.46476,-2.34401 12.93794,0 16.03103,0.32243 22.5,2.34544 8.61923,2.69545 19.7173,8.03894 25.447,12.25219 2.17085,1.5963 4.19585,2.90342 4.5,2.9047 0.30415,0.001 0.4082,-3.79668 0.23123,-8.43992 -1.05436,-27.6631 13.21807,-55.020598 36.90692,-70.743475 23.8832,-15.85187 57.62722,-17.415776 82.70503,-3.833059 l 5.57509,3.019596 8.41271,-9.015641 C 419.86575,49.820732 441.83743,32.982705 462,22.137647 l 9.5,-5.109866 -8.67045,-0.01389 c -20.99327,-0.03363 -63.46012,4.091852 -92.48579,8.984624 C 261.64436,44.321651 175.68907,87.356469 120.67294,151 73.271119,205.83517 41.20688,280.12229 25.998514,370.34376 c -4.895668,29.04285 -9.022182,71.53363 -8.981805,92.48579 l 0.01671,8.67045 4.471688,-8.32886 c 2.459429,-4.58088 7.009164,-12.23088 10.110524,-17 z M 107.5,376.52697 c 15.96856,-7.63119 24.21229,-10.09815 54.5,-16.30923 2.98113,-0.61134 3.53585,-1.16249 3.7418,-3.71774 1.41074,-17.50262 4.47531,-32.34553 9.70394,-47 1.96236,-5.5 3.67736,-10.45 3.8111,-11 0.37278,-1.53308 -13.63647,-8.08756 -20.58059,-9.62901 -10.62624,-2.35879 -23.87956,-1.74927 -34.07448,1.56709 -38.080478,12.38741 -56.484988,55.29232 -39.01917,90.96218 l 2.686486,5.48652 5.115457,-3.0294 C 96.198044,382.19121 102.55,378.89253 107.5,376.52697 Z M 198.30458,264.25 c 18.38006,-27.44189 40.91511,-49.73403 68.44542,-67.70759 5.6375,-3.68052 10.25,-7.02013 10.25,-7.42136 0,-0.40122 -1.35719,-2.86955 -3.01598,-5.48519 -12.86543,-20.28669 -37.7415,-31.85205 -61.66363,-28.66861 -15.97824,2.12631 -27.82297,7.92888 -38.73035,18.97349 -12.79276,12.95371 -18.77136,27.20209 -18.90681,45.05926 -0.13124,17.3037 5.22167,32.02891 15.95463,43.88921 4.77818,5.28007 16.2672,14.11079 18.35853,14.11079 0.42267,0 4.61135,-5.7375 9.30819,-12.75 z M 313,174.17809 c 14.03824,-4.57404 27.16369,-7.11955 43.5,-8.43629 2.55525,-0.20595 3.1064,-0.76067 3.71774,-3.7418 4.33173,-21.12324 6.37011,-29.50764 8.95913,-36.85131 3.343,-9.48233 9.9465,-23.77028 14.68051,-31.764147 l 3.0294,-5.115457 -5.48652,-2.686486 c -35.44817,-17.35727 -78.12726,0.733036 -90.86835,38.5162 -5.70784,16.92635 -3.1537,39.57946 6.05034,53.66148 1.35744,2.07685 1.69807,2.14881 4.19754,0.88672 1.49611,-0.75546 6.99521,-2.76647 12.22021,-4.46891 z"
     id="path1" />
</svg>
