<?xml version="1.0" encoding="UTF-8" standalone="no"?>
<!-- Created with Inkscape (http://www.inkscape.org/) -->

<svg
   version="1.1"
   id="svg1"
   width="512"
   height="512"
   viewBox="0 0 512 512"
   sodipodi:docname="pineapple-outline.svg"
   inkscape:version="1.3 (0e150ed6c4, 2023-07-21)"
   xmlns:inkscape="http://www.inkscape.org/namespaces/inkscape"
   xmlns:sodipodi="http://sodipodi.sourceforge.net/DTD/sodipodi-0.dtd"
   xmlns="http://www.w3.org/2000/svg"
   xmlns:svg="http://www.w3.org/2000/svg">
  <defs
     id="defs1" />
  <sodipodi:namedview
     id="namedview1"
     pagecolor="#ffffff"
     bordercolor="#000000"
     borderopacity="0.25"
     inkscape:showpageshadow="2"
     inkscape:pageopacity="0.0"
     inkscape:pagecheckerboard="0"
     inkscape:deskcolor="#d1d1d1"
     inkscape:zoom="0.80999634"
     inkscape:cx="144.4451"
     inkscape:cy="473.45893"
     inkscape:window-width="1350"
     inkscape:window-height="1237"
     inkscape:window-x="1022"
     inkscape:window-y="82"
     inkscape:window-maximized="0"
     inkscape:current-layer="svg1" />
  <path
     style="fill:#000000;stroke:none"
     d="M 213.60878,510.98428 C 179.51725,506.7973 147.01633,490.19484 123.97358,465.19589 105.15447,444.77913 92.856183,419.81727 87.28834,390.73577 85.726894,382.58016 85.518916,374.83365 85.510046,324.5 c -0.009,-51.31775 0.175157,-57.99689 1.847767,-67 3.652808,-19.66187 11.67071,-39.74865 22.170637,-55.54279 l 4.71551,-7.09314 -2.73153,-2.8511 c -5.84425,-6.10008 -18.891648,-11.29321 -31.527031,-12.54839 -6.930402,-0.68846 -8.960993,-1.65456 -10.822056,-5.14884 -1.89517,-3.55831 -1.351648,-6.28128 1.903546,-9.53647 3.045157,-3.04516 3.124873,-3.06275 11.25,-2.48164 5.973291,0.42721 18.629071,3.22592 21.205821,4.68947 0.0125,0.007 -0.23528,-3.0246 -0.55061,-6.7371 -1.89943,-22.36261 4.72893,-55.46401 18.21147,-90.94638 5.68487,-14.961045 8.80325,-18.956256 13.98674,-17.919559 4.6843,0.93686 25.00495,13.653287 40.52742,25.361596 l 3.19774,2.41199 3.69062,-7.328824 C 194.61639,47.939104 217.22185,23.797194 244.35944,5.8568675 249.60418,2.3896329 254.30803,0 255.88832,0 c 1.55974,0 6.39878,2.4204046 11.64056,5.8224069 26.05289,16.9087641 50.13428,42.6727691 62.10606,66.4455461 l 3.46959,6.889694 3.19774,-2.41199 c 15.52247,-11.708309 35.84312,-24.424736 40.52742,-25.361596 5.18349,-1.036697 8.30187,2.958514 13.98674,17.919559 13.46248,35.42958 20.36312,70.04093 18.23213,91.44638 -0.34222,3.4375 -0.60564,6.24419 -0.58539,6.2371 7.39601,-2.59091 14.82118,-4.23183 21.21994,-4.68947 8.12513,-0.58111 8.20484,-0.56352 11.25,2.48164 3.25519,3.25519 3.79872,5.97816 1.90355,9.53647 -1.86107,3.49428 -3.89166,4.46038 -10.82206,5.14884 -12.63538,1.25518 -25.68278,6.44831 -31.52703,12.54839 l -2.73153,2.8511 4.46644,6.81797 c 13.82365,21.10165 21.41057,42.76693 23.74902,67.81796 1.3183,14.12246 1.3226,93.48409 0.006,108.36033 -0.55304,6.24819 -1.70787,14.76064 -2.5663,18.91655 -6.54128,31.66835 -25.31819,62.30912 -50.73191,82.78596 -18.22506,14.68464 -38.39694,24.20967 -62.67915,29.59668 -8.6406,1.91692 -13.11852,2.13306 -49.5,2.38934 -22,0.15497 -43.10105,-0.0991 -46.89122,-0.56458 z m 89.465,-17.59961 c 45.4833,-7.79426 83.64159,-39.80945 99.38459,-83.38467 6.79275,-18.80173 6.81899,-19.08819 7.28165,-79.5 0.29054,-37.9371 0.0635,-57.87004 -0.73185,-64.25118 C 402.07768,210.64468 361.3253,167.16985 305,155.29241 297.63158,153.73862 291.10836,153.5 256,153.5 c -35.10836,0 -41.63158,0.23862 -49,1.79241 -27.45588,5.78968 -52.20042,19.35505 -69.92442,38.33374 -14.15692,15.15909 -25.40166,35.23795 -30.58851,54.61953 -4.28256,16.00252 -4.67587,23.65589 -4.22709,82.25432 0.46266,60.41181 0.4889,60.69827 7.28165,79.5 15.69054,43.43003 53.63434,75.41168 98.95837,83.40895 12.32845,2.17532 81.84224,2.15747 94.57378,-0.0243 z m -58.7933,-46.29554 C 233.7325,441.93093 231,439.38841 231,434.73204 231,431.31248 234.9935,427 238.16013,427 c 1.23807,0 5.75853,1.64596 10.04545,3.65769 l 7.79442,3.6577 7.79442,-3.6577 c 9.18378,-4.30968 11.45893,-4.49525 14.75103,-1.20314 2.85723,2.85722 3.1933,7.04573 0.83542,10.41207 C 277.6993,442.2674 258.9447,452 256,452 c -0.92252,0 -6.1963,-2.20989 -11.71952,-4.91087 z m -84.35306,-50.6665 C 148.07982,390.67017 146,388.79987 146,383.89827 c 0,-2.86347 0.62457,-4.24439 2.63486,-5.82569 3.68477,-2.89844 6.23447,-2.61568 14.8486,1.64671 l 7.51654,3.71928 7.51654,-3.71928 c 8.53161,-4.22156 11.21239,-4.55213 14.21677,-1.75312 2.93937,2.73844 3.65724,5.67674 2.22921,9.12432 -0.97024,2.34237 -3.45464,4.06219 -12.17235,8.42628 C 176.76586,398.53255 171.27842,401 170.59586,401 c -0.68256,0 -5.48336,-2.05982 -10.66844,-4.57737 z m 169.38778,-0.81178 c -9.05433,-4.44371 -11.20679,-5.9349 -12.26929,-8.5 -1.04013,-2.51112 -1.04593,-3.69658 -0.0301,-6.14907 2.51016,-6.06005 6.17299,-6.33641 16.46763,-1.24249 l 7.51654,3.71928 7.51654,-3.71928 c 8.61413,-4.26239 11.16383,-4.54515 14.8486,-1.64671 3.48655,2.74252 3.67979,8.60494 0.38486,11.67574 C 361.37654,391.96032 343.47708,401 341.47055,401 c -0.64604,0 -6.11595,-2.42512 -12.15535,-5.38915 z m -86.31413,-51.6226 c -5.22441,-2.72174 -10.06191,-5.71855 -10.75,-6.65957 -1.86756,-2.55403 -1.51412,-6.72454 0.82151,-9.69382 3.00315,-3.81789 7.54827,-3.5018 16.03459,1.11514 L 256,332.5 l 6.89283,-3.75 c 8.48632,-4.61694 13.03144,-4.93303 16.03459,-1.11514 2.61648,3.32632 2.65642,7.7813 0.0927,10.34498 -3.27495,3.27495 -19.66899,11.02316 -23.25018,10.98859 -1.92371,-0.0186 -7.18073,-2.06893 -12.76891,-4.98018 z m -85.21008,-51.02851 c -5.33996,-2.71593 -10.17746,-5.81334 -10.75,-6.88315 C 145.36891,282.95228 145.82343,278.17657 148,276 c 3.37042,-3.37042 7.05659,-3.00383 16.22572,1.61367 l 6.77428,3.41147 6.97504,-3.51257 c 8.59734,-4.32955 13.04469,-4.57425 15.95238,-0.87771 2.47704,3.14905 2.63706,6.11422 0.49499,9.17245 -2.0362,2.90708 -20.53991,12.20831 -24.15424,12.14158 -1.52249,-0.0281 -7.13723,-2.27323 -12.47718,-4.98915 z m 171.03595,0.0181 c -12.77875,-6.49965 -15.40652,-10.42867 -10.84944,-16.22205 3.16598,-4.02489 6.22135,-3.95253 15.13593,0.35846 l 7.98492,3.86141 6.72511,-3.3867 C 356.94119,272.99729 360.63452,272.63452 364,276 c 2.64216,2.64216 2.65264,8.34736 0.0202,10.97984 -3.02507,3.02507 -19.62091,11.02679 -22.75018,10.96905 -1.52349,-0.0281 -7.12286,-2.26511 -12.44304,-4.9711 z M 242.79099,232.95974 C 232.86421,227.91094 231,226.1023 231,221.52029 231,218.1937 235.14781,214 238.438,214 c 1.3909,0 5.91136,1.67368 10.04546,3.71929 l 7.51654,3.71928 7.51654,-3.71928 c 8.8136,-4.36109 11.69047,-4.60319 15.02891,-1.26474 2.59184,2.59183 3.14824,6.38075 1.41312,9.62287 -1.48236,2.76982 -20.15725,11.93454 -24.1904,11.87147 -1.85504,-0.029 -7.46626,-2.18628 -12.97718,-4.98915 z m -110.9312,-57.127 c 11.71625,-10.7338 26.8703,-20.65568 40.64021,-26.60855 8.20931,-3.54896 21.88161,-7.94176 27.52878,-8.84478 4.69203,-0.75029 4.80561,-1.43567 1.483,-8.9487 -7.57515,-17.12874 -24.76301,-34.487624 -52.76491,-53.289925 -10.46213,-7.024958 -10.35825,-7.003951 -12.25648,-2.478552 -5.9622,14.213992 -12.09445,36.842157 -14.86108,54.837767 -2.69772,17.54733 -2.98043,26.17924 -1.14361,34.91719 1.63976,7.80052 4.25303,15.58281 5.23267,15.58281 0.27567,0 3.03931,-2.32527 6.14142,-5.16726 z m 256.52339,0.83398 c 4.94048,-12.93646 5.35612,-22.41448 1.99831,-45.56776 C 387.76488,113.05649 377.45237,76.426155 373.90629,72.578507 372.85892,71.442071 355.88827,82.592171 343.5,92.556127 327.00615,105.82222 316.64964,117.96474 310.42364,131.33661 307.49668,137.62297 307.34975,140 309.88813,140 c 3.00038,0 18.86324,4.81331 27.69961,8.40497 14.54584,5.91235 36.38861,20.35969 45.33657,29.98673 1.33338,1.43457 2.73474,2.6083 3.11415,2.6083 0.3794,0 1.43453,-1.94998 2.34472,-4.33328 z m -94.57826,-47.95586 c 3.72232,-9.79936 12.99258,-24.20181 20.08915,-31.21086 2.78433,-2.75 5.07221,-5.831453 5.08418,-6.847673 0.012,-1.01622 -1.85388,-5.686847 -4.14633,-10.379171 -9.84115,-20.143522 -27.2537,-39.582461 -50.52448,-56.404285 l -8.19257,-5.922182 -7.5089,5.320038 C 231.73389,35.220552 217.28358,49.335968 206.61997,64.279679 201.23782,71.822077 193,87.515058 193,90.225597 c 0,1.01848 2.28029,4.196872 5.06732,7.063093 7.31744,7.52537 16.48959,21.84434 20.12776,31.42217 L 221.34374,137 H 256 290.65626 Z"
     id="path1" />
</svg>
