<?xml version="1.0" encoding="UTF-8" standalone="no"?>
<!-- Created with Inkscape (http://www.inkscape.org/) -->

<svg
   version="1.1"
   id="svg1"
   width="512"
   height="512"
   viewBox="0 0 512 512"
   sodipodi:docname="plum-filled.svg"
   inkscape:version="1.3 (0e150ed6c4, 2023-07-21)"
   xmlns:inkscape="http://www.inkscape.org/namespaces/inkscape"
   xmlns:sodipodi="http://sodipodi.sourceforge.net/DTD/sodipodi-0.dtd"
   xmlns="http://www.w3.org/2000/svg"
   xmlns:svg="http://www.w3.org/2000/svg">
  <defs
     id="defs1" />
  <sodipodi:namedview
     id="namedview1"
     pagecolor="#ffffff"
     bordercolor="#000000"
     borderopacity="0.25"
     inkscape:showpageshadow="2"
     inkscape:pageopacity="0.0"
     inkscape:pagecheckerboard="0"
     inkscape:deskcolor="#d1d1d1"
     inkscape:zoom="1.1455078"
     inkscape:cx="225.22762"
     inkscape:cy="382.79966"
     inkscape:window-width="1350"
     inkscape:window-height="1237"
     inkscape:window-x="1090"
     inkscape:window-y="51"
     inkscape:window-maximized="0"
     inkscape:current-layer="svg1" />
  <path
     style="fill:#aad400;fill-opacity:1;stroke:none;stroke-width:0.872975"
     d="m 240.25014,493.60576 c -17.11596,-2.22301 -40.17745,-11.12995 -59.0443,-22.80444 -15.74192,-9.74083 -35.52796,-28.43798 -47.00348,-44.41672 -3.27348,-4.55805 -9.19411,-14.85025 -13.27112,-23.07002 -10.65676,-21.48538 -15.64436,-37.64473 -19.80417,-64.16369 -1.785422,-11.38211 -1.984116,-15.6942 -1.971041,-42.77578 0.01597,-33.08259 0.842226,-42.89915 5.592671,-66.44538 4.59611,-22.78121 13.07663,-44.75674 23.21947,-60.1685 5.20418,-7.9076 20.29946,-23.72978 28.19694,-29.55476 10.12427,-7.46739 26.35883,-14.59056 39.81784,-17.4707 13.60053,-2.91042 35.88687,-3.60463 44.41444,-1.38348 7.15585,1.86387 17.18692,6.67576 23.8944,11.46212 32.73158,23.35676 52.79745,74.07072 54.87155,138.6809 0.57107,17.7891 1.49254,23.48825 4.09215,25.30909 2.67305,1.87227 8.70177,1.68327 11.21558,-0.35161 1.84639,-1.49464 2.09316,-2.50778 2.37091,-9.73411 0.60549,-15.75383 -2.4469,-47.58123 -6.52518,-68.03837 -7.42068,-37.22302 -19.87046,-63.55733 -41.6688,-88.13964 -3.17814,-3.58404 -5.47244,-6.82246 -5.09842,-7.19648 1.3738,-1.37379 15.68298,-2.65073 25.03142,-2.23377 7.79581,0.34771 10.77647,0.88814 15.72932,2.85195 29.86732,11.84242 54.01968,40.64059 67.12616,80.03816 9.82551,29.53508 14.3285,63.62459 13.39388,101.39742 -1.53432,62.0099 -20.24659,110.36068 -55.80753,144.20153 -20.14996,19.17531 -39.39523,30.60848 -65.89554,39.14704 -16.62173,5.35563 -28.60172,6.71331 -42.87715,4.85924 z"
     id="path2" />
  <path
     style="fill:#aad400;fill-opacity:1;stroke:none;stroke-width:0.872975"
     d="m 354.30231,120.31506 c -3.22542,-2.44881 -25.00773,-13.37388 -26.66682,-13.37493 -3.30195,-0.002 -1.40328,-4.5877 7.04864,-17.023677 6.51717,-9.589229 15.83872,-19.154923 26.29115,-26.979756 4.32122,-3.234932 8.3339,-6.737485 8.91706,-7.783449 2.46754,-4.42584 0.29518,-9.752326 -4.84587,-11.881823 -3.2204,-1.333928 -6.10965,-0.173861 -14.5469,5.840743 -16.26271,11.593088 -29.78976,27.566488 -39.17552,46.260381 l -4.05427,8.075021 h -5.98772 c -3.29324,0 -9.43234,0.60069 -13.64244,1.33488 -4.2101,0.73418 -7.86811,1.12148 -8.12891,0.86068 -0.73623,-0.73622 2.42032,-16.547093 5.15403,-25.81617 8.83907,-29.970183 24.02167,-48.336782 46.83844,-56.6611 16.74339,-6.108544 42.76526,-6.966489 67.01003,-2.209331 6.72191,1.31893 12.46184,2.643018 12.75539,2.942417 0.8693,0.886594 -0.90031,16.330957 -3.16899,27.657547 -5.19631,25.942998 -16.89932,49.099107 -30.02854,59.415797 -4.62556,3.63468 -13.63563,8.82839 -18.57023,10.70453 -1.8813,0.71527 -2.7691,0.48271 -5.19853,-1.36176 z"
     id="path3" />
</svg>
