<?xml version="1.0" encoding="UTF-8" standalone="no"?>
<!-- Created with Inkscape (http://www.inkscape.org/) -->

<svg
   version="1.1"
   id="svg1"
   width="512"
   height="512"
   viewBox="0 0 512 512"
   sodipodi:docname="plum-outline-white.svg"
   inkscape:version="1.3 (0e150ed6c4, 2023-07-21)"
   xmlns:inkscape="http://www.inkscape.org/namespaces/inkscape"
   xmlns:sodipodi="http://sodipodi.sourceforge.net/DTD/sodipodi-0.dtd"
   xmlns="http://www.w3.org/2000/svg"
   xmlns:svg="http://www.w3.org/2000/svg">
  <defs
     id="defs1" />
  <sodipodi:namedview
     id="namedview1"
     pagecolor="#ffffff"
     bordercolor="#000000"
     borderopacity="0.25"
     inkscape:showpageshadow="2"
     inkscape:pageopacity="0.0"
     inkscape:pagecheckerboard="0"
     inkscape:deskcolor="#d1d1d1"
     inkscape:zoom="1.1455078"
     inkscape:cx="225.22762"
     inkscape:cy="382.79966"
     inkscape:window-width="1350"
     inkscape:window-height="1237"
     inkscape:window-x="1090"
     inkscape:window-y="51"
     inkscape:window-maximized="0"
     inkscape:current-layer="svg1" />
  <path
     style="fill:#ffffff;stroke:none;fill-opacity:1"
     d="M 236.5,510.47332 C 187.65168,501.40394 143.27608,472.0151 116.32839,430.88669 91.398801,392.83837 79.541505,344.02493 81.376807,287 83.290344,227.54421 95.301494,184.4559 118.6794,153.1822 c 22.61211,-30.24926 54.7546,-47.12209 95.35614,-50.0561 14.02176,-1.01326 25.22834,0.0292 35.55015,3.307 4.30569,1.36731 8.02158,2.29297 8.25753,2.05701 C 259.29927,107.03407 252.12717,81.9275 246.9745,70.443155 237.43535,49.182194 220.87623,29.775947 204.6153,20.800821 192.16131,13.926919 189.26381,8.5823425 194.92308,2.9230769 c 3.79073,-3.79073786 6.02452,-3.68508708 13.92708,0.6587057 24.43175,13.4293724 46.32945,39.2222114 56.66873,66.7489044 l 1.81445,4.830686 3.17039,-8.830686 C 276.40977,49.880205 283.03802,39.013272 294.42784,27.107417 310.34544,10.468633 329.50947,2.4944322 358.5,0.44682938 c 16.03287,-1.13240236 48.86481,3.35040362 62.84359,8.58053382 7.34608,2.7485228 8.15438,4.8265338 7.25977,18.6639158 -1.39648,21.600036 -7.06727,46.012198 -14.5758,62.747302 -7.05387,15.721739 -19.71376,31.025139 -32.77889,39.623459 -3.98823,2.6247 -7.81323,4.97823 -8.5,5.23007 -0.80339,0.29459 0.0549,1.83973 2.40688,4.33288 18.09982,19.18645 34.61323,55.82611 41.22345,91.46585 4.99005,26.90447 7.09657,69.87774 4.68555,95.58613 -7.51056,80.08431 -44.38425,137.79274 -107.56455,168.34172 -28.68146,13.86807 -56.00623,19.35241 -77,15.45463 z m 31.45563,-17.02439 c 18.47927,-3.50546 44.19519,-14.47989 60.54437,-25.83769 9.52519,-6.61716 22.75088,-18.51233 31.00859,-27.88907 37.11648,-42.14626 52.36797,-105.65319 43.8816,-182.72217 -3.0445,-27.64864 -10.29756,-54.86543 -19.88884,-74.63193 -13.92127,-28.69015 -36.01951,-50.61545 -59.60709,-59.14063 -6.50453,-2.35091 -8.89834,-2.67579 -19.89426,-2.69996 -11.11044,-0.0244 -22,1.57191 -22,3.22505 0,0.27093 2.77685,3.46107 6.17078,7.08919 29.35069,31.37598 44.49631,75.34642 47.89714,139.05396 1.1477,21.49977 0.73487,25.06913 -3.13933,27.14254 -2.51341,1.34514 -7.10585,1.14338 -9.13928,-0.40152 -2.91507,-2.21472 -3.78918,-6.35209 -3.79273,-17.9518 -0.004,-13.68854 -1.43848,-30.14184 -4.06123,-46.58777 -9.19965,-57.68619 -34.59186,-97.24043 -70.44495,-109.73432 -7.40035,-2.57883 -9.09808,-2.78112 -22.9904,-2.73937 -23.18443,0.0697 -42.43883,5.13705 -60.73567,15.98444 -10.99825,6.52038 -26.59425,21.89376 -34.36865,33.87809 C 107.77659,199.72902 98,242.40799 98,297.8106 c 0,42.1012 7.14121,75.97238 22.4938,106.6894 8.58707,17.18077 17.51871,29.51251 31.5062,43.5 13.67135,13.67135 26.17156,22.77795 42.5,30.96193 27.65123,13.85907 51.73095,18.6081 73.45563,14.487 z m 98.67857,-374.4058 c 4.32619,-2.17627 10.23406,-6.04121 13.1286,-8.58874 16.84525,-14.825783 28.9896,-45.064872 31.8439,-79.290387 l 0.65452,-7.848213 -10.38061,-2.147417 C 385.62859,17.806349 373.62667,16.704479 360,17.323406 312.67415,19.472961 287.9731,45.887948 278.71365,104.25 c -0.50916,3.20922 -0.54768,3.20229 6.94766,1.25 3.16739,-0.825 9.40241,-1.5 13.8556,-1.5 h 8.09671 l 3.44319,-7.235674 C 316.65403,85.002085 325.83303,72.112365 335.47286,62.477789 345.37187,52.584185 358.74984,43 362.6607,43 c 1.44413,0 3.77228,1.279137 5.53321,3.040064 2.53661,2.536605 2.93961,3.571655 2.43346,6.25 C 370.28084,54.12383 368.8638,56.357444 367.32211,57.5 352.49209,68.490649 347.58946,72.684614 342,79.161832 c -6.30793,7.309796 -17,23.938748 -17,26.439408 0,0.67963 2.83553,2.1793 6.30118,3.3326 6.33058,2.10668 20.93012,9.88524 23.66311,12.60758 2.09183,2.08368 2.90944,1.90865 11.66991,-2.49829 z"
     id="path1" />
</svg>
