<?xml version="1.0" encoding="UTF-8" standalone="no"?>
<!-- Created with Inkscape (http://www.inkscape.org/) -->

<svg
   version="1.1"
   id="svg1"
   width="512"
   height="512"
   viewBox="0 0 512 512"
   sodipodi:docname="tomato-filled.svg"
   inkscape:version="1.3 (0e150ed6c4, 2023-07-21)"
   xmlns:inkscape="http://www.inkscape.org/namespaces/inkscape"
   xmlns:sodipodi="http://sodipodi.sourceforge.net/DTD/sodipodi-0.dtd"
   xmlns="http://www.w3.org/2000/svg"
   xmlns:svg="http://www.w3.org/2000/svg">
  <defs
     id="defs1" />
  <sodipodi:namedview
     id="namedview1"
     pagecolor="#ffffff"
     bordercolor="#000000"
     borderopacity="0.25"
     inkscape:showpageshadow="2"
     inkscape:pageopacity="0.0"
     inkscape:pagecheckerboard="0"
     inkscape:deskcolor="#d1d1d1"
     inkscape:zoom="0.96122328"
     inkscape:cx="225.754"
     inkscape:cy="346.95373"
     inkscape:window-width="1350"
     inkscape:window-height="1237"
     inkscape:window-x="1008"
     inkscape:window-y="54"
     inkscape:window-maximized="0"
     inkscape:current-layer="svg1" />
  <path
     style="fill:#aad400;fill-opacity:1;stroke:none;stroke-width:1.04034"
     d="m 321.46537,494.04611 c -12.37066,-0.69305 -30.25947,-2.52616 -35.39035,-3.62654 l -5.06577,-1.08641 4.62295,-4.42956 c 5.23656,-5.0175 5.8554,-8.14051 2.46675,-12.44848 -3.13186,-3.98151 -7.46489,-3.61695 -15.60111,1.31261 -3.67989,2.22957 -7.04183,3.84048 -7.47097,3.5798 -0.42914,-0.26069 -0.78025,-2.93959 -0.78025,-5.9531 0,-4.49451 -0.46587,-5.91679 -2.59239,-7.91455 -3.62741,-3.40777 -8.48707,-3.24177 -11.61686,0.39684 -1.90958,2.22 -2.43621,4.05661 -2.43621,8.49611 0,3.11512 -0.35737,5.66386 -0.79414,5.66386 -0.43678,0 -3.30524,-1.69107 -6.37436,-3.75793 -9.66599,-6.50945 -16.90326,-5.52809 -18.45579,2.5026 -0.59596,3.08278 -0.18505,3.88354 4.09965,7.98899 l 4.76201,4.56281 -4.94275,1.06003 c -11.16726,2.39495 -28.69919,3.41684 -51.63866,3.00989 -23.79331,-0.42211 -23.98341,-0.44357 -33.81108,-3.8176 C 79.690943,468.72703 38.547681,417.14616 22.942227,342.27219 16.354868,310.66648 16.095223,262.21067 22.38251,237.8163 36.526335,182.93895 75.420094,148.60151 141.12405,132.98507 c 12.27297,-2.91703 12.48136,-2.92971 48.21801,-2.93607 38.4802,-0.007 42.05477,0.33462 65.85479,6.29064 20.07429,5.02365 45.31114,15.84763 64.27152,27.56578 7.197,4.448 11.0327,6.19034 13.6278,6.19034 4.50866,0 8.13568,-3.53759 8.13568,-7.93506 0,-5.29846 -6.85233,-10.40688 -31.8548,-23.74777 l -16.08908,-8.58485 6.43875,-0.67298 c 9.7168,-1.01561 34.3585,-0.80635 47.07761,0.39978 24.83977,2.35551 46.19284,8.15705 67.23896,18.26855 43.31224,20.80913 67.35053,51.21086 77.65923,98.21722 2.77816,12.66803 2.79146,64.69048 0.0209,81.66677 -2.52668,15.48184 -8.13493,38.53976 -12.14574,49.93637 -4.17096,11.8516 -14.90705,33.4568 -22.12936,44.5329 -22.24485,34.11456 -54.7647,58.59686 -91.48872,68.87655 -9.86365,2.76101 -27.48089,3.94602 -44.49422,2.99287 z"
     id="path2" />
  <path
     style="fill:#aad400;fill-opacity:1;stroke:none;stroke-width:1.04034"
     d="m 247.08099,116.48964 c -9.50929,-2.09602 -25.4194,-3.60838 -48.45432,-4.6059 -19.92687,-0.86292 -21.05113,-1.02453 -24.91473,-3.58134 -7.86668,-5.20592 -17.38241,-20.858007 -18.45251,-30.351861 -0.4999,-4.435155 -0.48188,-4.463222 3.52573,-5.490367 7.18421,-1.841303 20.46536,-2.413801 29.51656,-1.272344 8.61859,1.086901 15.49032,3.802564 29.41559,11.624836 3.42963,1.926531 4.32444,2.041527 7.06206,0.907568 4.73958,-1.963198 5.45047,-4.233384 4.67843,-14.940412 -1.26768,-17.580967 3.79972,-31.464081 15.67078,-42.933099 3.76518,-3.637667 7.95404,-6.892094 9.30858,-7.232061 3.34892,-0.840527 8.55535,2.532318 14.90362,9.65492 10.19222,11.435421 14.40132,24.620465 13.10167,41.041153 -0.82906,10.474822 -0.0315,12.706257 5.1529,14.417269 3.95166,1.30416 4.66499,1.066013 12.35748,-4.125585 7.90093,-5.332276 19.55953,-8.572236 31.39578,-8.724977 11.20721,-0.144623 23.10759,0.995205 25.43991,2.436658 1.22001,0.754009 1.15495,1.966692 -0.41702,7.77407 -2.28135,8.427941 -8.16337,17.748372 -15.78682,25.015152 l -5.7395,5.47098 -23.59545,0.551 c -18.446,0.43075 -27.21305,1.1405 -40.17184,3.2522 -9.11702,1.48566 -16.84155,2.65323 -17.16563,2.5946 -0.32407,-0.0586 -3.39814,-0.72574 -6.83127,-1.48246 z"
     id="path3" />
</svg>
