<?xml version="1.0" encoding="UTF-8" standalone="no"?>
<!-- Created with Inkscape (http://www.inkscape.org/) -->

<svg
   version="1.1"
   id="svg1"
   width="512"
   height="512"
   viewBox="0 0 512 512"
   sodipodi:docname="tomato_outline.svg"
   inkscape:version="1.3 (0e150ed6c4, 2023-07-21)"
   xmlns:inkscape="http://www.inkscape.org/namespaces/inkscape"
   xmlns:sodipodi="http://sodipodi.sourceforge.net/DTD/sodipodi-0.dtd"
   xmlns="http://www.w3.org/2000/svg"
   xmlns:svg="http://www.w3.org/2000/svg">
  <defs
     id="defs1" />
  <sodipodi:namedview
     id="namedview1"
     pagecolor="#ffffff"
     bordercolor="#000000"
     borderopacity="0.25"
     inkscape:showpageshadow="2"
     inkscape:pageopacity="0.0"
     inkscape:pagecheckerboard="0"
     inkscape:deskcolor="#d1d1d1"
     inkscape:zoom="0.96122328"
     inkscape:cx="225.754"
     inkscape:cy="346.95373"
     inkscape:window-width="1350"
     inkscape:window-height="1237"
     inkscape:window-x="1008"
     inkscape:window-y="54"
     inkscape:window-maximized="0"
     inkscape:current-layer="svg1" />
  <path
     style="fill:#000000"
     d="M 156.6347,510.97396 C 124.27028,505.83764 92.028009,488.77704 65.970284,463 48.036475,445.25937 36.977823,429.58852 25.393496,405.5 11.555949,376.72612 3.9140674,345.67804 0.90350301,306 -4.6711126,232.52879 17.424426,178.15711 66,145.81353 c 21.504882,-14.31882 46.19627,-24.35182 72.50846,-29.46281 7.69535,-1.49477 14.13653,-2.81767 14.31374,-2.93978 0.17721,-0.1221 -1.50788,-2.90308 -3.74465,-6.17995 C 138.50449,91.741461 134.05611,72.621242 139.25,64.989831 c 3.26263,-4.793792 6.6121,-6.932477 14.37009,-9.175492 14.63548,-4.231456 39.29174,-3.259421 53.4115,2.105665 l 4.73907,1.800705 1.2111,-7.610355 C 215.51954,36.163415 222.27403,23.611101 234.42229,12.265966 242.53474,4.6898287 250.78487,0 256,0 c 5.20511,0 13.4608,4.68566 21.52542,12.217125 12.10631,11.305962 18.92146,23.962568 21.48112,39.893229 l 1.2228,7.610355 4.73907,-1.800705 c 9.37552,-3.562417 21.67441,-5.202361 34.53159,-4.604469 24.3682,1.133183 35.5,7.385178 35.5,19.938004 0,9.853249 -4.64539,22.916318 -12.00139,33.748511 -2.29779,3.38365 -4.02499,6.29057 -3.83821,6.45981 0.18678,0.16925 5.02367,1.08692 10.74865,2.03925 26.72379,4.44544 52.78355,14.86094 76.33679,30.5101 48.28613,32.0821 70.4204,86.68995 64.84846,159.98879 -2.99345,39.37868 -10.75549,70.91127 -24.49286,99.5 -11.54935,24.03526 -22.60573,39.7143 -40.54725,57.5 -23.11471,22.91396 -49.62062,38.12035 -79.73636,45.74458 -10.11937,2.56186 -12.1737,2.73669 -31.81783,2.7078 -22.35364,-0.0329 -33.31002,-1.017 -56.5,-5.07493 -17.38359,-3.04189 -26.85086,-3.13331 -41.5,-0.40071 -6.05,1.12854 -16.4,2.73779 -23,3.57612 -14.55541,1.84881 -48.78081,2.70413 -56.8653,1.4211 z M 216,492.57548 c 18.09203,-2.69128 18.10343,-2.69704 12.51747,-6.31511 -6.79185,-4.39913 -8.08568,-9.69216 -3.49203,-14.28581 3.09493,-3.09493 7.35126,-2.47235 14.00953,2.04919 9.09952,6.17936 8.95999,6.19746 8.99683,-1.16676 0.0334,-6.6719 0.9477,-8.72022 4.81134,-10.77868 2.9153,-1.55321 6.4761,-0.72539 9.12918,2.12236 1.60023,1.71764 2.02768,3.5295 2.02768,8.59488 0,7.43502 -0.14555,7.41508 8.96503,1.2282 6.65827,-4.52154 10.9146,-5.14412 14.00953,-2.04919 4.59365,4.59365 3.29982,9.88668 -3.49203,14.28581 -1.90178,1.2318 -3.46334,2.54138 -3.47015,2.91017 -0.0375,2.03287 24.97271,4.90959 48.02321,5.52372 17.93628,0.47787 22.95027,0.28968 30,-1.12603 38.69054,-7.7697 74.72048,-33.05606 99.12616,-69.56823 8.09634,-12.11256 18.33272,-32.48606 22.86082,-45.5 4.8458,-13.92702 9.59153,-33.51919 12.1113,-50 1.96929,-12.88034 2.2985,-18.95669 2.32975,-43 0.0328,-25.28258 -0.18502,-29.09234 -2.24485,-39.2554 -9.47105,-46.7293 -33.4035,-77.51866 -76.71877,-98.69953 -20.32739,-9.93996 -43.55629,-16.36358 -67,-18.52788 -11.91856,-1.10032 -42.32438,-1.19309 -52,-0.15866 l -6,0.64147 15,7.54377 c 17.87725,8.99078 32.97972,18.51892 34.44273,21.72989 1.65574,3.63396 1.26073,6.11379 -1.39728,8.77179 -3.57906,3.57907 -7.56693,3.19066 -14.35032,-1.3977 -21.72803,-14.69709 -52.17948,-27.43401 -77.97546,-32.61479 -21.28018,-4.27385 -29.63376,-5.01644 -56.21967,-4.99767 -28.63693,0.0202 -37.99501,0.99407 -57.5,5.98378 -29.68003,7.59265 -56.124485,21.43502 -74.318692,38.90218 -20.236908,19.42824 -32.161402,42.0423 -38.400074,72.82335 -2.0611,10.16928 -2.2771,13.95734 -2.238392,39.2554 0.03258,21.29297 0.463368,30.87444 1.798421,40 10.937895,74.76436 45.801914,129.04955 100.455837,156.41525 9.34408,4.67867 23.35171,9.60437 33.14386,11.65485 8.69444,1.82062 48.33711,1.19534 63.05904,-0.99462 z M 270.77753,115.99729 C 288.22771,113.09333 301.41415,112 318.98797,112 h 15.77605 l 4.62673,-3.75 c 5.35076,-4.33684 12.08982,-12.951671 14.71639,-18.81259 1.95564,-4.363801 5.09928,-15.564323 4.5286,-16.135002 C 357.30566,71.972326 342.70591,70.034286 334,70.032145 c -15.71014,-0.0039 -27.43441,3.514795 -37.94428,11.387742 -3.79793,2.845031 -5.72906,3.141703 -9.44108,1.450393 -3.86156,-1.759445 -4.88358,-5.427031 -3.65514,-13.116737 1.25088,-7.83025 0.0985,-17.850658 -3.00752,-26.152355 -3.56041,-9.516037 -13.57524,-21.288138 -21.69295,-25.499346 -2.85875,-1.483029 -5.96993,0.03454 -12.96584,6.324461 -12.44519,11.189294 -18.76864,28.743091 -16.27655,45.183458 0.85016,5.608542 0.8227,7.82436 -0.11889,9.591819 -2.87472,5.3962 -7.62519,6.209727 -12.95347,2.218307 -5.55795,-4.163465 -14.45683,-8.328225 -21.18401,-9.914318 -10.46629,-2.467675 -34.84299,-1.544615 -39.77949,1.50631 -1.18937,0.735072 -1.22206,1.806178 -0.20334,6.662953 2.30865,11.006556 10.52948,23.875108 18.84433,29.498148 3.81302,2.57861 4.23976,2.63165 25.37823,3.15466 20.04132,0.49586 43.5717,3.02858 52.5,5.65091 1.65,0.48462 4.02489,0.67602 5.27753,0.42533 1.25264,-0.25069 7.55264,-1.33366 14,-2.40659 z"
     id="path1" />
</svg>
