<?xml version="1.0" encoding="UTF-8" standalone="no"?>
<!-- Created with Inkscape (http://www.inkscape.org/) -->

<svg
   version="1.1"
   id="svg1"
   width="512"
   height="512"
   viewBox="0 0 512 512"
   sodipodi:docname="butterfly-outline.svg"
   inkscape:version="1.3 (0e150ed6c4, 2023-07-21)"
   xmlns:inkscape="http://www.inkscape.org/namespaces/inkscape"
   xmlns:sodipodi="http://sodipodi.sourceforge.net/DTD/sodipodi-0.dtd"
   xmlns="http://www.w3.org/2000/svg"
   xmlns:svg="http://www.w3.org/2000/svg">
  <defs
     id="defs1" />
  <sodipodi:namedview
     id="namedview1"
     pagecolor="#ffffff"
     bordercolor="#000000"
     borderopacity="0.25"
     inkscape:showpageshadow="2"
     inkscape:pageopacity="0.0"
     inkscape:pagecheckerboard="0"
     inkscape:deskcolor="#d1d1d1"
     inkscape:zoom="1.359375"
     inkscape:cx="256"
     inkscape:cy="255.63218"
     inkscape:window-width="1350"
     inkscape:window-height="1237"
     inkscape:window-x="946"
     inkscape:window-y="63"
     inkscape:window-maximized="0"
     inkscape:current-layer="svg1" />
  <path
     style="fill:#000000"
     d="M 90.723684,484.47277 C 77.451066,479.60034 66.679544,464.47441 58.697553,439.5 48.112758,406.38183 45.594758,377.6373 50.88693,350.33694 c 3.410358,-17.59278 11.104378,-37.60317 19.512133,-50.7466 2.043706,-3.19483 3.577479,-5.90841 3.408383,-6.03017 -0.169095,-0.12177 -3.280995,-1.85888 -6.915332,-3.86025 C 45.470192,277.90322 34.052382,255.09763 33.998889,224 33.975859,210.6117 30.273167,198.87835 15.589903,165.66433 4.3567873,140.25467 0,124.90882 0,110.75226 0,86.332668 15.230075,66.927241 38.749985,61.378897 48.408039,59.100563 68.123083,60.017107 81.5,63.366328 c 33.38306,8.358219 64.77465,24.373934 92.71516,47.302462 4.24334,3.48217 8.06834,6.32217 8.5,6.31112 0.43166,-0.0111 2.80984,-2.07595 5.28484,-4.58866 2.475,-2.5127 6.4125,-5.95494 8.75,-7.64942 2.3375,-1.69448 4.25,-3.62748 4.25,-4.29555 0,-0.668081 -1.77496,-4.754297 -3.94435,-9.080485 -4.26885,-8.51292 -12.82211,-19.560407 -18.49307,-23.885862 -3.49377,-2.664828 -3.60363,-2.680667 -7.57412,-1.091991 -8.3827,3.354091 -19.58503,1.145958 -26.36494,-5.196893 -10.435,-9.762321 -9.90914,-29.040021 1.03832,-38.063842 C 149.39388,20.050944 157.50725,17 161.9559,17 c 15.35805,0 28.41181,15.506948 25.17621,29.907559 l -0.94644,4.212267 7.78164,7.690087 c 8.14788,8.052013 15.4005,18.323964 19.75306,27.976446 1.41704,3.142503 2.68213,5.848617 2.81132,6.013588 0.12918,0.164971 2.99851,-0.631056 6.37629,-1.768949 21.14321,-7.122633 45.04083,-7.122633 66.18404,0 3.37778,1.137893 6.27228,1.93392 6.43222,1.768949 0.15994,-0.164971 1.42625,-2.872978 2.81403,-6.017794 4.23529,-9.597499 11.50655,-19.897722 19.70208,-27.909286 l 7.80227,-7.627134 -0.96617,-4.300088 c -0.64883,-2.887736 -0.61029,-5.966229 0.11733,-9.372867 4.97582,-23.296187 36.22518,-27.7243239 47.21348,-6.690307 5.08794,9.739419 2.97314,23.007724 -4.83078,30.308578 -6.77991,6.342851 -17.98224,8.550984 -26.36494,5.196893 -3.96056,-1.584703 -4.0876,-1.56731 -7.48628,1.024997 -7.4428,5.676901 -17.41403,19.492008 -21.17333,29.335595 l -1.72124,4.507006 2.93466,2.08962 c 1.61406,1.14929 5.67287,4.69179 9.01958,7.87223 3.34671,3.18043 6.43561,5.78261 6.86421,5.78261 0.42861,0 3.31539,-2.17929 6.41507,-4.84287 C 361.39726,90.216411 395.78421,72.359 429,63.790994 c 14.79549,-3.816493 33.88544,-4.857099 44.25002,-2.412097 14.49279,3.418848 25.92037,11.951088 32.46879,24.242365 10.60658,19.908378 8.2259,40.379228 -9.30871,80.043068 -14.3834,32.53571 -18.38728,45.00808 -18.40591,57.33567 -0.0254,16.82322 -3.88773,33.7456 -10.27064,45 -4.34505,7.66123 -13.94015,16.93676 -22.23355,21.49306 -3.85,2.11515 -7.1147,3.92169 -7.25488,4.01455 -0.14019,0.0928 1.96918,3.90812 4.68748,8.47837 13.13991,22.092 21.0674,51.41394 21.0674,77.92339 0,10.44939 -2.35149,27.96855 -5.51535,41.09063 -8.21752,34.08212 -19.76244,55.09243 -34.1073,62.07107 -5.82009,2.83142 -16.19191,3.71666 -23.11657,1.97301 -6.50324,-1.63753 -17.21846,-7.17178 -26.36287,-13.61603 -10.45364,-7.36688 -21.89978,-12.67889 -37.39791,-17.35591 -22.95034,-6.92595 -35.17347,-13.07374 -45.0199,-22.64338 -3.93356,-3.82297 -11.70252,-14.59601 -12.71384,-17.62999 -0.23809,-0.71426 -2.60141,-0.27993 -6.81537,1.25254 -9.21081,3.34966 -24.69097,3.34966 -33.90178,0 -4.21396,-1.53247 -6.57728,-1.9668 -6.81537,-1.25254 -0.20046,0.60138 -2.15237,3.85966 -4.33759,7.24061 -10.13682,15.68363 -25.82823,25.25247 -54.89615,33.47646 -12.23586,3.46181 -26.01032,9.94424 -35.82014,16.85741 -8.63812,6.08745 -19.58082,11.84841 -25.67986,13.51958 -5.43097,1.48811 -16.169862,1.27099 -20.776316,-0.42006 z m 22.808836,-18.35698 c 3.31789,-1.54394 10.51789,-5.87446 16,-9.62336 12.53864,-8.57445 19.80785,-11.88935 40.46748,-18.45393 9.075,-2.88358 19.87091,-6.88194 23.99092,-8.88525 9.0577,-4.40421 18.47559,-13.28656 22.28418,-21.01699 l 2.64258,-5.36375 -5.13107,-5.82919 -5.13107,-5.82919 -5.57777,5.12018 c -7.66534,7.03649 -19.08324,14.2131 -28.26974,17.76868 -12.33546,4.77437 -23.79257,6.34011 -41.30803,5.6452 -25.65625,-1.0179 -45.94681,-5.63015 -60.229477,-13.69079 -3.00997,-1.69872 -5.700554,-2.8607 -5.979077,-2.58218 -0.842753,0.84275 3.687829,20.44683 7.210782,31.20146 6.176437,18.85499 13.089973,29.92412 20.989195,33.6054 4.995487,2.32805 9.773917,1.78077 18.041097,-2.06629 z m 302.97606,2.01923 c 5.6248,-2.55529 10.14193,-8.12945 15.14266,-18.6861 5.21525,-11.00949 14.67521,-44.4558 13.0372,-46.09382 -0.26746,-0.26746 -2.94899,0.90358 -5.95896,2.6023 -14.39912,8.12636 -34.66603,12.69881 -60.72948,13.70126 -12.33583,0.47447 -17.33223,0.24874 -24.47538,-1.10572 -16.95274,-3.21454 -31.94091,-10.71661 -44.60239,-22.32497 l -5.57777,-5.11384 -5.13107,5.82919 -5.13107,5.82919 2.5386,5.0943 c 3.65031,7.32523 10.58356,14.57126 18.36632,19.19492 4.33411,2.57485 13.71813,6.28514 26.13727,10.33426 21.1296,6.88907 32.32683,12.0182 43.87549,20.09808 8.40969,5.88374 14.58332,9.22767 20.5,11.10378 5.45507,1.72975 7.34231,1.65701 12.00858,-0.46283 z M 158.5,401.3902 c 10.75375,-2.01467 24.18226,-8.64447 32.26446,-15.9293 8.96363,-8.0793 8.90733,-7.84459 4.36034,-18.1773 -8.88488,-20.19026 -13.99094,-41.87273 -14.78506,-62.7836 -0.60217,-15.85645 -0.57282,-15.74208 -3.73155,-14.54113 -4.38101,1.66566 -26.01392,5.93456 -38.22238,7.54257 -12.75327,1.67977 -32.35351,2.14628 -41.60588,0.99027 l -5.691997,-0.71117 -4.088102,6.35973 c -12.339182,19.19567 -20.252679,42.77922 -21.6946,64.65354 l -0.612633,9.29382 3.403701,3.53166 c 5.332704,5.53319 16.115324,12.2327 24.774132,15.39277 16.608889,6.06149 46.131859,8.03097 65.629569,4.37814 z m 241.30903,8.5e-4 c 17.68981,-2.30978 30.93875,-7.96424 42.03335,-17.93924 5.06397,-4.55295 5.15726,-4.73987 5.13781,-10.29448 -0.065,-18.5528 -7.89242,-45.16768 -18.54018,-63.04016 -7.82397,-13.13271 -6.31868,-12.21022 -18.44001,-11.30066 -18.41541,1.38185 -46.39224,-1.60645 -68.32519,-7.29805 -6.15165,-1.59635 -8.93057,-1.94604 -9.17303,-1.1543 -0.1913,0.62471 -0.56999,6.98584 -0.84152,14.13584 -0.79302,20.88184 -6.27908,43.83015 -15.20309,63.59486 -4.18989,9.27968 -4.18884,9.28352 4.77837,17.36604 6.95576,6.26953 20.85853,13.56204 29.76446,15.61257 12.13283,2.79349 29.00601,2.90328 48.80903,0.31758 z m -128.37444,-3.92162 c 3.26402,-1.63319 8.66402,-5.66993 12,-8.97053 5.90862,-5.84598 15.3449,-19.05275 14.3349,-20.06275 -0.27734,-0.27734 -4.27946,0.58976 -8.89358,1.92688 -21.57021,6.2508 -48.306,5.86972 -69.19069,-0.98622 -2.64813,-0.86932 -5.07223,-1.32314 -5.38687,-1.00849 -1.01952,1.01952 8.0439,13.93867 13.89847,19.81111 9.65563,9.6851 17.06559,12.9092 28.80318,12.53234 7.09257,-0.22772 9.48265,-0.76459 14.43459,-3.24234 z m 6.18084,-40.85437 c 11.84015,-2.5475 28.3028,-9.55566 30.60482,-13.02849 1.29721,-1.95699 4.89993,-18.75004 6.33508,-29.5292 2.22655,-16.72315 3.11746,-15.73365 -8.96812,-9.9605 -5.72703,2.73575 -14.83953,6.17349 -20.25,7.63942 -9.07817,2.45968 -11.34184,2.66534 -29.33721,2.66534 -17.99537,0 -20.25904,-0.20566 -29.33721,-2.66534 -5.41047,-1.46593 -14.52297,-4.90367 -20.25,-7.63942 -12.08558,-5.77315 -11.19467,-6.76265 -8.96812,9.9605 1.43515,10.77916 5.03787,27.57221 6.33508,29.5292 2.67771,4.0396 22.39868,11.8597 35.20417,13.95977 10.26783,1.6839 28.52201,1.24385 38.63151,-0.93128 z M 281.5,296.14267 c 8.77837,-2.30226 26.15927,-10.61108 31.1959,-14.91298 l 3.19589,-2.72969 -1.00036,-9 c -1.01897,-9.16739 -4.3984,-27.3403 -5.24086,-28.18276 -0.25546,-0.25546 -4.21884,1.34491 -8.80752,3.55637 -28.76034,13.86076 -61.41488,13.84463 -89.63406,-0.0443 -4.56005,-2.24437 -8.52343,-3.84823 -8.80751,-3.56415 -0.87745,0.87745 -4.23817,18.75296 -5.30834,28.23481 l -1.01579,9 3.19985,2.77195 c 3.90182,3.38006 18.34599,10.86777 25.35562,13.1441 11.09226,3.60213 18.54915,4.52 33.86718,4.16873 11.14134,-0.2555 17.05795,-0.88371 23,-2.44211 z M 143.7778,280.47852 c 14.62332,-2.23658 35.39341,-7.66118 36.29201,-9.47852 0.40793,-0.825 1.27948,-5.775 1.93679,-11 0.65731,-5.225 2.42798,-14.31876 3.93482,-20.20836 l 2.73971,-10.70837 -3.45064,-3.29163 c -9.11346,-8.69351 -17.90221,-25.035 -20.78889,-38.6541 -3.5274,-16.642 -0.0778,-41.73475 7.23249,-52.61005 0.72925,-1.08487 1.32591,-2.26489 1.32591,-2.62225 0,-0.35737 -3.9375,-3.93966 -8.75,-7.96065 C 141.96875,105.32791 111.34266,88.952514 84.73751,81.430223 l -7.762491,-2.194752 -3.884471,2.813896 c -11.54919,8.366191 -15.972828,22.881493 -12.702815,41.681803 2.179668,12.53158 5.557731,20.45129 14.173343,33.22872 8.924074,13.2349 11.433018,18.11879 14.918461,29.04011 2.397613,7.51271 2.812464,10.88112 3.571621,29 1.601289,38.21818 2.742696,46.94797 7.566172,57.86816 4.93533,11.17343 3.65052,10.51907 19.25303,9.80558 7.4963,-0.34279 18.25465,-1.33064 23.90744,-2.19522 z M 410.17768,275 c 5.94996,-12.13395 7.04048,-19.64853 8.7798,-60.5 1.18233,-27.76955 3.81378,-35.95622 18.47531,-57.47852 8.4601,-12.41893 11.99119,-20.70917 14.17948,-33.29031 3.27499,-18.82891 -1.1513,-33.313926 -12.74671,-41.713598 l -3.92836,-2.845692 -7.2186,1.99949 c -8.8788,2.459352 -27.83914,9.889388 -37.13542,14.552353 -14.59391,7.320227 -34.81795,20.979497 -47.38423,32.003197 l -4.30106,3.77308 3.44513,7.5 c 5.28576,11.50705 7.00762,20.97202 6.43677,35.38267 -0.39987,10.09424 -0.98483,13.57476 -3.50363,20.84662 -3.74843,10.82183 -9.67189,20.9239 -16.75491,28.57441 l -5.41849,5.85262 1.9577,6.29012 c 2.24862,7.22483 5.93954,26.86528 5.93954,31.60601 0,4.115 0.94699,4.80546 10,7.29115 18.23652,5.0072 39.57167,8.00163 55.5,7.78955 l 10,-0.13315 z m -325.694988,2.25 c -1.682078,-4.02529 -4.461437,-15.79117 -5.46964,-23.15467 -0.595021,-4.34579 -1.454136,-18.85756 -1.909144,-32.24838 C 76.335063,199.21995 76.085625,196.93485 73.572948,189.5 70.553247,180.5649 68.096274,175.99383 60.350506,164.90035 49.561999,149.44908 44.307282,134.34565 43.337306,116 42.543472,100.9858 45.441404,89.88458 52.672108,80.240828 54.639097,77.617411 54.833626,76.873387 53.669351,76.426612 51.523959,75.603348 40.194094,77.871897 34.720569,80.220677 28.538534,82.87349 21.720137,90.474968 18.953678,97.798368 17.096303,102.71523 16.86497,104.94521 17.272958,114 c 0.594329,13.1904 2.709014,19.92418 15.686822,49.95153 14.859426,34.38093 16.707894,40.82837 18.075886,63.04847 0.490984,7.975 1.626738,16.975 2.523896,20 3.889004,13.11278 11.843392,23.21258 22.791984,28.93931 6.746897,3.52901 9.225058,3.92847 8.131146,1.31069 z m 350.076898,-0.82151 c 11.40861,-5.39715 20.38451,-16.63889 23.96122,-30.00994 0.87075,-3.2552 1.99539,-12.66855 2.4992,-20.91855 1.29272,-21.16848 3.40997,-28.2688 19.23334,-64.5 12.67539,-29.02317 14.11469,-33.94361 14.18702,-48.5 0.0689,-13.869739 -1.3243,-18.164146 -8.37421,-25.812399 -4.67609,-5.072955 -10.7163,-8.003079 -19.92762,-9.666945 -8.64857,-1.562213 -9.93894,-0.952104 -6.81065,3.220172 7.23071,9.643752 10.12864,20.744972 9.3348,35.759172 -0.96997,18.34565 -6.22469,33.44908 -17.0132,48.90035 -7.74576,11.09348 -10.20274,15.66455 -13.22244,24.59965 -2.51267,7.43485 -2.76211,9.71995 -3.53096,32.34695 -0.45501,13.39082 -1.31412,27.90259 -1.90914,32.24838 -1.00821,7.3635 -3.78756,19.12938 -5.46964,23.15467 -1.01038,2.41787 0.58922,2.23127 7.04228,-0.82151 z M 282,235.16396 c 13.35466,-4.37947 21.03594,-9.1657 31.52915,-19.64596 6.94621,-6.93763 9.87777,-10.74818 12.7078,-16.518 12.00736,-24.48042 7.71268,-52.05567 -11.26217,-72.3121 l -6.68549,-7.13704 -3.51272,3.72457 c -4.04525,4.28921 -7.19527,4.75626 -11.14171,1.65199 C 291.24427,123.04698 291,122.21666 291,115.97093 v -6.88392 l -7.96429,-2.51592 c -19.24538,-6.07961 -35.71044,-6.06631 -54.28571,0.0439 l -7.75,2.54929 v 6.8453 c 0,6.20402 -0.24684,7.03946 -2.63486,8.91788 -3.94644,3.10427 -7.09646,2.63722 -11.14171,-1.65199 l -3.51272,-3.72457 -6.68549,7.13704 c -18.97485,20.25643 -23.26953,47.83168 -11.26217,72.3121 2.8352,5.78037 5.7489,9.56362 12.7078,16.50025 9.73098,9.69984 16.67613,14.33758 27.2876,18.22177 12.06541,4.41638 17.73274,5.26428 32.74155,4.89851 12.43508,-0.30305 15.06191,-0.68942 23.5,-3.45657 z m -40.5,-32.51617 c -5.59531,-1.84406 -11.67903,-5.08611 -15.36647,-8.18889 -4.21242,-3.54452 -4.44347,-9.28334 -0.49867,-12.38632 3.46484,-2.72544 6.58379,-2.61663 11.13658,0.38853 11.42217,7.53943 28.98202,7.38418 38.80564,-0.34308 4.79242,-3.76972 11.19702,-2.49183 13.33093,2.65988 2.33677,5.64146 -1.74447,10.46988 -13.4502,15.91263 -5.31799,2.47267 -7.24651,2.7973 -17.95781,3.02285 -7.88808,0.1661 -13.37064,-0.19904 -16,-1.0656 z M 209.22896,169.33071 C 207.68586,168.70984 205,163.71916 205,161.47274 205,158.98388 210.52776,154 213.28822,154 217.479,154 221,157.60615 221,161.89827 c 0,6.08952 -5.88041,9.80251 -11.77104,7.43244 z m 83.94535,-1.64516 c -3.17125,-3.37565 -2.951,-8.92944 0.46055,-11.61297 3.65122,-2.87205 6.99159,-2.59998 10.44206,0.8505 3.29556,3.29555 3.56222,4.94028 1.46007,9.0054 -2.45484,4.74712 -8.71747,5.63721 -12.36268,1.75707 z M 167.73412,49.383225 c 4.08074,-2.572742 4.20398,-9.445128 0.24044,-13.408661 C 166.68163,34.681626 164.64987,34 162.08889,34 c -3.13971,0 -4.42171,0.606823 -6.5,3.076725 C 154.165,38.768924 153,40.99775 153,42.029672 c 0,3.453824 2.42305,7.244401 5.47576,8.566169 3.21126,1.390418 5.6326,1.073282 9.25836,-1.212616 z m 185.14704,1.508358 C 356.14421,49.754077 359,45.663179 359,42.126385 c 0,-1.085114 -1.165,-3.357461 -2.58889,-5.04966 C 354.37398,34.655741 353.02883,34 350.09967,34 c -9.43361,0 -12.46618,12.05069 -4.08895,16.248446 1.9191,0.961645 3.53463,1.749145 3.59006,1.75 0.0554,8.55e-4 1.5316,-0.497234 3.28038,-1.106863 z"
     id="path1" />
</svg>
