<?xml version="1.0" encoding="UTF-8" standalone="no"?>
<!-- Created with Inkscape (http://www.inkscape.org/) -->

<svg
   version="1.1"
   id="svg1"
   width="512"
   height="512"
   viewBox="0 0 512 512"
   sodipodi:docname="butterfly-filled.svg"
   inkscape:version="1.3 (0e150ed6c4, 2023-07-21)"
   xmlns:inkscape="http://www.inkscape.org/namespaces/inkscape"
   xmlns:sodipodi="http://sodipodi.sourceforge.net/DTD/sodipodi-0.dtd"
   xmlns="http://www.w3.org/2000/svg"
   xmlns:svg="http://www.w3.org/2000/svg">
  <defs
     id="defs1" />
  <sodipodi:namedview
     id="namedview1"
     pagecolor="#ffffff"
     bordercolor="#000000"
     borderopacity="0.25"
     inkscape:showpageshadow="2"
     inkscape:pageopacity="0.0"
     inkscape:pagecheckerboard="0"
     inkscape:deskcolor="#d1d1d1"
     inkscape:zoom="1.359375"
     inkscape:cx="256"
     inkscape:cy="255.63218"
     inkscape:window-width="1350"
     inkscape:window-height="1237"
     inkscape:window-x="946"
     inkscape:window-y="63"
     inkscape:window-maximized="0"
     inkscape:current-layer="svg1" />
  <path
     style="fill:#aad400;fill-opacity:1;stroke:none;stroke-width:0.735632"
     d="m 374.62541,280.95516 c -15.61854,-1.89211 -38.31401,-7.08276 -41.65543,-9.52698 -1.04912,-0.76742 -1.52578,-2.49473 -2.0119,-7.29065 -0.74639,-7.36378 -3.70116,-22.19195 -5.84456,-29.33019 l -1.50397,-5.00874 3.81988,-4.17955 c 16.74087,-18.31719 23.96972,-40.06837 21.34847,-64.23633 -0.98517,-9.08337 -2.71682,-15.26813 -6.67153,-23.82807 l -2.75164,-5.95591 5.21919,-4.4349 c 24.1145,-20.4908 52.61973,-36.169485 82.16406,-45.192571 l 7.79545,-2.380795 3.35708,2.309734 c 13.15604,9.051592 17.41415,26.069552 11.93651,47.705452 -2.34913,9.27876 -6.06635,16.9637 -14.38413,29.73758 -10.10785,15.52297 -13.56996,23.73078 -15.34099,36.36978 -0.39417,2.81301 -1.2375,14.88008 -1.87406,26.81572 -1.81739,34.07643 -3.14483,41.66591 -9.48916,54.25287 l -2.68821,5.33333 -11.57696,-0.0789 c -6.36733,-0.0434 -15.29897,-0.52979 -19.8481,-1.08089 z"
     id="path2" />
  <path
     style="fill:#aad400;fill-opacity:1;stroke:none;stroke-width:0.735632"
     d="m 235.03448,236.21038 c -8.74344,-2.33194 -17.34402,-6.04612 -23.19803,-10.01816 -6.183,-4.19526 -17.65559,-15.30008 -21.81161,-21.11242 -8.53011,-11.92965 -12.38478,-30.31745 -9.47517,-45.199 2.62544,-13.4281 7.61882,-22.79129 18.46997,-34.63341 l 4.39463,-4.79597 3.55944,3.22257 c 3.91048,3.54038 6.86168,4.14195 10.66673,2.17428 2.87677,-1.48763 3.78485,-4.06269 3.78485,-10.7328 v -5.8268 l 6.43678,-1.96766 c 11.5418,-3.52822 14.38453,-4.02932 25.1954,-4.44135 11.66945,-0.44474 17.97284,0.46362 31.08046,4.47894 l 6.43678,1.97181 v 5.79265 c 0,7.0091 0.72419,9.14248 3.61003,10.63481 3.98084,2.05857 6.882,1.50093 10.84155,-2.08388 l 3.55944,-3.22257 4.41978,4.79108 c 10.57978,11.46859 16.37991,22.56026 18.7271,35.81215 2.5152,14.20036 -1.55142,32.54873 -9.75745,44.02515 -4.41291,6.1716 -16.14586,17.38779 -22.4652,21.47575 -5.29223,3.42353 -13.03361,6.82597 -21.44099,9.42364 -4.00817,1.23842 -7.33994,1.51942 -20.59771,1.73718 -14.82412,0.2435 -16.23133,0.14905 -22.43678,-1.50599 z m 41.1835,-35.61928 c 10.02344,-4.80959 13.6211,-8.25344 13.6211,-13.03877 0,-6.80287 -8.12826,-10.03562 -14.42608,-5.7375 -4.46055,3.04422 -8.46958,4.5826 -13.97515,5.36267 -7.71835,1.09358 -14.04882,-0.0525 -22.13178,-4.00688 -3.7196,-1.81971 -7.69201,-3.30732 -8.82759,-3.3058 -4.96527,0.007 -8.73541,4.83609 -7.75972,9.94006 0.57522,3.00908 5.18609,7.04875 11.63828,10.1965 7.72275,3.76759 9.83511,4.11077 23.64153,3.84093 l 11.9296,-0.23316 z m -57.79499,-32.07724 c 3.55676,-3.21883 3.74091,-9.04588 0.39172,-12.39507 -3.63757,-3.63757 -8.87561,-2.73559 -12.61963,2.17307 -1.77835,2.33153 -1.84558,2.69955 -1.00546,5.50362 0.49518,1.65276 1.7272,3.83189 2.73782,4.84251 1.59268,1.59268 2.32124,1.79102 5.46823,1.48863 1.9969,-0.19187 4.2592,-0.91762 5.02732,-1.61276 z m 85.28755,-0.0782 c 3.11588,-2.62184 4.20413,-6.2245 2.73714,-9.06134 -2.49681,-4.82831 -7.53085,-6.5678 -12.12772,-4.19066 -4.44934,2.30084 -4.89324,9.41717 -0.81666,13.09216 3.00139,2.70573 7.10526,2.76999 10.20724,0.15984 z"
     id="path3" />
  <path
     style="fill:#aad400;fill-opacity:1;stroke:none;stroke-width:0.735632"
     d="m 346.93615,50.249202 c -7.00024,-3.59134 -7.16173,-11.469839 -0.30775,-15.014171 3.39231,-1.75423 5.6589,-1.281744 8.76849,1.827849 3.66527,3.66527 3.89257,6.949244 0.72978,10.543707 -3.17197,3.604884 -5.82687,4.368269 -9.19052,2.642615 z"
     id="path4" />
  <path
     style="fill:#aad400;fill-opacity:1;stroke:none;stroke-width:0.735632"
     d="m 159.20437,50.413717 c -2.71839,-1.099704 -5.45724,-5.059512 -5.45724,-7.890037 0,-3.341104 4.61285,-8.316783 7.71032,-8.316783 5.96676,0 10.31583,5.820245 8.48785,11.359071 -1.33675,4.050384 -6.71341,6.477055 -10.74093,4.847749 z"
     id="path5" />
  <path
     style="fill:#aad400;fill-opacity:1;stroke:none;stroke-width:0.735632"
     d="m 106.60325,281.79936 c -2.30538,-1.30435 -6.787128,-10.71288 -8.739634,-18.3471 -1.985748,-7.7642 -2.803554,-16.00917 -4.059143,-40.92352 -1.30218,-25.83886 -1.854475,-30.33492 -4.80999,-39.15654 C 86.168286,174.93656 84.254666,171.24764 76.297811,158.89655 67.958646,145.95202 64.490771,138.76063 62.172974,129.60566 56.70882,108.023 60.957999,90.948671 74.031826,81.953642 l 3.279421,-2.256301 7.873112,2.319255 c 26.588521,7.832421 55.393821,23.233184 77.766641,41.577944 10.34475,8.48226 9.84872,7.46631 6.72938,13.78294 -6.68744,13.54203 -8.87811,36.86626 -4.91668,52.34826 3.14215,12.28008 10.29949,25.63692 18.51587,34.55383 l 4.89016,5.30709 -2.13964,8.42507 c -1.17679,4.63377 -3.04602,13.88535 -4.15382,20.55904 l -2.0142,12.134 -2.57471,1.19636 c -6.73511,3.12954 -30.97817,8.22274 -44.87357,9.42744 -17.37341,1.50623 -23.7741,1.62298 -25.81054,0.47079 z"
     id="path6" />
  <path
     style="fill:#aad400;fill-opacity:1;stroke:none;stroke-width:0.735632"
     d="m 76.873563,275.69362 c -7.588079,-3.97939 -15.355303,-12.05519 -19.338739,-20.10703 -3.646199,-7.37017 -4.867208,-13.01684 -6.034776,-27.90843 -1.809906,-23.0842 -3.648481,-29.66314 -17.232221,-61.6617 -14.562677,-34.3046 -16.585332,-41.06102 -16.60299,-55.46013 -0.01164,-9.49336 1.362437,-13.86066 6.506494,-20.679899 4.120664,-5.462576 8.862032,-8.787367 15.441231,-10.827862 5.441317,-1.687589 14.097287,-2.751472 14.072846,-1.729658 -0.0087,0.361955 -1.504922,2.957048 -3.325033,5.766872 -6.155223,9.502219 -8.471194,21.459327 -7.051944,36.408397 1.665613,17.54405 6.366711,30.03547 17.735877,47.12651 12.531008,18.83761 14.370342,24.86454 15.448006,50.61842 0.41802,9.98976 1.098866,22.79767 1.512992,28.46204 0.7116,9.73317 3.230724,23.39262 5.500689,29.82638 0.936263,2.65366 0.916206,2.90738 -0.228282,2.88793 -0.690099,-0.0117 -3.571966,-1.23656 -6.40415,-2.72184 z"
     id="path7" />
  <path
     style="fill:#aad400;fill-opacity:1;stroke:none;stroke-width:0.735632"
     d="m 237.6092,297.22625 c -10.79121,-1.78221 -23.92603,-7.0912 -34.57472,-13.97482 -7.0552,-4.56069 -6.81971,-3.95669 -5.49189,-14.08591 1.1639,-8.87868 4.45089,-26.71456 5.02998,-27.29364 0.17487,-0.17487 4.48472,1.52594 9.57745,3.77959 16.91673,7.48602 26.94496,9.63416 44.58561,9.55067 17.3677,-0.0822 26.94519,-2.27449 45.17156,-10.33971 4.00757,-1.77337 7.41062,-3.10017 7.56234,-2.94846 0.53823,0.53824 3.84173,18.63245 4.98921,27.32741 l 1.16498,8.82759 -2.77738,2.39611 c -5.84667,5.04406 -25.75477,14.15694 -35.14519,16.08762 -7.56796,1.55598 -32.23922,1.97046 -40.09195,0.67355 z"
     id="path8" />
  <path
     style="fill:#aad400;fill-opacity:1;stroke:none;stroke-width:0.735632"
     d="m 428.43728,275.67816 c 1.42746,-4.06081 3.96213,-15.24114 4.8059,-21.19865 0.40496,-2.85925 1.25408,-16.50624 1.88694,-30.32663 1.28314,-28.0213 1.89701,-31.81046 6.85175,-42.29267 1.57131,-3.32427 5.60953,-10.18205 8.97382,-15.23952 11.36917,-17.09104 16.07027,-29.58246 17.73588,-47.12651 1.42378,-14.99677 -1.01979,-27.233613 -7.391,-37.012529 -1.65095,-2.533967 -3.00172,-4.83241 -3.00172,-5.10765 0,-1.961422 14.79317,1.192949 20.71826,4.417788 4.35801,2.371927 10.12836,8.442774 12.3116,12.95274 3.22557,6.663141 3.68691,21.482301 1.03499,33.246091 -1.50395,6.67147 -3.00524,10.58807 -13.23243,34.52111 -14.55589,34.06277 -16.51971,40.62696 -18.28552,61.12045 -0.62751,7.28276 -1.44694,15.19488 -1.82095,17.58249 -2.35251,15.01793 -11.72601,28.26174 -24.54892,34.6852 -6.68186,3.34717 -7.28535,3.32502 -6.0386,-0.22171 z"
     id="path9" />
  <path
     style="fill:#aad400;fill-opacity:1;stroke:none;stroke-width:0.735632"
     d="m 357.88506,401.99297 c -9.84598,-1.53203 -21.37777,-6.26693 -30.74294,-12.62291 -5.93964,-4.03114 -13.02718,-11.12 -13.02718,-13.02963 0,-0.8579 1.61718,-5.44408 3.59373,-10.19151 9.03038,-21.68987 13.32041,-40.87289 14.47804,-64.73898 0.28006,-5.77397 0.77603,-10.66302 1.10215,-10.86457 0.32611,-0.20155 5.66263,0.78252 11.85893,2.18682 21.86307,4.95495 45.30463,7.37285 63.5276,6.55262 7.17707,-0.32305 10.81093,-0.20792 11.90416,0.37717 1.97198,1.05537 7.9707,10.92466 12.67688,20.85641 7.19747,15.18928 12.36109,34.47694 13.07423,48.83611 l 0.40521,8.15911 -2.76949,3.06549 c -4.17631,4.62269 -10.9433,9.41389 -18.36399,13.00218 -12.20783,5.90312 -25.89054,8.40544 -48.22308,8.81912 -8.29425,0.15364 -17.06667,-0.0297 -19.49425,-0.40743 z"
     id="path10" />
  <path
     style="fill:#aad400;fill-opacity:1;stroke:none;stroke-width:0.735632"
     d="m 404.22989,467.90796 c -5.86893,-2.00088 -10.77836,-4.68041 -21.49594,-11.73234 -10.00418,-6.58255 -21.30145,-11.83117 -37.35464,-17.3547 -25.58313,-8.80255 -30.9361,-11.26416 -38.83369,-17.85803 -3.68722,-3.07854 -8.83446,-9.82341 -11.43417,-14.98318 l -1.52753,-3.03178 4.81724,-5.57869 4.81725,-5.57869 5.26436,4.58518 c 15.91484,13.86157 32.08407,21.17357 51.70366,23.38126 5.7113,0.64266 10.84166,0.6432 21.0179,0.002 26.40773,-1.66347 40.96993,-4.96393 56.28488,-12.75671 3.32252,-1.69061 6.28355,-2.83123 6.58008,-2.5347 0.76133,0.76133 -2.26052,13.72928 -6.03001,25.87707 -7.36743,23.74279 -14.37326,35.02568 -23.72736,38.21294 -4.20445,1.43261 -3.92016,1.45093 -10.08203,-0.64981 z"
     id="path11" />
  <path
     style="fill:#aad400;fill-opacity:1;stroke:none;stroke-width:0.735632"
     d="m 238.71264,357.09446 c -5.98036,-1.0058 -15.96053,-4.11416 -23.12027,-7.20089 -7.79999,-3.36276 -9.94222,-4.66409 -11.38394,-6.91531 -2.44381,-3.81598 -8.83672,-40.25342 -7.32725,-41.76289 0.50241,-0.50241 3.09773,0.34753 7.97872,2.61295 9.06041,4.20523 19.98155,8.03 27.16584,9.51396 7.82418,1.61612 40.12434,1.61612 47.94852,0 7.18429,-1.48396 18.10542,-5.30873 27.16584,-9.51396 4.88099,-2.26542 7.47631,-3.11536 7.97872,-2.61295 1.62,1.62 -4.97057,38.31242 -7.53617,41.95704 -2.85836,4.0605 -20.94492,11.3888 -33.52044,13.58179 -7.054,1.23011 -28.81325,1.43956 -35.34957,0.34026 z"
     id="path12" />
  <path
     style="fill:#aad400;fill-opacity:1;stroke:none;stroke-width:0.735632"
     d="m 247.24791,399.46035 c -5.90701,-1.33971 -11.35816,-4.61645 -17.33916,-10.42275 -6.98429,-6.78028 -16.55575,-20.11806 -14.43713,-20.11806 0.38765,0 4.45132,0.96496 9.03039,2.14436 11.53652,2.97139 18.00078,3.74139 31.36731,3.73636 12.70584,-0.005 22.26785,-1.18489 33.40683,-4.12295 3.99808,-1.05455 7.44322,-1.74338 7.65587,-1.53074 0.59695,0.59696 -4.1485,7.65929 -9.19599,13.68577 -5.55841,6.6365 -12.24705,12.12155 -18.12683,14.86501 -5.62126,2.62283 -15.22991,3.38039 -22.36129,1.763 z"
     id="path13" />
  <path
     style="fill:#aad400;fill-opacity:1;stroke:none;stroke-width:0.735632"
     d="m 116.22989,401.65464 c -9.95147,-1.21675 -19.310914,-3.46717 -25.998239,-6.25111 -6.801711,-2.83156 -17.578301,-9.87167 -21.748592,-14.20788 l -3.241079,-3.37002 0.465746,-8.14015 c 0.920129,-16.08171 6.235222,-35.77527 13.752746,-50.95686 3.493495,-7.0551 10.75114,-19.43973 11.756019,-20.06078 0.27466,-0.16975 4.580058,0.0218 9.567549,0.42574 10.27647,0.83224 29.50652,-0.0488 42.18805,-1.93277 6.43507,-0.95602 27.8727,-5.17619 34.09745,-6.71236 2.08052,-0.51344 2.1526,-0.15394 3.12287,15.57454 1.37386,22.27092 4.69867,36.66469 13.70362,59.32579 2.19397,5.52115 3.98903,10.60387 3.98903,11.29495 0,1.66173 -7.60877,9.04847 -13.3048,12.91658 -5.65726,3.84178 -16.5443,8.94895 -22.37336,10.4955 -10.48062,2.78066 -30.59145,3.48001 -45.97701,1.59883 z"
     id="path14" />
  <path
     style="fill:#aad400;fill-opacity:1;stroke:none;stroke-width:0.735632"
     d="m 95.062472,467.44885 c -6.586107,-3.34584 -13.874185,-14.85705 -19.299861,-30.48333 -2.371081,-6.82886 -8.08445,-29.01522 -8.08445,-31.39383 0,-1.86055 1.104294,-1.68936 5.649554,0.87583 19.111334,10.78577 56.909465,16.30405 84.833205,12.38509 14.99607,-2.10463 31.2355,-10.13564 45.30223,-22.40368 l 5.31844,-4.63838 4.83334,5.59733 4.83334,5.59732 -2.33587,4.48441 c -3.08034,5.91367 -14.07642,16.91158 -20.06642,20.06978 -4.73153,2.49468 -18.2482,7.68248 -28.13854,10.7998 -17.73463,5.58975 -25.17123,9.03777 -39.31901,18.23047 -18.31095,11.89776 -26.37191,14.51354 -33.525958,10.87919 z"
     id="path15" />
</svg>
