<?xml version="1.0" encoding="UTF-8" standalone="no"?>
<!-- Created with Inkscape (http://www.inkscape.org/) -->

<svg
   version="1.1"
   id="svg1"
   width="512"
   height="512"
   viewBox="0 0 512 512"
   sodipodi:docname="caterpillar-outline-white.svg"
   inkscape:version="1.3 (0e150ed6c4, 2023-07-21)"
   xmlns:inkscape="http://www.inkscape.org/namespaces/inkscape"
   xmlns:sodipodi="http://sodipodi.sourceforge.net/DTD/sodipodi-0.dtd"
   xmlns="http://www.w3.org/2000/svg"
   xmlns:svg="http://www.w3.org/2000/svg">
  <defs
     id="defs1" />
  <sodipodi:namedview
     id="namedview1"
     pagecolor="#ffffff"
     bordercolor="#000000"
     borderopacity="0.25"
     inkscape:showpageshadow="2"
     inkscape:pageopacity="0.0"
     inkscape:pagecheckerboard="0"
     inkscape:deskcolor="#d1d1d1"
     inkscape:zoom="1.1455078"
     inkscape:cx="238.32225"
     inkscape:cy="340.02387"
     inkscape:window-width="1350"
     inkscape:window-height="1237"
     inkscape:window-x="1248"
     inkscape:window-y="67"
     inkscape:window-maximized="0"
     inkscape:current-layer="svg1" />
  <path
     style="fill:#ffffff;stroke:none;fill-opacity:1"
     d="m 51,510.45773 c -14.152091,-3.89368 -23.835706,-15.60432 -24.773657,-29.9594 -0.251616,-3.85092 -0.0015,-8.6532 0.555865,-10.67172 0.914478,-3.31197 0.76732,-3.89721 -1.508257,-5.99833 C 20.426464,459.35244 12.797825,448.43475 8.9735144,440.5 -3.8371675,413.92016 -2.5835318,381.4166 12.270526,355.01692 c 5.614918,-9.97923 19.78953,-24.37356 29.039492,-29.48962 11.258848,-6.22717 19.711445,-8.65631 32.209999,-9.25665 13.042938,-0.62648 23.459142,1.52737 34.838753,7.20393 l 6.9524,3.46811 8.09441,-3.98936 c 19.20375,-9.46461 42.5437,-9.26867 61.80962,0.5189 l 6.77341,3.44107 8.2557,-3.95972 c 11.37677,-5.45669 20.62022,-7.27661 33.75569,-6.64609 7.47921,0.35901 12.5378,1.20556 17.58323,2.94252 7.05551,2.42895 7.09267,2.43085 9.49696,0.48397 7.00626,-5.67332 19.88015,-10.30001 32.87926,-11.81632 C 301.56314,307.03071 306,305.23761 306,303.05164 c 0,-0.35112 -2.66601,-3.37988 -5.92447,-6.73058 -4.87353,-5.01149 -6.29266,-7.28421 -8,-12.81196 -2.59756,-8.40992 -2.60804,-12.57437 -0.0524,-20.84845 3.67182,-11.88795 15.48721,-21.86784 27.58629,-23.30079 l 4.9882,-0.59078 -2.35733,-4.92565 c -6.98521,-14.59561 -8.08967,-34.32562 -2.8309,-50.57068 l 2.66329,-8.22725 -6.78632,-7.86523 C 298.76883,148.0368 290.68734,127.01409 290.61432,103 290.52798,74.606722 301.54768,49.562459 322.70559,30.066754 l 7.49881,-6.909693 -3.05166,-1.578074 C 322.7336,19.29376 313.26183,17 308.24445,17 c -7.9601,0 -12.18628,-8.1540166 -7.32827,-14.139216 1.72509,-2.12536742 2.69736,-2.35645344 9.75,-2.31735666 9.91963,0.0549902 20.4995,3.33148566 28.85968,8.93759446 l 6.108,4.0958642 4.93307,-2.241003 c 32.3641,-14.7024153 68.40293,-14.7335836 100.68044,-0.08707 l 5.1471,2.335587 5.85735,-3.9113892 c 7.72156,-5.1562597 17.88428,-8.5918766 27.64071,-9.34423806 7.57534,-0.58416815 8.02856,-0.49858956 10.51206,1.98491656 C 506.24323,8.1523172 502.23755,17 493.75555,17 c -4.95528,0 -14.47411,2.285981 -18.77076,4.507867 l -2.91413,1.506955 9.77601,9.742589 c 14.46508,14.415618 22.50076,28.481692 27.35652,47.886279 3.29121,13.15232 3.07242,32.19475 -0.52539,45.72811 -4.37317,16.44992 -12.51912,31.06068 -24.39713,43.75922 l -4.44259,4.7495 2.73811,7.80974 c 5.30427,15.12908 4.4243,35.18991 -2.20134,50.18417 -1.30617,2.95594 -2.37485,5.48546 -2.37485,5.62117 0,0.13571 2.1375,0.53446 4.75,0.88613 24.88013,3.34907 37.42061,32.55452 22.80533,53.11122 -4.15513,5.84429 -13.23263,12.27191 -18.52674,13.11847 -4.98236,0.79671 -5.05938,0.87046 -8.87945,8.50275 -1.82076,3.6378 -5.50193,9.32255 -8.18036,12.63278 -4.97716,6.15119 -5.2087,7.23647 -1.55211,7.27501 6.86743,0.0724 18.90691,9.82184 23.27968,18.85165 2.31119,4.77264 2.72463,6.91619 2.72463,14.12639 0,7.2102 -0.41344,9.35375 -2.72463,14.12639 -3.22769,6.6652 -10.90958,14.1957 -17.41792,17.07464 -6.4911,2.87133 -15.57357,3.4365 -22.56466,1.40414 l -5.64179,-1.64011 -6.32265,6.32264 c -12.23591,12.23592 -25.56296,19.27475 -43.02422,22.72376 l -5.77489,1.14067 2.66437,3.16642 c 4.87119,5.78908 6.71294,11.39292 6.80299,20.69925 0.0745,7.69923 -0.23395,9.16075 -3.20958,15.20803 -3.58385,7.28335 -8.59498,12.25712 -16.07188,15.95205 -3.84877,1.90199 -6.2495,2.29108 -14.13612,2.29108 -11.42109,0 -16.70992,-2.12391 -24.4155,-9.80491 l -4.9155,-4.89981 -7.36292,1.61788 c -11.78034,2.58854 -25.34696,1.91995 -38.80608,-1.91243 -1.88454,-0.5366 -2.0006,-0.0903 -2.01044,7.73042 -0.0126,10.00176 -2.87807,17.1884 -9.48956,23.79989 -6.68821,6.68821 -13.79169,9.5 -24,9.5 -7.10469,0 -9.42714,-0.43467 -14.14796,-2.64796 -7.30941,-3.42691 -13.00784,-9.20228 -16.5323,-16.75553 -2.78895,-5.97698 -2.8798,-6.05541 -8.31974,-7.18294 -4.61918,-0.9574 -11.24258,-3.16338 -19.10464,-6.36296 -1.30903,-0.53272 -1.71547,0.28267 -2.20618,4.42598 -0.74697,6.307 -5.84959,16.07906 -10.55165,20.20752 -1.95045,1.71251 -6.0418,4.28416 -9.0919,5.71478 C 171.43508,511.06141 169.06676,511.5 162,511.5 c -7.28111,0 -9.31595,-0.40069 -14.19009,-2.79424 C 138.24416,504.0083 129,491.82656 129,483.9185 c 0,-1.12939 -2.39924,-2.9441 -6.9469,-5.25443 l -6.9469,-3.5292 -6.8031,3.3334 c -3.7417,1.83337 -8.7156,3.89925 -11.0531,4.59085 -2.3375,0.6916 -4.25,1.78935 -4.25,2.43945 0,2.87707 -6.439355,13.66564 -10.166272,17.03268 C 74.253473,510.283 61.713603,513.40538 51,510.45773 Z M 69.815182,492.1316 c 6.50501,-4.63197 9.020789,-14.46032 5.565361,-21.74209 -5.104922,-10.75783 -19.49996,-13.20343 -27.954195,-4.74919 -8.004182,8.00418 -6.36207,20.40794 3.597449,27.17349 4.621626,3.13949 13.897217,2.80275 18.791385,-0.68221 z m 99.513628,1.50437 c 4.24962,-1.7756 8.34704,-6.71845 9.68343,-11.68144 3.19054,-11.84873 -9.15244,-24.14804 -21.02537,-20.95099 -19.2625,5.18685 -16.05848,33.86812 3.79525,33.97369 2.35516,0.0125 5.75118,-0.59104 7.54669,-1.34126 z m 96.43463,-1.2927 C 270.70723,488.68105 273,484.23249 273,478.30246 c 0,-6.2295 -1.65664,-9.99431 -6.00955,-13.65704 -6.51365,-5.48088 -15.46725,-5.48088 -21.9809,0 C 240.70891,468.26417 239,472.06175 239,478 c 0,7.40103 3.68893,13.2774 10.00051,15.93056 3.96701,1.66759 13.60043,0.75539 16.76293,-1.58729 z m 106.33734,-23.47933 c 4.04366,-1.35145 8.49455,-5.24674 10.59709,-9.27428 2.18487,-4.18524 1.35728,-13.2991 -1.58254,-17.4277 -7.25918,-10.19457 -23.99354,-9.03331 -29.73177,2.0632 -2.34342,4.53169 -2.07343,11.94043 0.6003,16.47205 4.44962,7.54155 12.36853,10.75634 20.11692,8.16673 z m -146.77377,-4.31438 c 1.00485,-2.44363 3.60544,-6.46335 5.77907,-8.93273 C 235.2475,450.91193 245.579,445 249.65972,445 250.94688,445 252,444.77626 252,444.50281 c 0,-0.27346 -2.07423,-3.31096 -4.60939,-6.75 -13.35201,-18.1125 -19.49994,-39.8568 -17.29494,-61.16959 1.41763,-13.70245 4.84476,-24.25571 11.64481,-35.85822 1.8937,-3.23111 3.26229,-6.05556 3.04131,-6.27654 -0.22098,-0.22098 -3.67131,-0.86549 -7.66739,-1.43224 -31.97782,-4.53527 -61.4344,21.91715 -66.2896,59.52899 -4.22652,32.74167 16.42819,67.10446 45.08702,75.01026 7.02822,1.9388 7.43529,1.80884 9.41519,-3.00591 z m -128.02735,0.82326 c 1.760187,-0.89494 3.33488,-1.74199 3.49933,-1.88232 0.16444,-0.14033 -2.043909,-3.3456 -4.907445,-7.12282 C 89.394751,447.79791 82.665892,433.97442 79.892554,423.5 76.806489,411.84447 76.78172,391.85455 79.838034,379.5 82.55018,368.53668 89.13232,354.84339 96.107682,345.65309 102.02648,337.85486 102.14728,338.17148 92,334.88702 c -4.43827,-1.43658 -9.196109,-2.11888 -15,-2.15109 -15.095973,-0.0838 -27.808158,5.21849 -38.98458,16.26048 -15.059076,14.87794 -21.823794,33.27864 -20.811532,56.60943 0.706731,16.28887 6.339718,31.07842 16.337369,42.89416 l 3.384518,4 2.787112,-1.79728 c 7.191366,-4.63736 11.726306,-6.03873 19.80814,-6.12104 7.139579,-0.0727 8.755877,0.28009 14.708026,3.21032 7.105473,3.49801 12.540558,8.87802 15.529178,15.37182 1.954451,4.24671 2.956417,4.5402 7.541429,2.209 z m 35.4623,-3.74973 c 1.63102,-3.57969 7.19711,-9.57216 11.29233,-12.15736 C 148.25197,446.81585 157.07561,444 161.1815,444 c 1.55018,0 2.8185,-0.16901 2.8185,-0.37557 0,-0.20656 -1.12557,-2.92068 -2.50126,-6.03137 -5.35099,-12.09954 -6.97762,-20.85381 -6.89226,-37.09306 0.0636,-12.09601 0.4983,-16.53834 2.24541,-22.94602 2.87278,-10.53616 8.76486,-22.37196 15.65902,-31.45528 6.35412,-8.3718 6.47457,-7.98765 -3.51091,-11.19664 -8.96311,-2.88043 -22.15533,-2.89232 -31,-0.0279 -21.06776,6.82289 -37.0341,25.29279 -42.466949,49.12587 -2.271255,9.96366 -2.34419,26.50138 -0.154357,35 3.77291,14.64246 13.332796,29.75902 23.843686,37.70282 10.98549,8.30249 11.85463,8.61834 13.53958,4.92027 z m 195.86054,-5.78788 c 4.09892,-1.00266 4.12625,-1.04036 4.77883,-6.59278 1.12817,-9.59903 5.8687,-18.25231 12.71681,-23.21305 l 3.85532,-2.79278 -8.66511,-4.15781 C 329.89837,413.6039 322.05794,407.8988 313.36008,398.74222 294.33226,378.71087 287.70232,354.85332 293.63155,327.75 c 0.53443,-2.44293 0.31452,-2.75 -1.96948,-2.75 -4.16886,0 -15.50016,4.55606 -21.34771,8.58342 -9.99255,6.88213 -17.10651,16.78954 -21.48143,29.91658 -2.0164,6.05024 -2.32479,8.89951 -2.27296,21 0.0554,12.93693 0.29038,14.65807 3.09441,22.66644 12.4128,35.45117 46.67603,56.56791 78.96812,48.66877 z m 73.49525,-47.50366 c 9.66143,-3.3657 20.17313,-9.92696 26.81994,-16.74064 l 4.4377,-4.54911 -2.22793,-4.46098 c -3.60423,-7.21678 -4.71875,-14.4071 -3.36307,-21.69689 0.64105,-3.44704 1.01892,-6.41395 0.83972,-6.59315 -0.1792,-0.1792 -3.20543,0.45326 -6.72496,1.40547 -4.81578,1.3029 -10.23438,1.72175 -21.89915,1.69277 -13.89791,-0.0345 -16.40837,-0.31573 -24.28832,-2.72049 -4.83358,-1.47509 -11.81227,-4.20482 -15.50822,-6.06607 -13.87377,-6.98672 -28.42673,-20.84288 -34.89673,-33.22587 -1.5437,-2.95451 -3.15404,-5.37291 -3.57854,-5.37421 -1.30895,-0.004 -8.5409,11.89257 -10.85211,17.8518 -2.69281,6.94314 -3.64179,22.14045 -1.90496,30.50672 1.94047,9.34719 8.40392,20.97516 16.25101,29.23609 8.11869,8.54688 15.2401,13.52614 25.99624,18.17646 11.29692,4.88413 18.50072,6.23664 31.28163,5.8731 9.12132,-0.25944 12.47181,-0.82561 19.61775,-3.315 z m 66.53757,-25.97228 c 9.45197,-4.48525 12.4396,-18.33929 5.68577,-26.36575 -3.55274,-4.2222 -7.84401,-6.22429 -13.34109,-6.22429 -14.42307,0 -22.65851,16.49613 -13.83531,27.71302 5.0047,6.36244 14.03956,8.41279 21.49063,4.87702 z m -48.47826,-42.8858 c 15.46323,-3.95958 30.20776,-14.22735 39.24734,-27.33098 l 5.0756,-7.35751 -2.5,-1.63953 c -9.90589,-6.49637 -16.41292,-16.299 -17.61637,-26.53848 C 444.02118,273.52313 443.54367,271 443.32248,271 c -0.22119,0 -2.15167,0.89254 -4.28996,1.98341 -13.59124,6.93373 -37.39184,9.79654 -54.53252,6.55934 -7.29913,-1.37852 -16.90666,-4.49859 -25.10481,-8.15284 -0.70109,-0.3125 -1.31857,1.57875 -1.6898,5.17564 -1.03023,9.98192 -7.80368,20.1478 -17.68914,26.5486 l -2.48375,1.60821 3.89876,5.88882 c 10.59081,15.99669 28.30582,27.34377 47.43827,30.38586 7.67326,1.22006 23.62445,0.4438 31.30753,-1.52357 z M 333.75344,287.4259 c 9.11889,-5.97493 10.5451,-17.46054 3.20605,-25.81925 -3.93177,-4.47804 -7.82032,-5.94878 -14.30617,-5.41092 -6.52071,0.54075 -10.90963,3.4262 -13.78532,9.06301 -3.95803,7.75838 -0.80994,18.98928 6.42265,22.91298 5.46778,2.96629 13.27896,2.65075 18.46279,-0.74582 z m 154.04294,-0.12319 C 493.0944,283.34716 494.5,280.3482 494.5,273 c 0,-7.37124 -1.40281,-10.34507 -6.77032,-14.3525 -3.30539,-2.46783 -12.55084,-3.37843 -16.72923,-1.64768 -7.22676,2.99342 -12.01195,12.53003 -10.01269,19.95471 1.15658,4.29524 4.96707,9.41299 8.3701,11.24166 5.55381,2.98441 13.77829,2.58588 18.43852,-0.89348 z m -67.33244,-24.86146 c 29.23607,-7.91867 48.94129,-31.04152 48.95125,-57.44125 0.002,-5.20872 -0.66984,-10.72788 -1.73499,-14.25367 l -1.7382,-5.75366 -5.221,3.05809 c -20.19619,11.8295 -39.36178,16.50484 -64.221,15.66636 -19.46014,-0.65637 -30.16714,-3.35838 -47.71877,-12.04227 l -12.71878,-6.29277 -1.07743,3.05896 c -4.02973,11.44085 -2.74548,27.87363 3.13253,40.08277 5.0662,10.52292 17.72385,22.90002 28.91992,28.27892 7.76397,3.73003 15.80345,6.31741 23.46253,7.55105 5.54183,0.89261 23.94371,-0.28193 29.96394,-1.91253 z m 6.65714,-77.73839 c 27.82947,-7.29575 51.49677,-27.0104 61.84631,-51.51744 C 496.22267,116.00539 497.00438,95.639121 491.08555,78 487.54845,67.458853 482.47367,58.2345 475.65467,49.951528 471.17101,44.505269 461.53642,36 459.85068,36 c -1.45675,0 -4.71354,6.094775 -6.94664,13 -1.15614,3.575 -3.00736,7.2875 -4.11384,8.25 -2.96119,2.575882 -7.97985,2.241482 -10.7591,-0.716893 -2.01689,-2.146881 -2.23858,-3.133479 -1.70894,-7.605424 0.34203,-2.887947 2.37568,-8.789344 4.64321,-13.474063 C 443.18442,30.869078 445,26.909077 445,26.653618 c 0,-1.03165 -17.30265,-6.63397 -24.99652,-8.093473 -10.52355,-1.996284 -27.48341,-1.996284 -38.00696,0 C 374.91282,19.9039 357,25.592651 357,26.498536 c 0,0.170164 1.86855,4.20355 4.15233,8.963081 5.26038,10.962919 6.13524,17.538927 2.80495,21.083852 -2.83878,3.021746 -8.10952,3.302294 -10.83509,0.576725 -1.03279,-1.032793 -2.83416,-4.745293 -4.00304,-8.25 C 346.86881,42.124932 343.57884,36 342.20493,36 340.7548,36 331.09632,44.727671 325.92553,50.710516 320.1176,57.430577 311.76155,73.624332 309.26403,83 c -1.22982,4.616706 -1.73621,10.411457 -1.74776,20 -0.0137,11.40065 0.34824,14.66083 2.32774,20.96476 10.2179,32.53995 37.35047,55.80813 72.89592,62.51361 11.8426,2.23405 32.19216,1.41995 44.38115,-1.77551 z M 392.0674,160.86504 c -6.58014,-1.0915 -18.6643,-6.73945 -21.98407,-10.275 -3.35207,-3.56997 -3.22593,-8.21047 0.30577,-11.2483 3.65775,-3.14627 5.29403,-2.97804 13.69725,1.40826 6.92108,3.61265 7.55466,3.75 17.29893,3.75 9.89209,0 10.27387,-0.0869 17.34522,-3.9499 8.12402,-4.43802 10.87377,-4.32218 14.54761,0.61285 2.35449,3.16277 1.80312,6.71877 -1.54022,9.9335 -3.64239,3.50228 -15.74908,8.75149 -22.73789,9.85869 -7.41216,1.17426 -9.37332,1.16382 -16.9326,-0.0901 z m -64.61285,-44.31959 c -2.79761,-2.7976 -3.19773,-7.29807 -1.23843,-13.92943 1.62291,-5.492837 9.90706,-13.776994 15.3999,-15.399904 16.10386,-4.758035 31.42659,5.107528 33.09891,21.310794 0.49018,4.74932 0.27774,5.57133 -2.03841,7.88748 -5.29849,5.29849 -12.70611,2.05566 -14.01597,-6.13576 C 357.88223,105.4113 354.22629,102 349.78822,102 346.27622,102 341,106.78663 341,109.97274 c 0,2.89781 -2.56794,7.64749 -4.5448,8.40608 -3.25081,1.24745 -6.60257,0.56472 -9.00065,-1.83337 z m 102.74612,0.42687 c -3.01979,-2.81336 -3.61374,-6.08199 -2.18635,-12.03203 3.34453,-13.941536 17.97685,-22.01929 32.17884,-17.764273 5.13452,1.538342 12.6173,8.197527 14.92837,13.285273 1.009,2.22129 1.84443,6.36855 1.85651,9.21613 0.0187,4.41603 -0.36552,5.48221 -2.6129,7.25 C 468.53929,121.51003 461,117.34382 461,109.54184 461,106.57957 455.75211,102 452.35753,102 c -1.36896,0 -3.35477,0.46334 -4.41292,1.02964 -2.29304,1.2272 -4.94461,6.03534 -4.94461,8.96615 0,3.05012 -4.38414,7.00421 -7.76598,7.00421 -1.5713,0 -3.8363,-0.91245 -5.03335,-2.02768 z"
     id="path1" />
</svg>
