<?xml version="1.0" encoding="UTF-8" standalone="no"?>
<!-- Created with Inkscape (http://www.inkscape.org/) -->

<svg
   version="1.1"
   id="svg1"
   width="512"
   height="512"
   viewBox="0 0 512 512"
   sodipodi:docname="caterpillar-filled.svg"
   inkscape:version="1.3 (0e150ed6c4, 2023-07-21)"
   xmlns:inkscape="http://www.inkscape.org/namespaces/inkscape"
   xmlns:sodipodi="http://sodipodi.sourceforge.net/DTD/sodipodi-0.dtd"
   xmlns="http://www.w3.org/2000/svg"
   xmlns:svg="http://www.w3.org/2000/svg">
  <defs
     id="defs1" />
  <sodipodi:namedview
     id="namedview1"
     pagecolor="#ffffff"
     bordercolor="#000000"
     borderopacity="0.25"
     inkscape:showpageshadow="2"
     inkscape:pageopacity="0.0"
     inkscape:pagecheckerboard="0"
     inkscape:deskcolor="#d1d1d1"
     inkscape:zoom="1.1455078"
     inkscape:cx="238.32225"
     inkscape:cy="340.02387"
     inkscape:window-width="1350"
     inkscape:window-height="1237"
     inkscape:window-x="1248"
     inkscape:window-y="67"
     inkscape:window-maximized="0"
     inkscape:current-layer="svg1" />
  <path
     style="fill:#aad400;fill-opacity:1;stroke:none;stroke-width:0.872975"
     d="m 384.54561,186.31499 c -30.03165,-5.05083 -55.93762,-23.71189 -68.98755,-49.69436 -5.57754,-11.10492 -6.75194,-16.06225 -7.18221,-30.31731 -0.24195,-8.015559 -0.002,-15.584889 0.60331,-19.063073 1.15911,-6.656108 6.07317,-18.543406 11.43643,-27.665133 3.87499,-6.590519 18.85795,-22.473665 21.19996,-22.473665 1.66565,0 3.29035,2.617224 6.23208,10.039216 3.65815,9.229538 4.5545,10.643824 7.36726,11.624359 4.67126,1.62841 9.95851,-1.18744 10.96826,-5.841406 0.66867,-3.081906 -1.50903,-11.052076 -5.20614,-19.053987 -1.66992,-3.614323 -2.82981,-6.905467 -2.57754,-7.313651 0.65119,-1.053647 15.29022,-5.629 23.27217,-7.273598 8.97624,-1.84946 29.88481,-1.863004 38.78257,-0.02512 7.11668,1.469991 22.15837,6.163726 23.25263,7.255944 0.36953,0.368847 -0.92943,4.087736 -2.88658,8.264198 -4.22358,9.012866 -5.92527,16.055938 -4.7222,19.544484 1.20483,3.493618 6.05919,5.699048 10.09275,4.585328 3.38427,-0.93444 3.68945,-1.384726 8.04634,-11.872244 1.61987,-3.899223 3.54026,-7.939024 4.26752,-8.977333 l 1.32229,-1.887836 4.26214,3.420053 c 20.91314,16.781263 32.71474,44.582454 29.97959,70.623274 -2.09037,19.90193 -10.02185,35.65387 -25.41654,50.47731 -14.20604,13.67892 -31.74716,22.34457 -51.15038,25.26929 -9.12164,1.37494 -25.8228,1.55498 -32.95616,0.35526 z m 27.73935,-25.6732 c 7.2811,-1.89649 16.37176,-6.24941 19.61956,-9.39453 3.59489,-3.48124 3.89553,-8.061 0.76786,-11.69713 -2.92314,-3.39836 -6.60935,-3.15904 -15.04143,0.9765 -6.76679,3.3188 -7.07613,3.38136 -16.49881,3.33725 -9.43693,-0.0442 -9.73005,-0.1071 -16.97684,-3.6441 -4.05576,-1.97954 -8.309,-3.59915 -9.45164,-3.59915 -1.14263,0 -3.22582,1.1483 -4.62929,2.55178 -3.33893,3.33892 -3.45344,7.59138 -0.30518,11.33287 2.64506,3.14348 13.2159,8.58015 19.7672,10.16644 6.34804,1.53707 16.78514,1.52334 22.74857,-0.0299 z m -72.94432,-44.88342 c 1.09598,-1.63145 1.99269,-3.92956 1.99269,-5.1069 0,-1.27049 1.20652,-3.34716 2.96812,-5.10876 5.47982,-5.47982 11.5414,-3.19179 14.00621,5.28684 2.43906,8.3901 9.26773,11.032 14.63692,5.66281 2.48438,-2.48437 2.63535,-2.99251 2.18513,-7.35475 -0.93338,-9.04356 -5.23561,-15.897617 -12.76456,-20.335742 -5.40642,-3.186945 -16.33545,-3.814455 -22.09122,-1.268407 -9.04778,4.002268 -15.52713,13.110499 -15.52713,21.827009 0,4.04856 0.35938,5.05648 2.60276,7.29987 2.20368,2.20368 3.16974,2.56147 6.30057,2.33352 3.08908,-0.2249 4.02586,-0.75754 5.69051,-3.23549 z m 101.57902,0.85098 c 1.40349,-1.40347 2.55178,-3.38718 2.55178,-4.40823 0,-2.58371 2.23524,-6.63986 4.55413,-8.26407 4.68635,-3.28244 11.59826,0.41649 12.61083,6.74871 1.28995,8.06691 9.0643,11.1886 14.45049,5.8024 2.58409,-2.58408 2.6552,-2.86323 2.13864,-8.39496 -0.8434,-9.031817 -6.32992,-16.549595 -14.92805,-20.454853 -4.53778,-2.061056 -13.56132,-2.148367 -19.31785,-0.18692 -6.14832,2.094944 -12.90048,9.048762 -14.71311,15.152523 -2.15331,7.25101 -1.84052,10.99472 1.17017,14.0054 3.52185,3.52186 7.96112,3.52186 11.48297,0 z"
     id="path2" />
  <path
     style="fill:#aad400;fill-opacity:1;stroke:none;stroke-width:0.872975"
     d="m 383.54043,262.40621 c -14.23184,-3.87659 -23.61664,-9.27621 -33.59433,-19.32876 -11.73589,-11.82393 -16.46954,-23.10877 -16.46954,-39.26269 0,-7.0201 1.77236,-17.43454 2.96706,-17.43454 0.15427,0 5.54059,2.50805 11.96959,5.57344 21.62295,10.30998 31.16156,12.27273 56.64732,11.65625 14.58183,-0.35272 18.22296,-0.72889 25.39056,-2.6231 10.45103,-2.76194 20.41478,-6.71502 28.15586,-11.17072 3.2831,-1.88973 6.27655,-3.43587 6.6521,-3.43587 1.60457,0 3.09219,8.81952 3.09219,18.33248 0,8.25639 -0.37453,11.18267 -2.10896,16.47803 -4.7319,14.4469 -16.69515,27.6103 -31.86785,35.06483 -11.73708,5.76657 -16.82639,6.95256 -31.93283,7.44149 -10.701,0.34635 -13.6234,0.14677 -18.90117,-1.29084 z"
     id="path3" />
  <path
     style="fill:#aad400;fill-opacity:1;stroke:none;stroke-width:0.872975"
     d="m 382.79966,339.23844 c -16.65214,-4.56278 -31.11201,-14.68059 -40.35719,-28.23858 l -4.16455,-6.10729 2.18244,-1.36931 c 4.34173,-2.72408 11.95093,-11.22231 14.23546,-15.89867 1.2845,-2.62933 2.76806,-7.13763 3.29679,-10.01845 0.52873,-2.88082 1.05538,-5.33541 1.17032,-5.45465 0.11495,-0.11924 2.61921,0.76256 5.56504,1.95956 8.02812,3.26212 20.64121,6.29712 28.98388,6.9742 13.40742,1.08813 32.68314,-1.96194 43.97552,-6.95841 2.82047,-1.24795 5.21816,-2.15415 5.32821,-2.01378 0.11006,0.14037 0.6852,2.80868 1.2781,5.92957 0.59291,3.12088 2.2683,7.91771 3.72312,10.65962 2.46704,4.64967 10.35346,13.16245 14.14132,15.26447 1.61227,0.89471 1.60062,1.0142 -0.37725,3.86785 -8.71697,12.57679 -17.51315,20.49475 -29.28233,26.35871 -9.66295,4.81453 -14.9054,5.92082 -30.05694,6.34275 -11.43483,0.31844 -14.47782,0.11741 -19.64194,-1.29759 z"
     id="path4" />
  <path
     style="fill:#aad400;fill-opacity:1;stroke:none;stroke-width:0.872975"
     d="m 369.67865,410.69808 c -15.44459,-2.01958 -35.91663,-13.37328 -45.9276,-25.47125 -12.16061,-14.69574 -16.47668,-27.80442 -14.72299,-44.7164 1.01579,-9.79605 2.78211,-14.81526 8.36694,-23.77576 l 4.14435,-6.64933 1.82197,3.29441 c 3.51606,6.35762 11.60912,16.65357 17.00151,21.62925 10.61283,9.7927 21.87759,16.08047 36.29237,20.25772 6.95073,2.01424 9.09516,2.21541 23.48338,2.20302 10.79053,-0.009 17.50253,-0.41649 21.07199,-1.27837 2.88082,-0.6956 5.4641,-1.27872 5.74063,-1.29582 0.27652,-0.0171 0.47294,4.58476 0.43648,10.22636 -0.0632,9.78454 0.0618,10.52787 2.7122,16.12264 l 2.77848,5.86518 -5.92969,5.4835 c -10.96855,10.14319 -24.95169,16.68554 -38.77591,18.14222 -8.9773,0.94596 -11.00554,0.94186 -18.49411,-0.0374 z"
     id="path5" />
  <path
     style="fill:#aad400;fill-opacity:1;stroke:none;stroke-width:0.872975"
     d="m 302.27645,455.63347 c -16.5501,-3.62692 -32.13029,-14.69188 -43.06442,-30.58409 -3.74515,-5.44339 -9.20649,-17.30953 -10.82299,-23.51572 -1.73313,-6.65393 -1.80998,-27.83993 -0.12337,-34.01107 4.8378,-17.70105 14.87698,-30.41615 29.57269,-37.4552 6.58871,-3.15591 14.30027,-5.48318 15.19711,-4.58634 0.28703,0.28703 0.0432,2.95487 -0.54182,5.92852 -1.68382,8.55872 -1.30524,24.43236 0.77801,32.62112 5.67205,22.2955 22.86747,42.6153 45.99208,54.34879 l 9.71557,4.92971 -3.62969,2.77147 c -6.46753,4.93833 -11.13523,13.59155 -12.37571,22.9427 -0.32517,2.45126 -1.03257,4.82023 -1.57199,5.26438 -3.17383,2.61327 -19.82984,3.38285 -29.12547,1.34573 z"
     id="path6" />
  <path
     style="fill:#aad400;fill-opacity:1;stroke:none;stroke-width:0.872975"
     d="m 213.87894,466.38109 c -8.05312,-2.77917 -13.51457,-6.2071 -20.39665,-12.80214 -21.35056,-20.46008 -28.14762,-51.07506 -17.57549,-79.16262 4.93801,-13.1191 16.17492,-27.08348 26.88629,-33.41227 9.81806,-5.80097 15.63536,-7.42435 26.79941,-7.47866 5.52157,-0.0269 11.0646,0.23948 12.31785,0.59189 l 2.27863,0.64073 -5.14175,10.27146 c -7.68232,15.34665 -8.91465,20.86327 -8.92479,39.95262 -0.008,14.67668 0.15029,16.23199 2.39584,23.57033 3.07903,10.06206 7.90388,19.99066 13.99948,28.80818 l 4.82794,6.98381 -2.80158,0.48422 c -4.18409,0.72318 -13.04899,5.74232 -16.59089,9.39346 -1.71638,1.76932 -4.43769,5.57398 -6.04736,8.4548 -1.8443,3.30072 -3.56018,5.31635 -4.63963,5.45014 -0.94213,0.11675 -4.26641,-0.66893 -7.3873,-1.74595 z"
     id="path7" />
  <path
     style="fill:#aad400;fill-opacity:1;stroke:none;stroke-width:0.872975"
     d="m 123.08951,458.88736 c -13.90859,-10.29398 -24.15936,-25.96891 -27.630868,-42.25163 -1.665921,-7.81382 -1.136985,-26.4513 0.97114,-34.21887 3.662608,-13.49521 8.826688,-22.66199 17.943438,-31.85148 7.17095,-7.22817 13.41723,-11.31923 22.47303,-14.71891 8.24526,-3.09539 22.98387,-3.26841 32.2484,-0.37857 3.45662,1.07821 6.53402,2.36369 6.83867,2.85661 0.30464,0.49293 -1.99177,4.7107 -5.10314,9.37282 -13.12055,19.66003 -16.28048,29.89872 -16.30065,52.81688 -0.0148,16.83006 1.10381,23.73451 5.68739,35.10408 1.6662,4.133 3.02946,7.63399 3.02946,7.77996 0,0.14598 -2.06241,0.4817 -4.58312,0.74604 -10.26158,1.07614 -20.01256,7.04164 -25.09804,15.35462 -1.20034,1.96213 -2.7717,3.57215 -3.4919,3.57782 -0.72021,0.006 -3.86292,-1.87954 -6.98381,-4.18937 z"
     id="path8" />
  <path
     style="fill:#aad400;fill-opacity:1;stroke:none;stroke-width:0.872975"
     d="m 91.919617,465.51407 c -0.456249,-0.60017 -1.857547,-2.89186 -3.113996,-5.09263 -2.962297,-5.18871 -7.961938,-9.64932 -14.795142,-13.20002 -5.171119,-2.68704 -5.989881,-2.84628 -14.44135,-2.80869 -8.727102,0.0388 -9.140299,0.13225 -15.934417,3.60345 l -6.974986,3.56362 -3.964327,-4.92716 c -5.023988,-6.24417 -10.310931,-16.99602 -12.748285,-25.92568 -1.524318,-5.5846 -1.900465,-9.40398 -1.929772,-19.59482 -0.04315,-15.0046 1.222674,-21.0198 6.889017,-32.73657 11.05276,-22.85473 32.567352,-36.57427 54.970879,-35.05412 7.941507,0.53886 18.621916,3.53748 19.349077,5.43244 0.275004,0.71664 -1.158835,3.45058 -3.290281,6.27366 -5.184165,6.86638 -12.386402,21.01707 -15.067897,29.60485 -4.376048,14.01477 -4.871625,32.67857 -1.286716,48.45868 2.000685,8.80665 9.817353,25.30754 15.944896,33.65948 2.196075,2.99328 3.992865,5.7686 3.992865,6.16738 0,0.5933 -5.423317,3.66735 -6.470041,3.66735 -0.164989,0 -0.673274,-0.49105 -1.129524,-1.09122 z"
     id="path9" />
  <path
     style="fill:#aad400;fill-opacity:1;stroke:none;stroke-width:0.872975"
     d="m 52.356924,492.5763 c -7.643193,-3.86583 -11.248674,-12.623 -8.336561,-20.24826 5.143882,-13.46906 23.181262,-14.81666 30.52549,-2.2806 3.238496,5.52787 1.441449,15.7942 -3.555668,20.31313 -4.827873,4.36588 -12.563484,5.28574 -18.633261,2.21573 z"
     id="path10" />
  <path
     style="fill:#aad400;fill-opacity:1;stroke:none;stroke-width:0.872975"
     d="m 154.95311,492.95372 c -4.17127,-1.98122 -6.0246,-3.93278 -7.82348,-8.23811 -3.75364,-8.98371 1.11573,-20.22922 9.92078,-22.91144 10.27272,-3.1293 21.90952,5.56703 21.90952,16.37327 0,3.99779 -3.29963,10.08765 -7.10481,13.11276 -4.23985,3.37066 -11.75129,4.10995 -16.90201,1.66352 z"
     id="path11" />
  <path
     style="fill:#aad400;fill-opacity:1;stroke:none;stroke-width:0.872975"
     d="m 247.92498,492.58643 c -6.4859,-3.47593 -9.85755,-11.56706 -7.88017,-18.91049 1.17344,-4.35779 5.51945,-9.5218 9.3662,-11.12908 6.84827,-2.86139 15.48004,-0.50702 20.03483,5.46463 3.13374,4.10854 3.9177,12.4383 1.60072,17.00802 -3.1755,6.26293 -6.48793,8.40961 -14.15169,9.17121 -4.25616,0.42297 -5.65345,0.17306 -8.96989,-1.60429 z"
     id="path12" />
  <path
     style="fill:#aad400;fill-opacity:1;stroke:none;stroke-width:0.872975"
     d="m 359.93871,467.41338 c -6.55097,-3.24269 -10.84375,-11.52388 -9.54963,-18.42215 2.10113,-11.19999 15.94676,-16.87926 25.71264,-10.54694 4.64368,3.01101 7.13443,7.92514 7.13443,14.07587 0,5.13856 -1.31263,8.21577 -4.94168,11.58478 -5.76622,5.35307 -11.96723,6.47074 -18.35576,3.30844 z"
     id="path13" />
  <path
     style="fill:#aad400;fill-opacity:1;stroke:none;stroke-width:0.872975"
     d="m 454.82012,382.28085 c -6.74486,-2.92153 -10.4757,-8.36799 -10.4757,-15.29294 0,-9.22253 7.26202,-16.48834 16.47976,-16.48834 7.34243,0 12.67022,3.40998 15.35054,9.82489 5.61495,13.43847 -8.20791,27.65086 -21.3546,21.95639 z"
     id="path14" />
  <path
     style="fill:#aad400;fill-opacity:1;stroke:none;stroke-width:0.872975"
     d="m 470.09719,287.75823 c -5.08716,-3.15951 -9.16624,-9.46506 -9.16624,-14.1694 0,-7.00484 5.66808,-14.73755 12.06263,-16.45651 7.79557,-2.09558 17.18906,1.86636 19.91967,8.40161 1.42127,3.40158 1.55549,10.55671 0.26224,13.97957 -1.13747,3.01057 -4.81098,6.99273 -7.97613,8.64628 -3.45825,1.80667 -11.90845,1.58199 -15.10217,-0.40155 z"
     id="path15" />
  <path
     style="fill:#aad400;fill-opacity:1;stroke:none;stroke-width:0.872975"
     d="m 316.00343,287.77489 c -3.56332,-1.89355 -6.61281,-6.03606 -7.86402,-10.68273 -2.14042,-7.94889 2.38248,-16.62646 10.08754,-19.35382 8.10643,-2.86943 15.3431,-0.44836 19.96478,6.67932 2.88356,4.44711 3.63112,8.54865 2.3422,12.85067 -1.2757,4.2579 -5.68791,9.38569 -9.41638,10.94355 -4.07725,1.70358 -11.48923,1.48928 -15.11412,-0.43699 z"
     id="path16" />
</svg>
