<?xml version="1.0" encoding="UTF-8" standalone="no"?>
<!-- Created with Inkscape (http://www.inkscape.org/) -->

<svg
   version="1.1"
   id="svg1"
   width="512"
   height="512"
   viewBox="0 0 512 512"
   sodipodi:docname="dragonfly-filled.svg"
   inkscape:version="1.3 (0e150ed6c4, 2023-07-21)"
   xmlns:inkscape="http://www.inkscape.org/namespaces/inkscape"
   xmlns:sodipodi="http://sodipodi.sourceforge.net/DTD/sodipodi-0.dtd"
   xmlns="http://www.w3.org/2000/svg"
   xmlns:svg="http://www.w3.org/2000/svg">
  <defs
     id="defs1" />
  <sodipodi:namedview
     id="namedview1"
     pagecolor="#ffffff"
     bordercolor="#000000"
     borderopacity="0.25"
     inkscape:showpageshadow="2"
     inkscape:pageopacity="0.0"
     inkscape:pagecheckerboard="0"
     inkscape:deskcolor="#d1d1d1"
     inkscape:zoom="1.1455078"
     inkscape:cx="260.14663"
     inkscape:cy="353.1185"
     inkscape:window-width="1350"
     inkscape:window-height="1237"
     inkscape:window-x="1432"
     inkscape:window-y="58"
     inkscape:window-maximized="0"
     inkscape:current-layer="svg1" />
  <path
     style="fill:#aad400;fill-opacity:1;stroke:none;stroke-width:0.872975"
     d="m 239.19523,493.65427 c -11.62191,-1.80622 -27.4035,-8.30693 -39.37378,-16.21872 -17.22263,-11.38336 -28.74258,-31.81378 -28.70539,-50.90853 0.0555,-28.48337 22.63,-53.90879 57.16697,-64.38647 7.5067,-2.27735 8.71255,-2.38559 27.06224,-2.42915 21.39495,-0.0508 24.4303,0.44627 39.34817,6.44341 31.61539,12.70971 50.87909,42.39477 45.39825,69.95796 -2.23069,11.21817 -8.53527,23.50787 -15.96394,31.11897 -12.29557,12.59751 -31.77541,22.94795 -47.83107,25.41461 -8.4199,1.29356 -31.26945,1.9143 -37.10145,1.00792 z m 37.8302,-26.61165 c 10.9491,-2.294 19.83103,-7.74615 21.14451,-12.97948 1.16038,-4.6233 -3.19534,-10.15521 -7.99601,-10.15521 -0.81759,0 -4.06174,1.21673 -7.20924,2.70386 -9.0245,4.26387 -16.07401,5.39752 -30.23835,4.86275 -12.74575,-0.48122 -17.00916,-1.39582 -24.71933,-5.30286 -5.72072,-2.89891 -8.58923,-2.87877 -11.67962,0.082 -3.29542,3.15722 -3.35626,7.79008 -0.15229,11.59778 3.9888,4.74042 14.81,9.1309 26.07554,10.57958 7.24852,0.93212 27.57189,0.12068 34.77479,-1.38843 z M 210.12724,432.388 c 5.89569,-5.71433 2.46239,-13.79635 -5.86079,-13.79635 -1.89398,0 -3.56743,0.82396 -5.40453,2.66106 -2.35892,2.35892 -2.60523,3.07739 -2.16927,6.32771 0.99967,7.45306 8.08805,9.98965 13.43459,4.80758 z m 102.95958,0.0537 c 1.45055,-1.36272 2.05725,-2.89657 2.05725,-5.20103 0,-4.48105 -0.67616,-5.88344 -3.55433,-7.3718 -7.63147,-3.94639 -15.52369,2.72126 -11.78309,9.95479 2.91854,5.64382 8.8208,6.80739 13.28017,2.61804 z"
     id="path2" />
  <path
     style="fill:#aad400;fill-opacity:1;stroke:none;stroke-width:0.872975"
     d="m 188.12649,356.39216 c -0.30899,-2.52072 -0.11794,-8.11581 0.42456,-12.43353 1.74083,-13.85535 7.06761,-24.03012 18.02646,-34.43264 8.22223,-7.80481 16.89473,-12.7191 28.7324,-16.28125 6.80031,-2.04633 9.39878,-2.35983 20.03536,-2.41726 13.0136,-0.0703 17.7351,0.78413 29.24467,5.29203 8.12475,3.18219 19.16731,10.75965 24.88642,17.0772 5.90199,6.51955 11.32621,17.09472 13.08857,25.5177 1.3696,6.54586 1.7285,19.37557 0.59206,21.16514 -0.50912,0.80172 -3.55834,-0.36183 -11.62719,-4.43682 -11.87532,-5.99736 -24.56629,-10.48559 -34.29572,-12.12887 -9.63368,-1.6271 -36.13525,-1.3383 -44.81786,0.48841 -10.43187,2.19473 -21.05591,6.12749 -32.45555,12.01425 -5.49443,2.83731 -10.27844,5.15876 -10.63113,5.15876 -0.35269,0 -0.89406,-2.06241 -1.20305,-4.58312 z"
     id="path3" />
  <path
     style="fill:#aad400;fill-opacity:1;stroke:none;stroke-width:0.872975"
     d="M 135.74766,308.08227 C 74.38649,293.86987 20.045484,254.64336 17.74499,222.90108 c -0.415808,-5.73732 -0.248022,-6.71929 1.613436,-9.44266 1.197288,-1.75167 4.122475,-4.08529 6.904094,-5.50787 9.081952,-4.64468 27.505144,-4.25419 55.360668,1.1734 46.008812,8.96471 80.649942,26.00006 109.908382,54.04926 7.693,7.37505 18.85547,19.80109 18.85547,20.98986 0,0.33889 -2.14182,2.03825 -4.75958,3.77635 -2.61778,1.73811 -8.60857,6.83307 -13.31287,11.32215 l -8.55329,8.16196 -15.71356,1.08482 c -8.64245,0.59665 -17.28491,1.2453 -19.20546,1.44145 -1.93888,0.19803 -7.76268,-0.63256 -13.09462,-1.86753 z"
     id="path4" />
  <path
     style="fill:#aad400;fill-opacity:1;stroke:none;stroke-width:0.872975"
     d="m 68.528559,422.87898 c -22.671884,-1.50052 -42.409718,-8.37623 -49.054733,-17.08829 -1.983108,-2.59999 -2.188531,-3.49943 -1.716612,-7.51613 1.950238,-16.59931 23.297793,-38.55681 49.055109,-50.45673 18.002204,-8.31704 41.899277,-14.81132 68.935337,-18.73389 9.82253,-1.42511 33.07784,-3.85055 37.22815,-3.88274 l 2.30914,-0.0179 -1.81948,5.4561 c -2.56239,7.68388 -2.72917,29.85049 -0.28563,37.96536 1.41025,4.68337 1.47144,5.67697 0.43649,7.08708 -5.51831,7.51862 -10.64794,15.55984 -13.35458,20.93467 l -3.22618,6.40655 -8.89801,4.22148 c -16.88223,8.00945 -40.89604,14.44386 -57.285405,15.34941 -4.115659,0.22741 -8.857952,0.51232 -10.53843,0.63314 -1.680477,0.12083 -6.983802,-0.0403 -11.785166,-0.3581 z"
     id="path5" />
  <path
     style="fill:#aad400;fill-opacity:1;stroke:none;stroke-width:0.872975"
     d="m 414.22677,422.33737 c -14.53793,-1.98479 -35.81024,-8.35687 -49.3231,-14.77462 l -10.03922,-4.768 -4.17868,-8.03335 c -2.29828,-4.41834 -6.2813,-10.87637 -8.85115,-14.35117 l -4.67246,-6.31782 1.75472,-6.34032 c 3.15805,-11.41097 2.51092,-27.74512 -1.63039,-41.15218 -0.47788,-1.54711 -0.0736,-1.6059 7.22641,-1.05076 13.99168,1.06403 36.31555,4.0654 49.81294,6.69717 37.13002,7.23976 63.03006,18.62644 80.65503,35.45915 12.31595,11.76233 19.06033,23.13955 19.10241,32.22427 0.0195,4.20238 -0.21977,4.69362 -3.96911,8.14964 -7.16407,6.60361 -22.46786,12.18915 -38.20488,13.94394 -7.92688,0.8839 -32.03681,1.08484 -37.68252,0.31405 z"
     id="path6" />
  <path
     style="fill:#aad400;fill-opacity:1;stroke:none;stroke-width:0.872975"
     d="m 361.33902,309.99667 c -0.20006,-0.19032 -7.63126,-0.8421 -16.51379,-1.4484 l -16.15004,-1.10238 -7.85678,-7.38743 c -4.32122,-4.06309 -10.3315,-9.15586 -13.35617,-11.31726 -3.02467,-2.16141 -5.3817,-4.43466 -5.23785,-5.05167 0.53195,-2.28167 15.35832,-18.28837 23.39258,-25.25486 27.62821,-23.95636 51.50099,-36.22359 89.09307,-45.78123 21.61573,-5.49572 34.16197,-7.37435 49.71281,-7.44381 16.20802,-0.0724 20.27286,0.86402 25.88083,5.96216 l 3.93817,3.58013 -0.0269,6.18387 c -0.0496,11.41844 -6.55831,23.3526 -20.14092,36.92961 -15.97636,15.96977 -37.19054,29.15133 -63.7757,39.62742 -18.70858,7.37226 -46.80954,14.54904 -48.95936,12.50385 z"
     id="path7" />
  <path
     style="fill:#aad400;fill-opacity:1;stroke:none;stroke-width:0.872975"
     d="m 230.46547,253.16283 v -23.13384 h 25.88889 25.88888 l -0.61413,22.88438 c -0.33777,12.58641 -0.72102,22.99127 -0.85165,23.1219 -0.13064,0.13064 -3.28922,-0.34636 -7.01907,-1.06 -8.59356,-1.64422 -26.70332,-1.63148 -35.87263,0.0252 -3.84109,0.69401 -7.08201,1.26956 -7.20204,1.27901 -0.12004,0.009 -0.21825,-10.39306 -0.21825,-23.11667 z"
     id="path8" />
  <path
     style="fill:#aad400;fill-opacity:1;stroke:none;stroke-width:0.872975"
     d="m 230.46547,196.41944 v -17.02302 h 25.75277 25.75277 v 17.02302 17.02302 h -25.75277 -25.75277 z"
     id="path9" />
  <path
     style="fill:#aad400;fill-opacity:1;stroke:none;stroke-width:0.872975"
     d="m 230.46547,145.78687 v -17.02302 h 25.75277 25.75277 v 17.02302 17.02302 h -25.75277 -25.75277 z"
     id="path10" />
  <path
     style="fill:#aad400;fill-opacity:1;stroke:none;stroke-width:0.872975"
     d="M 230.46547,93.408355 V 76.385337 h 25.75277 25.75277 v 17.023018 17.023015 h -25.75277 -25.75277 z"
     id="path11" />
  <path
     style="fill:#aad400;fill-opacity:1;stroke:none;stroke-width:0.872975"
     d="m 230.46547,49.003906 c 0,-10.616489 0.0511,-10.897071 3.09266,-16.976752 4.892,-9.778532 11.5448,-14.160835 21.615,-14.238124 7.78407,-0.05974 11.95883,1.302203 16.65046,5.431947 6.94731,6.115261 8.55509,9.829887 9.34912,21.600276 0.37757,5.596904 0.71165,11.256496 0.7424,12.576871 l 0.0559,2.400682 h -25.75277 -25.75277 z"
     id="path12" />
</svg>
