<?xml version="1.0" encoding="UTF-8" standalone="no"?>
<!-- Created with Inkscape (http://www.inkscape.org/) -->

<svg
   version="1.1"
   id="svg1"
   width="512"
   height="512"
   viewBox="0 0 512 512"
   sodipodi:docname="dragonfly-outline-white.svg"
   inkscape:version="1.3 (0e150ed6c4, 2023-07-21)"
   xmlns:inkscape="http://www.inkscape.org/namespaces/inkscape"
   xmlns:sodipodi="http://sodipodi.sourceforge.net/DTD/sodipodi-0.dtd"
   xmlns="http://www.w3.org/2000/svg"
   xmlns:svg="http://www.w3.org/2000/svg">
  <defs
     id="defs1" />
  <sodipodi:namedview
     id="namedview1"
     pagecolor="#ffffff"
     bordercolor="#000000"
     borderopacity="0.25"
     inkscape:showpageshadow="2"
     inkscape:pageopacity="0.0"
     inkscape:pagecheckerboard="0"
     inkscape:deskcolor="#d1d1d1"
     inkscape:zoom="1.1455078"
     inkscape:cx="260.14663"
     inkscape:cy="353.1185"
     inkscape:window-width="1350"
     inkscape:window-height="1237"
     inkscape:window-x="1432"
     inkscape:window-y="58"
     inkscape:window-maximized="0"
     inkscape:current-layer="svg1" />
  <path
     style="fill:#ffffff;stroke:none;fill-opacity:1"
     d="m 244,511.54661 c -0.825,-0.20151 -4.875,-0.91263 -9,-1.58025 -16.28176,-2.63519 -35.38119,-10.75641 -47.83617,-20.3403 C 167.26096,474.31116 154,450.60492 154,430.34004 154,426.85302 153.83689,424 153.63754,424 c -0.19936,0 -3.68686,1.37518 -7.75,3.05595 C 125.22996,435.60124 101.68464,440.16933 77.5,440.324 59.325573,440.44023 51.124792,439.27304 36.403914,434.4749 17.359918,428.26769 8.1592538,422.1567 3.5603711,412.66054 -1.2815442,402.66255 -0.71995232,393.59752 5.5595359,380.39069 18.495614,353.18393 51.665732,330.72024 95.5,319.48062 c 8.72256,-2.23657 8.90752,-2.34333 6,-3.46344 C 76.811662,306.50617 59.004288,297.09726 43.009584,285.11252 21.265514,268.81982 6.0100075,249.12068 1.5216189,231.5399 -3.422052,212.17581 4.8575157,196.52597 23.283672,190.40578 c 10.970541,-3.64383 33.009437,-3.40632 55.581503,0.59898 52.909445,9.38853 92.730945,28.68116 125.384825,60.74616 l 8.75,8.5922 0.008,-108.92156 c 0.005,-70.640274 0.37331,-111.175762 1.04823,-115.335431 1.46178,-9.00921 5.3907,-16.667185 11.87718,-23.150161 16.96767,-16.9585012 43.13301,-17.0547521 59.92959,-0.220455 6.69562,6.710652 10.60577,14.274403 12.08167,23.370616 0.67492,4.159669 1.04333,44.695157 1.04823,115.335431 l 0.008,108.92156 8.75,-8.5922 c 10.98046,-10.78244 17.65045,-16.16476 31.49393,-25.41389 19.08854,-12.75348 41.37248,-22.63035 64.91532,-28.77231 26.72151,-6.97122 43.97916,-9.63419 62.34075,-9.61956 23.18914,0.0185 35.67871,5.54506 42.07464,18.61786 12.04831,24.62587 -10.74608,61.89581 -54.10041,88.45681 -9.15849,5.61095 -28.63213,15.16934 -38.01046,18.65696 -4.10507,1.5266 -7.46377,3.01826 -7.46377,3.31479 0,0.29653 4.1625,1.59762 9.25,2.89131 11.98706,3.04815 27.78657,8.98045 39.06011,14.66605 28.5321,14.38964 49.12787,36.97591 53.67047,58.85751 1.47946,7.12651 0.78543,12.3855 -2.54095,19.25409 -4.59888,9.49616 -13.79955,15.60715 -32.84354,21.81436 -14.75259,4.80847 -22.91643,5.96742 -41.09609,5.83403 -26.68041,-0.19575 -46.31016,-4.3432 -74.59881,-15.76153 -1.36856,-0.55241 -1.68454,0.62177 -2.1942,8.15363 -2.4134,35.66627 -33.25685,66.79531 -75.70699,76.40801 -7.74664,1.75421 -33.92325,3.43334 -38,2.43757 z m 38.5,-19.52559 c 17.38913,-4.62026 35.98822,-16.14616 45.63336,-28.2791 9.19313,-11.56435 14.61331,-28.22605 13.37831,-41.12512 -2.81893,-29.44257 -26.23155,-53.08427 -61.23735,-61.83654 -11.88741,-2.97213 -34.93743,-3.17574 -46.77432,-0.41317 -35.88814,8.37579 -60.14826,32.34255 -63.01167,62.24971 -1.235,12.89907 4.18518,29.56077 13.37831,41.12512 11.83716,14.89035 34.30594,27.03205 56.63336,30.60359 1.65,0.26393 9.975,0.32716 18.5,0.14049 11.79165,-0.25819 17.41399,-0.84793 23.5,-2.46498 z m -43.97281,-24.56869 c -19.74298,-3.73851 -29.78188,-13.28855 -22.07264,-20.99778 3.10894,-3.10895 5.77327,-3.09712 11.14253,0.0495 6.90534,4.04681 15.57302,5.82415 28.40292,5.82415 12.92551,0 21.49956,-1.77851 28.58106,-5.92854 5.01272,-2.93765 8.11113,-2.71977 11.39126,0.80104 6.28593,6.74714 -1.81819,15.35959 -18.19084,19.33184 -9.37171,2.27372 -29.60108,2.74774 -39.25429,0.91982 z M 201.31537,433.99302 C 198.60218,432.89985 197,430.02139 197,426.24006 c 0,-6.73242 9.72478,-9.94799 13.92742,-4.6052 2.87205,3.65122 2.59998,6.99159 -0.8505,10.44206 -3.01057,3.01058 -4.9775,3.44073 -8.76155,1.9161 z m 100.60771,-1.9161 c -3.45048,-3.45047 -3.72255,-6.79084 -0.8505,-10.44206 4.21061,-5.35292 13.92742,-2.14515 13.92742,4.5978 0,3.96057 -0.96978,5.70035 -4.07152,7.30433 -4.06512,2.10215 -5.70985,1.83549 -9.0054,-1.46007 z M 94.459484,422.95723 c 19.068166,-2.18436 40.120756,-8.20432 55.192436,-15.78222 l 7.92737,-3.9858 4.15,-8.34461 c 2.28251,-4.58953 6.35236,-11.06653 9.04412,-14.39333 4.75513,-5.87697 4.85982,-6.14776 3.68681,-9.53594 -3.98572,-11.51248 -4.21172,-28.10955 -0.54327,-39.89632 L 175.79028,325 h -4.28919 c -2.35905,0 -8.94936,0.46699 -14.64514,1.03775 -61.681845,6.18102 -101.042978,20.48694 -124.474371,45.24059 -9.266098,9.78899 -14.503874,19.15123 -15.163351,27.10366 -0.401708,4.84407 -0.162998,5.61131 2.793469,8.97854 10.47924,11.9352 44.391632,19.03979 74.447787,15.59669 z M 461.51774,421.1558 c 12.53803,-2.64802 23.79768,-7.53351 29.12343,-12.63647 C 494.41553,404.90285 495,403.78621 495,400.19165 495,387.80724 480.2994,368.2692 462.1449,356.52511 441.62401,343.25022 413.66761,334.0343 378.51255,328.95543 363.10658,326.72972 346.4831,325 340.49891,325 h -4.28919 l 1.87333,6.01901 c 3.66845,11.78677 3.44245,28.38384 -0.54327,39.89632 -1.17301,3.38818 -1.06832,3.65897 3.68681,9.53594 2.69176,3.3268 6.76161,9.8038 9.04412,14.39333 l 4.15,8.34461 7.92737,3.9858 c 14.37641,7.22832 35.91316,13.50784 54.32691,15.84022 10.46463,1.32551 34.4769,0.32982 44.84275,-1.85943 z M 197.57931,357.48088 c 9.56253,-5.45585 20.5057,-9.78195 32.21329,-12.73468 12.64099,-3.18814 39.77381,-3.18814 52.4148,0 11.71407,2.95436 22.65177,7.2794 32.23196,12.74532 5.2223,2.97956 8.27708,4.19204 8.9262,3.54292 0.54276,-0.54276 0.99909,-5.16004 1.01408,-10.26064 0.0579,-19.71675 -9.35023,-36.95267 -26.33321,-48.24294 -39.43659,-26.21739 -95.24134,-9.73936 -108.26717,31.96914 -2.79013,8.93395 -3.05406,27.5 -0.39093,27.5 0.14866,0 3.8346,-2.0336 8.19098,-4.51912 z M 168,308.87491 l 16.5,-1.1958 8.0906,-8.08956 c 4.44982,-4.44925 10.40339,-9.43955 13.23015,-11.08955 2.82676,-1.65 5.14849,-3.49914 5.15941,-4.10921 0.0109,-0.61007 -1.85864,-3.31007 -4.15455,-6 -24.43816,-28.63215 -55.14627,-49.38603 -90.00188,-60.8272 C 91.244248,209.16726 58.118893,203.34454 41.5,204.32331 c -11.796522,0.69475 -16.155958,2.09735 -20.727454,6.66885 -3.581339,3.58134 -3.771343,4.09528 -3.748811,10.14019 0.101223,27.15552 39.654294,61.23205 92.976265,80.10273 13.27189,4.69693 34.05951,9.77113 38,9.27568 1.925,-0.24203 10.925,-0.97817 20,-1.63585 z m 210.30443,-0.80771 c 47.16944,-11.34335 87.50803,-34.92538 107.38141,-62.77543 6.45068,-9.03982 9.26131,-16.34876 9.29042,-24.15942 0.0225,-6.04491 -0.16747,-6.55885 -3.74881,-10.14019 -4.57149,-4.5715 -8.93093,-5.9741 -20.72745,-6.66885 -23.15509,-1.36371 -70.72277,9.30668 -97.5,21.87121 -18.15729,8.51985 -36.6285,21.15708 -52.08087,35.63156 C 313.14802,269.1054 301,282.82617 301,284.32406 c 0,0.33078 2.8125,2.50918 6.25,4.84088 3.4375,2.33171 9.4,7.46171 13.25,11.40001 l 7,7.16055 17.5,1.23092 c 9.625,0.67701 17.6875,1.41377 17.91667,1.63725 0.80845,0.78839 3.31429,0.37697 15.38776,-2.52647 z M 237.58332,275.44444 c 4.04007,-0.93695 11.36387,-1.55555 18.41668,-1.55555 7.05281,0 14.37661,0.6186 18.41668,1.55555 C 278.10577,276.3 281.32118,277 281.56205,277 281.80292,277 282,266.425 282,253.5 V 230 h -26 -26 v 23.5 c 0,12.925 0.19708,23.5 0.43795,23.5 0.24087,0 3.45628,-0.7 7.14537,-1.55556 z M 282,196.5 V 179 h -26 -26 v 17.5 17.5 h 26 26 z m 0,-51 V 128 h -26 -26 v 17.5 17.5 h 26 26 z m 0,-52 V 76 H 256 230 V 93.5 111 h 26 26 z M 281.83918,47.75 C 281.50169,36.468989 281.2435,35.084376 278.57507,30.245671 273.70784,21.419861 266.17492,17 256,17 245.3794,17 237.80463,21.701005 233.03028,31.255314 230.19121,36.936798 230,38.035015 230,48.659722 V 60 h 26.10283 26.10282 z"
     id="path1" />
</svg>
