<?xml version="1.0" encoding="UTF-8" standalone="no"?>
<!-- Created with Inkscape (http://www.inkscape.org/) -->

<svg
   version="1.1"
   id="svg1"
   width="512"
   height="512"
   viewBox="0 0 512 512"
   sodipodi:docname="ladybird-outline-white.svg"
   inkscape:version="1.3 (0e150ed6c4, 2023-07-21)"
   xmlns:inkscape="http://www.inkscape.org/namespaces/inkscape"
   xmlns:sodipodi="http://sodipodi.sourceforge.net/DTD/sodipodi-0.dtd"
   xmlns="http://www.w3.org/2000/svg"
   xmlns:svg="http://www.w3.org/2000/svg">
  <defs
     id="defs1" />
  <sodipodi:namedview
     id="namedview1"
     pagecolor="#ffffff"
     bordercolor="#000000"
     borderopacity="0.25"
     inkscape:showpageshadow="2"
     inkscape:pageopacity="0.0"
     inkscape:pagecheckerboard="0"
     inkscape:deskcolor="#d1d1d1"
     inkscape:zoom="1.359375"
     inkscape:cx="256"
     inkscape:cy="255.63218"
     inkscape:window-width="1350"
     inkscape:window-height="1237"
     inkscape:window-x="866"
     inkscape:window-y="73"
     inkscape:window-maximized="0"
     inkscape:current-layer="svg1" />
  <path
     style="fill:#ffffff;stroke:none;fill-opacity:1"
     d="m 241.5,511.41319 c -20.77369,-2.995 -39.16471,-8.19765 -52.22169,-14.77303 l -7.14779,-3.59957 -10.31526,3.37754 c -16.42713,5.37876 -28.11197,6.9245 -47.65595,6.30423 C 110.4623,502.28765 105.81074,501.73239 98,499.59966 86.313049,496.40854 68.846607,487.92857 59.5,480.9079 29.422017,458.31492 10.220425,420.66265 2.8704304,369.86336 -0.08165113,349.46013 -0.36869755,310.94923 2.3161526,295.5 12.056602,239.45127 43.07008,195.08178 96.915931,160.16064 110.31452,151.47113 131.7746,140.33605 147,134.1733 c 10.76237,-4.35625 10.19621,-3.21451 8.01994,-16.1733 -1.78037,-10.60137 -0.86283,-30.243667 1.91521,-41 1.6986,-6.576817 7.68319,-20.652113 12.81064,-30.129651 0.18735,-0.346308 -1.60679,-1.770922 -3.98698,-3.165807 -10.08501,-5.910209 -17.90567,-17.676481 -20.04318,-30.155196 -0.94488,-5.516169 -0.86045,-6.6793778 0.65241,-8.9882877 3.36597,-5.13711842 9.45251,-5.8167972 13.47029,-1.5042154 1.05706,1.1346211 2.14939,4.191637 2.47246,6.9195023 1.053,8.8909528 7.50859,17.6351298 15.44717,20.9233968 3.19728,1.324358 3.33191,1.265932 9.49266,-4.119472 13.56875,-11.8611 26.99183,-19.0965395 43.6305,-23.5181348 13.35138,-3.54802728 35.23763,-3.76041348 48.42586,-0.4699292 17.08015,4.2615235 31.86969,12.062325 45.4424,23.968776 6.16287,5.406278 6.29428,5.463574 9.49266,4.13876 7.82362,-3.240647 14.23565,-11.809964 15.44638,-20.643198 C 350.46344,4.6022136 354.41728,0 358.5,0 c 3.63209,0 8.5,4.9898851 8.5,8.7129782 0,4.0954408 -2.63255,13.6464278 -5.08802,18.4595578 -2.782,5.453167 -10.30038,13.384737 -15.67079,16.532006 -2.38019,1.394885 -4.19197,2.819499 -4.02618,3.165807 0.16579,0.346308 2.03868,3.987025 4.16196,8.090481 4.42518,8.552089 6.05143,12.726053 8.78165,22.53917 2.58367,9.286337 3.53386,30.36394 1.82578,40.5 -2.17606,12.91308 -2.6798,11.84102 7.5156,15.99453 40.89073,16.65852 74.97391,39.72994 99.72513,67.50547 24.44628,27.43333 39.20789,57.9607 45.454,94 2.40184,13.85833 2.38438,52.8856 -0.0315,70.41341 -5.91514,42.91581 -17.75947,72.64517 -39.10423,98.15192 -8.8344,10.557 -21.0605,19.95021 -35.04341,26.92357 -17.48885,8.72179 -27.0672,11.07992 -47.65931,11.73346 -19.66476,0.62411 -31.51498,-0.93926 -47.6388,-6.28487 l -10.29811,-3.41418 -7.04176,3.54617 c -9.22774,4.64702 -25.65688,10.098 -37.71078,12.51196 -9.29337,1.86112 -36.74455,3.3275 -43.65124,2.33175 z M 274,493.52774 c 15.10355,-2.06158 37,-8.32347 37,-10.58115 0,-0.46778 -2.1375,-2.30566 -4.75,-4.08417 -7.19014,-4.89484 -25.13167,-23.3983 -30.9366,-31.90554 -6.10408,-8.94565 -13.19293,-22.81714 -16.45893,-32.20688 -1.2913,-3.7125 -2.60464,-6.75 -2.91852,-6.75 -0.31389,0 -1.32172,2.3825 -2.23963,5.29443 -7.00747,22.23028 -26.19185,48.88758 -45.83489,63.68905 l -8.00001,6.02819 4.51726,1.93633 c 19.48571,8.35255 46.70823,11.7073 69.62132,8.57974 z m -121.02856,-9.02547 c 53.05696,-10.55669 88.0498,-54.11795 93.98813,-117.00227 0.64803,-6.8624 1.03907,-53.97459 1.03959,-125.25 L 248,128 l -3.94878,0 c -6.27221,0 -26.26326,2.84035 -39.16814,5.56506 -24.73676,5.22285 -49.39093,13.86378 -72.79965,25.5152 C 93.506466,178.2815 64.446269,202.73891 44.226116,233.02202 39.297964,240.40276 30.49931,256.8648 31.162867,257.46299 31.34829,257.63015 34.2,257.38583 37.5,256.92005 56.376927,254.25569 76.160559,264.33334 86.734927,282 c 9.033538,15.09239 8.38507,37.22911 -1.540037,52.57213 -14.206125,21.96096 -39.906746,28.98543 -65.57716,17.92349 -1.784617,-0.76903 -1.845327,-0.40086 -1.170197,7.09663 1.8223,20.23711 8.824673,47.27842 16.611521,64.14932 7.74228,16.77434 20.301853,33.03287 33.161779,42.92836 C 80.171824,475.866 98.39693,483.635 113.5,485.97152 c 7.91492,1.22447 30.07956,0.39944 39.47144,-1.46925 z M 125.38875,450.51161 C 102.8447,445.60756 86,424.54292 86,401.25518 c 0,-31.98742 29.24459,-56.2801 60,-49.84036 24.25192,5.07801 41.02604,25.34238 40.98813,49.51668 -0.0221,14.10739 -4.8146,25.86961 -14.48828,35.55876 -12.73758,12.75793 -29.70482,17.80777 -47.1111,14.02135 z M 148,433.39526 c 14.02365,-4.5029 23.96785,-19.7491 22.75295,-34.88424 -0.95483,-11.89509 -7.46003,-21.90642 -17.91912,-27.57701 -6.01484,-3.26106 -6.83747,-3.43397 -16.33383,-3.43324 -9.00504,6.9e-4 -10.52575,0.27771 -15.28415,2.78415 -7.06769,3.72285 -12.85485,9.70056 -16.03898,16.56712 -2.165,4.66882 -2.62406,7.12154 -2.64796,14.14796 -0.0243,7.15972 0.39212,9.39823 2.64127,14.1965 7.72611,16.48268 25.13579,23.88021 42.82982,18.19876 z m 14.77674,-161.4441 c -28.78197,-4.38803 -48.56241,-34.31828 -41.24555,-62.40961 6.96393,-26.73634 33.834,-43.25925 60.22908,-37.03598 23.34939,5.50517 39.2858,25.35687 39.21528,48.84977 -0.0299,9.95611 -1.20235,15.3275 -5.05203,23.14466 -9.59596,19.48556 -31.42829,30.76231 -53.14678,27.45116 z m 24.12339,-19.97182 c 19.69168,-10.51645 24.08991,-36.21241 9.11097,-53.22939 -15.94346,-18.11272 -45.90331,-13.5814 -56.36103,8.5244 -3.91039,8.26589 -4.42737,15.8079 -1.69926,24.78962 1.92119,6.32509 3.02519,8.09673 8.38092,13.44929 8.32189,8.31696 14.09933,10.61098 25.66827,10.19196 7.43612,-0.26933 9.30105,-0.73567 14.90013,-3.72588 z M 397.6364,485.91775 c 33.5786,-4.67036 61.42056,-25.89184 77.7686,-59.2762 8.73021,-17.82797 15.95678,-44.69823 18.16826,-67.55427 0.68019,-7.02995 0.61936,-7.37059 -1.17802,-6.59664 -16.69232,7.1877 -31.44706,7.10752 -46.39524,-0.2521 -3.025,-1.48933 -8.47431,-5.64253 -12.10957,-9.22934 C 423.46565,332.72341 419,321.92423 419,307 c 0,-12.81601 3.21172,-21.97685 11.36035,-32.40332 9.50536,-12.16245 29.69964,-20.1725 44.63965,-17.70629 3.025,0.49935 5.64093,0.77486 5.81319,0.61224 0.70348,-0.66414 -8.45062,-17.52734 -13.97288,-25.74013 C 438.9342,190.26017 389.58564,157.04666 329.15281,139.09344 310.82739,133.64937 279.63813,128 267.90774,128 l -3.98983,0 0.36129,121.75 c 0.35696,120.29245 0.38745,121.88636 2.54676,133.14043 7.08398,36.92089 25.06169,66.96981 50.40586,84.25108 12.88093,8.78304 30.04588,15.58906 44.76818,17.75088 4.125,0.60572 8.625,1.26644 10,1.46828 5.46945,0.80285 18.26964,0.5817 25.6364,-0.44292 z M 364.26266,450.48589 C 346.4207,446.60958 330.14547,430.62913 326.08529,413 c -0.57002,-2.475 -1.04206,-7.875 -1.04898,-12 -0.0638,-38.01878 39.6378,-62.09603 73.85506,-44.78985 29.90053,15.1229 36.25421,56.68551 12.31657,80.56892 -12.54654,12.51811 -29.55667,17.48463 -46.94528,13.70682 z M 386,433.80468 c 5.24768,-1.54942 12.61266,-6.52782 16.01808,-10.82751 5.50614,-6.95207 7.40667,-12.5614 7.44622,-21.97717 0.031,-7.39277 -0.34128,-9.26776 -2.8583,-14.394 -3.5266,-7.18235 -8.80045,-12.62262 -15.82185,-16.32108 -4.75883,-2.50667 -6.27829,-2.78338 -15.28415,-2.78338 -9.00586,0 -10.52532,0.27671 -15.28415,2.78338 -7.04924,3.71313 -12.84146,9.68531 -16.06789,16.56712 -2.21489,4.72425 -2.64796,7.04155 -2.64796,14.16899 0,7.6149 0.35007,9.23212 3.292,15.20802 7.62005,15.47853 24.26559,22.57802 41.208,17.57563 z M 333.34669,271.93916 C 308.23954,267.57929 291,247.30454 291,222.13688 291,197.76311 306.55401,178.09004 330.23973,172.50557 361.11003,165.22716 392,189.61349 392,221.26269 c 0,31.10644 -28.67556,55.88212 -58.65331,50.67647 z m 20.3658,-18.0612 c 7.90956,-2.90011 17.21851,-12.23287 19.87592,-19.92675 2.80968,-8.13472 2.46335,-18.87252 -0.84341,-26.14973 -6.48549,-14.27266 -22.67185,-22.79157 -37.54651,-19.7608 -16.12975,3.2865 -26.98838,15.70259 -27.95039,31.95932 -0.93506,15.8015 8.11672,29.07696 23.59608,34.60632 5.73633,2.04907 16.20249,1.71572 22.86831,-0.72836 z M 53.177309,339.97808 c 5.516354,-1.54803 12.813419,-6.8742 16.954812,-12.37541 12.791837,-16.99203 6.914922,-41.37891 -12.347969,-51.23922 -7.522765,-3.85076 -18.963347,-4.43266 -27.065979,-1.37663 -3.180004,1.19938 -6.415057,3.1555 -7.189006,4.34694 -2.427144,3.7364 -5.670026,22.61205 -6.262808,36.45355 l -0.569048,13.28731 2.901345,3.03274 c 8.224554,8.59702 20.629298,11.50465 33.578653,7.87072 z m 429.959771,-1.66904 c 3.10039,-1.36445 7.10813,-3.99856 8.90609,-5.85358 l 3.26901,-3.37276 -0.65572,-13.29135 c -0.6157,-12.48014 -3.21807,-29.02747 -5.48757,-34.89309 -0.62811,-1.62339 -2.82334,-3.49775 -5.83777,-4.98449 -4.0564,-2.00064 -6.35455,-2.38445 -14.33112,-2.39345 -8.46538,-0.01 -10.07548,0.29198 -14.78415,2.76864 -7.04631,3.7062 -12.84025,9.6787 -16.06789,16.56308 -2.26058,4.8217 -2.64361,6.9646 -2.61824,14.64796 0.0242,7.34276 0.45592,9.86846 2.34431,13.71635 8.68306,17.69312 27.6358,24.85024 45.26305,17.09269 z M 183.5,122.09914 c 40.28073,-11.6825 83.19101,-13.40337 124.5,-4.99293 8.61878,1.75477 25.95416,6.1715 29.37499,7.48419 2.04056,0.78304 4.06182,-10.99309 3.96325,-23.0904 C 340.95789,54.818146 302.76458,17 256,17 c -39.20137,0 -72.92089,26.277807 -83.15292,64.801534 -3.774,14.209149 -2.39164,44.055536 1.98256,42.805246 0.9187,-0.2626 4.82036,-1.39103 8.67036,-2.50764 z m 60.19848,-21.19467 C 238.06033,99.577625 229.53035,95.297845 226.05676,92.05302 222.32792,88.569765 221.85252,83.147482 225,80 c 3.31001,-3.310007 7.26201,-2.997782 13.84386,1.093721 10.30882,6.408311 24.30858,6.182637 35.24573,-0.568154 6.98863,-4.31363 9.19447,-4.395354 13.10432,-0.485503 2.53856,2.538556 2.93943,3.569596 2.43005,6.25 -1.02774,5.40805 -11.10212,12.197951 -21.73574,14.649396 -5.29563,1.22084 -18.93722,1.20111 -24.18974,-0.035 z M 199.17431,73.685549 C 196.1929,70.511983 196.31563,65.593462 199.45455,62.454545 204.53282,57.376273 213,61.412911 213,68.912194 c 0,0.999949 -0.93266,3.003775 -2.07258,4.452947 -2.76838,3.519426 -8.59847,3.678363 -11.75311,0.320408 z M 301.07258,73.365141 C 294.86606,65.474827 305.47589,55.384979 312.54545,62.454545 317.8273,67.736391 314.29665,76 306.75813,76 c -2.71208,0 -4.12977,-0.656999 -5.68555,-2.634859 z"
     id="path1" />
</svg>
