<?xml version="1.0" encoding="UTF-8" standalone="no"?>
<!-- Created with Inkscape (http://www.inkscape.org/) -->

<svg
   version="1.1"
   id="svg1"
   width="512"
   height="512"
   viewBox="0 0 512 512"
   sodipodi:docname="ladybird-filled.svg"
   inkscape:version="1.3 (0e150ed6c4, 2023-07-21)"
   xmlns:inkscape="http://www.inkscape.org/namespaces/inkscape"
   xmlns:sodipodi="http://sodipodi.sourceforge.net/DTD/sodipodi-0.dtd"
   xmlns="http://www.w3.org/2000/svg"
   xmlns:svg="http://www.w3.org/2000/svg">
  <defs
     id="defs1" />
  <sodipodi:namedview
     id="namedview1"
     pagecolor="#ffffff"
     bordercolor="#000000"
     borderopacity="0.25"
     inkscape:showpageshadow="2"
     inkscape:pageopacity="0.0"
     inkscape:pagecheckerboard="0"
     inkscape:deskcolor="#d1d1d1"
     inkscape:zoom="1.359375"
     inkscape:cx="256"
     inkscape:cy="255.63218"
     inkscape:window-width="1350"
     inkscape:window-height="1237"
     inkscape:window-x="866"
     inkscape:window-y="73"
     inkscape:window-maximized="0"
     inkscape:current-layer="svg1" />
  <path
     style="fill:#aad400;fill-opacity:1;stroke:none;stroke-width:0.735632"
     d="m 367.81609,485.48039 c -38.76219,-6.1184 -65.41538,-23.99978 -83.80981,-56.2272 -8.07251,-14.14321 -15.43755,-35.76394 -17.66194,-51.84818 -1.04701,-7.57081 -1.42821,-39.03789 -1.87399,-154.69237 l -0.36364,-94.34482 h 4.00093 c 5.6019,0 19.3275,1.87882 32.76592,4.48515 71.276,13.8237 133.8137,51.47767 166.0431,99.97462 3.71709,5.59325 11.60738,19.52214 12.72729,22.46773 0.61141,1.60813 0.60736,1.60879 -7.62279,1.2456 -9.68628,-0.42746 -17.07967,1.08849 -25.74609,5.27898 -18.2729,8.83553 -28.65856,27.25478 -27.46966,48.71821 0.70437,12.71598 4.90697,22.39775 13.63456,31.41075 5.94843,6.14294 12.36246,10.51131 19.38428,13.20196 5.90643,2.26323 6.46881,2.33881 17.14127,2.30335 11.16154,-0.0371 13.31933,-0.44098 23.35632,-4.37178 1.70807,-0.66893 1.68171,0.95023 -0.22789,13.99807 -4.26461,29.1391 -13.38292,55.65147 -25.27846,73.49957 -13.15635,19.73981 -31.25185,33.95102 -51.91894,40.77428 -13.94561,4.60416 -33.30364,6.30067 -47.08046,4.12608 z m 22.43678,-35.65863 c 6.99914,-2.20394 11.10211,-4.37939 16.64534,-8.82562 9.09997,-7.29908 15.54355,-17.4763 17.9699,-28.38228 1.69535,-7.62026 1.15296,-20.68313 -1.14228,-27.51041 -5.76758,-17.15591 -19.19798,-29.51209 -36.41549,-33.50282 -6.51139,-1.50924 -18.38763,-1.49148 -24.27586,0.0363 -18.21463,4.72597 -32.53433,19.03104 -36.88848,36.85078 -1.69311,6.92918 -1.66183,20.47425 0.061,26.40886 5.00939,17.25606 20.81921,32.11085 38.29878,35.98522 7.12149,1.5785 18.90904,1.0932 25.74712,-1.06001 z M 353.47126,271.36084 c 26.76454,-6.53851 44.03599,-35.51511 37.17003,-62.36076 -4.14876,-16.22149 -17.32538,-30.12921 -33.59863,-35.46282 -5.87527,-1.92564 -7.45155,-2.13127 -16.07714,-2.09735 -8.28149,0.0326 -10.3301,0.29411 -15.28501,1.95141 -18.89089,6.31855 -31.54031,21.38843 -34.40645,40.99012 -4.21264,28.81038 15.11531,54.27688 44.17422,58.20397 5.0278,0.67947 12.23299,0.18991 18.02298,-1.22457 z"
     id="path2" />
  <path
     style="fill:#aad400;fill-opacity:1;stroke:none;stroke-width:0.735632"
     d="m 236.13793,492.93696 c -12.19775,-1.88064 -23.63068,-4.93566 -32.17115,-8.59653 l -3.32646,-1.42588 6.53042,-4.8955 c 19.87708,-14.90074 39.1486,-41.25022 46.57017,-63.67422 0.90387,-2.73104 1.87257,-4.96552 2.15266,-4.96552 0.28008,0 1.45736,2.56552 2.61616,5.70115 3.13885,8.49346 10.70187,23.21905 15.97124,31.09684 5.29362,7.91404 23.89576,27.45825 31.33069,32.91735 2.54381,1.8678 4.62512,3.63941 4.62512,3.9369 0,1.24016 -14.14242,5.67541 -27.07418,8.4908 -7.4364,1.619 -10.80017,1.90749 -24.78789,2.12593 -10.88604,0.17 -18.23081,-0.0629 -22.43678,-0.71132 z"
     id="path3" />
  <path
     style="fill:#aad400;fill-opacity:1;stroke:none;stroke-width:0.735632"
     d="m 128.92039,434.01088 c -9.65589,-2.09758 -18.27621,-8.99464 -22.98936,-18.39362 -2.53306,-5.05146 -2.57471,-5.28384 -2.57471,-14.36806 0,-9.18828 0.0135,-9.26093 2.76051,-14.81906 3.32385,-6.72535 9.65625,-12.98272 16.33671,-16.14315 4.1779,-1.9765 5.01363,-2.10192 14.00623,-2.10192 9.06585,0 9.80214,0.11303 14.15712,2.17328 7.96133,3.76634 14.57466,11.00052 17.8509,19.52671 2.38433,6.20503 2.38603,15.85535 0.004,22.06896 -4.79967,12.5196 -14.15838,20.43151 -26.49468,22.39878 -5.92395,0.94469 -7.29976,0.90866 -13.05662,-0.34192 z"
     id="path4" />
  <path
     style="fill:#aad400;fill-opacity:1;stroke:none;stroke-width:0.735632"
     d="m 34.293509,340.19282 c -4.452286,-1.11623 -10.969581,-4.89533 -14.307199,-8.29611 l -3.038776,-3.09629 0.721433,-12.12435 c 0.753106,-12.65663 2.992115,-28.05699 4.840977,-33.29723 1.471688,-4.17121 3.503367,-6.13197 8.158409,-7.87365 8.920955,-3.33775 20.91129,-2.35083 28.75272,2.36663 15.901264,9.56631 21.579476,29.61585 12.90252,45.55827 -2.820918,5.18296 -10.274176,11.99911 -16.103516,14.72699 -4.262978,1.99489 -5.883927,2.33653 -11.99971,2.5291 -3.889018,0.12246 -8.356104,-0.0995 -9.926858,-0.49336 z"
     id="path5" />
  <path
     style="fill:#aad400;fill-opacity:1;stroke:none;stroke-width:0.735632"
     d="M 108.97917,484.76255 C 95.723336,481.72407 79.088929,474.1593 69.081323,466.61834 58.47049,458.62284 46.610265,444.42661 39.230207,430.88771 32.16516,417.92671 25.566728,398.21152 21.801324,378.81264 c -1.904955,-9.81409 -3.866492,-25.13062 -3.291972,-25.70513 0.17857,-0.17858 2.714031,0.4837 5.634359,1.47172 20.096006,6.79896 40.062508,2.86175 53.836449,-10.61605 10.77824,-10.5465 16.10123,-24.69218 15.246176,-40.51621 -0.71822,-13.29174 -5.704075,-23.6646 -16.05521,-33.40221 -10.782611,-10.1435 -22.035619,-14.21983 -37.193998,-13.47328 l -8.313491,0.40943 1.110513,-2.65783 c 2.569325,-6.14926 11.476033,-20.77359 17.939565,-29.45579 9.734953,-13.07657 26.758778,-29.94665 40.6436,-40.27653 34.529565,-25.68895 80.205665,-45.06054 123.815095,-52.51095 12.2496,-2.09277 24.98472,-3.71199 29.19461,-3.71199 h 3.54103 l -0.065,77.42528 c -0.0868,103.36359 -0.93252,162.73174 -2.44798,171.84139 -9.56356,57.48814 -42.22156,95.66002 -90.7659,106.09057 -9.53154,2.048 -38.38101,2.70367 -45.64998,1.03749 z m 37.99437,-33.86865 c 11.28425,-2.29279 23.048,-9.72195 30.05595,-18.98124 7.01201,-9.26467 10.07738,-18.58685 10.07037,-30.6253 -0.009,-14.66841 -4.50975,-25.70314 -14.55354,-35.67816 -6.65044,-6.60491 -11.54869,-9.7652 -19.37182,-12.49843 -13.73955,-4.80032 -25.66018,-4.08141 -39.11569,2.35896 -5.88305,2.81587 -7.92515,4.30451 -13.27371,9.67619 -10.32863,10.37328 -14.919065,21.55003 -14.843743,36.14144 0.04727,9.15801 1.258835,14.33808 5.247712,22.43678 10.293101,20.89828 32.770441,31.84585 55.784471,27.16976 z m 35.33939,-179.46197 c 17.59381,-4.14766 32.1259,-17.87414 37.36544,-35.294 1.83604,-6.10425 1.86579,-20.93021 0.0554,-27.58621 -4.93933,-18.15927 -18.63543,-31.41465 -37.34864,-36.14682 -5.13554,-1.29867 -7.53276,-1.49388 -14.2784,-1.16272 -14.04569,0.68955 -23.30163,4.88674 -33.59184,15.23254 -5.09554,5.12306 -6.95296,7.6221 -9.35004,12.57986 -4.333,8.96174 -5.48739,14.66524 -5.04898,24.94542 0.28695,6.72861 0.76909,9.58878 2.35611,13.97701 5.88776,16.28008 19.73092,29.24276 35.68899,33.41904 5.35935,1.40256 18.27336,1.42174 24.15201,0.0359 z"
     id="path6" />
  <path
     style="fill:#aad400;fill-opacity:1;stroke:none;stroke-width:0.735632"
     d="m 163.26004,254.89012 c -5.40708,-0.91551 -10.96135,-4.22117 -16.54092,-9.84445 -5.55523,-5.59876 -6.99821,-8.03967 -8.76681,-14.82979 -3.16652,-12.15708 0.43826,-24.17946 9.86748,-32.90926 9.15812,-8.47879 21.19608,-11.40632 32.51652,-7.90772 24.37476,7.53306 32.19563,38.53446 14.19131,56.25341 -8.24631,8.1156 -19.04778,11.30683 -31.26758,9.23781 z"
     id="path7" />
  <path
     style="fill:#aad400;fill-opacity:1;stroke:none;stroke-width:0.735632"
     d="m 332.96018,254.81394 c -4.62779,-1.08642 -11.54348,-5.16197 -15.51425,-9.14284 -21.2823,-21.33645 -5.97265,-57.57868 24.37359,-57.69909 11.93563,-0.0474 25.1121,8.50007 30.18496,19.58065 4.07489,8.90073 3.97322,20.83127 -0.24851,29.16247 -2.57092,5.07346 -10.62816,13.00568 -15.70999,15.46622 -6.66222,3.22574 -16.01572,4.29236 -23.0858,2.63259 z"
     id="path8" />
  <path
     style="fill:#aad400;fill-opacity:1;stroke:none;stroke-width:0.735632"
     d="m 460.42665,339.89925 c -8.94802,-2.46762 -17.31601,-9.57024 -21.68126,-18.40273 l -2.63655,-5.33471 0.24443,-9.4832 c 0.22491,-8.7259 0.41638,-9.83568 2.39762,-13.897 3.0124,-6.17506 10.67898,-13.71427 16.91205,-16.63107 4.77716,-2.23551 5.02315,-2.26993 14.23131,-1.99171 8.46338,0.25571 9.74256,0.47695 13.21895,2.28622 2.11686,1.10171 4.32698,2.74537 4.91136,3.65259 2.50398,3.88724 5.18512,19.72125 6.35827,37.54995 l 0.73565,11.18 -3.45991,3.1802 c -8.19479,7.53229 -20.89652,10.74167 -31.23192,7.89146 z"
     id="path9" />
  <path
     style="fill:#aad400;fill-opacity:1;stroke:none;stroke-width:0.735632"
     d="m 368.63142,434.37721 c -9.75247,-2.05544 -18.85976,-9.29223 -23.61993,-18.76873 -2.54763,-5.07181 -2.57471,-5.2263 -2.57471,-14.68894 0,-9.03327 0.11667,-9.801 2.10531,-13.85419 3.11872,-6.35647 9.84494,-13.16833 16.08558,-16.2904 5.14272,-2.57279 5.24775,-2.59104 14.91256,-2.59104 9.66809,0 9.76816,0.0174 14.92178,2.59566 6.39394,3.19876 12.28408,9.30359 15.7365,16.31011 2.17029,4.40449 2.47362,5.77178 2.69826,12.16283 0.33185,9.44093 -1.42622,15.55138 -6.33592,22.02152 -3.9623,5.22164 -11.07218,10.36138 -16.7104,12.07996 -4.64646,1.41629 -12.99903,1.91263 -17.21903,1.02322 z"
     id="path10" />
  <path
     style="fill:#aad400;fill-opacity:1;stroke:none;stroke-width:0.735632"
     d="m 172.82458,121.23087 c -1.23542,-3.74335 -1.9075,-18.07162 -1.2785,-27.256624 1.85677,-27.113347 20.62835,-54.546126 46.17499,-67.480092 48.27733,-24.4422529 107.18513,2.582 120.62425,55.336988 2.79019,10.952851 3.14781,29.361938 0.7517,38.694518 -0.78239,3.04731 -1.13752,3.51063 -2.46531,3.21641 -0.85319,-0.18906 -6.22732,-1.54188 -11.94251,-3.00626 -48.44539,-12.41298 -92.01503,-12.31737 -138.68114,0.30432 -5.92545,1.60264 -11.11357,2.91389 -11.52916,2.91389 -0.41558,0 -1.16003,-1.22541 -1.65432,-2.72315 z m 97.20282,-20.53191 c 6.82235,-2.025231 13.04441,-5.493119 16.51743,-9.206061 2.74463,-2.934233 3.29425,-4.003737 3.29425,-6.410267 0,-2.436709 -0.46052,-3.304499 -2.94465,-5.548757 -3.72737,-3.367458 -5.6316,-3.368812 -11.76799,-0.0084 -13.34787,7.309642 -22.86554,7.670614 -35.7061,1.354209 -8.15306,-4.010573 -11.24236,-4.251342 -14.37348,-1.120219 -3.67291,3.67291 -2.69208,10.277466 2.04382,13.762319 3.15047,2.318235 9.59952,5.486514 14.19668,6.974516 5.54083,1.79345 22.96717,1.91631 28.74004,0.20262 z M 210.83218,73.636782 c 6.89278,-6.892774 -2.07666,-17.390021 -10.48048,-12.265678 -3.04624,1.857484 -4.37669,5.691086 -3.20607,9.238083 1.19904,3.633121 3.90793,5.528744 7.9007,5.528744 2.7547,0 3.68828,-0.403571 5.78585,-2.501149 z m 101.2449,1.054818 c 2.86912,-2.256852 3.8901,-5.415694 2.86081,-8.851151 -1.14847,-3.833282 -3.87306,-5.886426 -7.81145,-5.886426 -3.82268,0 -6.55093,1.962369 -7.74083,5.567812 -1.07687,3.262959 -0.42676,5.993597 2.04586,8.593108 1.56412,1.644378 2.56831,2.022988 5.36557,2.022988 2.30766,0 4.04705,-0.476461 5.28004,-1.446331 z"
     id="path11" />
</svg>
