<?xml version="1.0" encoding="UTF-8" standalone="no"?>
<!-- Created with Inkscape (http://www.inkscape.org/) -->

<svg
   version="1.1"
   id="svg1"
   width="512"
   height="512"
   viewBox="0 0 512 512"
   sodipodi:docname="scorpion-filled.svg"
   inkscape:version="1.3 (0e150ed6c4, 2023-07-21)"
   xmlns:inkscape="http://www.inkscape.org/namespaces/inkscape"
   xmlns:sodipodi="http://sodipodi.sourceforge.net/DTD/sodipodi-0.dtd"
   xmlns="http://www.w3.org/2000/svg"
   xmlns:svg="http://www.w3.org/2000/svg">
  <defs
     id="defs1" />
  <sodipodi:namedview
     id="namedview1"
     pagecolor="#ffffff"
     bordercolor="#000000"
     borderopacity="0.25"
     inkscape:showpageshadow="2"
     inkscape:pageopacity="0.0"
     inkscape:pagecheckerboard="0"
     inkscape:deskcolor="#d1d1d1"
     inkscape:zoom="2.2910156"
     inkscape:cx="255.78176"
     inkscape:cy="256"
     inkscape:window-width="3440"
     inkscape:window-height="1369"
     inkscape:window-x="-8"
     inkscape:window-y="-8"
     inkscape:window-maximized="1"
     inkscape:current-layer="svg1" />
  <path
     style="fill:#aad400;fill-opacity:1;stroke-width:0.436488"
     d="m 242.7824,494.06124 c -30.10372,-2.16767 -58.84334,-19.64262 -68.27188,-41.5123 -4.36739,-10.13026 -4.94132,-21.12178 -1.62074,-31.03903 7.24228,-21.62974 31.72329,-38.91941 62.81354,-44.36194 49.00817,-8.57917 98.85981,15.39293 104.97865,50.48097 1.97932,11.35028 -0.75921,22.65211 -8.15045,33.63661 -2.75042,4.08755 -10.28855,11.75853 -14.76852,15.02879 -10.43235,7.61537 -24.14913,13.53531 -37.73632,16.2864 -8.33243,1.68713 -25.11175,2.35413 -37.24428,1.4805 z m 25.0485,-17.43497 c 13.47968,-1.08897 25.02562,-5.76648 29.04546,-11.76693 1.15777,-1.72823 1.2955,-2.26058 1.14639,-4.43133 -0.12795,-1.86279 -0.46982,-2.8609 -1.3956,-4.07467 -3.09137,-4.053 -6.60631,-4.31599 -13.35607,-0.99931 -7.54537,3.70763 -15.45509,5.22231 -27.27108,5.22231 -11.82266,0 -19.72752,-1.51483 -27.28048,-5.22783 -3.37184,-1.65758 -4.67675,-2.0677 -6.9838,-2.19494 -2.58198,-0.1424 -2.99739,-0.0398 -4.61844,1.1408 -0.97969,0.7135 -2.1091,1.98814 -2.5098,2.83255 -0.80071,1.68737 -0.95751,4.89091 -0.32129,6.56429 2.14777,5.64906 15.9832,11.84708 28.77118,12.88896 6.73904,0.54906 18.28195,0.57053 24.77353,0.0461 z m -59.16657,-34.47615 c 2.59947,-1.32615 4.34164,-3.98188 4.34164,-6.61834 0,-8.34276 -10.19642,-11.62497 -14.87994,-4.78982 -1.55811,2.27391 -1.50779,6.64818 0.1045,9.08451 0.63599,0.96106 1.81451,2.07166 2.61892,2.46799 2.05191,1.01098 5.68168,0.94394 7.81488,-0.14434 z m 102.79845,-0.20022 c 4.54599,-2.66412 4.84299,-8.98192 0.62129,-13.21612 -1.67042,-1.67536 -2.82443,-2.03712 -5.52676,-1.73253 -4.13344,0.4659 -7.56328,4.38421 -7.56328,8.64041 0,5.67384 7.27275,9.3533 12.46875,6.30824 z"
     id="path2" />
  <path
     style="fill:#aad400;fill-opacity:1;stroke-width:0.436488"
     d="m 176.90251,383.12702 c -3.03065,-5.15381 -9.07234,-19.8306 -10.63337,-25.83115 l -1.01397,-3.89766 5.19524,-4.983 c 15.64378,-15.0047 36.00686,-25.73903 58.05087,-30.60131 11.17336,-2.46453 35.29928,-2.79518 50.35808,-0.69018 18.59019,2.59864 41.91146,13.25829 56.79963,25.96188 5.37148,4.58331 10.91219,10.12423 10.91219,10.9126 0,0.99482 -3.975,12.66362 -5.87099,17.23454 -2.23701,5.39307 -5.90927,12.46541 -6.61274,12.73536 -0.65418,0.25103 -3.51438,-1.3061 -10.21362,-5.56041 -11.99387,-7.61663 -22.03187,-12.17857 -35.10134,-15.9524 -2.86107,-0.82613 -6.98588,-1.77848 -9.16624,-2.11633 -9.38779,-1.45464 -42.64175,-1.16508 -49.98551,0.43524 -13.20917,2.8785 -27.84906,9.03939 -40.45793,17.02588 -8.29114,5.25162 -10.75299,6.74553 -11.11618,6.74553 -0.17046,0 -0.68532,-0.63836 -1.14412,-1.41859 z"
     id="path3" />
  <path
     style="fill:#aad400;fill-opacity:1;stroke-width:0.436488"
     d="m 448.79243,488.73434 c -0.70889,-1.72802 -1.53271,-3.92752 -1.8307,-4.88779 -1.649,-5.31385 -5.64614,-11.22423 -12.69328,-18.76897 -13.97343,-14.96008 -20.89156,-26.46089 -23.80454,-39.573 -0.93978,-4.23026 -0.96627,-12.67787 -0.0526,-16.79081 1.56085,-7.02661 5.34591,-13.81101 11.01676,-19.74662 13.13636,-13.74967 32.97633,-17.30485 49.74211,-8.91343 4.43274,2.21862 7.82195,4.76899 11.85386,8.91997 8.28506,8.52975 11.52143,16.77963 11.51293,29.34777 -0.0141,20.804 -7.46794,41.96829 -19.48292,55.31937 -6.17608,6.86288 -12.75101,12.23149 -18.81645,15.36417 -6.5064,3.36042 -5.94718,3.38075 -7.44512,-0.27066 z"
     id="path4" />
  <path
     style="fill:#aad400;fill-opacity:1;stroke-width:0.436488"
     d="M 56.729403,489.57564 C 50.21992,486.11802 46.56233,483.48321 41.526172,478.62372 29.796364,467.30541 21.591686,450.86428 18.538453,432.55925 c -0.963597,-5.77705 -1.319654,-17.60603 -0.67663,-22.47911 1.065551,-8.07516 4.204604,-14.64219 9.885636,-20.68116 4.36003,-4.63474 7.743463,-7.1449 13.10201,-9.72036 6.170009,-2.96547 10.063382,-3.91106 17.203387,-4.1782 9.639899,-0.36068 17.309568,1.59963 24.877814,6.35859 15.933758,10.01926 22.97483,29.03047 17.62592,47.59079 -3.094976,10.73935 -9.308936,20.89956 -19.615815,32.07311 -11.932206,12.93553 -13.661762,15.57306 -17.000089,25.92466 -0.870981,2.70077 -1.717269,4.88602 -1.880642,4.85612 -0.163373,-0.0299 -2.562162,-1.25753 -5.330641,-2.72805 z"
     id="path5" />
  <path
     style="fill:#aad400;fill-opacity:1;stroke-width:0.436488"
     d="m 162.32309,329.90928 c -0.29727,-11.16138 1.04546,-28.03053 3.20366,-40.24857 l 0.99328,-5.62317 5.19021,-4.77059 c 8.82541,-8.11189 16.83315,-13.70978 27.2282,-19.03414 18.01625,-9.22794 33.92393,-12.8726 56.18858,-12.87354 21.43219,-9e-4 40.34812,4.01739 56.1549,11.92894 11.02784,5.51961 21.25759,12.59957 28.35866,19.62688 5.44943,5.39284 5.99145,6.35311 7.33239,12.99037 1.40326,6.94577 2.793,25.46743 2.57427,34.3083 l -0.13889,5.61358 -5.95259,-4.39137 c -18.4156,-13.58562 -34.85134,-21.16223 -55.49695,-25.5832 -21.80747,-4.66976 -50.13837,-3.82955 -73.0677,2.16697 -12.46629,3.2602 -29.2826,11.42861 -42.04201,20.4216 -2.76078,1.94584 -6.24722,4.39713 -7.74765,5.44732 l -2.72805,1.90944 z"
     id="path6" />
  <path
     style="fill:#aad400;fill-opacity:1;stroke-width:0.436488"
     d="m 178.52344,250.95872 c 0,-0.60824 0.85834,-2.26386 4.28828,-8.27159 11.23204,-19.67353 23.69973,-33.87264 38.05103,-43.33524 11.81969,-7.79338 25.51798,-12.08757 36.83419,-11.54693 22.16297,1.05885 45.05742,15.99077 62.6275,40.8461 4.9551,7.00968 13.2097,21.54427 12.58843,22.16554 -0.0996,0.0996 -4.48207,-1.86832 -9.73881,-4.37318 -5.25673,-2.50485 -11.52189,-5.33335 -13.92257,-6.28555 -16.89627,-6.70168 -31.5914,-9.25591 -53.25149,-9.25591 -27.75387,0 -43.84795,3.91772 -70.16025,17.07885 -3.77825,1.88984 -6.97007,3.43607 -7.09293,3.43607 -0.12286,0 -0.22338,-0.20618 -0.22338,-0.45816 z"
     id="path7" />
  <path
     style="fill:#aad400;fill-opacity:1;stroke-width:0.436488"
     d="m 348.61333,243.23156 c -0.83135,-1.37974 -2.63009,-4.74911 -3.99721,-7.48747 l -2.48567,-4.97885 1.42034,-1.13198 c 9.15277,-7.29455 18.90776,-12.57071 26.74995,-14.4682 4.37164,-1.05775 15.45429,-1.60886 36.25371,-1.80279 l 14.80679,-0.13806 2.30259,2.70603 c 3.92212,4.60929 3.99419,7.46986 0.30297,12.02547 l -1.93638,2.38984 -14.92314,0.30023 c -18.53717,0.37295 -29.38967,0.94701 -33.7789,1.78681 -4.69462,0.89823 -8.52178,2.87236 -15.61097,8.05248 -3.35227,2.44953 -6.43198,4.63401 -6.84379,4.8544 -0.61519,0.32924 -1.01838,-0.0468 -2.26029,-2.10791 z"
     id="path8" />
  <path
     style="fill:#aad400;fill-opacity:1;stroke-width:0.436488"
     d="m 443.68968,306.99132 c -3.061,-0.68275 -13.32095,-3.733 -22.47911,-6.68297 -19.91316,-6.4143 -22.19783,-6.89507 -29.13851,-6.13172 -5.29606,0.58248 -8.81082,1.75993 -18.2204,6.10385 -4.08116,1.88407 -7.57942,3.27673 -7.77391,3.0948 -0.37605,-0.35176 -2.19492,-9.88757 -2.68886,-14.097 l -0.29497,-2.51371 6.65549,-3.25931 c 11.23527,-5.50211 15.27932,-6.51326 26.14488,-6.53709 9.29741,-0.0204 10.28102,0.18452 26.16693,5.45161 19.73895,6.54459 27.14729,9.51391 28.71762,11.51026 1.18801,1.51032 1.58197,3.3511 1.22569,5.727 -0.3702,2.46864 -1.70654,4.37631 -4.32499,6.17406 -2.12085,1.45611 -2.3563,1.52458 -3.98986,1.16022 z"
     id="path9" />
  <path
     style="fill:#aad400;fill-opacity:1;stroke-width:0.436488"
     d="m 400.25916,379.69063 c -11.87922,-6.48559 -25.62186,-10.78015 -34.8868,-10.90208 -1.81823,-0.0239 -3.73193,-0.17125 -4.25268,-0.32737 l -0.94681,-0.28386 1.43678,-5.69753 c 2.14722,-8.51479 2.55093,-9.073 7.09707,-9.8129 4.74212,-0.7718 18.36666,0.92534 25.05483,3.12096 5.64658,1.85367 17.90783,8.42191 21.76751,11.66064 l 1.52054,1.27591 -6.50055,6.3829 c -3.57531,3.51059 -6.61658,6.38013 -6.75839,6.37676 -0.14181,-0.003 -1.73098,-0.81042 -3.5315,-1.79343 z"
     id="path10" />
  <path
     style="fill:#aad400;fill-opacity:1;stroke-width:0.436488"
     d="m 65.909633,307.02789 c -2.186451,-0.94706 -3.884031,-2.68687 -5.07055,-5.19669 -1.66202,-3.51564 -1.147931,-6.89695 1.346977,-8.85945 0.650967,-0.51205 4.161214,-2.09404 7.800549,-3.51553 7.390799,-2.88679 28.732784,-10.04233 34.115691,-11.43832 7.07005,-1.83352 20.46323,-1.50294 26.75704,0.66044 3.77823,1.29869 13.72929,5.6506 16.155,7.06508 l 1.88219,1.09755 -0.29019,2.47551 c -0.48768,4.16016 -2.30877,13.70699 -2.68409,14.07094 -0.19449,0.18861 -3.88917,-1.2829 -8.2104,-3.27002 -9.6585,-4.44146 -12.36043,-5.34403 -17.78391,-5.94066 -7.30397,-0.8035 -8.57532,-0.51055 -35.221909,8.11573 -9.22754,2.98722 -16.887898,5.42363 -17.023018,5.41423 -0.13512,-0.009 -0.933141,-0.31486 -1.77338,-0.67881 z"
     id="path11" />
  <path
     style="fill:#aad400;fill-opacity:1;stroke-width:0.436488"
     d="m 156.0293,241.65789 c -11.37468,-9.12987 -17.41438,-10.74116 -40.36008,-10.76745 -14.63509,-0.0168 -22.97635,-0.55786 -25.446974,-1.65073 -1.962743,-0.86822 -3.819019,-2.8633 -4.617062,-4.96231 -0.583651,-1.53512 -0.09808,-1.90763 3.937527,-3.02076 4.080728,-1.12557 6.458466,-2.51442 9.830095,-5.74181 l 2.690794,-2.57569 15.97947,0.47295 c 20.0261,0.59273 23.206,1.00804 30.38828,3.96889 6.32793,2.60865 15.03734,7.84809 19.79108,11.90598 l 1.70239,1.4532 -3.13984,6.12169 c -1.72691,3.36692 -3.67827,6.76663 -4.33635,7.5549 l -1.1965,1.43323 z"
     id="path12" />
  <path
     style="fill:#aad400;fill-opacity:1;stroke-width:0.436488"
     d="M 78.066831,203.82341 C 56.536456,200.03026 41.752257,191.93586 31.882204,178.53718 28.924521,174.52209 24.285307,165.4151 22.532571,160.18341 18.842107,149.16785 17.739993,140.50292 17.703468,122.21654 l -0.02572,-12.87639 1.65531,-4.78367 c 6.550509,-18.930315 20.269705,-30.958595 39.374528,-34.521551 5.943587,-1.108449 17.236343,-0.701614 23.077888,0.83141 8.234566,2.161036 15.415582,6.558841 22.535076,13.800947 10.44634,10.626261 15.85442,23.859654 15.14673,37.063554 -0.3176,5.92567 -1.17622,9.23402 -3.82697,14.74572 -2.69789,5.60972 -5.28064,8.44714 -12.81898,14.083 -6.411639,4.79351 -11.232004,9.60817 -14.406657,14.38964 -4.439642,6.68672 -5.70942,11.98208 -5.348283,22.304 0.245022,7.00317 0.696626,9.50193 2.622968,14.51321 l 1.132559,2.94629 -2.053753,-0.0353 c -1.129569,-0.0194 -4.145166,-0.4037 -6.701334,-0.85404 z"
     id="path13" />
  <path
     style="fill:#aad400;fill-opacity:1;stroke-width:0.436488"
     d="M 106.30614,63.938687 C 101.54723,60.555229 90.104355,55.679912 82.105576,53.627868 76.806669,52.268462 76.385337,52.111459 76.385337,51.4963 c 0,-0.697921 7.918951,-8.703091 11.9871,-12.117611 C 100.54088,29.165346 118.09953,20.953097 132.72545,18.634604 l 3.74334,-0.593394 0.52743,6.726433 c 0.59318,7.56516 1.61345,13.896284 3.31634,20.57905 0.6356,2.494304 1.09613,5.145967 1.02341,5.892583 -0.12825,1.316753 -0.21327,1.36747 -2.83365,1.690291 -5.57512,0.686832 -15.35141,4.710406 -23.43483,9.644934 -2.6116,1.594254 -5.16568,2.898645 -5.67573,2.898645 -0.51006,0 -1.89859,-0.690506 -3.08562,-1.534459 z"
     id="path14" />
  <path
     style="fill:#aad400;fill-opacity:1;stroke-width:0.436488"
     d="m 192.61246,63.966526 c -4.87817,-3.499963 -11.27255,-6.945495 -16.07059,-8.659447 -2.7408,-0.979066 -10.32547,-2.81633 -14.68106,-3.556252 -1.537,-0.261104 -1.65799,-0.414341 -2.90455,-3.678773 -3.29219,-8.621358 -4.45067,-13.934326 -5.46152,-25.047331 l -0.54592,-6.001705 1.54776,0.0011 c 3.30732,0.0023 13.52355,0.923893 17.26131,1.557181 16.72596,2.833879 31.75117,9.65404 45.5754,20.687337 5.71419,4.560568 9.35586,8.070608 9.11693,8.787401 -0.10142,0.304265 -2.62772,1.802273 -5.61399,3.328907 -9.63058,4.923324 -14.85105,8.376017 -20.57666,13.6089 -1.33915,1.223911 -2.6037,2.213725 -2.81011,2.199588 -0.20641,-0.01414 -2.38306,-1.466228 -4.837,-3.226866 z"
     id="path15" />
  <path
     style="fill:#aad400;fill-opacity:1;stroke-width:0.436488"
     d="m 225.70694,112.54546 c -0.44943,-1.04271 -1.64063,-3.86004 -2.64712,-6.26072 -2.58933,-6.17608 -7.89315,-16.265878 -11.22484,-21.353753 l -2.83589,-4.330734 2.3308,-2.127202 c 6.01083,-5.48576 13.53855,-10.3181 20.44505,-13.124486 5.43138,-2.206989 6.36506,-2.309088 7.80985,-0.854019 4.38171,4.412864 19.73675,36.149254 20.87055,43.136064 0.27219,1.67731 0.35747,1.6496 -7.97687,2.59254 -3.34466,0.37841 -9.51854,1.40213 -13.71973,2.27492 -4.2012,0.87279 -8.67267,1.66707 -9.9366,1.76507 l -2.29807,0.17817 z"
     id="path16" />
  <path
     style="fill:#aad400;fill-opacity:1;stroke-width:0.436488"
     d="m 268.87639,172.0953 c -4.70594,-0.71567 -20.01964,-0.79548 -24.83902,-0.12945 -2.01815,0.27891 -4.12262,0.39334 -4.6766,0.2543 -1.2252,-0.30751 -1.66249,-1.77979 -2.34122,-7.88255 -0.64614,-5.8097 -2.32621,-16.2601 -4.02618,-25.0436 -1.31869,-6.81351 -1.34686,-7.1743 -0.60254,-7.71855 2.09989,-1.53548 19.10717,-4.65559 28.66117,-5.2581 l 4.61551,-0.29107 1.39115,6.71576 c 2.12437,10.25541 6.07793,37.78327 5.65957,39.4065 -0.0998,0.38735 -1.02942,0.37447 -3.84184,-0.0532 z"
     id="path17" />
  <path
     style="fill:#aad400;fill-opacity:1;stroke-width:0.436488"
     d="m 101.31105,375.1137 -6.374989,-6.37586 1.527707,-1.29746 c 3.691352,-3.13502 16.134702,-9.80102 21.715192,-11.633 6.83593,-2.24413 18.42588,-3.89783 23.62752,-3.37129 3.74075,0.37867 5.51239,1.18501 6.40773,2.91639 0.72131,1.39487 3.74371,12.68731 3.46984,12.96421 -0.0758,0.0767 -2.56987,0.31173 -5.54235,0.52238 -2.97248,0.21065 -6.9691,0.70055 -8.88137,1.08867 -5.88243,1.19391 -14.74857,4.39409 -22.33354,8.06115 l -7.24076,3.50066 z"
     id="path18" />
</svg>
