<?xml version="1.0" encoding="UTF-8" standalone="no"?>
<!-- Created with Inkscape (http://www.inkscape.org/) -->

<svg
   version="1.1"
   id="svg1"
   width="512"
   height="512"
   viewBox="0 0 512 512"
   sodipodi:docname="scorpion-outline-white.svg"
   inkscape:version="1.3 (0e150ed6c4, 2023-07-21)"
   xmlns:inkscape="http://www.inkscape.org/namespaces/inkscape"
   xmlns:sodipodi="http://sodipodi.sourceforge.net/DTD/sodipodi-0.dtd"
   xmlns="http://www.w3.org/2000/svg"
   xmlns:svg="http://www.w3.org/2000/svg">
  <defs
     id="defs1" />
  <sodipodi:namedview
     id="namedview1"
     pagecolor="#ffffff"
     bordercolor="#000000"
     borderopacity="0.25"
     inkscape:showpageshadow="2"
     inkscape:pageopacity="0.0"
     inkscape:pagecheckerboard="0"
     inkscape:deskcolor="#d1d1d1"
     inkscape:zoom="2.2910156"
     inkscape:cx="255.78176"
     inkscape:cy="256"
     inkscape:window-width="3440"
     inkscape:window-height="1369"
     inkscape:window-x="-8"
     inkscape:window-y="-8"
     inkscape:window-maximized="1"
     inkscape:current-layer="svg1" />
  <path
     style="fill:#ffffff;fill-opacity:1"
     d="M 60.988997,509.65903 C 30.836032,499.01315 11.326981,475.92104 2.9833404,441 -0.37020384,426.96425 -0.38870216,409.21378 2.9396233,399.05027 9.1251896,380.16177 24.938213,365.34924 44.275326,360.3299 c 7.416551,-1.92512 21.059959,-2.06967 28.938197,-0.3066 l 5.669225,1.26872 4.462921,-4.25344 C 97.582717,343.46981 116.37256,336 136.26695,336 c 8.65955,0 9.86846,-0.20474 9.34004,-1.58179 C 145.27314,333.54823 145,330.6267 145,327.92592 v -4.9105 l -11.98462,-6.00771 C 124.05821,312.51762 119.96889,311 116.82721,311 c -2.48658,0 -12.24942,2.65496 -23.901849,6.5 -22.516151,7.42982 -27.252854,7.98027 -35.425361,4.11671 -2.75,-1.30006 -6.210972,-3.65817 -7.691049,-5.24023 -10.397689,-11.11415 -8.666629,-29.87169 3.513797,-38.07504 6.512342,-4.38598 45.083319,-17.09318 55.484952,-18.27951 13.10741,-1.49493 25.96385,0.89187 38.45847,7.13981 l 5.76618,2.88338 1.02417,-2.69379 c 0.5633,-1.48158 0.89352,-3.25455 0.73383,-3.93993 -0.44596,-1.914 -12.73476,-11.42915 -17.79035,-13.77496 -4.03388,-1.87174 -6.93419,-2.14232 -28,-2.61223 C 91.458057,246.6329 84.866164,246.14356 83,245.09411 74.554659,240.34483 69.640228,233.30699 68.437357,224.2393 67.760195,219.13461 67.64364,218.98124 63.621699,217.90261 29.368134,208.71623 8.8603558,185.76165 2.5103597,149.5 -0.03280424,134.97726 -0.52647792,116.94662 1.3467224,107 5.1792564,86.649398 18.459548,68.888564 36.654309,59.780239 c 5.017373,-2.511704 10.913471,-4.869318 13.102442,-5.239142 3.522662,-0.59515 4.514128,-1.45421 8.629173,-7.476789 C 68.685928,31.989727 88.304704,16.222797 105.85104,8.9182379 131.08111,-1.5850673 163.29,-2.8721686 190,5.5555561 227.02727,17.238655 256.40957,49.211496 274.03533,97 c 6.99805,18.97375 13.19354,48.99506 15.51822,75.19621 l 0.59412,6.69621 5.17616,2.92998 c 10.9791,6.21474 26.65409,20.23914 34.75556,31.09577 l 2.55072,3.41817 5.7023,-4.21254 c 7.87712,-5.81916 20.40849,-11.68922 29.5214,-13.82869 C 374.11482,196.8252 379.9384,196.5 400,196.5 h 24.5 l 5,2.65101 c 9.24,4.89908 13.84707,12.48158 13.88287,22.84899 0.0345,9.98774 -4.75668,17.68077 -14.38287,23.09411 -1.86616,1.04945 -8.45806,1.53879 -26,1.9301 -21.06581,0.46991 -23.96612,0.74049 -28,2.61223 -5.05559,2.34581 -17.34439,11.86096 -17.79035,13.77496 -0.15969,0.68538 0.17053,2.45835 0.73383,3.93993 l 1.02417,2.69379 5.76618,-2.88338 c 8.07708,-4.03895 14.52594,-5.99482 23.51617,-7.13218 11.91684,-1.50762 20.11209,0.012 45.68985,8.47201 19.90231,6.58283 23.27586,8.00479 26.87575,11.32819 5.5091,5.08597 8.14048,11.12106 8.14048,18.67024 0,10.49817 -5.13556,18.71043 -14.45608,23.11671 -8.17251,3.86356 -12.90921,3.31311 -35.42536,-4.11671 -11.65243,-3.84504 -21.41527,-6.5 -23.90185,-6.5 -3.14168,0 -7.231,1.51762 -16.18817,6.00771 L 367,323.01542 v 4.9105 c 0,2.70078 -0.27314,5.62231 -0.60699,6.49229 -0.52466,1.36725 0.56611,1.58179 8.04216,1.58179 20.00973,0 39.6386,7.57041 53.67757,20.70223 l 4.92571,4.60742 5.70863,-1.27753 c 24.334,-5.44571 49.63492,4.29921 62.9851,24.25939 7.50459,11.2203 9.7915,19.43627 9.66106,34.70849 -0.25682,30.07073 -13.09353,58.91639 -33.88541,76.14467 -6.57044,5.44432 -23.25223,14.08553 -30.73733,15.92203 -8.92175,2.18899 -12.22737,-0.42771 -13.37378,-10.58656 -1.21977,-10.80899 -3.75953,-15.72519 -13.45201,-26.03897 -13.94955,-14.84374 -21.41615,-27.14464 -25.01285,-41.20761 -2.30046,-8.99469 -2.55957,-23.37781 -0.56003,-31.08626 l 1.37184,-5.28856 -3.62586,-2.39947 c -8.97579,-5.9399 -26.60047,-10.40269 -35.5174,-8.99347 -3.69167,0.58343 -4.42974,1.21394 -7.40421,6.32515 l -3.30381,5.67712 4.52058,8.57376 c 16.57964,31.44513 5.95546,64.96829 -27.5737,87.00502 -44.43271,29.203 -112.92686,23.70556 -148.55571,-11.92329 -13.68203,-13.68203 -20.30007,-28.56572 -20.26878,-45.58366 0.0199,-10.85291 2.20088,-19.37302 7.517,-29.3663 l 4.44536,-8.3564 -3.23032,-5.83131 c -2.93922,-5.30583 -3.59385,-5.88582 -7.26447,-6.43627 -8.70284,-1.30507 -26.04265,2.88313 -34.72002,8.38615 l -4.52056,2.86685 1.37912,5.31662 c 1.80591,6.96196 1.7347,21.74702 -0.14311,29.7124 -3.34036,14.16932 -11.41706,27.70633 -25.422494,42.60953 -9.018321,9.59641 -13.021051,16.7413 -13.079143,23.34634 -0.04459,5.07032 -1.87079,10.7071 -4.037575,12.46249 -2.860325,2.31725 -6.101338,2.17994 -13.949571,-0.59097 z M 285.11888,491.70485 c 58.42086,-15.32435 75.51298,-67.46385 32.23859,-98.34381 -34.03005,-24.28334 -88.68489,-24.28334 -122.71494,0 -37.55771,26.80063 -30.43523,71.3512 14.73558,92.16987 15.77278,7.26948 28.10754,9.52015 49.62189,9.05432 13.64835,-0.29552 18.1624,-0.79332 26.11888,-2.88038 z m -48.91025,-16.22998 c -7.82067,-1.69822 -16.37415,-5.54948 -19.69043,-8.86576 -3.31176,-3.31176 -3.40294,-8.42931 -0.20375,-11.4348 3.0431,-2.85884 6.85083,-2.7478 12.14391,0.35416 5.82642,3.4145 16.07094,5.4368 27.54164,5.4368 11.4707,0 21.71522,-2.0223 27.54164,-5.4368 5.43097,-3.18276 8.87377,-3.20397 12.00381,-0.0739 7.23544,7.23543 -1.74502,16.1501 -20.21066,20.06257 -8.61333,1.82499 -30.63661,1.8012 -39.12616,-0.0422 z m -37.03432,-34.78932 c -2.98141,-3.17357 -2.85868,-8.09209 0.28024,-11.231 5.1475,-5.14751 13.54545,-1.03209 13.54545,6.63796 0,1.09912 -1.10455,3.10294 -2.45455,4.45294 -3.24779,3.2478 -8.39206,3.31118 -11.37114,0.1401 z m 102.28024,-0.1401 c -2.68194,-2.68193 -3.05329,-5.13725 -1.34428,-8.88813 1.18491,-2.60059 4.70996,-4.65732 7.98224,-4.65732 3.21425,0 6.90749,4.4272 6.90749,8.28023 0,7.02694 -8.4854,10.32528 -13.54545,5.26522 z M 69.220053,475.5 c 1.421994,-2.2 6.063591,-7.6 10.314661,-12 C 101.5713,440.69139 107.97585,418.18293 98.154102,398.06307 85.908185,372.97729 50.807395,367.13389 29.89078,386.69893 20.014848,395.93671 16.499895,405.725 17.241816,421.92322 18.606169,451.71085 33.785754,478.2804 55.79738,489.40885 L 62.5,492.7975 64.567306,486.14875 C 65.704324,482.49194 67.79806,477.7 69.220053,475.5 Z m 387.762417,13.50885 c 7.23366,-3.65154 17.84941,-13.39846 23.2427,-21.34043 8.59563,-12.65762 13.61971,-28.3091 14.51093,-45.20582 0.81853,-15.51846 -2.55257,-24.98071 -12.38665,-34.7678 -16.72711,-16.64719 -43.62644,-16.53981 -60.41649,0.24117 -20.03583,20.025 -16.00539,47.97885 10.96706,76.06403 9.17569,9.55422 12.05689,13.92587 14.6642,22.25 0.99056,3.1625 2.18168,5.75 2.64692,5.75 0.46524,0 3.51234,-1.34602 6.77133,-2.99115 z M 188.24514,378.64289 c 11.28649,-7.44127 23.23963,-12.80117 36.6453,-16.43208 8.95325,-2.42498 11.07797,-2.60274 31.10956,-2.60274 20.03159,0 22.15631,0.17776 31.10956,2.60274 13.38954,3.62654 25.35609,8.98902 36.59547,16.39923 5.27575,3.47834 9.98658,6.08056 10.46852,5.7827 1.67896,-1.03766 7.60867,-13.95178 10.24661,-22.3158 l 2.65656,-8.42306 -4.28836,-4.39369 C 328.33295,334.44973 305.93408,322.4101 284.09986,317.71451 272.24958,315.16603 243.8796,314.70319 232,316.86452 c -23.11704,4.20584 -46.80386,16.2482 -61.77244,31.40506 l -5.16768,5.23267 1.55173,5.99888 C 168.21395,365.69571 176.79966,385 177.9524,385 c 0.35785,0 4.98959,-2.8607 10.29274,-6.35711 z M 117,377.24416 C 126.71663,372.37916 138.87382,369 146.65996,369 c 2.93702,0 5.32976,-0.3375 5.3172,-0.75 -0.0126,-0.4125 -0.82301,-3.87734 -1.80101,-7.69965 -1.67658,-6.55262 -1.97521,-7.00176 -5.22716,-7.86168 -5.22532,-1.38175 -17.58138,-0.0881 -26.71412,2.79695 C 111.08704,357.74362 95,366.89837 95,368.70804 c 0,0.79183 12.39013,13.12795 13,12.94332 0.275,-0.0833 4.325,-2.06649 9,-4.4072 z m 293.47528,-1.61028 c 3.5886,-3.50137 6.52472,-6.61881 6.52472,-6.92766 0,-1.78339 -16.08025,-10.96046 -23.07931,-13.17146 -8.69359,-2.7463 -22.65602,-4.16569 -27.37183,-2.78256 -2.63336,0.77236 -3.14239,1.61299 -4.72716,7.80668 -0.97682,3.81762 -1.7863,7.27862 -1.79886,7.69112 -0.0126,0.4125 2.21437,0.75 4.94874,0.75 10.56121,0 23.87952,4.42368 38.7537,12.87204 0.1239,0.0704 3.1614,-2.73679 6.75,-6.23816 z M 171.73756,325.48379 c 9.37609,-6.97256 26.6505,-16.03796 37.26244,-19.55487 18.15521,-6.01684 46.20914,-8.52869 66.64373,-5.96706 24.80379,3.10935 47.58844,12.34376 66.81331,27.07882 3.55875,2.72763 6.7729,4.95932 7.14258,4.95932 1.2263,0 -0.39179,-29.34769 -2.1227,-38.5 -1.62311,-8.58231 -1.94054,-9.24737 -6.83952,-14.32996 -6.84578,-7.10238 -22.59724,-17.51638 -33.79759,-22.34511 -24.48656,-10.55673 -58.24817,-12.85781 -85.17431,-5.80518 -17.18775,4.5019 -36.03655,14.84764 -48.79525,26.78278 l -6.52926,6.1078 -1.78763,9.79483 C 162.78639,303.38676 161.13984,332 162.34968,332 c 0.34399,0 4.56854,-2.9323 9.38788,-6.51621 z M 89.813367,300.89064 c 20.345783,-6.6698 22.121823,-7.08181 28.725243,-6.66375 5.75598,0.3644 8.83271,1.29547 16.8839,5.10936 5.4149,2.56506 10.16257,4.66375 10.55037,4.66375 0.73285,0 3.52605,-16.86021 2.88887,-17.43769 -1.45295,-1.31683 -15.31375,-7.51096 -19.36175,-8.65241 -2.75,-0.77545 -9.05,-1.39422 -14,-1.37505 -8.47637,0.0328 -10.25881,0.45726 -30.635829,7.2951 -13.22307,4.43722 -22.341241,8.03973 -23.45,9.26489 -4.301181,4.75275 -0.557941,13.43452 6.399196,14.84177 0.172352,0.0349 10.072352,-3.13582 22,-7.04597 z M 449.95,304.42456 c 2.99015,-2.89253 3.29853,-8.38747 0.63583,-11.32972 -1.10728,-1.22353 -10.24458,-4.83845 -23.45,-9.27734 -20.83335,-7.00296 -21.98819,-7.27265 -31.13583,-7.27122 -10.28891,0.002 -15.79622,1.39639 -26.5,6.71142 -3.3,1.63864 -6.16279,3.12629 -6.36175,3.3059 -0.63738,0.57539 2.15616,17.4364 2.88887,17.4364 0.3878,0 5.13547,-2.09869 10.55037,-4.66375 8.05048,-3.81355 11.12843,-4.74506 16.8839,-5.10972 6.6058,-0.41855 8.36066,-0.011 28.53861,6.62801 12.33665,4.05904 22.3524,6.83234 23.5,6.50701 1.1,-0.31184 3.1025,-1.63348 4.45,-2.93699 z M 192,245.25202 c 20.96373,-10.33001 38.53746,-14.24023 64,-14.24023 25.59399,0 43.02846,3.89683 64.5,14.41657 7.15,3.50306 13.08613,6.29111 13.19141,6.19568 0.10528,-0.0954 -1.3994,-3.2769 -3.34374,-7.06991 -12.50256,-24.39006 -32.95347,-44.84144 -52.50435,-52.50555 -10.45604,-4.09886 -20.01357,-5.48651 -28.60619,-4.15332 -26.27152,4.07616 -49.21329,23.15715 -67.57234,56.20084 -3.64469,6.55992 -4.34724,8.41415 -2.91479,7.69297 0.4125,-0.20768 6.375,-3.14935 13.25,-6.53705 z m -25.62792,-6.95321 3.81065,-7.70119 -3.34136,-2.74683 c -5.60976,-4.6116 -14.99761,-9.79031 -21.84137,-12.04857 -5.41977,-1.78838 -9.55094,-2.21561 -24.85829,-2.57073 l -18.35829,-0.4259 -3.641711,3.543 c -2.292211,2.23009 -5.245474,3.90075 -7.969573,4.50841 -5.549784,1.23796 -5.932731,1.69721 -4.115275,4.93524 2.673908,4.76389 4.830692,5.17713 27.104049,5.19302 26.29254,0.0188 32.02186,1.57138 43.83909,11.88021 1.925,1.67929 3.96382,3.07154 4.53071,3.09389 0.5669,0.0223 2.74551,-3.4249 4.84137,-7.66055 z m 191.78162,2.22035 c 11.25077,-8.46378 12.62131,-8.78599 40.18496,-9.44726 l 23.83867,-0.5719 2.41133,-2.80576 c 3.36708,-3.91784 3.15397,-8.10546 -0.60374,-11.86316 l -3.01507,-3.01508 -23.73493,0.41612 c -20.86806,0.36585 -24.52188,0.67503 -30.2502,2.55968 -6.49287,2.13619 -15.85856,7.38457 -21.93439,12.29166 l -3.19877,2.58346 3.79351,7.66654 c 2.08642,4.2166 4.11515,7.66654 4.50827,7.66654 0.39313,0 3.99329,-2.46638 8.00036,-5.48084 z M 183.36065,211.18984 c 5.38375,-7.33414 19.72788,-20.6352 28.26006,-26.20507 4.19975,-2.74162 8.02816,-4.98477 8.5076,-4.98477 2.46247,0 -0.34564,-23.73722 -5.19959,-43.95261 -9.5151,-39.62787 -27.85374,-62.817947 -53.03505,-67.065324 -12.1215,-2.044556 -24.36528,0.09706 -34.72237,6.073446 -5.14578,2.969288 -5.27562,3.149835 -3.78264,5.259662 3.38884,4.788983 6.73735,11.272177 9.32536,18.055207 2.49924,6.550399 2.72291,8.307629 2.75311,21.629619 l 0.0329,14.5 -3.6432,7.62891 c -4.34736,9.10341 -8.88469,14.3697 -18.55893,21.54056 -8.28474,6.14092 -11.65035,10.17905 -13.19409,15.83053 -1.355507,4.96238 -1.376981,7.97632 -0.0898,12.61003 l 1.00278,3.61003 18.74165,0.5522 c 14.21823,0.41893 20.58308,1.03879 26.37121,2.56826 8.60459,2.2737 21.1458,8.37421 27.87043,13.55723 2.475,1.9076 4.79917,3.4985 5.16483,3.53531 0.36566,0.0368 2.25378,-2.09763 4.19582,-4.74322 z M 86.999496,204.75 c -2.78e-4,-0.1375 -0.900278,-2.61733 -2,-5.51073 -2.453708,-6.45577 -2.679737,-18.58565 -0.484097,-25.97917 2.010473,-6.77 9.021729,-15.82027 16.082871,-20.7601 9.62822,-6.7357 12.24082,-9.42771 15.42313,-15.89191 7.96997,-16.1893 3.34557,-37.18761 -11.4996,-52.217042 C 93.698565,73.433477 83.156317,69 67.923834,69 44.243669,69 25.084022,83.504776 18.460795,106.44591 c -1.41131,4.88841 -1.62379,8.62332 -1.194698,21 0.287055,8.27975 1.225687,18.25603 2.085849,22.16952 6.798856,30.93277 23.913657,47.59902 55.280874,53.83205 6.350333,1.26188 12.367872,1.89568 12.366676,1.30252 z M 256,171.5 c 4.125,0 9.66935,0.33326 12.32078,0.74057 l 4.82078,0.74057 -0.6233,-5.74057 c -1.31625,-12.12266 -3.69854,-28.02351 -5.18825,-34.62951 l -1.55352,-6.88893 -8.61285,0.66203 c -4.73706,0.36412 -12.57892,1.59316 -17.42635,2.7312 -7.21859,1.69473 -8.72503,2.36915 -8.32461,3.7269 1.00607,3.41147 4.44929,22.87866 5.06877,28.65774 1.30612,12.18466 0.96862,11.65409 6.85311,10.77323 C 246.17555,171.84795 251.875,171.5 256,171.5 Z m -17,-58.94689 c 3.575,-0.81401 9.9875,-1.78616 14.25,-2.16033 4.2625,-0.37418 7.75,-0.99519 7.75,-1.38001 0,-3.78869 -8.95554,-24.337369 -15.83794,-36.34047 -5.46815,-9.536618 -5.72431,-9.810571 -8.64856,-9.249367 -5.47793,1.051294 -17.38565,7.587781 -22.66315,12.440454 l -5.19437,4.776242 3.04108,4.430185 c 3.53662,5.152084 10.20272,18.288076 12.83014,25.282636 2.05099,5.46002 0.91601,5.28744 14.4728,2.20066 z M 209.30952,58.131056 c 2.60225,-1.790397 7.64717,-4.619735 11.21092,-6.287418 C 224.0842,50.175955 227,48.492178 227,48.10191 227,46.97529 221.09786,41.656185 213.5,35.935482 199.264,25.216692 180.5291,18.351329 162.59813,17.282607 l -9.90186,-0.59017 0.71006,7.903781 c 0.8545,9.511431 1.91422,14.512772 4.59098,21.667038 l 2.01811,5.39388 6.58766,1.213826 c 9.01958,1.661922 17.7511,5.362908 24.89666,10.552818 l 5.99975,4.357689 3.53933,-3.197573 c 1.94663,-1.758665 5.66844,-4.662443 8.2707,-6.45284 z m -92.68714,3.789209 C 123.01142,57.757646 135.26434,53 139.59579,53 c 2.88998,0 2.90579,-0.442394 0.3573,-10 -1.09991,-4.125 -2.28458,-11.478058 -2.6326,-16.340129 l -0.63277,-8.840129 -4.52471,0.678521 C 119.40704,20.41114 102.93627,27.728705 91.224692,36.686167 84.548371,41.792474 76,50.357608 76,51.940714 c 0,0.362523 2.8125,1.235527 6.25,1.940008 6.183812,1.267309 20.38522,7.397043 24.25,10.466991 2.79449,2.219773 3.10317,2.145748 10.12238,-2.427448 z"
     id="path1" />
</svg>
