<?xml version="1.0" encoding="UTF-8" standalone="no"?>
<!-- Created with Inkscape (http://www.inkscape.org/) -->

<svg
   version="1.1"
   id="svg1"
   width="512"
   height="512"
   viewBox="0 0 512 512"
   sodipodi:docname="snail-outline-white.svg"
   inkscape:version="1.3 (0e150ed6c4, 2023-07-21)"
   xmlns:inkscape="http://www.inkscape.org/namespaces/inkscape"
   xmlns:sodipodi="http://sodipodi.sourceforge.net/DTD/sodipodi-0.dtd"
   xmlns="http://www.w3.org/2000/svg"
   xmlns:svg="http://www.w3.org/2000/svg">
  <defs
     id="defs1" />
  <sodipodi:namedview
     id="namedview1"
     pagecolor="#ffffff"
     bordercolor="#000000"
     borderopacity="0.25"
     inkscape:showpageshadow="2"
     inkscape:pageopacity="0.0"
     inkscape:pagecheckerboard="0"
     inkscape:deskcolor="#d1d1d1"
     inkscape:zoom="2.2910156"
     inkscape:cx="255.78176"
     inkscape:cy="256"
     inkscape:window-width="3440"
     inkscape:window-height="1369"
     inkscape:window-x="-8"
     inkscape:window-y="-8"
     inkscape:window-maximized="1"
     inkscape:current-layer="svg1" />
  <path
     style="fill:#ffffff;stroke:none;fill-opacity:1"
     d="M 47,510.43992 C 24.822358,505.65953 6.5012413,487.12422 1.4320705,464.33927 c -5.498424,-24.71436 6.6732414,-51.45666 29.0515315,-63.82895 12.152865,-6.71896 13.293425,-6.91309 43.988942,-7.48717 L 102.44509,392.5 91.472544,386.20977 C 52.597048,363.92363 24.3993,330.13766 10.125093,288.7409 -6.706363,239.92785 -1.8418825,186.38659 23.448231,142.09881 32.20542,126.76331 39.697801,117.14047 53.921658,102.96024 99.863809,57.158993 166.50285,40.306598 229.56587,58.541446 c 27.06908,7.8271 54.78285,24.148324 75.00779,44.173674 l 7.04086,6.97138 10.2185,-9.860856 C 333.56421,88.505052 333.35735,90.336458 324.28081,78.15381 317.31816,68.808449 309.52704,61.04389 299.74374,53.700396 288.94906,45.597745 287.5904,42.25575 292.92308,36.923077 c 3.8818,-3.8818 6.59819,-3.691319 13.67188,0.958711 13.05027,8.578839 26.03806,21.736536 35.15828,35.618212 2.52943,3.85 4.7205,7.163273 4.86903,7.36283 0.14853,0.199556 4.01075,-1.24383 8.58271,-3.207524 28.3694,-12.184902 63.03047,-12.175727 91.59886,0.02425 4.56711,1.95036 8.43694,3.382835 8.59961,3.183279 C 455.56613,80.663273 458.08592,76.9 461.00299,72.5 470.95088,57.494939 497.02734,34 503.73321,34 c 1.34211,0 3.72303,1.302393 5.34371,2.923077 4.95981,4.959808 3.55612,9.805753 -4.37829,15.115139 -8.39993,5.620885 -23.30402,20.656095 -29.46103,29.72021 l -5.72537,8.428667 3.99389,3.09123 c 17.24851,13.350197 31.17951,35.409137 36.1375,57.221677 2.58301,11.36386 2.40474,30.17361 -0.3933,41.5 -2.74032,11.09272 -7.73539,22.79499 -13.68203,32.05376 -5.62805,8.76271 -21.98364,25.16738 -29.35817,29.44624 l -5.17043,3 -0.051,50 c -0.0543,53.20858 -0.75689,64.67215 -5.02559,82 C 439.65808,454.68636 384.11907,503.09191 315.45948,510.95723 309.7585,511.61031 260.49289,511.95766 180,511.9123 75.486331,511.85339 52.370268,511.59749 47,510.43992 Z m 271.63283,-16.52168 c 46.09168,-6.41076 86.69703,-34.96541 108.43244,-76.25227 6.14542,-11.67335 10.29502,-22.77929 13.6998,-36.66597 2.5693,-10.4791 2.57522,-10.60527 2.97578,-63.38427 0.38584,-50.8397 0.33095,-52.85613 -1.41975,-52.15616 -5.17976,2.07098 -21.28536,5.54616 -30.30127,6.53825 -15.48163,1.70356 -32.1963,-0.40216 -51.71647,-6.51526 l -2.19665,-0.68792 -0.31338,48.35268 -0.31339,48.35268 -2.45219,7 c -4.83689,13.80735 -15.92286,26.77091 -28.96284,33.86816 -2.70373,1.47155 -8.39638,3.56571 -12.65035,4.65369 C 305.91239,408.94058 301.94942,409 181.47653,409 c -79.24915,0 -126.126663,0.36471 -129.516878,1.00765 -11.493966,2.17979 -23.60439,10.59131 -29.340263,20.37884 -6.752312,11.52195 -7.514079,27.83054 -1.863927,39.90464 5.139749,10.98339 15.011703,19.58638 26.744538,23.30672 5.325773,1.68875 259.13838,1.98867 271.13283,0.32039 z m -11.43205,-102.0435 c 17.35624,-3.68551 30.95144,-17.9496 33.82355,-35.48768 0.53025,-3.23788 0.96669,-26.89 0.96988,-52.56026 l 0.006,-46.67321 -7.2291,-4.8059 c -3.97601,-2.64324 -10.61351,-8.1916 -14.75,-12.32969 -18.49382,-18.50095 -29.01107,-43.13115 -29.12694,-68.21191 l -0.0384,-8.30609 -6.2003,-4.70593 c -8.41024,-6.38324 -23.35169,-14.04877 -33.65113,-17.26432 -30.33198,-9.46983 -62.27998,-6.4124 -93.50416,8.94838 -15.13778,7.44705 -26.7553,15.89701 -38.01865,27.65271 -9.77256,10.19974 -15.52365,18.81176 -19.596342,29.3447 -4.369048,11.29938 -5.849656,19.39838 -5.854507,32.02446 -0.0096,24.90921 9.336189,49.68076 26.025189,68.98146 12.07683,13.96676 22.53411,20.74095 38.09035,24.67479 11.87247,3.0023 30.67908,2.27858 42.85396,-1.64909 16.2261,-5.23463 27.49518,-12.13586 38.61001,-23.64495 10.72479,-11.10522 16.33838,-24.09845 16.37521,-37.90211 0.0366,-13.72328 -8.08158,-31.94217 -19.29005,-43.29084 C 223.62876,213.43942 212.6682,208 199.07617,208 c -15.61549,0 -31.75113,9.17154 -39.62799,22.52465 -10.72489,18.1812 -3.7988,42.93169 14.33733,51.23469 4.73544,2.16796 6.44601,2.42434 13.56658,2.03336 8.63657,-0.47421 14.37708,-2.62187 18.14555,-6.78867 4.85329,-5.36628 10.49992,-6.06977 14.47468,-1.80336 3.22226,3.45868 2.58898,7.23507 -2.05882,12.27734 -7.83727,8.50244 -18.7981,12.85839 -32.4135,12.88147 -15.48547,0.0263 -28.01133,-6.42499 -37.14651,-19.13168 -6.42531,-8.93736 -9.36378,-17.20008 -10.03867,-28.2278 -1.4243,-23.2733 11.24275,-43.67981 34.18518,-55.07206 19.15278,-9.51046 39.7263,-8.51074 58.2931,2.83262 29.96001,18.30403 46.82805,54.55924 39.65834,85.23944 -4.83801,20.70256 -22.57562,41.15171 -46.2499,53.3201 -17.32915,8.90705 -32.72562,12.21098 -53.41697,11.46276 -11.52286,-0.41667 -14.54439,-0.90383 -22.78457,-3.67351 -12.34384,-4.14899 -23.49298,-10.88999 -32.46006,-19.62601 -26.466657,-25.78472 -41.293995,-64.60005 -37.562587,-98.3322 1.478363,-13.36449 4.991511,-25.33698 10.649064,-36.29104 6.030004,-11.6752 12.056703,-19.41881 24.092103,-30.95553 22.17889,-21.25994 49.2305,-34.69163 80.69838,-40.06843 20.80931,-3.55561 44.83408,-1.76395 64.5831,4.81631 9.25665,3.08426 21.55308,9.03276 29.5,14.27087 3.3,2.17515 6.28314,3.64473 6.6292,3.26575 0.34606,-0.37899 1.19499,-2.48907 1.88652,-4.68907 0.69152,-2.2 2.36176,-6.20321 3.71163,-8.89601 3.10297,-6.18997 2.64695,-7.15637 -8.2057,-17.38982 C 267.71118,90.762215 240.38159,76.810155 207.5,70.320188 c -12.89365,-2.54487 -43.24418,-2.520797 -57,0.04521 C 83.8543,82.797474 32.954836,133.29492 19.329368,200.5 c -2.80753,13.84762 -2.524115,48.30359 0.509904,61.99114 7.430159,33.52013 23.164089,61.77903 47.383539,85.10313 25.581571,24.63587 58.722779,40.1972 94.452179,44.34968 11.18858,1.30033 139.36322,1.23938 145.52579,-0.0692 z M 428.5,252.58955 c 29.44809,-8.77884 51.61081,-28.06196 61.35252,-53.38099 3.81487,-9.91498 5.15169,-17.37862 5.13012,-28.64222 -0.0283,-14.77708 -3.86088,-28.42647 -11.77187,-41.92452 -5.67627,-9.68508 -21.17747,-24.94775 -21.21832,-20.89182 -0.0153,1.51621 -2.08567,13.80738 -2.62581,15.58841 -0.73984,2.43953 -6.02072,4.58114 -9.19986,3.7309 -1.39223,-0.37234 -3.42886,-1.87913 -4.52585,-3.34843 -1.87061,-2.50548 -1.91786,-3.17231 -0.76051,-10.73263 0.67872,-4.43365 1.87465,-9.8769 2.65764,-12.09612 l 1.42361,-4.034941 -6.23084,-2.817861 c -25.68667,-11.616658 -54.85752,-11.954187 -81.31274,-0.94085 -7.14828,2.975835 -7.5801,3.330022 -7.05386,5.785705 0.30831,1.438697 1.24467,5.765817 2.0808,9.615817 0.83613,3.85 1.52806,8.36237 1.53761,10.02749 0.035,6.09561 -5.35903,10.28307 -10.80185,8.38569 -3.64045,-1.26907 -4.77445,-3.5803 -6.21313,-12.66318 -0.71357,-4.505 -1.61997,-7.25 -2.39395,-7.25 -1.94837,0 -13.89024,12.87505 -18.3687,19.80411 -19.58094,30.29551 -17.05094,68.82587 6.30425,96.00995 10.63082,12.37365 24.00787,21.65102 39.08498,27.10655 14.30244,5.17523 20.23123,6.06534 37.90576,5.69091 13.83787,-0.29315 17.2162,-0.70152 25,-3.02197 z m -39,-24.01373 c -11.32303,-3.21696 -19.61431,-8.02336 -21.43873,-12.4279 -1.41509,-3.41632 -0.16798,-7.25934 3.09812,-9.54701 3.27429,-2.2934 5.54233,-2.00081 10.83952,1.39839 7.08476,4.54628 16.66491,6.6022 24.21881,5.19741 3.33633,-0.62046 7.68971,-1.97659 9.67417,-3.01363 1.98446,-1.03704 5.07607,-2.66316 6.87024,-3.6136 3.96654,-2.10122 7.69934,-1.17138 10.5328,2.62373 4.39383,5.88506 -1.85618,12.96152 -15.83406,17.92781 -7.63604,2.71305 -21.07156,3.4121 -27.96087,1.4548 z m -62.32569,-43.89027 c -2.94297,-3.13266 -2.86552,-9.65922 0.19256,-16.22642 7.26682,-15.60539 27.49751,-19.18766 39.95978,-7.07572 4.62305,4.49309 7.67335,11.38614 7.67335,17.34018 0,7.43248 -9.49372,11.27808 -13.92742,5.64155 C 359.93266,182.91597 359,180.86862 359,179.81548 c 0,-5.68025 -6.03372,-10.59807 -11.36207,-9.26074 -3.48969,0.87585 -6.63793,4.9668 -6.63793,8.62557 0,6.76405 -9.20114,10.42785 -13.82569,5.50524 z m 102.15088,-0.26945 c -2.29768,-2.29768 -2.51893,-3.13244 -1.9974,-7.53592 1.62728,-13.73991 13.92674,-23.95939 27.18852,-22.59065 C 467.26671,155.60548 477,165.84727 477,177.94781 477,183.54773 474.10463,187 469.40806,187 c -4.45726,0 -7.30653,-2.51285 -8.03832,-7.08921 -1.19713,-7.48645 -6.61804,-11.29322 -12.57064,-8.82757 -3.17179,1.31379 -5.7991,5.47864 -5.7991,9.19281 0,6.17712 -8.93321,8.88167 -13.67481,4.14007 z"
     id="path1" />
</svg>
