<?xml version="1.0" encoding="UTF-8" standalone="no"?>
<!-- Created with Inkscape (http://www.inkscape.org/) -->

<svg
   version="1.1"
   id="svg1"
   width="512"
   height="512"
   viewBox="0 0 512 512"
   sodipodi:docname="snail-filled.svg"
   inkscape:version="1.3 (0e150ed6c4, 2023-07-21)"
   xmlns:inkscape="http://www.inkscape.org/namespaces/inkscape"
   xmlns:sodipodi="http://sodipodi.sourceforge.net/DTD/sodipodi-0.dtd"
   xmlns="http://www.w3.org/2000/svg"
   xmlns:svg="http://www.w3.org/2000/svg">
  <defs
     id="defs1" />
  <sodipodi:namedview
     id="namedview1"
     pagecolor="#ffffff"
     bordercolor="#000000"
     borderopacity="0.25"
     inkscape:showpageshadow="2"
     inkscape:pageopacity="0.0"
     inkscape:pagecheckerboard="0"
     inkscape:deskcolor="#d1d1d1"
     inkscape:zoom="2.2910156"
     inkscape:cx="255.78176"
     inkscape:cy="256"
     inkscape:window-width="3440"
     inkscape:window-height="1369"
     inkscape:window-x="-8"
     inkscape:window-y="-8"
     inkscape:window-maximized="1"
     inkscape:current-layer="svg1" />
  <path
     style="fill:#aad400;fill-opacity:1;stroke:none;stroke-width:0.436488"
     d="m 112.17732,494.51616 c -58.190864,-0.43401 -63.58038,-0.61281 -67.537614,-2.24049 -18.37635,-7.55853 -29.136673,-25.17012 -27.158163,-44.4502 1.56686,-15.26864 9.79308,-26.77612 24.304213,-33.99862 6.735366,-3.35233 8.076255,-3.59768 21.723195,-3.97477 6.72191,-0.18573 61.130099,-0.46978 120.907079,-0.63122 59.77698,-0.16143 112.41739,-0.46728 116.97868,-0.67966 6.56042,-0.30547 9.17859,-0.61693 12.53034,-1.49065 10.54355,-2.74844 18.36881,-7.28995 26.32315,-15.27702 7.3034,-7.33345 11.81505,-14.5207 15.63404,-24.90567 l 1.76566,-4.80136 0.34004,-48.18133 c 0.18702,-26.49972 0.42484,-48.26612 0.52849,-48.36977 0.10365,-0.10366 3.00722,0.60653 6.45238,1.57818 26.6747,7.52318 46.18247,7.45932 73.61127,-0.24099 2.23116,-0.62637 4.19535,-1.00021 4.36488,-0.83076 0.16953,0.16946 0.42472,3.18898 0.5671,6.71006 0.39075,9.66402 -0.36459,89.87429 -0.9029,95.87867 -0.98231,10.95677 -5.87567,27.83223 -11.83506,40.81484 -7.52395,16.39104 -17.05442,30.18891 -29.41425,42.58493 -20.92238,20.98361 -46.37874,34.64723 -75.22804,40.37842 -6.30582,1.25271 -7.86569,1.38746 -19.93573,1.72212 -20.6464,0.57247 -138.5758,0.81881 -194.01876,0.40529 z"
     id="path2" />
  <path
     style="fill:#aad400;fill-opacity:1;stroke:none;stroke-width:0.436488"
     d="m 186.81671,392.38247 c -17.87337,-0.23702 -24.06413,-0.46643 -28.13535,-1.04266 C 121.5848,386.08933 88.442614,369.3276 63.056798,342.97749 42.11509,321.24029 27.71558,294.80823 20.763246,265.34248 c -2.570675,-10.89517 -3.741639,-29.56475 -2.922187,-46.59067 0.552452,-11.47838 1.146848,-16.16471 3.060719,-24.13125 5.78092,-24.06324 16.3717,-45.86823 31.913018,-65.7046 4.971057,-6.34487 18.618362,-20.00396 25.098247,-25.11992 19.112873,-15.089869 39.073837,-24.972814 62.417737,-30.903861 12.88247,-3.273086 20.44967,-4.070534 38.8474,-4.093819 14.83802,-0.01878 22.00243,0.495552 30.11764,2.162139 31.32641,6.433376 58.52695,20.44444 81.40495,41.931881 8.04625,7.5572 10.4757,10.5302 10.4757,12.81954 0,0.5059 -1.0476,3.31463 -2.32801,6.24163 -1.2804,2.927 -2.87168,6.84406 -3.53618,8.70459 -0.6645,1.86053 -1.29429,3.38278 -1.39953,3.38278 -0.4505,0 -4.2436,-2.10062 -9.32281,-5.16298 -21.43324,-12.92252 -42.99257,-18.82786 -68.78012,-18.83964 -10.4203,-0.005 -16.14382,0.46373 -24.62823,2.01591 -26.00744,4.75792 -48.73995,15.00974 -68.74681,31.00319 -5.90417,4.71978 -17.01827,15.52559 -21.7032,21.10117 -9.27635,11.03989 -16.588898,25.40944 -20.213369,39.72037 -2.376596,9.38382 -3.007225,14.76821 -3.01619,25.75277 -0.0092,11.29034 0.510629,16.00843 2.837497,25.75277 7.039842,29.48112 25.152622,57.21308 46.896632,71.80207 8.38776,5.62772 20.75691,10.85125 30.11764,12.71879 5.76875,1.1509 28.84925,1.16505 35.79199,0.0219 10.70907,-1.76324 19.22533,-4.55035 29.50585,-9.65638 11.33959,-5.63203 19.81862,-11.81658 28.54701,-20.822 17.28724,-17.83593 23.89088,-37.6431 20.0486,-60.13443 -5.50876,-32.24635 -32.20894,-61.31698 -61.64159,-67.11417 -5.69419,-1.12155 -15.99872,-1.01833 -21.77996,0.21815 -19.16296,4.09856 -36.17744,16.77315 -44.33629,33.02742 -4.2933,8.55322 -6.25012,19.95371 -5.1557,30.03736 1.0376,9.56019 3.40503,16.19078 8.51244,23.8413 8.79716,13.17749 19.2306,19.5435 34.39914,20.98877 11.19504,1.06667 22.94347,-1.80745 31.0583,-7.59807 3.54393,-2.52889 8.02017,-7.3461 9.105,-9.79854 2.93489,-6.6348 -4.32783,-12.87504 -11.29996,-9.70909 -0.99337,0.45107 -3.20295,2.10199 -4.91017,3.6687 -5.38611,4.94284 -10.51791,6.57361 -20.78242,6.60421 -5.78637,0.0172 -6.26028,-0.0478 -8.92548,-1.22412 -13.04734,-5.75882 -20.73739,-17.92343 -20.73739,-32.8037 0,-6.21196 0.82655,-10.07638 3.29966,-15.42701 2.22189,-4.80714 4.76525,-8.29522 8.99165,-12.33161 6.14655,-5.87019 13.27951,-9.88812 21.39713,-12.05281 5.9197,-1.57858 14.99542,-1.66979 20.85422,-0.2096 8.43136,2.10135 17.43057,7.76158 26.0514,16.38551 14.03635,14.04143 22.02006,33.93801 20.01378,49.87728 -1.95692,15.54706 -11.15376,29.84204 -26.80038,41.6568 -15.81037,11.93841 -35.25714,17.97854 -55.71152,17.3039 -18.18207,-0.5997 -32.5801,-6.53849 -45.09809,-18.60175 -18.10197,-17.44437 -29.122826,-38.87123 -32.684395,-63.5453 -0.857912,-5.9435 -0.719454,-22.94115 0.228938,-28.10523 1.916324,-10.43457 6.284497,-21.84834 11.500147,-30.04918 6.36021,-10.00047 18.00917,-22.15856 29.2657,-30.54477 6.66708,-4.96703 13.75937,-9.19846 22.60017,-13.48381 29.01597,-14.06475 58.09828,-17.48649 86.53136,-10.18104 6.74071,1.73193 12.23117,3.81635 20.19155,7.66562 8.04093,3.88822 13.75873,7.31349 20.34205,12.18598 l 4.84673,3.5872 0.2461,8.88887 c 0.43959,15.87795 3.3343,27.81218 9.9615,41.069 5.1781,10.35808 10.6372,17.96953 18.72809,26.11201 6.12824,6.16731 10.6793,9.92251 17.59689,14.51966 l 4.72049,3.13705 -0.23038,46.70418 c -0.12854,26.05783 -0.42116,48.44079 -0.66193,50.63257 -1.85731,16.90729 -15.16485,32.17199 -31.81414,36.49307 -3.11021,0.80721 -5.53673,0.90159 -32.60496,1.26828 -32.33571,0.43804 -55.25701,0.43162 -89.69821,-0.0251 z"
     id="path3" />
  <path
     style="fill:#aad400;fill-opacity:1;stroke:none;stroke-width:0.436488"
     d="m 384.76385,254.84861 c -7.22364,-0.91314 -18.84415,-4.66041 -27.71696,-8.93793 -21.66126,-10.44271 -38.52843,-28.95226 -45.54154,-49.97596 -5.51853,-16.54329 -5.53372,-33.63786 -0.0445,-50.11134 3.51376,-10.54508 8.12662,-18.63812 15.5701,-27.31699 4.31844,-5.03515 10.49047,-11.13043 11.2706,-11.13043 0.75924,0 1.56782,2.53031 2.78373,8.71116 1.81408,9.22158 3.32098,11.14903 8.71647,11.14903 2.79602,0 3.35408,-0.14308 4.76981,-1.22291 1.73747,-1.32523 2.85321,-3.14423 3.39419,-5.53359 0.45767,-2.02141 -0.14217,-6.54163 -2.04535,-15.41288 -0.86475,-4.03084 -1.45764,-7.627505 -1.31754,-7.992594 0.14009,-0.365089 1.87673,-1.41716 3.8592,-2.337936 20.99788,-9.752687 45.34843,-12.015041 67.54992,-6.275909 5.94732,1.537397 9.88211,2.929253 16.65918,5.892867 l 5.96524,2.608599 -1.0528,3.095333 c -1.57807,4.63974 -3.32894,14.03598 -3.3971,18.23102 -0.0526,3.23789 0.0686,3.89084 0.95225,5.12973 2.54946,3.57439 5.99172,4.75227 9.99866,3.42138 3.65975,-1.21557 4.28115,-2.22885 5.51192,-8.98793 0.5901,-3.24074 1.20794,-6.92345 1.37298,-8.18381 0.16503,-1.26036 0.49176,-2.29156 0.72606,-2.29156 1.60001,0 9.8831,7.75227 14.80721,13.85829 8.47845,10.51351 14.25211,23.93764 16.33835,37.98775 0.80288,5.40711 0.90907,17.75767 0.19786,23.01159 -1.85289,13.68786 -8.6396,28.50217 -18.3966,40.15686 -8.02792,9.58931 -17.77651,17.04889 -30.25951,23.15448 -11.38685,5.56944 -20.94326,8.52705 -30.16614,9.33611 -6.14807,0.53932 -26.15081,0.51806 -30.50565,-0.0324 z m 26.34068,-25.95131 c 9.86892,-1.71596 20.55911,-7.57256 22.92572,-12.55983 0.88119,-1.85697 0.91689,-4.7235 0.079,-6.3438 -0.88081,-1.7033 -3.35582,-3.77951 -5.25116,-4.40502 -2.31339,-0.7635 -4.06897,-0.27686 -10.24516,2.83988 -7.1816,3.6241 -11.45704,4.79475 -17.48079,4.78636 -6.58569,-0.009 -10.26314,-1.01598 -17.80396,-4.87439 -7.55219,-3.86423 -9.29188,-4.11268 -12.36815,-1.76633 -2.54508,1.9412 -3.50439,3.72257 -3.52983,6.55467 -0.0265,2.94884 0.78791,4.50818 3.68192,7.04976 4.29462,3.77163 16.11813,8.67383 22.74416,9.43007 4.00257,0.45682 12.5593,0.10391 17.24825,-0.71137 z m -74.01582,-43.04544 c 2.21448,-1.22256 3.64381,-3.25334 4.0131,-5.70175 0.54887,-3.63914 0.74377,-4.2192 2.00075,-5.95441 3.17577,-4.38402 8.74092,-4.6562 12.81218,-0.62662 1.54086,1.52509 2.85426,4.28921 2.87261,6.04558 0.008,0.72021 0.59276,2.31911 1.30052,3.55312 3.08394,5.37699 10.64813,5.38246 13.71887,0.01 1.4917,-2.60986 1.69603,-4.52255 0.90087,-8.43299 -1.07235,-5.27357 -3.2969,-9.38202 -7.1729,-13.24739 -5.15033,-5.13621 -10.63279,-7.41718 -17.82769,-7.41718 -7.0451,0 -12.31465,2.19071 -17.42721,7.24502 -5.63559,5.57138 -8.66463,14.18631 -7.04455,20.03545 1.47325,5.31901 6.73966,7.31445 11.85345,4.49125 z m 135.05338,0.93577 c 3.17893,-1.20446 4.91501,-4.35179 4.92931,-8.93633 0.0277,-8.87725 -5.28639,-17.11629 -13.59998,-21.08559 -4.24024,-2.0245 -7.05092,-2.68557 -11.41825,-2.68557 -11.65166,0 -22.06072,8.71839 -24.56347,20.5738 -1.00615,4.76609 -0.66932,7.451 1.17823,9.39165 1.93373,2.03117 3.73129,2.77112 6.73186,2.77112 2.79475,0 5.48635,-1.16181 6.58848,-2.84388 0.39162,-0.59769 0.9805,-2.49568 1.30863,-4.21776 1.228,-6.44481 5.45653,-9.91425 10.85017,-8.90239 3.18259,0.59705 5.79765,3.96132 6.96338,8.9584 0.96617,4.1416 2.51674,6.13073 5.48107,7.03136 1.63888,0.49793 4.15737,0.47306 5.55057,-0.0548 z"
     id="path4" />
</svg>
