<?xml version="1.0" encoding="UTF-8" standalone="no"?>
<!-- Created with Inkscape (http://www.inkscape.org/) -->

<svg
   version="1.1"
   id="svg1"
   width="512"
   height="512"
   viewBox="0 0 512 512"
   sodipodi:docname="spider-filled.svg"
   inkscape:version="1.3 (0e150ed6c4, 2023-07-21)"
   xmlns:inkscape="http://www.inkscape.org/namespaces/inkscape"
   xmlns:sodipodi="http://sodipodi.sourceforge.net/DTD/sodipodi-0.dtd"
   xmlns="http://www.w3.org/2000/svg"
   xmlns:svg="http://www.w3.org/2000/svg">
  <defs
     id="defs1" />
  <sodipodi:namedview
     id="namedview1"
     pagecolor="#ffffff"
     bordercolor="#000000"
     borderopacity="0.25"
     inkscape:showpageshadow="2"
     inkscape:pageopacity="0.0"
     inkscape:pagecheckerboard="0"
     inkscape:deskcolor="#d1d1d1"
     inkscape:zoom="1.1455078"
     inkscape:cx="229.5925"
     inkscape:cy="330.42114"
     inkscape:window-width="1350"
     inkscape:window-height="1237"
     inkscape:window-x="879"
     inkscape:window-y="51"
     inkscape:window-maximized="0"
     inkscape:current-layer="svg1" />
  <path
     style="fill:#aad400;fill-opacity:1;stroke:none;stroke-width:0.872975"
     d="m 150.07581,375.59761 c -18.05765,-21.21606 -31.51401,-48.8334 -36.26118,-74.42114 -1.28776,-6.94113 -1.62141,-13.02244 -1.62845,-29.68116 -0.008,-18.65911 0.2112,-21.95428 2.00249,-30.11765 6.86069,-31.26595 21.88367,-59.29162 42.73028,-79.71421 l 5.1802,-5.07483 0.55662,10.35201 c 1.61163,29.97287 16.65898,56.87229 40.53808,72.468 14.67289,9.58302 27.64292,14.33162 43.56937,15.95166 38.92964,3.95993 76.87923,-17.41724 93.78594,-52.83003 5.43865,-11.3918 7.66065,-20.14035 8.64718,-34.04603 0.44282,-6.24177 0.81899,-11.52039 0.83594,-11.73025 0.068,-0.84284 5.86405,5.2009 12.50519,13.03971 17.68314,20.87212 29.61017,44.80375 34.58827,69.40154 2.78613,13.76674 4.05724,36.26857 2.76158,48.88661 -2.63834,25.69393 -13.94784,55.64544 -28.54888,75.60739 -5.03275,6.88057 -12.50017,15.61853 -13.34752,15.61853 -0.34604,0 -2.92116,-3.3742 -5.7225,-7.49821 -33.90903,-49.91957 -111.30196,-62.56743 -165.01522,-26.96742 -12.00296,7.9553 -23.6683,20.05819 -30.90569,32.06495 -1.08531,1.80051 -2.06274,3.27365 -2.17207,3.27365 -0.10934,0 -1.95417,-2.0624 -4.09963,-4.58312 z"
     id="path2" />
  <path
     style="fill:#aad400;fill-opacity:1;stroke:none;stroke-width:0.872975"
     d="m 241.37766,493.63838 c -16.91743,-1.84114 -34.69141,-8.82448 -47.45255,-18.64395 -6.94552,-5.34446 -19.19275,-18.49909 -22.69574,-24.37727 -1.61106,-2.70344 -4.06105,-8.16704 -5.44442,-12.14136 -2.30567,-6.62399 -2.51619,-8.24714 -2.52689,-19.4825 -0.0137,-14.31568 0.97914,-19.02439 6.20348,-29.42251 4.6652,-9.28525 9.91163,-15.90781 18.63687,-23.52526 21.4973,-18.76794 49.55363,-26.84063 81.78452,-23.53199 18.7671,1.92653 40.50726,11.28772 53.95829,23.23414 12.00847,10.66522 21.06009,25.24133 23.97781,38.6122 2.59796,11.90552 1.32509,27.37367 -3.13328,38.07612 -3.14214,7.54282 -10.74409,18.26775 -17.48822,24.67262 -22.05477,20.94531 -52.01923,30.20832 -85.81987,26.52976 z m 26.37512,-25.71885 c 5.45406,-1.28602 11.57547,-3.9034 17.06758,-7.29771 5.56188,-3.43744 6.68768,-9.93009 2.45566,-14.16212 -3.40658,-3.40658 -5.72444,-3.25243 -14.30481,0.95131 -13.35342,6.54218 -20.81037,6.51224 -34.16245,-0.13716 -8.03152,-3.99974 -10.35586,-4.05164 -14.09281,-0.31469 -3.56386,3.56386 -2.54227,9.60217 2.25762,13.3441 3.39833,2.6493 10.91615,6.22098 15.9445,7.57518 6.01588,1.62015 18.05345,1.64007 24.83471,0.0411 z M 210.12724,432.388 c 3.96,-3.83819 4.03464,-8.30364 0.19282,-11.53631 -3.80694,-3.20334 -8.00055,-3.05657 -11.45814,0.40102 -2.35892,2.35892 -2.60523,3.07739 -2.16927,6.32771 0.99967,7.45307 8.08805,9.98965 13.43459,4.80758 z m 102.33093,0.53014 c 2.13816,-1.79914 2.6859,-2.94178 2.6859,-5.60295 0,-4.55808 -0.66561,-5.95255 -3.55433,-7.44637 -7.63147,-3.94639 -15.52369,2.72126 -11.78309,9.9548 2.9063,5.62016 8.13117,6.89814 12.65152,3.09452 z M 190.64261,409.02788 c 1.20649,-0.4587 2.86607,-1.8603 3.68795,-3.11466 3.88135,-5.92368 -0.79755,-14.25154 -7.41545,-13.19859 -4.19494,0.66744 -7.0822,4.03973 -7.0822,8.27195 0,6.41696 5.10115,10.21169 10.8097,8.0413 z m 139.11044,-2.0391 c 6.1236,-5.55912 0.63776,-15.96475 -7.47699,-14.18245 -3.48776,0.76604 -5.44088,3.13122 -5.99457,7.25923 -0.57563,4.29166 0.80791,6.97289 4.38742,8.50257 3.27947,1.40147 6.39785,0.85931 9.08414,-1.57935 z"
     id="path3" />
  <path
     style="fill:#aad400;fill-opacity:1;stroke:none;stroke-width:0.872975"
     d="m 235.93744,236.1352 c -12.91168,-3.3836 -25.24308,-11.00722 -35.62801,-22.02624 -8.09213,-8.58622 -13.16456,-17.09478 -17.07183,-28.63652 -2.42975,-7.17726 -2.85054,-9.77263 -3.21407,-19.82408 -0.42999,-11.889 0.61989,-20.80859 2.86062,-24.30339 1.42859,-2.22813 18.21265,-10.5855 28.48019,-14.18128 21.29278,-7.45693 48.64585,-9.36228 70.82472,-4.93347 17.03985,3.40261 43.11745,14.293 47.09812,19.66887 3.67348,4.96101 4.0521,26.56329 0.6956,39.68712 -6.69962,26.19524 -28.72985,47.99837 -55.55932,54.98656 -7.60937,1.98199 -30.23472,1.72475 -38.48602,-0.43757 z"
     id="path4" />
  <path
     style="fill:#aad400;fill-opacity:1;stroke:none;stroke-width:0.872975"
     d="m 20.196033,210.51222 c -1.062981,-1.13149 -2.170415,-3.52216 -2.460963,-5.3126 -0.502857,-3.09874 -0.271785,-3.49941 4.803183,-8.32859 8.662697,-8.24314 72.606051,-64.91589 75.114527,-66.57372 1.266589,-0.83707 3.63401,-1.52454 5.26095,-1.5277 2.6608,-0.005 4.45596,1.4782 17.86415,14.76147 l 14.9061,14.76722 -4.26114,5.52945 c -2.34362,3.0412 -4.56037,5.8749 -4.92609,6.2971 -0.36573,0.42221 -5.17416,-3.3914 -10.68539,-8.47468 -5.51124,-5.08328 -10.99643,-9.48729 -12.18931,-9.78669 -4.138976,-1.03881 -5.310483,-0.15209 -40.402281,30.58073 -31.243432,27.36248 -34.75038,30.12527 -38.239591,30.12527 -1.866552,0 -3.51901,-0.71058 -4.784145,-2.05726 z"
     id="path5" />
  <path
     style="fill:#aad400;fill-opacity:1;stroke:none;stroke-width:0.872975"
     d="m 471.3075,201.93475 c -6.90745,-5.8491 -18.84441,-16.19982 -26.5266,-23.0016 -29.558,-26.17056 -32.30623,-28.20743 -36.60338,-27.12891 -1.2678,0.3182 -6.71079,4.8389 -12.09553,10.04601 l -9.79043,9.46747 -4.18112,-5.58185 c -2.29962,-3.07002 -4.38794,-6.12081 -4.64071,-6.77954 -0.5081,-1.32407 18.31476,-21.31568 25.26851,-26.83749 6.27219,-4.9806 8.5868,-4.6855 16.47989,2.10111 11.24894,9.67202 63.79747,56.5618 69.42978,61.95315 4.88831,4.67918 5.4561,5.58108 5.4561,8.66677 0,4.50362 -3.03062,7.72961 -7.26152,7.72961 -2.53587,0 -4.8334,-1.57282 -15.53499,-10.63473 z"
     id="path6" />
  <path
     style="fill:#aad400;fill-opacity:1;stroke:none;stroke-width:0.872975"
     d="m 482.56734,348.70063 c -1.4645,-0.85367 -12.01036,-19.06963 -30.79848,-53.1985 -12.98259,-23.58306 -18.71227,-32.84546 -21.11275,-34.13016 -1.7044,-0.91217 -2.88643,-0.83624 -6.95708,0.44692 -6.15925,1.94154 -6.38579,1.64591 -6.40348,-8.35635 l -0.0134,-7.55707 6.75217,-2.81094 c 7.80737,-3.25021 12.32011,-4.06272 14.89901,-2.68253 1.94415,1.04047 9.56093,14.1223 30.28456,52.01376 17.01897,31.11781 24.10259,45.28063 24.63584,49.25631 0.38362,2.86008 0.0923,3.55731 -2.34172,5.60545 -2.85978,2.40634 -6.3066,2.95088 -8.9447,1.41311 z"
     id="path7" />
  <path
     style="fill:#aad400;fill-opacity:1;stroke:none;stroke-width:0.872975"
     d="m 439.40498,475.79499 c -1.00981,-0.70729 -2.50298,-2.95291 -3.31816,-4.99026 -0.81519,-2.03734 -5.92425,-22.77015 -11.35347,-46.07291 -11.32835,-48.62238 -12.22263,-51.94147 -14.64847,-54.36731 -1.65336,-1.65336 -2.48255,-1.74486 -11.26134,-1.24257 -5.21211,0.29822 -9.47657,0.39777 -9.47657,0.22124 0,-1.58297 10.06031,-16.7919 11.44662,-17.30473 2.82705,-1.0458 15.90666,-1.84236 19.42222,-1.18283 2.32212,0.43563 3.53471,1.29499 4.52243,3.20502 2.40373,4.6483 26.58998,109.53584 26.58998,115.31169 0,4.5651 -2.79459,7.70866 -6.85292,7.70866 -1.77887,0 -4.06051,-0.5787 -5.07032,-1.286 z"
     id="path8" />
  <path
     style="fill:#aad400;fill-opacity:1;stroke:none;stroke-width:0.872975"
     d="m 62.545206,474.94024 c -1.270451,-1.17742 -2.309912,-2.92806 -2.309912,-3.89031 0,-4.03446 11.114557,-53.9343 21.101928,-94.73906 6.674543,-27.26976 5.976306,-26.30154 18.381186,-25.4886 4.816432,0.31564 9.686572,0.80716 10.822542,1.09227 1.44651,0.36306 3.61583,3.0849 7.23973,9.08372 l 5.17434,8.56534 -10.07762,-0.14753 c -9.89856,-0.14491 -10.10794,-0.10736 -11.784,2.11337 -1.724925,2.28546 -5.418259,16.63339 -16.833398,65.39469 -9.193443,39.27102 -9.547286,40.15686 -16.040456,40.15686 -2.361299,0 -4.053144,-0.63829 -5.67434,-2.14075 z"
     id="path9" />
  <path
     style="fill:#aad400;fill-opacity:1;stroke:none;stroke-width:0.872975"
     d="m 22.136033,348.76097 c -2.261302,-0.91254 -4.676527,-4.17865 -4.676527,-6.32405 0,-4.01121 50.061811,-96.87189 54.753729,-101.56381 2.037359,-2.03736 7.57757,-1.22194 16.108389,2.37086 l 6.969056,2.93506 -0.594114,8.29326 c -0.326764,4.5613 -0.728997,8.43566 -0.89385,8.60969 -0.164854,0.17404 -2.158781,-0.31701 -4.430948,-1.09121 -2.272167,-0.77421 -4.825005,-1.40765 -5.672972,-1.40765 -3.94173,0 -7.466892,5.62729 -35.750656,57.0695 -7.886226,14.34339 -15.563494,27.40528 -17.060596,29.02643 -2.774699,3.00461 -5.096429,3.55693 -8.751511,2.08192 z"
     id="path10" />
</svg>
