<?xml version="1.0" encoding="UTF-8" standalone="no"?>
<!-- Created with Inkscape (http://www.inkscape.org/) -->

<svg
   version="1.1"
   id="svg1"
   width="512"
   height="512"
   viewBox="0 0 512 512"
   sodipodi:docname="spider-outline.svg"
   inkscape:version="1.3 (0e150ed6c4, 2023-07-21)"
   xmlns:inkscape="http://www.inkscape.org/namespaces/inkscape"
   xmlns:sodipodi="http://sodipodi.sourceforge.net/DTD/sodipodi-0.dtd"
   xmlns="http://www.w3.org/2000/svg"
   xmlns:svg="http://www.w3.org/2000/svg">
  <defs
     id="defs1" />
  <sodipodi:namedview
     id="namedview1"
     pagecolor="#ffffff"
     bordercolor="#000000"
     borderopacity="0.25"
     inkscape:showpageshadow="2"
     inkscape:pageopacity="0.0"
     inkscape:pagecheckerboard="0"
     inkscape:deskcolor="#d1d1d1"
     inkscape:zoom="1.1455078"
     inkscape:cx="229.5925"
     inkscape:cy="330.42114"
     inkscape:window-width="1350"
     inkscape:window-height="1237"
     inkscape:window-x="879"
     inkscape:window-y="51"
     inkscape:window-maximized="0"
     inkscape:current-layer="svg1" />
  <path
     style="fill:#000000;stroke:none"
     d="m 236.5,510.42497 c -58.29759,-8.9475 -98.755,-56.13614 -90.15226,-105.15163 l 1.26836,-7.22666 -4.55805,-4.47888 -4.55805,-4.47889 -12,-1.38321 c -6.6,-0.76076 -12.27362,-1.11827 -12.60804,-0.79445 C 113.55753,387.23506 108.91688,406.625 103.5794,430 98.241911,453.375 93.163222,474.72374 92.293421,477.44164 89.255424,486.93458 78.085887,495 67.97743,495 54.983051,495 43,483.18953 43,470.3823 c 0,-4.55763 22.028831,-103.38792 26.571201,-119.2092 1.956738,-6.81541 7.753512,-13.20612 14.682525,-16.1869 4.429036,-1.90532 6.380511,-2.15997 13.049662,-1.70286 7.042492,0.4827 7.769042,0.36824 7.127672,-1.12292 -3.41872,-7.94841 -7.893813,-28.29664 -9.941189,-45.20254 -0.469965,-3.88067 -0.977086,-4.70331 -3.482311,-5.64892 l -2.93224,-1.1068 -20.631862,37.80543 C 56.095935,338.80058 45.415296,357.2412 43.708706,358.98674 38.440871,364.37481 33.397713,366.44018 25.5,366.44391 17.72913,366.44759 13.739109,364.88131 8.162371,359.63805 1.4383293,353.31609 -1.6228815,342.49642 1.0200455,334.39392 1.7186247,332.25226 14.161784,308.675 28.67151,282 c 22.167995,-40.75413 27.151389,-49.22607 31.203023,-53.04621 8.492264,-8.00704 17.300065,-8.99813 30.693782,-3.45379 4.650307,1.925 8.624753,3.5 8.832103,3.5 0.20735,0 0.690382,-1.6875 1.073402,-3.75 1.0159,-5.47049 7.17015,-21.53942 11.74003,-30.65356 l 3.96289,-7.90357 -7.4591,-7.4591 -7.45911,-7.45911 -31.62949,28.03238 C 43.033284,223.37815 37.182084,228.11093 32.86302,229.5455 20.604185,233.61723 6.3821331,227.36591 1.5506813,215.78212 -0.62598206,210.5634 -0.44161536,199.54261 1.9067098,194.5 c 2.3371279,-5.01856 3.5401046,-6.15861 49.4144882,-46.82941 40.270052,-35.70218 41.654698,-36.68573 51.606942,-36.65772 8.12828,0.0229 12.89175,3.23052 29.4959,19.86205 l 15.3496,15.37492 4.36318,-3.94244 C 174.90706,121.73287 205.45391,108.01415 238,103.74588 L 247.5,102.5 248,53.161073 248.5,3.8221461 250.86078,1.911073 c 3.01497,-2.44063471 7.26347,-2.44063471 10.27844,0 L 263.5,3.8221461 264,53.161073 264.5,102.5 l 9.44764,1.24798 c 31.73242,4.19166 62.15618,17.58047 84.33419,37.11358 l 5.78182,5.0923 15.21818,-15.29442 c 16.14454,-16.22543 19.78815,-18.72436 28.36346,-19.45271 10.81171,-0.91831 11.29282,-0.57999 57.02545,40.10006 29.14147,25.92189 42.50906,38.46171 44.1105,41.37901 4.74889,8.65092 3.57274,20.84974 -2.74532,28.47397 -6.96184,8.40111 -20.30165,11.30233 -30.24272,6.57736 -2.87358,-1.36581 -16.45438,-12.70368 -34.86891,-29.11015 l -30.16211,-26.87303 -7.46946,7.46946 -7.46946,7.46946 3.96289,7.90357 c 4.57999,9.13432 10.72474,25.1865 11.74571,30.68382 0.7969,4.29081 0.85576,4.29073 10.46814,-0.0145 8.00081,-3.58343 16.26743,-4.06669 22.64364,-1.32371 2.78913,1.19985 6.66364,3.84124 8.61001,5.86975 3.67427,3.82933 55.40703,97.59999 57.73212,104.64509 2.55412,7.73906 -0.0289,17.66001 -6.34772,24.38074 -5.19429,5.52465 -10.15245,7.60297 -18.13805,7.60297 -7.78677,0 -12.99535,-2.0898 -18.21303,-7.30748 -1.61927,-1.61927 -12.25871,-20.04286 -23.64321,-40.94132 l -20.69908,-37.99719 -2.94224,1.11057 c -2.51644,0.94985 -3.02185,1.76791 -3.49231,5.6527 -1.65727,13.68469 -3.83686,25.00832 -6.79338,35.29376 l -3.31475,11.53169 7.56822,-0.51874 c 6.36976,-0.4366 8.39292,-0.16397 12.77605,1.72161 6.92902,2.98078 12.72579,9.37149 14.68253,16.1869 C 446.97117,366.99438 469,465.82467 469,470.3823 469,483.58402 456.98692,495 443.09469,495 c -8.0589,0 -18.6065,-6.84709 -22.33652,-14.5 -0.80421,-1.65 -6.09105,-23.25 -11.74853,-48 -5.65749,-24.75 -10.56158,-45.27841 -10.89799,-45.6187 -0.33641,-0.34028 -6.01165,0.0311 -12.61165,0.8254 l -12,1.44409 -4.56076,4.45062 -4.56075,4.45061 1.38478,7.72399 c 5.63467,31.42895 -10.70268,65.45106 -41.26327,85.92968 -24.41231,16.35866 -57.5092,23.399 -88,18.71928 z m 46.13522,-18.29431 c 18.37211,-4.6196 35.86245,-14.5547 47.68391,-27.08607 12.32095,-13.06086 18.4081,-26.60404 19.38635,-43.13236 2.0947,-35.39148 -24.4328,-66.39231 -66.42813,-77.62989 -8.7807,-2.34964 -11.56121,-2.61633 -27.27735,-2.61633 -15.70135,0 -18.5013,0.26799 -27.24219,2.60741 -19.18262,5.13407 -32.40917,12.50617 -45.25987,25.22658 -7.04716,6.9757 -10.00956,10.79938 -13.17082,17 -6.89924,13.53248 -7.82923,17.34267 -7.81058,32 0.0147,11.55099 0.31333,13.81753 2.67921,20.3346 4.01352,11.05564 8.38536,17.685 18.30425,27.75615 13.52444,13.73203 28.8118,21.85479 49.60796,26.35861 12.51238,2.70979 37.11163,2.30316 49.52726,-0.8187 z M 243.5,467.58897 c -6.13894,-1.52362 -14.07285,-5.5182 -17.75,-8.93682 -4.71323,-4.38185 -3.46245,-11.51094 2.3767,-13.54647 2.47379,-0.86237 3.73972,-0.79688 5.77111,0.29854 10.12825,5.46167 12.79386,6.53829 17.70857,7.15234 7.59307,0.94869 15.76397,-0.88934 22.54435,-5.07132 6.92698,-4.2724 9.14041,-4.34795 13.04318,-0.44518 2.5347,2.53471 2.93553,3.56276 2.4112,6.18439 -0.85889,4.29444 -2.66401,6.03871 -10.43689,10.08504 -10.74977,5.59601 -23.9718,7.18239 -35.66822,4.27948 z m -42.18463,-33.59595 c -4.52045,-1.82133 -5.80056,-9.02173 -2.27641,-12.80446 3.03116,-3.25357 9.15909,-3.02353 11.88846,0.4463 2.87205,3.65122 2.59998,6.99159 -0.8505,10.44206 -3.01057,3.01058 -4.9775,3.44073 -8.76155,1.9161 z m 100.72469,-1.79911 c -3.5693,-3.5693 -3.87148,-6.86722 -0.96748,-10.55905 1.60419,-2.0394 2.95134,-2.63486 5.96105,-2.63486 9.90897,0 11.01375,13.72935 1.25643,15.61398 -2.68641,0.51888 -3.70575,0.12417 -6.25,-2.42007 z M 182.17431,406.68555 c -3.17125,-3.37565 -2.951,-8.92944 0.46055,-11.61297 4.46859,-3.51499 9.51331,-2.62052 11.96555,2.12159 4.26636,8.25024 -6.1311,16.19209 -12.4261,9.49138 z m 137.12738,0.81321 c -2.94804,-2.06489 -3.79375,-6.64653 -1.9021,-10.30459 C 321.1806,389.8825 332,392.62736 332,400.89827 c 0,6.72113 -7.19018,10.45853 -12.69831,6.60049 z M 74.113636,475.60825 c 2.03313,-2.03771 4.083807,-9.77185 13.853892,-52.25 9.664033,-42.01706 11.835651,-50.22842 13.808242,-52.21195 2.25311,-2.26561 2.71161,-2.32716 12.24998,-1.64446 l 9.90926,0.70925 -4.94498,-8.35555 c -2.71974,-4.59555 -5.38201,-8.87431 -5.91616,-9.50837 -1.13264,-1.34449 -18.830446,-2.87607 -22.523434,-1.94918 -1.382732,0.34704 -3.172329,1.90394 -3.976882,3.45977 -0.804553,1.55584 -7.338907,28.29195 -14.520787,59.41358 -10.15769,44.01688 -12.849298,57.13363 -12.118483,59.05581 2.182698,5.74094 9.935173,7.53486 14.179352,3.2811 z m 374.036764,1.31126 c 1.1104,-0.59427 2.61996,-2.51898 3.35456,-4.27714 1.238,-2.96294 0.39139,-7.28885 -11.57985,-59.16951 -7.10353,-30.78507 -13.42938,-57.22756 -14.05746,-58.76108 -0.62807,-1.53352 -1.95065,-3.22102 -2.93906,-3.75 -3.53231,-1.89043 -23.95897,-0.37063 -24.69498,1.83738 -0.2029,0.6087 -2.57384,4.7754 -5.26876,9.25933 l -4.89986,8.1526 9.74332,-0.69737 c 8.69707,-0.62248 9.99453,-0.49396 12.08266,1.19691 2.01925,1.63509 3.55466,7.15477 11.22182,40.34182 4.88537,21.14615 10.07637,43.61248 11.53555,49.92517 2.11497,9.14976 3.21534,12.0399 5.42543,14.25 2.93149,2.93149 6.60723,3.54866 10.07663,1.69189 z M 171.8707,357.92761 c 30.22255,-30.06116 78.91826,-40.94362 122.30024,-27.33151 24.7883,7.77791 46.20037,23.38995 58.5799,42.71199 l 4.99224,7.79192 5.5056,-6.30001 c 18.12959,-20.74547 30.97241,-48.28432 35.86098,-76.89666 1.81733,-10.63665 2.04255,-14.96721 1.58121,-30.40334 -0.96915,-32.42647 -8.82126,-57.15205 -26.57306,-83.67617 C 367.71037,174.25005 351.88563,156 349.99159,156 c -0.45541,0 -0.85916,3.99369 -0.89723,8.87487 -0.2723,34.91406 -21.34028,66.69269 -54.47553,82.17009 -19.0771,8.91087 -41.53722,10.81907 -63.11883,5.36254 -9.09594,-2.29975 -25.3888,-10.62859 -33.67917,-17.21665 C 176.08773,217.92036 163,191.5139 163,164.93462 163,160.02058 162.60721,156 162.12713,156 c -0.48008,0 -4.07008,3.36583 -7.97778,7.47963 -21.98178,23.14109 -35.85625,50.99481 -41.31264,82.93727 -1.76074,10.30756 -1.98623,14.80157 -1.53457,30.5831 0.55262,19.30907 2.40343,30.35636 7.70661,46 5.83349,17.208 18.79928,39.78583 30.03582,52.30255 l 5.20908,5.80256 4.99388,-7.79447 c 2.74663,-4.28696 8.42706,-11.20932 12.62317,-15.38303 z M 31.320975,347.75 c 1.226536,-1.2375 12.074481,-20.38364 24.106543,-42.54698 12.222731,-22.51456 22.972124,-41.15882 24.359338,-42.25 3.023957,-2.37865 4.418542,-2.4219 9.952006,-0.30865 2.36815,0.90441 4.475195,1.46691 4.682323,1.25 0.207128,-0.2169 0.534595,-4.35331 0.727705,-9.19202 L 95.5,245.90471 87.709419,242.45235 c -8.155446,-3.61404 -13.178714,-4.30501 -16.01078,-2.20235 -0.925991,0.6875 -13.607686,23.075 -28.181545,49.75 -19.405195,35.51795 -26.500491,49.3821 -26.50751,51.79545 -0.02084,7.1657 9.276779,11.03417 14.311391,5.95455 z m 461.224475,-0.20455 c 4.69093,-4.69092 4.29541,-5.64321 -23.48489,-56.54545 -14.25793,-26.125 -26.82029,-48.5125 -27.91637,-49.75 -2.82926,-3.19433 -7.46723,-2.8864 -16.79763,1.11526 l -7.84656,3.36526 0.35111,8.88474 c 0.19311,4.88661 0.52058,9.06221 0.72771,9.27911 0.20712,0.21691 2.31417,-0.34559 4.68232,-1.25 5.67188,-2.16611 7.13529,-2.079 10.17454,0.60563 1.40096,1.2375 12.45715,20.475 24.56931,42.75 12.11216,22.275 22.96587,41.2875 24.11935,42.25 3.09449,2.58215 8.46576,2.25081 11.42111,-0.70455 z M 279.5,235.59119 c 11.59301,-3.91606 21.8234,-10.09014 29.97689,-18.09119 16.74964,-16.43648 24.47218,-36.21167 23.21786,-59.45416 -0.84009,-15.56675 -1.44279,-16.97788 -9.05933,-21.21127 -34.04827,-18.92453 -73.92833,-22.82989 -110.63615,-10.83433 -9.48433,3.09933 -26.91771,11.34348 -29.93843,14.15771 -2.33275,2.17328 -4.06296,11.95743 -4.05383,22.92396 0.0225,27.00005 15.40668,52.98538 39.26992,66.33047 13.35402,7.46799 22.93597,9.66368 40.22307,9.21704 10.91201,-0.28192 14.28491,-0.76991 21,-3.03823 z M 64.109186,182.40327 C 94.922207,155.10419 98.776383,152 101.85796,152 c 3.00292,0 4.70175,1.24953 13.58862,9.99467 l 10.15664,9.99468 5.19839,-6.52227 C 133.66073,161.87983 136,158.60027 136,158.17917 c 0,-0.4211 -6.67127,-7.38368 -14.82504,-15.4724 C 107.53228,129.17292 106.05961,128 102.70976,128 c -2.66581,0 -4.650631,0.86992 -7.415242,3.25 -12.024155,10.35172 -75.994881,67.42784 -77.012715,68.71248 -1.87172,2.36235 -1.506051,7.48272 0.738122,10.33572 2.059625,2.61839 4.789453,3.5279 8.626273,2.87407 1.180409,-0.20116 17.588754,-14.04721 36.462988,-30.769 z M 493.0225,210.24426 c 2.20736,-2.8062 2.55444,-7.9358 0.6957,-10.28178 -1.01784,-1.28464 -64.98856,-58.36076 -77.01272,-68.71248 -2.76461,-2.38008 -4.74943,-3.25 -7.41524,-3.25 -3.35007,0 -4.82321,1.1736 -18.48523,14.72663 -8.16478,8.09965 -14.63942,15.2625 -14.38809,15.91745 0.25132,0.65495 2.58888,3.93613 5.19456,7.29151 l 4.73761,6.10068 10.18049,-10.01814 C 405.45209,153.23791 407.13555,152 410.15344,152 c 3.09678,0 6.90246,3.06518 37.80865,30.4519 18.9009,16.74854 35.30412,30.59459 36.45159,30.769 3.74442,0.56912 6.59504,-0.41653 8.60882,-2.97664 z"
     id="path1" />
</svg>
