<?xml version="1.0" encoding="UTF-8" standalone="no"?>
<!-- Created with Inkscape (http://www.inkscape.org/) -->

<svg
   version="1.1"
   id="svg1"
   width="512"
   height="512"
   viewBox="0 0 512 512"
   sodipodi:docname="worm-outline.svg"
   inkscape:version="1.3 (0e150ed6c4, 2023-07-21)"
   xmlns:inkscape="http://www.inkscape.org/namespaces/inkscape"
   xmlns:sodipodi="http://sodipodi.sourceforge.net/DTD/sodipodi-0.dtd"
   xmlns="http://www.w3.org/2000/svg"
   xmlns:svg="http://www.w3.org/2000/svg">
  <defs
     id="defs1" />
  <sodipodi:namedview
     id="namedview1"
     pagecolor="#ffffff"
     bordercolor="#000000"
     borderopacity="0.25"
     inkscape:showpageshadow="2"
     inkscape:pageopacity="0.0"
     inkscape:pagecheckerboard="0"
     inkscape:deskcolor="#d1d1d1"
     inkscape:zoom="0.96122328"
     inkscape:cx="242.39946"
     inkscape:cy="326.14691"
     inkscape:window-width="1350"
     inkscape:window-height="1237"
     inkscape:window-x="966"
     inkscape:window-y="57"
     inkscape:window-maximized="0"
     inkscape:current-layer="svg1" />
  <path
     style="fill:#000000;stroke:none"
     d="M 47,510.43992 C 24.822358,505.65953 6.5012413,487.12422 1.4320705,464.33927 -4.2456709,438.81891 9.021897,411.09809 32.5,399.42696 c 13.634455,-6.77778 5.326721,-6.39997 141.5,-6.4349 75.78377,-0.0194 126.13738,-0.41298 130.32611,-1.01858 8.62741,-1.24733 16.83297,-5.10675 22.87654,-10.75981 C 336.96562,372.08156 341,362.3522 341,347.93982 l 0,-8.69718 -2.97488,-1.23223 c -1.63618,-0.67773 -4.75606,-3.16459 -6.93305,-5.52636 C 324.35953,325.18011 324,322.63949 324,282.36772 c 0,-21.31692 0.42408,-37.24669 1.072,-40.26786 1.35583,-6.32201 5.794,-12.49091 11.45859,-15.92706 l 4.40619,-2.6728 0.0316,-17.65498 0.0316,-17.65498 -4.25,-2.51671 C 317.12666,174.053 299.86222,150.09674 293.36826,125.47652 290.08871,113.04291 289.65186,94.050759 292.36939,82.050648 303.59451,32.482675 353.53543,-2.9633372 407.49633,0.33829042 437.13599,2.1518097 462.12473,13.088874 482.05041,32.969094 499.7855,50.663717 509.97668,72.361304 511.65552,96 c 2.38262,33.54836 -16.19756,70.29703 -44.89677,88.79875 l -5.74126,3.70125 -0.009,17.62868 -0.009,17.62868 2.97488,1.23223 c 4.86762,2.01624 10.73611,9.20843 12.51965,15.34361 1.36236,4.68634 1.5521,11.08157 1.30029,43.8269 -0.28717,37.34478 -0.35213,38.44705 -2.50301,42.46811 C 472.93166,331.0405 464.61136,339 462.35921,339 461.32631,339 461,340.93004 461,347.03941 461,372.55597 454.78576,399.44782 443.79344,421.5 418.78076,471.67906 371.67061,504.51795 315.45948,510.95723 309.7585,511.61031 260.49289,511.95766 180,511.9123 75.486331,511.85339 52.370268,511.59749 47,510.43992 Z m 124,-38.01684 0,-22.57693 3.04006,-3.04006 c 2.54425,-2.54424 3.56359,-2.93895 6.25,-2.42007 6.46748,1.2492 6.70994,2.25291 6.70994,27.77691 v 22.94135 l 66.75,-0.37387 c 63.80262,-0.35737 67.13104,-0.46697 75.37957,-2.48226 43.71322,-10.68007 78.71853,-37.4677 98.2037,-75.14986 10.57221,-20.4455 15.37338,-38.59903 16.35737,-61.84829 L 444.29376,341 h -43.00327 -43.00326 l -0.52331,10.25347 c -1.12517,22.04606 -10.87511,38.37698 -29.7837,49.88703 C 318.81774,406.71789 308.85877,409 293.6819,409 H 281 v 14.36514 c 0,13.01863 -0.19427,14.61212 -2.07258,17 -2.78368,3.53887 -8.03183,3.62136 -11.47287,0.18031 C 265.0734,438.16431 265,437.65579 265,423.53987 V 408.98883 L 179.25,409.24442 93.5,409.5 93,441.83167 c -0.47225,30.53727 -0.607733,32.41039 -2.44113,33.75 -2.736314,1.99935 -7.913746,1.76111 -10.698086,-0.49226 L 77.5,473.17883 77.210153,441.08941 76.920306,409 h -9.823663 c -17.814324,0 -27.233624,3.17368 -36.963256,12.45418 -9.604196,9.16085 -13.684118,19.83146 -12.94764,33.86318 0.930733,17.73278 12.806103,32.72886 30.314253,38.28049 3.035021,0.96237 18.414377,1.2845 63.75,1.33525 L 171,495 Z M 458.58707,321.69424 461,318.88847 V 281.39878 243.90909 L 458.54545,241.45455 456.09091,239 H 401 345.90909 l -2.45454,2.45455 L 341,243.90909 v 37.1112 c 0,23.43521 0.37778,37.81708 1.02514,39.02669 2.62739,4.90931 2.7185,4.91638 60.31193,4.67689 L 456.17415,324.5 Z M 444,209.38337 c 0,-12.61374 -5.2e-4,-12.61648 -2.25,-11.95347 -19.85774,5.85282 -20.50701,5.94764 -40.75,5.95069 -20.63633,0.003 -18.51377,0.31446 -40.75,-5.97722 -2.24808,-0.63609 -2.25,-0.62588 -2.25,11.98 V 222 h 43 43 z m -18,-24.39856 c 10.35268,-2.65467 25.05175,-9.41901 33.37675,-15.35961 8.26238,-5.89591 18.24389,-16.63761 23.88912,-25.7085 12.97764,-20.85278 15.37492,-48.419031 6.18998,-71.178374 C 481.77567,53.707632 463.34494,34.925452 443.53739,25.944281 430.45563,20.01273 420.75428,17.835634 405,17.296046 393.03626,16.886284 388.83831,17.145727 381,18.7793 c -20.44937,4.261829 -37.29613,13.481592 -51.17142,28.004699 -9.04624,9.468587 -14.66229,18.724668 -19.0307,31.365407 -3.05352,8.835896 -3.23323,10.148739 -3.26464,23.850594 -0.0286,12.47911 0.29345,15.54037 2.31077,21.96476 10.27702,32.72824 37.24229,55.71238 73.46185,62.61601 10.4695,1.99554 31.79714,1.19828 42.69414,-1.59596 z m -33.75559,-24.09429 c -6.40491,-1.06718 -16.59213,-5.58756 -20.99441,-9.31587 -3.6579,-3.09789 -4.34997,-7.55921 -1.74876,-11.27296 2.72729,-3.89375 6.46437,-3.79062 14.49251,0.39994 7.02677,3.66786 7.62435,3.79837 17.39153,3.79837 9.81534,0 10.31553,-0.111 16.89914,-3.75 3.73144,-2.0625 7.42276,-3.75 8.20295,-3.75 2.9132,0 6.41464,2.34922 7.53583,5.056 2.29344,5.53687 -0.77297,9.40363 -11.5232,14.53082 -6.55978,3.1286 -16.80871,5.53766 -22.5,5.28872 -1.375,-0.0601 -4.86502,-0.5034 -7.75559,-0.98502 z m -64.78986,-44.34507 c -2.79761,-2.7976 -3.19773,-7.29807 -1.23843,-13.92943 1.62291,-5.492837 9.90706,-13.776994 15.3999,-15.399904 16.10386,-4.758035 31.42659,5.107528 33.09891,21.310794 0.49018,4.74932 0.27774,5.57133 -2.03841,7.88748 -5.29849,5.29849 -12.70611,2.05566 -14.01597,-6.13576 C 357.88223,105.4113 354.22629,102 349.78822,102 346.27622,102 341,106.78663 341,109.97274 c 0,2.89781 -2.56794,7.64749 -4.5448,8.40608 -3.25081,1.24745 -6.60257,0.56472 -9.00065,-1.83337 z m 102.74612,0.42687 c -2.99749,-2.79258 -3.72754,-6.5317 -2.32604,-11.91327 4.76579,-18.300025 26.67362,-25.130952 40.77891,-12.714983 5.65257,4.975587 8.29542,10.478563 8.3245,17.333353 0.0187,4.41603 -0.36552,5.48221 -2.6129,7.25 C 468.52489,121.52136 461,117.42661 461,109.65464 c 0,-1.53815 -1.16605,-3.45802 -3.07673,-5.06575 -4.94794,-4.16341 -10.53886,-3.16673 -13.41292,2.39109 -0.83069,1.60639 -1.51035,3.8635 -1.51035,5.01581 0,3.05012 -4.38414,7.00421 -7.76598,7.00421 -1.5713,0 -3.8363,-0.91245 -5.03335,-2.02768 z"
     id="path1" />
</svg>
