<?xml version="1.0" encoding="UTF-8" standalone="no"?>
<!-- Created with Inkscape (http://www.inkscape.org/) -->

<svg
   version="1.1"
   id="svg1"
   width="512"
   height="512"
   viewBox="0 0 512 512"
   sodipodi:docname="worm-filled.svg"
   inkscape:version="1.3 (0e150ed6c4, 2023-07-21)"
   xmlns:inkscape="http://www.inkscape.org/namespaces/inkscape"
   xmlns:sodipodi="http://sodipodi.sourceforge.net/DTD/sodipodi-0.dtd"
   xmlns="http://www.w3.org/2000/svg"
   xmlns:svg="http://www.w3.org/2000/svg">
  <defs
     id="defs1" />
  <sodipodi:namedview
     id="namedview1"
     pagecolor="#ffffff"
     bordercolor="#000000"
     borderopacity="0.25"
     inkscape:showpageshadow="2"
     inkscape:pageopacity="0.0"
     inkscape:pagecheckerboard="0"
     inkscape:deskcolor="#d1d1d1"
     inkscape:zoom="0.96122328"
     inkscape:cx="242.39946"
     inkscape:cy="326.14691"
     inkscape:window-width="1350"
     inkscape:window-height="1237"
     inkscape:window-x="966"
     inkscape:window-y="57"
     inkscape:window-maximized="0"
     inkscape:current-layer="svg1" />
  <path
     style="fill:#aad400;fill-opacity:1;stroke:none;stroke-width:1.04034"
     d="m 57.218756,493.68882 c -9.177857,-0.5367 -11.818171,-1.10409 -16.521335,-3.55035 -21.632299,-11.2516 -29.662373,-39.88361 -16.776952,-59.81986 9.442258,-14.60901 22.794622,-20.91368 44.340545,-20.93656 l 7.401065,-0.008 0.661578,4.82673 c 0.363868,2.65471 0.661578,17.14092 0.661578,32.19159 0,27.0987 0.02249,27.38059 2.312164,28.98434 3.019865,2.11519 10.541422,2.12084 12.293902,0.009 0.997932,-1.20243 1.460841,-9.59301 1.827731,-33.12903 l 0.491329,-31.51877 23.435969,-0.68205 c 12.88978,-0.37513 51.17054,-0.68205 85.06836,-0.68205 h 61.6324 l 0.35984,14.65596 c 0.35796,14.5788 0.37522,14.66917 3.2788,17.16562 3.66863,3.15423 7.09944,3.18849 10.68226,0.10668 2.73147,-2.34952 2.80544,-2.73146 3.32454,-17.16562 l 0.5309,-14.76264 11.03816,-0.0181 c 20.95069,-0.0343 33.61909,-4.61275 46.42717,-16.77917 11.93894,-11.34082 16.96915,-22.84111 18.70419,-42.76229 l 0.70222,-8.06264 h 42.30547 42.30546 l -0.70649,13.46499 c -0.84382,16.08233 -2.89659,27.7353 -6.98242,39.63725 -13.3332,38.83935 -39.65589,68.42464 -76.33999,85.80205 -11.52242,5.45823 -26.55429,10.5062 -35.41491,11.89296 -3.54096,0.55419 -35.7893,1.33404 -71.66298,1.73302 l -65.22486,0.72538 -0.31662,-23.66408 c -0.31359,-23.43764 -0.34012,-23.68309 -2.77263,-25.65112 -3.5367,-2.86134 -7.57157,-2.51594 -10.87378,0.93084 l -2.79549,2.91786 v 22.57049 22.57049 l -51.2368,-0.17726 c -28.180236,-0.0975 -56.152405,-0.46472 -62.160374,-0.81607 z"
     id="path2" />
  <path
     style="fill:#aad400;fill-opacity:1;stroke:none;stroke-width:1.04034"
     d="m 346.80456,322.93105 c -1.7986,-0.52113 -3.62405,-1.76633 -4.05654,-2.76711 -0.4325,-1.00077 -1.00664,-18.34918 -1.27586,-38.55201 l -0.48951,-36.73243 2.38663,-2.54045 2.38663,-2.54045 h 55.29555 55.29555 l 2.26203,2.40782 c 2.23448,2.3785 2.26203,2.85601 2.26203,39.21595 v 36.80813 l -2.79549,2.91786 -2.79549,2.91786 -52.60267,-0.0938 c -28.93147,-0.0516 -54.07425,-0.52021 -55.87286,-1.04135 z"
     id="path3" />
  <path
     style="fill:#aad400;fill-opacity:1;stroke:none;stroke-width:1.04034"
     d="m 376.08328,184.24957 c -28.31679,-7.57614 -49.99059,-25.17972 -61.39669,-49.86673 -5.01962,-10.86431 -6.71228,-19.03074 -6.73027,-32.47093 -0.0191,-14.231775 1.54958,-20.709063 8.38229,-34.612472 4.53895,-9.236005 6.59813,-12.064381 14.82217,-20.358962 14.33688,-14.459856 27.19642,-21.858217 46.54634,-26.779069 10.95802,-2.78672 32.52246,-2.964789 45.25883,-0.373726 9.10804,1.852923 21.42538,6.785006 30.26596,12.119036 9.00971,5.436081 21.5356,17.748849 28.20785,27.727928 8.43896,12.621371 11.79242,23.053484 12.43312,38.677581 1.02414,24.974614 -6.07479,42.631194 -24.68847,61.405584 -9.12933,9.20815 -10.89527,10.4719 -22.8875,16.37873 -17.79872,8.76684 -21.92516,9.74611 -43.16477,10.24376 -16.16306,0.37869 -18.49195,0.19868 -27.04886,-2.09073 z m 37.91805,-24.21649 c 7.6187,-2.09546 17.2165,-7.04389 19.22567,-9.91238 2.58509,-3.69075 2.09452,-8.64245 -1.10561,-11.15967 -3.78078,-2.97396 -6.30454,-2.7256 -15.0906,1.48501 -6.70483,3.21319 -8.56423,3.64119 -15.81904,3.64119 -7.16595,0 -9.25622,-0.46735 -16.28558,-3.64119 -4.43543,-2.00266 -8.95469,-3.6412 -10.04278,-3.6412 -3.10572,0 -6.37504,2.83731 -7.10645,6.1674 -1.19264,5.43009 1.6388,8.87055 11.16816,13.57035 12.57776,6.20324 21.84004,7.12547 35.05623,3.49049 z m -74.92567,-43.65519 c 1.18591,-1.50763 2.15619,-3.78004 2.15619,-5.04979 0,-2.90151 4.19997,-7.52311 7.6159,-8.38045 3.88613,-0.97536 7.75855,2.07642 9.11301,7.18179 2.35962,8.89414 9.58483,11.89999 15.17265,6.31217 2.41733,-2.41733 2.60944,-3.18998 1.97754,-7.95348 -2.17321,-16.382473 -15.63317,-25.424893 -32.75003,-22.001521 -4.34656,0.869312 -13.4384,9.143159 -15.82837,14.404291 -4.31666,9.50241 -1.26422,18.22815 6.37657,18.22815 3.09333,0 4.5034,-0.62681 6.16654,-2.74116 z m 101.73526,0.40039 c 1.18235,-1.28742 2.4634,-3.82528 2.84681,-5.63967 0.80635,-3.81594 4.9095,-8.66502 7.33209,-8.66502 4.68576,0 9.88125,4.8133 9.88125,9.15438 0,1.10482 0.97028,3.24229 2.15619,4.74992 2.6898,3.41953 7.81981,3.67496 11.74811,0.58497 2.27121,-1.78654 2.74115,-3 2.74115,-7.07813 0,-9.38376 -6.55036,-18.562472 -16.09227,-22.549341 -4.7265,-1.974857 -14.18989,-1.922215 -19.05265,0.105981 -10.80701,4.50747 -18.56959,19.2043 -14.40104,27.26539 1.85701,3.59104 2.93325,4.21317 7.4909,4.33015 2.064,0.053 3.96279,-0.74872 5.34946,-2.25863 z"
     id="path4" />
  <path
     style="fill:#aad400;fill-opacity:1;stroke:none;stroke-width:1.04034"
     d="m 358.91765,209.62871 c 0,-6.34224 0.4303,-11.44375 0.96527,-11.44375 0.53089,0 5.32947,1.16921 10.66349,2.59823 8.81223,2.36086 11.59908,2.59823 30.50505,2.59823 18.90597,0 21.69282,-0.23737 30.50505,-2.59823 5.33402,-1.42902 10.1326,-2.59823 10.66349,-2.59823 0.53496,0 0.96527,5.10151 0.96527,11.44375 v 11.44375 h -42.13381 -42.13381 z"
     id="path5" />
</svg>
